<svg xmlns="http://www.w3.org/2000/svg" xmlns:xlink="http://www.w3.org/1999/xlink" viewBox="0 0 146.57 146.57"><defs><style>.cls-1{fill:url(#linear-gradient);}.cls-2{fill:url(#linear-gradient-2);}.cls-3{fill:url(#linear-gradient-3);}</style><linearGradient id="linear-gradient" x1="119.47" y1="153.29" x2="27.1" y2="-6.71" gradientUnits="userSpaceOnUse"><stop offset="0.03" stop-color="#8175fe"/><stop offset="1" stop-color="#ebc2ff"/></linearGradient><linearGradient id="linear-gradient-2" x1="38.59" y1="81.4" x2="108.18" y2="81.4" gradientTransform="translate(-2.6 2.78) rotate(-2.09)" gradientUnits="userSpaceOnUse"><stop offset="0.03" stop-color="#1e75fe"/><stop offset="0.25" stop-color="#1e3cfe"/><stop offset="1" stop-color="#eb2ae5"/></linearGradient><linearGradient id="linear-gradient-3" x1="28.46" y1="29.5" x2="45.72" y2="29.5" gradientUnits="userSpaceOnUse"><stop offset="0.03" stop-color="#1e75fe"/><stop offset="1" stop-color="#1e3cfe"/></linearGradient></defs><title>appicon</title><g id="Layer_2" data-name="Layer 2"><g id="w"><rect class="cls-1" width="146.57" height="146.57" rx="21.09"/><path class="cls-2" d="M116.7,52.14a9.67,9.67,0,0,0-17.77-4.89c-4.57,6.88,5.94,75.68-10.4,43.29-5.6-13.19-1.35-52.88-20.54-45-8.23,4.18-4.9,28.86-4.67,35.09,2.18,17.07-11.49,26.93-15.18,11.47-2.38-10,1.26-50.43-11.35-46.64-9,0-4,48.15-4.54,50.87,2.68,28.86,31.49,26.74,40.51,4,6.88,17,26.83,24.48,37.68,10.73C121.75,95.23,116.62,61.4,116.7,52.14Z"/><path class="cls-3" d="M43.2,23.48l-.2-.17a8.57,8.57,0,0,0-5.58-2.47,8.76,8.76,0,0,0-8.67,6.32A8.94,8.94,0,0,0,33,37.09,8.59,8.59,0,0,0,43.2,23.48Z"/></g></g></svg>