<svg xmlns="http://www.w3.org/2000/svg" viewBox="0 0 204.79 64.38"><defs><style>.cls-1{fill:#a6a6a6;}.cls-2{fill:#fff;}</style></defs><title>appstore2</title><g id="Layer_2" data-name="Layer 2"><g id="Layer_3" data-name="Layer 3"><path id="Path_68" data-name="Path 68" d="M13.29,0H191.54c7.31,0,13.25,2,13.25,14.06V50.32c0,13-5.94,14.06-13.25,14.06H13.29C6,64.38.73,62.11.73,54.35v-46C.73.62,6,0,13.29,0Z"/><path id="Path_51" data-name="Path 51" class="cls-1" d="M197.2,1.29a6.58,6.58,0,0,1,6.37,6.76V56.32a6.58,6.58,0,0,1-6.37,6.76H7.59a6.56,6.56,0,0,1-6.37-6.76V8.05A6.56,6.56,0,0,1,7.59,1.29H197.2m0-1.29H7.59A7.85,7.85,0,0,0,0,8.05V56.32a7.85,7.85,0,0,0,7.59,8.05H197.2a7.85,7.85,0,0,0,7.59-8.05V8.05A7.85,7.85,0,0,0,197.2,0Z"/><g id="App_store" data-name="App store"><g id="Layer_1-2" data-name="Layer 1"><path id="Path_28" data-name="Path 28" class="cls-2" d="M41.81,32a8.89,8.89,0,0,1,4.24-7.43,9,9,0,0,0-7.14-3.86c-3-.32-5.93,1.8-7.44,1.8s-3.92-1.76-6.46-1.7a9.52,9.52,0,0,0-8,4.88c-3.46,6-.85,14.79,2.43,19.64,1.67,2.33,3.58,5,6.12,4.88S29,48.59,32,48.59s3.84,1.59,6.42,1.59,4.34-2.38,5.94-4.78A20.05,20.05,0,0,0,47,39.87,8.59,8.59,0,0,1,41.81,32Z"/><path id="Path_29" data-name="Path 29" class="cls-2" d="M36.93,16.21a8.67,8.67,0,0,0,2-6.24,8.88,8.88,0,0,0-5.74,3,8.3,8.3,0,0,0-2,6A7.31,7.31,0,0,0,36.93,16.21Z"/><path id="Path_30" data-name="Path 30" class="cls-2" d="M77.74,50.13H74.27L72.36,44.2h-6.6L64,50.13h-3.4l6.55-20.34h4ZM71.8,41.65l-1.7-5.3c-.17-.55-.52-1.83-1-3.83H69c-.2.84-.52,2.14-1,3.83l-1.7,5.3Z"/><path id="Path_31" data-name="Path 31" class="cls-2" d="M94.57,43.6a8.37,8.37,0,0,1-2,5.94,6,6,0,0,1-4.46,1.88,4.51,4.51,0,0,1-4.16-2.08h-.08v7.72H80.59V41.25c0-1.57,0-3.18-.12-4.83h2.86l.18,2.33h.06a5.8,5.8,0,0,1,8-1.7,5.9,5.9,0,0,1,1.27,1.12A8.12,8.12,0,0,1,94.57,43.6Zm-3.33.12a6,6,0,0,0-1-3.52,3.31,3.31,0,0,0-2.83-1.45,3.38,3.38,0,0,0-2.19.8A3.72,3.72,0,0,0,84,41.65a4.09,4.09,0,0,0-.15,1v2.44a3.93,3.93,0,0,0,1,2.7,3.25,3.25,0,0,0,2.54,1.1,3.32,3.32,0,0,0,2.87-1.42,6.29,6.29,0,0,0,1-3.74Z"/><path id="Path_32" data-name="Path 32" class="cls-2" d="M111.42,43.6a8.32,8.32,0,0,1-2,5.94,5.93,5.93,0,0,1-4.49,1.93,4.47,4.47,0,0,1-4.16-2.09h-.06v7.73H97.41V41.25c0-1.57,0-3.18-.13-4.83h2.87l.18,2.33h.06a5.78,5.78,0,0,1,8-1.69,5.35,5.35,0,0,1,1.26,1.11,8.1,8.1,0,0,1,1.76,5.43Zm-3.32.12a5.93,5.93,0,0,0-1-3.52,3.31,3.31,0,0,0-2.83-1.45,3.38,3.38,0,0,0-2.19.8,3.72,3.72,0,0,0-1.28,2.1,4.09,4.09,0,0,0-.15,1v2.44a3.93,3.93,0,0,0,1,2.7,3.27,3.27,0,0,0,2.54,1.1,3.34,3.34,0,0,0,2.86-1.42,6.24,6.24,0,0,0,1-3.74Z"/><path id="Path_33" data-name="Path 33" class="cls-2" d="M130.27,44.44a5.41,5.41,0,0,1-1.81,4.24,8,8,0,0,1-5.53,1.78,9.86,9.86,0,0,1-5.28-1.27l.76-2.71a8.93,8.93,0,0,0,4.7,1.3,4.42,4.42,0,0,0,2.87-.85,2.71,2.71,0,0,0,1-2.22,2.84,2.84,0,0,0-.85-2.09,8,8,0,0,0-2.81-1.57q-5.34-2-5.34-5.83a5.21,5.21,0,0,1,1.88-4.11,7.4,7.4,0,0,1,5-1.6,9.83,9.83,0,0,1,4.62,1l-.85,2.65a7.9,7.9,0,0,0-3.89-.93,3.88,3.88,0,0,0-2.68.84,2.41,2.41,0,0,0-.85,1.84,2.48,2.48,0,0,0,.93,2,10.74,10.74,0,0,0,3,1.57A10.14,10.14,0,0,1,129,40.91,5.2,5.2,0,0,1,130.27,44.44Z"/><path id="Path_34" data-name="Path 34" class="cls-2" d="M141,38h-3.59v7.11c0,1.81.63,2.72,1.89,2.72a5.86,5.86,0,0,0,1.45-.15l.1,2.47a7.33,7.33,0,0,1-2.55.36,4,4,0,0,1-3-1.17,5.81,5.81,0,0,1-1.09-4V38H132.1V35.54h2.14V32.85l3.2-1V35.5H141Z"/><path id="Path_35" data-name="Path 35" class="cls-2" d="M157.23,42.81a8,8,0,0,1-1.93,5.55,6.89,6.89,0,0,1-5.33,2.2,6.54,6.54,0,0,1-5.14-2.14,7.74,7.74,0,0,1-1.91-5.4,8,8,0,0,1,2-5.56,6.86,6.86,0,0,1,5.29-2.15,6.69,6.69,0,0,1,5.19,2.14A7.72,7.72,0,0,1,157.23,42.81Zm-3.39.11a6.55,6.55,0,0,0-.85-3.49,3.18,3.18,0,0,0-2.92-1.75,3.27,3.27,0,0,0-3,1.75,6.77,6.77,0,0,0-.86,3.55,6.63,6.63,0,0,0,.85,3.48,3.29,3.29,0,0,0,3,1.75A3.24,3.24,0,0,0,153,46.42a6.63,6.63,0,0,0,.88-3.48Z"/><path id="Path_36" data-name="Path 36" class="cls-2" d="M167.82,38.45a5.89,5.89,0,0,0-1-.09,3.08,3.08,0,0,0-2.66,1.3,4.91,4.91,0,0,0-.85,2.9v7.69H160v-10c0-1.7,0-3.23-.13-4.61h2.84l.12,2.8H163a5,5,0,0,1,1.63-2.32,4,4,0,0,1,2.42-.78,6,6,0,0,1,.85.06Z"/><path id="Path_37" data-name="Path 37" class="cls-2" d="M182.39,42.23a9.14,9.14,0,0,1-.12,1.48h-9.78A4.23,4.23,0,0,0,173.9,47a4.82,4.82,0,0,0,3.19,1,10.65,10.65,0,0,0,3.95-.7l.52,2.26a12.21,12.21,0,0,1-4.92.91,7.12,7.12,0,0,1-5.36-2,7.41,7.41,0,0,1-1.94-5.38,8.45,8.45,0,0,1,1.81-5.49,6.25,6.25,0,0,1,5.14-2.3,5.46,5.46,0,0,1,4.8,2.34,8,8,0,0,1,1.3,4.58Zm-3.11-.85a4.44,4.44,0,0,0-.63-2.54,2.85,2.85,0,0,0-2.59-1.36,3.09,3.09,0,0,0-2.6,1.33,4.79,4.79,0,0,0-1,2.54Z"/><path id="Path_38" data-name="Path 38" class="cls-2" d="M70.72,15.83a5,5,0,0,1-1.62,4.06,6.39,6.39,0,0,1-4.24,1.26A18.56,18.56,0,0,1,62.51,21V11.21A16,16,0,0,1,65.27,11a5.94,5.94,0,0,1,4,1.14A4.61,4.61,0,0,1,70.72,15.83Zm-1.7,0a3.64,3.64,0,0,0-.93-2.67,3.63,3.63,0,0,0-2.7-.94,7.92,7.92,0,0,0-1.29.1v7.47a7.8,7.8,0,0,0,1.08,0,3.76,3.76,0,0,0,2.84-1,4.07,4.07,0,0,0,1-2.94Z"/><path id="Path_39" data-name="Path 39" class="cls-2" d="M79.66,17.53a3.93,3.93,0,0,1-.9,2.75,3.42,3.42,0,0,1-2.64,1.09,3.22,3.22,0,0,1-2.54-1.05,3.79,3.79,0,0,1-.94-2.65,3.91,3.91,0,0,1,1-2.74,3.42,3.42,0,0,1,2.6-1.09,3.32,3.32,0,0,1,2.55,1.05A3.79,3.79,0,0,1,79.66,17.53Zm-1.7,0a3.18,3.18,0,0,0-.42-1.7,1.67,1.67,0,0,0-2.91,0,3.3,3.3,0,0,0-.42,1.74,3.28,3.28,0,0,0,.42,1.7,1.64,1.64,0,0,0,2.89,0A3.26,3.26,0,0,0,78,17.58Z"/><path id="Path_40" data-name="Path 40" class="cls-2" d="M91.67,14l-2.26,7.2H88L87,18.06a23.09,23.09,0,0,1-.57-2.32h0a16.74,16.74,0,0,1-.58,2.32l-1,3.13H83.39L81.27,14h1.64l.84,3.39c.2.81.36,1.58.49,2.31h0c.12-.6.31-1.37.59-2.3l1-3.44h1.3l1,3.39c.23.85.43,1.61.57,2.37h0c.13-.8.29-1.59.49-2.37L90.09,14Z"/><path id="Path_41" data-name="Path 41" class="cls-2" d="M100,21.19h-1.6V17.06c0-1.26-.48-1.9-1.45-1.9a1.41,1.41,0,0,0-1.16.52,1.84,1.84,0,0,0-.44,1.23v4.24H93.7V16c0-.62,0-1.31-.06-2.06h1.41l.07,1.13h0a2.39,2.39,0,0,1,.85-.85,2.77,2.77,0,0,1,1.45-.41,2.34,2.34,0,0,1,1.7.66,3.19,3.19,0,0,1,.8,2.38Z"/><path id="Path_42" data-name="Path 42" class="cls-2" d="M104.37,21h-1.59V10.54h1.59Z"/><path id="Path_43" data-name="Path 43" class="cls-2" d="M113.8,17.53a3.91,3.91,0,0,1-1,2.75,3.4,3.4,0,0,1-2.63,1.09,3.23,3.23,0,0,1-2.55-1.05,3.84,3.84,0,0,1-.94-2.67,3.88,3.88,0,0,1,1-2.74,3.37,3.37,0,0,1,2.61-1.07,3.29,3.29,0,0,1,2.54,1.05A3.77,3.77,0,0,1,113.8,17.53Zm-1.7,0a3.17,3.17,0,0,0-.43-1.7,1.59,1.59,0,0,0-1.43-.85,1.61,1.61,0,0,0-1.47.85,3.31,3.31,0,0,0-.43,1.74,3.19,3.19,0,0,0,.43,1.7,1.64,1.64,0,0,0,2.89,0,3.36,3.36,0,0,0,.48-1.74Z"/><path id="Path_44" data-name="Path 44" class="cls-2" d="M121.55,21.19h-1.44l-.12-.85h0a2.47,2.47,0,0,1-2.1,1,2.19,2.19,0,0,1-1.64-.65,2,2,0,0,1-.57-1.47,2.26,2.26,0,0,1,1.11-2,5.75,5.75,0,0,1,3.1-.67v-.14c0-.95-.5-1.41-1.49-1.41a3.33,3.33,0,0,0-1.89.52l-.32-1.05a4.66,4.66,0,0,1,2.47-.62c1.88,0,2.83,1,2.83,3v2.65a12.65,12.65,0,0,0,.06,1.74Zm-1.7-2.48V17.6c-1.76,0-2.65.46-2.65,1.45a1.06,1.06,0,0,0,.31.85,1.14,1.14,0,0,0,.78.28,1.65,1.65,0,0,0,1-.33,1.46,1.46,0,0,0,.56-.85,1.36,1.36,0,0,0,.06-.29Z"/><path id="Path_45" data-name="Path 45" class="cls-2" d="M130.65,21h-1.43l-.07-1.16h-.05a2.37,2.37,0,0,1-2.3,1.32,2.68,2.68,0,0,1-2.17-1,4,4,0,0,1-.85-2.65,4.17,4.17,0,0,1,.93-2.83,2.89,2.89,0,0,1,2.22-1,2.19,2.19,0,0,1,2,1h0V10.54h1.6V19.1C130.59,19.81,130.6,20.45,130.65,21ZM129,18v-1.2a2.73,2.73,0,0,0,0-.5,1.82,1.82,0,0,0-.57-1,1.58,1.58,0,0,0-1.08-.39,1.72,1.72,0,0,0-1.41.72,3.14,3.14,0,0,0-.51,1.82,2.8,2.8,0,0,0,.5,1.7,1.62,1.62,0,0,0,1.4.71,1.51,1.51,0,0,0,1.26-.59A2,2,0,0,0,129,18Z"/><path id="Path_46" data-name="Path 46" class="cls-2" d="M144.34,17.53a4,4,0,0,1-1,2.75,3.42,3.42,0,0,1-2.64,1.09,3.22,3.22,0,0,1-2.54-1.05,3.86,3.86,0,0,1-1-2.67,3.94,3.94,0,0,1,1-2.74,3.39,3.39,0,0,1,2.62-1.07,3.29,3.29,0,0,1,2.54,1.05,3.78,3.78,0,0,1,1,2.64Zm-1.7,0a3.36,3.36,0,0,0-.43-1.7,1.6,1.6,0,0,0-1.44-.85,1.59,1.59,0,0,0-1.46.85,3.23,3.23,0,0,0-.44,1.74,3.3,3.3,0,0,0,.44,1.7,1.63,1.63,0,0,0,2.21.68,1.71,1.71,0,0,0,.68-.68,3.25,3.25,0,0,0,.47-1.74Z"/><path id="Path_47" data-name="Path 47" class="cls-2" d="M152.94,21.19h-1.6V17.06c0-1.26-.48-1.9-1.45-1.9a1.42,1.42,0,0,0-1.15.52,1.88,1.88,0,0,0-.47,1.2v4.24h-1.6V16c0-.62,0-1.31,0-2.06H148l.08,1.13h.05a2.24,2.24,0,0,1,.85-.85,2.64,2.64,0,0,1,1.45-.4,2.27,2.27,0,0,1,1.7.65,3.12,3.12,0,0,1,.85,2.38Z"/><path id="Path_48" data-name="Path 48" class="cls-2" d="M163.72,15.11H162v3.5c0,.89.32,1.33.94,1.33a2.85,2.85,0,0,0,.71-.07v1.21a3.79,3.79,0,0,1-1.25.18,1.89,1.89,0,0,1-1.47-.58,2.76,2.76,0,0,1-.54-1.94V15.11h-1.05v-1.2h1.06V12.57l1.57-.48v1.79h1.76Z"/><path id="Path_49" data-name="Path 49" class="cls-2" d="M172.18,21h-1.59V17c0-1.29-.48-1.93-1.46-1.93a1.51,1.51,0,0,0-1.52,1.11,2.3,2.3,0,0,0-.07.58V21h-1.6V10.54h1.6v4.34h0a2.44,2.44,0,0,1,2.16-1.19,2.25,2.25,0,0,1,1.65.65,3.3,3.3,0,0,1,.84,2.42Z"/><path id="Path_50" data-name="Path 50" class="cls-2" d="M180.93,17.25a4.37,4.37,0,0,1-.06.72h-4.8a2.1,2.1,0,0,0,.7,1.63,2.36,2.36,0,0,0,1.57.5,5.09,5.09,0,0,0,1.94-.34l.25,1.11a5.88,5.88,0,0,1-2.42.45,3.42,3.42,0,0,1-2.62-1,3.61,3.61,0,0,1-.94-2.6A4.13,4.13,0,0,1,175.4,15a3.09,3.09,0,0,1,2.54-1.16A2.67,2.67,0,0,1,180.29,15a3.8,3.8,0,0,1,.64,2.27Zm-1.53-.42a2.13,2.13,0,0,0-.31-1.23,1.39,1.39,0,0,0-1.27-.67,1.55,1.55,0,0,0-1.28.65,2.49,2.49,0,0,0-.47,1.25Z"/></g></g></g></g></svg>