<?xml version="1.0" encoding="utf-8"?>
<!-- Generator: Adobe Illustrator 24.0.0, SVG Export Plug-In . SVG Version: 6.00 Build 0)  -->
<svg version="1.1" id="Layer_1" xmlns="http://www.w3.org/2000/svg" xmlns:xlink="http://www.w3.org/1999/xlink" x="0px" y="0px"
	 viewBox="0 0 18 59.9" style="enable-background:new 0 0 18 59.9;" xml:space="preserve">
<style type="text/css">
	.st0{fill:#FF80EE;}
</style>
<title>excmark</title>
<g id="Layer_2_1_">
	<g id="Layer_6">
		<path class="st0" d="M18,55.2c0-0.8-0.3-1.6-0.8-2.2c-0.2-0.8-0.6-1.5-1.1-2.1c-1-1.1-2.4-1.7-3.8-1.7c-1.5,0-2.9,0.6-4,1.6
			c-2.1,2.1-2.2,5.6-0.1,7.7c0.3,0.3,0.6,0.5,0.9,0.7c1.5,0.9,3.3,0.9,4.9,0.1c0,0,0,0,0,0c0.1,0,0.2-0.1,0.2-0.1
			c0.4,0,0.8,0,1.2-0.1l0.5-0.2c0.3-0.1,0.5-0.3,0.6-0.6c0.1-0.2,0.2-0.3,0.3-0.5C17.6,57.2,18.1,56.2,18,55.2z"/>
		<path class="st0" d="M16.9,41L14.2,7.1c-0.3-3.7-3-7.3-7.1-7.1C3.5,0.2-0.3,3.1,0,7.1L2.7,41c0.3,3.7,3,7.3,7.1,7.1
			C13.4,48,17.2,45,16.9,41z"/>
	</g>
</g>
</svg>
