<svg xmlns="http://www.w3.org/2000/svg" viewBox="0 0 550.12 310.52"><defs><style>.cls-1{fill:#ffba53;}.cls-2{fill:#ba53ff;}.cls-3{fill:#5398ff;}.cls-4{fill:#000006;}</style></defs><title>friends</title><g id="Layer_2" data-name="Layer 2"><g id="Layer_6" data-name="Layer 6"><path class="cls-1" d="M474.19,174.68,490,226.11s43.54-3.43,51.43-1.72c0,0,3.43-60-26.06-105.25,0,0-20.23-26.75-73-30.18,0,0-8.57-1-2.4,19.55l-.17,3.32s-10.15-5.53-12.08,2.83-15.77,40.65-19.63,43.9-34.2-32.91-34.2-32.91-17,12.94-24.94.86l-1.46-18.6-10.8,1.45s-12.86,3.18-25.2,32.23-20.83,54.52-20.83,54.52l7,3.94s13.63.69,19,13.11l23.14,12.69,5.4-19.46,21.86,58.12s23.48,0,29.14-4.29l11,3.43,6-2.4,24.34-12.17,9.43-.17,14.23,5,9.43,2.23,6.69,6.34,14.05-12Z"/><path class="cls-2" d="M159.45,125.14s6-12.52,17.83-.86l14.22,11L206.93,149,215,167.48l8.06,36.34-83.49,2.4s-2.06,1.2-4.8,11.83,2.74,37.37,2.74,37.37l-.85,12.52-27.6,5.14s-12.17-3.94-17.32-7.89-11.14-.34-13,2.06a58.39,58.39,0,0,0-4.28,7L62.08,270l-.69-30.68S48,229.19,5.16,239.65L3.1,238.28l-.34-42.17,1.72-37.55s43.88-38.91,58.11-44.22c0,0,4.8,18.68,16.46,25s18,14.58,36.34,8.92,39.77-18.52,41-20.23A12.47,12.47,0,0,1,159.45,125.14Z"/><path d="M360.82,82.08c2.93,0,2.94-4.56,0-4.56s-2.95,4.56,0,4.56Z"/><path d="M344.05,71.14a79.22,79.22,0,0,0-5,12.23,57.53,57.53,0,0,0-2.73,13c-.28,4.1,1.91,7.92,6.16,8.7s7.92-1.66,10.26-5a2.28,2.28,0,0,0-3.94-2.3c-1.34,1.93-3.85,3.75-6.28,2.63-2.62-1.21-1.56-5-1.16-7.18A72,72,0,0,1,348,73.45c1.32-2.62-2.61-4.93-3.95-2.31Z"/><path d="M348.12,112.12a23.93,23.93,0,0,0,16.75-4.51,2.36,2.36,0,0,0,.82-3.13,2.3,2.3,0,0,0-3.12-.82,19.77,19.77,0,0,1-14.45,3.89,2.3,2.3,0,0,0-2.29,2.28,2.35,2.35,0,0,0,2.29,2.29Z"/><path d="M344.36,71.6a52.08,52.08,0,0,1,2.89-26.73,2.29,2.29,0,0,0-1.59-2.81,2.33,2.33,0,0,0-2.81,1.59A56.63,56.63,0,0,0,340,72.82a2.29,2.29,0,0,0,2.8,1.59,2.34,2.34,0,0,0,1.6-2.81Z"/><path d="M352.5,44.76c-3.78-6.75-3.12-15.18.38-21.91,3.8-7.29,10.79-12.2,18.5-14.68A46.61,46.61,0,0,1,385.4,6l-2-3.44-2,3.7a2.31,2.31,0,0,0,2,3.44c10.5-.07,20.49-5.12,31.06-3.66a34.63,34.63,0,0,1,22.15,12.63c6.13,7.72,8,17.92,7.67,27.55-.33,11-3.51,21.69-6.27,32.28s-6.42,23.37-.26,33.56l3.59-2.76c-3.71-4.63-9.9-3.76-15.12-4.3-1.93-.2-4.21-.82-5.41-2.48-.84-1.16-.78-3,.55-3.68,2.61-1.35.3-5.29-2.31-3.95a6.69,6.69,0,0,0-3.26,6.9,8.48,8.48,0,0,0,5.12,6.44c3.06,1.4,6.35,1.4,9.65,1.53,2.78.11,5.7.46,7.55,2.76,1.64,2,4.9-.58,3.58-2.76-5.32-8.81-1.84-20.17.54-29.35,2.86-11,6.14-22.09,6.6-33.55.4-10.14-1.45-20.88-7.4-29.32A39.08,39.08,0,0,0,418.8,2.21,40.53,40.53,0,0,0,402.06,2c-6.21,1.11-12.29,3.07-18.65,3.11l2,3.44,2-3.7a2.31,2.31,0,0,0-2-3.44c-9.39.09-19.12,2.48-26.77,8.11a31.79,31.79,0,0,0-13.17,23.09,25.43,25.43,0,0,0,3.1,14.45c1.44,2.57,5.38.27,3.94-2.3Z"/><path d="M414.5,100.36a27.5,27.5,0,0,0,8.3-11c1.67-4.1,2.1-9.36-.65-13.12-2.32-3.18-6.58-5.34-10.53-4.11a9.41,9.41,0,0,0-4.8,3.79c-1.16,1.65-1.84,3.6-3.06,5.19-.88,1.15-2.52,2.67-4,1.54s-1.86-3.06-2.27-4.62c-1.09-4-1.31-8.23-1.76-12.37-.46-4.32-1.13-8.62-3.05-12.57a20.19,20.19,0,0,0-8.81-9c-10.09-5.32-21.54-2.78-32,0-2.84.76-1.63,5.17,1.21,4.41,8.61-2.31,17.92-4.7,26.59-1.34a16.46,16.46,0,0,1,8.32,6.86c1.92,3.26,2.62,7.1,3.05,10.81.47,4,.69,8.11,1.48,12.1.72,3.66,2,8.25,5.62,10,4.39,2.11,8.42-1.46,10.45-5.11,1.38-2.48,2.86-6.29,6.38-5.38,4.16,1.09,5.1,5.56,4.16,9.26-1.16,4.56-4.32,8.47-7.93,11.36a2.31,2.31,0,0,0,0,3.23,2.33,2.33,0,0,0,3.23,0Z"/><path d="M344.58,107.26a109,109,0,0,0,.87,14.89c.58,4.16,2.18,8.33,6.12,10.37s8.42,1.74,12.44.29c4.56-1.66,8.83-4.21,13.13-6.44l15.62-8.08c2.61-1.35.31-5.29-2.3-3.94-8.13,4.2-16.2,8.54-24.4,12.61-3.19,1.58-6.86,3.09-10.48,2.22s-5-3.71-5.55-7.09a87.52,87.52,0,0,1-.88-14.83c0-2.94-4.56-3-4.57,0Z"/><path d="M425.53,114.36a132.35,132.35,0,0,1-13,35.24c-1.29,2.38-2.52,5.12-4.47,7a3,3,0,0,1-2.27,1.09c-1.17-.12-2.18-1.27-3-2-4.47-4.09-8.93-8.21-13.09-12.63a78.37,78.37,0,0,1-11.93-16,2.31,2.31,0,0,0-4.26,1.16l0,2.35c0,2.94,4.61,2.95,4.56,0l0-2.35-4.26,1.15C380.19,141,390,150.12,399.61,159c2.36,2.15,5.1,4.15,8.45,3,2.72-.92,4.59-3.38,6-5.75a131.16,131.16,0,0,0,9.18-18.7,134.44,134.44,0,0,0,6.68-21.94c.61-2.87-3.79-4.09-4.4-1.21Z"/><path d="M441.65,91.07c23.69,3.12,50.09,6.84,67.36,25.14,7.53,8,12.43,18,16.1,28.27,4.08,11.36,7.2,23.16,10.14,34.86,3.63,14.41,6.23,29.22,4.6,44.11l2.28-2.28a193,193,0,0,0-43.22,2.19c-2.63.44-5.89,1.31-8.37-.08-2.09-1.17-2.93-3.72-3.53-5.89-1.85-6.78-3.15-13.75-4.7-20.61l-5.52-24.34c-.65-2.87-5.05-1.66-4.4,1.21l5.13,22.64c1.65,7.31,3.1,14.71,5,22,.71,2.73,1.78,5.59,3.87,7.58,2.4,2.3,5.67,2.93,8.89,2.64,3.51-.31,7-1.08,10.49-1.54q5.53-.72,11.12-1.11a189.81,189.81,0,0,1,25.24-.08,2.33,2.33,0,0,0,2.28-2.29c1.5-13.63-.51-27.34-3.61-40.61-1.57-6.71-3.41-13.35-5.26-20-1.54-5.53-3.12-11.05-4.95-16.49-3.7-11-8.48-21.71-15.94-30.67-7.64-9.17-18-15.53-29-19.83-14-5.48-29.14-7.41-44-9.36-1.22-.17-2.28,1.16-2.28,2.28a2.34,2.34,0,0,0,2.28,2.28Z"/><path d="M340.48,105.38c-14.58,5.05-24.24,17.94-30.43,31.5-3.5,7.66-6.23,15.65-9.09,23.56l-9.17,25.37c-.87,2.4-1.76,4.8-2.6,7.21-.7,2-.75,4.08.73,5.71a9.64,9.64,0,0,0,3.81,2.16,8.31,8.31,0,0,1,1.38.6l.28.18c.32.17-.24-.17,0,0s-.05-.24,0,0-.05-.22-.05-.24a2.35,2.35,0,0,0,2.28,2.28,2.31,2.31,0,0,0,2.29-2.28c-.3-3-2.61-4.06-5.13-5a6.43,6.43,0,0,1-1.16-.53l-.3-.18s.21.17,0,0-.2-.21-.2-.25a35.51,35.51,0,0,1,1.84-5.21l8.83-24.44c2.8-7.76,5.46-15.61,8.64-23.23,2.88-6.89,6.36-13.72,11.13-19.52s10.85-10.81,18.07-13.3c2.76-1,1.58-5.37-1.21-4.41Z"/><path d="M317.17,215.31l21,12.34a2.31,2.31,0,0,0,3.36-1.37q3.56-14.58,8.07-28.92c.89-2.81-3.52-4-4.4-1.21q-4.51,14.32-8.08,28.92l3.36-1.36-21-12.34c-2.54-1.49-4.84,2.46-2.31,3.94Z"/><path d="M346.25,210.15a307.53,307.53,0,0,0,18.19,54.74,2.31,2.31,0,0,0,3.13.82,2.34,2.34,0,0,0,.81-3.12,302.22,302.22,0,0,1-17.73-53.65c-.66-2.86-5.06-1.65-4.4,1.21Z"/><path d="M485.45,227.74a53,53,0,0,1,3.78,20.4c-.05,2.94,4.52,2.94,4.56,0a56.3,56.3,0,0,0-3.94-21.62,2.35,2.35,0,0,0-2.8-1.59,2.3,2.3,0,0,0-1.6,2.81Z"/><path d="M498.45,241.48a143.74,143.74,0,0,0-22.89,20.28c-2,2.17,1.25,5.41,3.23,3.23a137.93,137.93,0,0,1,22-19.57,2.33,2.33,0,0,0,.82-3.12,2.3,2.3,0,0,0-3.12-.82Z"/><path d="M439.52,256.56a35.11,35.11,0,0,1,20.94,15.52,30,30,0,0,1,4.62,12.12c.11,1,.2,3.44-1.28,2.3a10.46,10.46,0,0,1-2-2.47q-1.35-1.95-2.73-3.85-6-8.26-12.69-16c-1.93-2.22-5.14,1-3.22,3.23q6.76,7.8,12.8,16.19c1.71,2.4,3.31,5.65,6,7.09a5,5,0,0,0,7-2.25c1.14-2.52.64-5.35,0-7.93a38.4,38.4,0,0,0-2.75-7.46,39.87,39.87,0,0,0-9.65-12.52,39.05,39.05,0,0,0-15.84-8.41c-2.85-.72-4.06,3.68-1.22,4.41Z"/><path d="M435.84,250.72a33.55,33.55,0,0,1,21.67,5.12,32.59,32.59,0,0,1,13,16.84,34,34,0,0,1,1.44,5.89,8.47,8.47,0,0,1,.11,2.75,3.45,3.45,0,0,1-.14.45l.06,0c-.35,0-.38,0-.1.06a.54.54,0,0,1,.45.31c-1.64-2.43-5.6-.14-3.94,2.3a4.28,4.28,0,0,0,6,1.16c2.2-1.39,2.51-4.14,2.24-6.51A37.22,37.22,0,0,0,451.76,248a37,37,0,0,0-15.92-1.85,2.35,2.35,0,0,0-2.28,2.28,2.29,2.29,0,0,0,2.28,2.28Z"/><path d="M432.59,267.25a118,118,0,0,1,12.82,17.86c1.79,3.06,3.77,6.48,7.7,6.83,3.38.31,6.85-3,5.5-6.5a2.35,2.35,0,0,0-2.81-1.6,2.31,2.31,0,0,0-1.59,2.81c.12.31.14.6-.37.76-1,.31-2.19-1-2.7-1.65-1.7-2.3-3-5-4.52-7.4A124.5,124.5,0,0,0,435.82,264c-1.94-2.22-5.15,1-3.23,3.23Z"/><path d="M413.21,264.43c1.74-3.62,5.75-5.2,9.2-6.79L437,251a2.31,2.31,0,0,0,.82-3.13,2.34,2.34,0,0,0-3.12-.82q-7.74,3.56-15.46,7.11c-3.9,1.79-8,4-10,8a2.34,2.34,0,0,0,.82,3.13,2.3,2.3,0,0,0,3.12-.82Z"/><path d="M418,268.45c4.71,5,9.39,10,14.11,14.95,1.93,2,4.18,4.12,7,4.6a7.08,7.08,0,0,0,7.34-2.89c1.64-2.45-2.31-4.74-3.94-2.3-.88,1.32-3,.76-4.07.11-2.13-1.25-3.77-3.42-5.45-5.19l-11.8-12.51c-2-2.14-5.24,1.09-3.23,3.23Z"/><path d="M465.64,257.66a30.38,30.38,0,0,1,3,.41,16.41,16.41,0,0,1,1.71.42l.74.25c.42.15-.14-.09.3.13a10.11,10.11,0,0,1,1.21.67s.57.41.29.19l.51.45a3.8,3.8,0,0,1,1.11,1.75c0,.08.16.67.13.46s0,.38,0,.47-.05.69,0,.46-.13.46-.16.55c-.11.4.15-.12-.12.25,0,.06-.41.54-.17.27-.31.35-.65.66-1,1-1.56,1.72-2.5,4.7-.4,6.46a2.34,2.34,0,0,0,3.23,0,2.28,2.28,0,0,0,0-3.22c-.19-.18-.19-.16,0,.06a.57.57,0,0,1,.1.35c0,.19,0,.17,0-.06-.06.3-.06.31,0,0s.08-.24,0-.08-.05.13.06-.07c.34-.34-.11.06.21-.26a9.5,9.5,0,0,0,2-2.59,7.76,7.76,0,0,0-.34-7.09c-2.53-4.49-7.91-5.36-12.56-5.85a2.29,2.29,0,0,0-2.28,2.28,2.36,2.36,0,0,0,2.28,2.29Z"/><path d="M539.46,227.82c-.21,8.43,3,16.26,4.93,24.33,1.66,7.13,2.05,14.91-2.63,21-3.83,5-9.89,8-15.91,9.47-8.18,1.95-16.7,1.36-25,1.32a176,176,0,0,0-29.08,2.34,2.3,2.3,0,0,0-1.6,2.81,2.35,2.35,0,0,0,2.81,1.6,168.4,168.4,0,0,1,26.43-2.19c8.82,0,17.7.6,26.4-1.19,6.76-1.39,13.5-4.57,18.2-9.73a23.32,23.32,0,0,0,5.23-9.23,30.33,30.33,0,0,0,.52-12.51c-1.32-9.46-5.94-18.36-5.69-28,.08-2.94-4.49-2.94-4.57,0Z"/><path d="M443.49,286.57a70.67,70.67,0,0,1-38.15,9.17l2.21,2.89a16.82,16.82,0,0,1,8.3-11.14c2.57-1.43.27-5.37-2.3-3.94a21.38,21.38,0,0,0-10.41,13.86,2.32,2.32,0,0,0,2.2,2.89,75.16,75.16,0,0,0,40.46-9.79c2.55-1.45.25-5.4-2.31-3.94Z"/><path d="M403.23,279.16a46.54,46.54,0,0,0-6.71,5.5c-1,.95-1.87,1.95-2.73,3a8.5,8.5,0,0,0-2.07,3.87c-.51,3.13,1.82,5.08,4.34,6.34,2.92,1.45,5.92,2.63,9.22,1.93a2.3,2.3,0,0,0,1.6-2.8,2.33,2.33,0,0,0-2.81-1.6c-1.89.4-3.95-.6-5.7-1.47-.43-.22-.87-.43-1.28-.68a4,4,0,0,1-.48-.32c-.13-.09-.13-.08,0,0l-.24-.23c-.19-.16.13.19-.12-.13s-.14-.25,0,0l-.05-.22s-.17.69.05-.09c.13-.45,0,0,.2-.45a12.27,12.27,0,0,1,1.73-2.21c.78-.86,1.59-1.69,2.43-2.48a37.85,37.85,0,0,1,5-4,2.35,2.35,0,0,0,.82-3.13,2.32,2.32,0,0,0-3.13-.82Z"/><path d="M393,271.26a62.5,62.5,0,0,0-7.73,5.55,10,10,0,0,0-3.15,8.24,17.82,17.82,0,0,0,1.1,4.72A24.65,24.65,0,0,0,385,294a5.42,5.42,0,0,0,3.6,2.66,4.22,4.22,0,0,0,2.81-.46c.27-.15.52-.34.78-.52.68-.47.34,0-.18-.36,2.52,1.53,4.81-2.42,2.3-3.94a3.89,3.89,0,0,0-4,.1,4.57,4.57,0,0,0-.77.53s-.49.27-.14.2-.17-.17-.33-.38a12.26,12.26,0,0,1-1.37-3.07,15,15,0,0,1-1-3.7,5.84,5.84,0,0,1,2.19-5.35,71.86,71.86,0,0,1,6.43-4.5,2.33,2.33,0,0,0,.82-3.12,2.3,2.3,0,0,0-3.12-.82Z"/><path d="M417.81,266.49c-4.84-2.72-10-5.41-15.61-5.8s-10.45,2.52-14.91,5.84-8.76,6.62-12,11.08c-2.91,4-4.44,9.63-1.62,14.13s9.77,5.41,13,.71a2.31,2.31,0,0,0-.82-3.12,2.34,2.34,0,0,0-3.13.82,2.85,2.85,0,0,1-2.86.89,3.86,3.86,0,0,1-2.76-2.63c-1.36-3.65,1.05-7.39,3.38-10A61.67,61.67,0,0,1,390.3,270c3.46-2.56,7-4.91,11.47-4.72,4.94.21,9.54,2.84,13.74,5.2,2.56,1.45,4.87-2.49,2.3-3.94Z"/><path d="M371.15,283a31.16,31.16,0,0,1-5.57-3c-.47-.31-.92-.63-1.36-.95a2.52,2.52,0,0,1-.34-.27,5.49,5.49,0,0,1-.43-.4,2,2,0,0,1-.24-.26c.1.13.11.13,0,0s-.08-.13,0,0c-.06-.24-.07-.28,0-.13s-.08.39-.08.41.31-.28.24-.24.36-.16.11-.05a4.5,4.5,0,0,1,.74-.21c.54-.14,1.09-.23,1.64-.32,1.11-.19,2.18-.35,3.28-.47a64.93,64.93,0,0,1,7.24-.4,2.29,2.29,0,0,0,0-4.57,67.18,67.18,0,0,0-8.74.59c-2.82.37-6.69.5-8.34,3.23a4.28,4.28,0,0,0,.06,4.52,10.8,10.8,0,0,0,3.12,2.86,34.76,34.76,0,0,0,7.47,4,2.28,2.28,0,0,0,2.8-1.59,2.33,2.33,0,0,0-1.59-2.81Z"/><path d="M396.77,258.19a59.92,59.92,0,0,1-67.43-12.66c-2.07-2.1-5.3,1.13-3.23,3.23a64.49,64.49,0,0,0,73,13.37,2.29,2.29,0,0,0,.82-3.12,2.34,2.34,0,0,0-3.12-.82Z"/><path d="M336.51,231a99.19,99.19,0,0,0-5.22,18.11,2.33,2.33,0,0,0,1.59,2.8,2.3,2.3,0,0,0,2.81-1.59,98.86,98.86,0,0,1,5.22-18.1,2.29,2.29,0,0,0-1.59-2.81,2.33,2.33,0,0,0-2.81,1.59Z"/><path d="M373.09,289.15a479.4,479.4,0,0,1-51.56-.82c-2.93-.2-2.92,4.37,0,4.57a479.4,479.4,0,0,0,51.56.82c2.93-.11,2.94-4.68,0-4.57Z"/><path d="M175.9,307.34q25.53.59,51.06.17t51.23-1.86c8.35-.46,16.68-1.24,25-1.63a20,20,0,0,1,5.77.39,31,31,0,0,0,5.05.93c3.24.23,7.13-1,8.25-4.36.95-2.84-.3-6-.87-8.75-.83-4-1.25-8.1-1.76-12.13q-1.61-12.64-2.45-25.38-.82-12.58-.89-25.21c0-4,.19-8,0-12-.15-3.48-.78-7.07-2.82-10-6.66-9.49-20.1-7.69-30.07-6.66a218.63,218.63,0,0,1-25.21.66c-4.15,0-8.26,0-12.4.33s-8.38.64-12.58.65q-25.53.06-51.07.6-12.74.28-25.48.68c-4,.12-8,.18-12-.09a14,14,0,0,0-5.35.25,9.35,9.35,0,0,0-4.16,2.62c-2.51,2.82-3,6.74-3,10.38.08,4.06.43,8.12.66,12.18l1.45,25.59.7,12.43c.16,2.92,4.73,2.94,4.56,0l-1.4-24.85c-.46-8.17-1.07-16.34-1.37-24.52-.11-2.78-.18-6.48,2.11-8.5a4.91,4.91,0,0,1,3.36-1.18c1.93,0,3.87.28,5.8.35,4,.16,8-.08,12.06-.2s8.22-.24,12.34-.35q24.63-.62,49.29-.78c4.15,0,8.3,0,12.44-.05,3.88,0,7.74-.37,11.6-.65,8.17-.58,16.33-.17,24.51-.28,6.66-.09,13.21-.87,19.84-1.35,4.81-.35,10.08-.53,14.61,1.38a11,11,0,0,1,5.2,4.31c1.74,2.83,1.82,6.28,1.81,9.5,0,8-.05,15.93.27,23.91a377.86,377.86,0,0,0,4.8,48.87c.22,1.28.59,2.54.87,3.82.2.91.56,2.45.15,3.18s-2,1.06-2.92,1.08a18,18,0,0,1-4.54-.75c-3.87-.94-7.71-.58-11.63-.29s-7.95.55-11.92.8q-49.44,3.1-99,2.42-6-.08-12-.22c-2.94-.06-2.94,4.5,0,4.57Z"/><path d="M142.31,309.68A168.85,168.85,0,0,0,166,307.56c3.73-.6,7.44-1.3,11.11-2.19a23.51,23.51,0,0,0,8.83-3.72c2.75-2.08,5-5.33,4.27-8.92-.56-3-3.24-4.84-6.09-5.28-3.12-.49-6.22.2-9.24,1-3.34.85-6.6,2-9.84,3.16-7.28,2.61-14.67,5.49-22.51,5.39-2.94,0-2.94,4.53,0,4.56,12.89.16,24.13-6.92,36.49-9.38,1.77-.35,4.39-.8,6,.34,2,1.48-.18,4.25-1.51,5.32-2.16,1.73-4.94,2.51-7.59,3.15-3.27.79-6.59,1.43-9.91,2a160,160,0,0,1-23.64,2.15c-2.93.06-2.94,4.63,0,4.57Z"/><path d="M145.68,290.07l22.68-3.69c3.77-.61,7.55-1.24,11.33-1.84,1.07-.17,2.72-.56,3.63.25s-.16.15.5.11c-.65,0,.47.28.43.24-2-2.12-5.27,1.12-3.23,3.23a4.07,4.07,0,0,0,5.37.31,4.36,4.36,0,0,0,1.29-5.57c-2.36-4.83-8.53-3.08-12.65-2.41l-30.56,5a2.3,2.3,0,0,0-1.6,2.81,2.34,2.34,0,0,0,2.81,1.59Z"/><path d="M144,276.42l20.23.43c3.29.07,6.58.13,9.86.21,1.09,0,2.93-.19,3.75.71,0,0,.26.35.23.34s-.15-.22.13-.2.83.3.34-.08a2.31,2.31,0,0,0-3.13.82,2.36,2.36,0,0,0,.82,3.13,4,4,0,0,0,5-.47,4.41,4.41,0,0,0,.9-5.28c-2-4.08-7.22-3.52-11-3.6L144,271.85c-2.93-.06-2.93,4.51,0,4.57Z"/><path d="M130.72,273.2c5-2,10.2-4.1,15.61-4.57a22.33,22.33,0,0,1,7.38.48c1.15.29,5.4,1.29,4.73,3.1l2.2-1.68-1.11-.07c-2.94-.19-2.93,4.38,0,4.56l1.11.08a2.34,2.34,0,0,0,2.2-1.68c1.26-3.36-1.5-6.16-4.32-7.43a23.68,23.68,0,0,0-9.57-2c-6.8-.07-13.22,2.38-19.45,4.82a2.36,2.36,0,0,0-1.59,2.81,2.3,2.3,0,0,0,2.81,1.6Z"/><path d="M101.14,279.91c9.18-3.66,19.12-7.7,29.19-5.87a2.35,2.35,0,0,0,2.81-1.59,2.31,2.31,0,0,0-1.6-2.81c-11-2-21.52,1.84-31.61,5.87a2.34,2.34,0,0,0-1.59,2.8,2.29,2.29,0,0,0,2.8,1.6Z"/><path d="M49.56,263.1a64.51,64.51,0,0,0,39.79,18.24,60.07,60.07,0,0,0,12.43-.24,2.35,2.35,0,0,0,2.28-2.28,2.29,2.29,0,0,0-2.28-2.28A60.1,60.1,0,0,1,62,267.32a57.78,57.78,0,0,1-9.2-7.45c-2.09-2.07-5.32,1.15-3.23,3.23Z"/><path d="M107,270.75c-3.15-.41-5.83-2.77-8.2-4.7-2.91-2.37-6.07-4.82-9.86-5.53a11,11,0,0,0-10,3.26c-2.81,2.81-5,6.32-7.44,9.47a2.3,2.3,0,0,0,.82,3.12,2.33,2.33,0,0,0,3.12-.81A85.31,85.31,0,0,1,82,267.15a6.7,6.7,0,0,1,8-1.54c3,1.3,5.4,3.62,8,5.59a18.51,18.51,0,0,0,9,4.12,2.29,2.29,0,0,0,2.29-2.28,2.35,2.35,0,0,0-2.29-2.29Z"/><path d="M137.5,305.71l-19.07-1.52c-6.29-.51-12.6-1.18-18.92-1.26a46.63,46.63,0,0,0-9.06.66c-2.78.52-5.5,1.32-8.28,1.82-5.91,1.07-12,.38-18,.3-6.27-.09-12.55,0-18.82,0-5.17,0-10.43.13-15.51-1a20.54,20.54,0,0,1-12-7.26c-2.93-3.74-4.62-8.32-5.89-12.85a197.09,197.09,0,0,1-6-35,345.48,345.48,0,0,1-1.3-37c.17-12.19.81-24.36,1.61-36.51.17-2.57.37-5.12.34-7.69a41.86,41.86,0,0,1,.18-6.81c.34-2.24,1.34-3.35,3.06-4.8,2.07-1.73,4-3.56,6-5.39,9-8.3,18.26-16.27,27.88-23.81,8.64-6.77,18.55-13.39,30-13.25a24.3,24.3,0,0,1,8,1.46,2.29,2.29,0,0,0,2.8-1.59,2.33,2.33,0,0,0-1.59-2.81c-11.54-4.16-23.92.2-33.71,6.6A178.91,178.91,0,0,0,34.77,129q-7.37,6-14.49,12.29c-4.51,4-8.78,8.29-13.42,12.12-1.93,1.6-3.6,3.3-4.27,5.79A27.43,27.43,0,0,0,2,166.49c0,5.48-.41,10.92-.74,16.39C.84,189.29.51,195.69.3,202.1c-.87,25.31,0,50.85,5.27,75.69,2.14,10,5,21.08,13.75,27.36,4.51,3.23,10.1,4.43,15.53,4.89,5.76.5,11.59.26,17.36.25q9.69,0,19.35.19a64.81,64.81,0,0,0,9.45-.31c2.87-.36,5.65-1.08,8.46-1.72,6.21-1.4,12.55-1,18.84-.5,6.52.49,13,1,19.53,1.55l9.66.78a2.3,2.3,0,0,0,2.28-2.29,2.33,2.33,0,0,0-2.28-2.28Z"/><path d="M62.34,118.45C68.17,132.36,78,145,92.72,150.05c7.71,2.65,15.77,2.37,23.57.25a121.39,121.39,0,0,0,11.7-4c3.93-1.52,7.87-3,11.72-4.77a58.84,58.84,0,0,0,19.72-13.79c2-2.16,3.95-5.23,6.93-6.06,2.27-.63,4.81.23,7,1.35,5.21,2.73,9.42,7,13.84,10.81,5.89,5,11.8,10.18,16.54,16.33,9.72,12.61,12.32,28.7,15.19,43.93l1.22,6.47a2.3,2.3,0,0,0,2.81,1.59,2.33,2.33,0,0,0,1.6-2.8c-2.93-15.52-5-32-13.11-45.9-4-6.85-9.53-12.65-15.39-17.94-2.66-2.39-5.41-4.67-8.1-7-2.15-1.89-4.28-3.81-6.54-5.56-4.5-3.49-10.69-7.55-16.65-5.53-3.37,1.14-5.64,3.86-7.93,6.44a48.64,48.64,0,0,1-8.41,7.68c-6.75,4.77-14.61,7.69-22.27,10.63s-15.48,5.81-23.73,5.28c-15.07-1-26.77-12.48-33.35-25.27-.83-1.6-1.6-3.24-2.3-4.9a2.36,2.36,0,0,0-2.8-1.6,2.3,2.3,0,0,0-1.6,2.81Z"/><path d="M180.7,191.66l1.1,9.49,4.49-.61-.14-.89a2.29,2.29,0,0,0-2.81-1.59,2.35,2.35,0,0,0-1.6,2.81l.14.89a2.27,2.27,0,0,0,1.05,1.36,2.39,2.39,0,0,0,1.46.27,2.25,2.25,0,0,0,2-2.24l-1.1-9.49a2.49,2.49,0,0,0-.67-1.62,2.34,2.34,0,0,0-1.61-.67,2.32,2.32,0,0,0-2.29,2.29Z"/><path d="M52.49,192.49A247.54,247.54,0,0,1,59.26,249c0,5.39-.15,10.78-.47,16.16-.18,2.93,4.38,2.92,4.56,0a252.35,252.35,0,0,0-3.16-57.84q-1.38-8.08-3.3-16.08c-.68-2.85-5.08-1.64-4.4,1.22Z"/><path d="M129.93,132.67c4.26-5.43,12.64-4.06,18.64-5.49a14.89,14.89,0,0,0,8.84-5.39c2.38-3.26,2.64-7.55,2.34-11.44a81.38,81.38,0,0,0-2.64-14.93c-.78-2.83-5.18-1.63-4.41,1.22A76.47,76.47,0,0,1,155,108.83c.35,3.38.73,7.42-1.36,10.35-1.72,2.42-4.8,3.34-7.58,3.86-3.19.61-6.45.64-9.64,1.23-3.67.69-7.39,2.16-9.75,5.17a2.35,2.35,0,0,0,0,3.23,2.28,2.28,0,0,0,3.22,0Z"/><path d="M149.09,61.1q4.65,11.12,9.31,22.23c.41,1,1.44,2.74.56,3.69a3.88,3.88,0,0,1-2.88.83,10.15,10.15,0,0,1-7.4-4.06,2.29,2.29,0,0,0-3.23,0,2.33,2.33,0,0,0,0,3.22,14.58,14.58,0,0,0,10.14,5.37c3.73.31,8-1.68,8.25-5.82.14-2.29-1-4.45-1.9-6.5l-2.78-6.65-5.67-13.52a2.36,2.36,0,0,0-2.81-1.6,2.3,2.3,0,0,0-1.59,2.81Z"/><path d="M159.45,60.74a13.45,13.45,0,0,0,3.18-11.06c-.55-4.55-2.76-8.55-4.21-12.84C155.31,27.65,158,18,160.55,9a2.3,2.3,0,0,0-2.21-2.89A144.09,144.09,0,0,1,115,4C108,2.49,101,.46,93.82.06A30.18,30.18,0,0,0,75.14,4.74a42.42,42.42,0,0,0-12,13.09,75.65,75.65,0,0,0-8,18.09c-3.84,12.95-3.8,27,1.56,39.55,3,7,7.94,12.67,12.71,18.53a57.17,57.17,0,0,1,10.87,19.68c.85,2.8,5.25,1.61,4.4-1.22A57.22,57.22,0,0,0,75.7,94.72c-3.94-5.26-8.59-10-12-15.63C57,68.25,55.57,54.91,58.13,42.59a71.5,71.5,0,0,1,6.63-18.41,46,46,0,0,1,10-13.42A24.75,24.75,0,0,1,90.87,4.57c6.85-.14,13.52,1.7,20.14,3.18a149.13,149.13,0,0,0,47.33,3l-2.2-2.89c-2.52,8.9-5,18.33-2.88,27.58,1,4.4,3.36,8.35,4.47,12.72.79,3.11.84,6.91-1.5,9.39-2,2.13,1.2,5.37,3.22,3.23Z"/><path d="M94.26,104.8c.1-9.35-6.69-16.42-8.76-25.18a14.28,14.28,0,0,1-.3-5.89,6.39,6.39,0,0,1,1-2.82c.09-.11.43-.33.44-.39-.51,0-.64,0-.39.11l.36.33c3.76,3.29,7.28,6.91,10.9,10.35,2.13,2,5.36-1.2,3.23-3.23L91.08,68.9c-1.42-1.35-2.83-3-5-2.83a5.43,5.43,0,0,0-4.28,3.32c-3.65,7.66.57,16,4,22.88,2,3.93,3.89,8,3.84,12.53,0,2.94,4.53,2.94,4.57,0Z"/><path d="M101.86,73c.23-6.48,1.12-15.9,9.51-16.17,4.19-.13,8.39.19,12.6,0a127.48,127.48,0,0,0,12.92-1.25,126.61,126.61,0,0,0,14.43-3c2.83-.77,1.63-5.18-1.21-4.41A120,120,0,0,1,123,52.31q-3.45.12-6.9,0a45.48,45.48,0,0,0-6.5,0,12.71,12.71,0,0,0-9.33,6.36c-2.57,4.27-2.82,9.39-3,14.23-.11,2.94,4.46,2.94,4.57,0Z"/><path d="M139.53,69a8.2,8.2,0,0,1-.18-.86l.08.61a3.05,3.05,0,0,1,0-.74l-.08.61a1.83,1.83,0,0,1,.12-.46l-.23.54a.92.92,0,0,1,.16-.27l-.36.46a1.21,1.21,0,0,1,.2-.19l-.47.35a1.64,1.64,0,0,1,.29-.16l-.54.23a1.33,1.33,0,0,1,.34-.1l-.61.08a1.4,1.4,0,0,1,.29,0l-.6-.08.22.06-.55-.23.15.08-.46-.35a.46.46,0,0,1,.12.12l-.35-.46a1,1,0,0,1,.1.17l-.23-.55a1.06,1.06,0,0,1,0,.19l-.08-.61a.81.81,0,0,1,0,.22l.08-.6a1.14,1.14,0,0,1-.06.25l.23-.55a1.38,1.38,0,0,1-.17.29l.35-.46a1.45,1.45,0,0,1-.21.22l.46-.36a2,2,0,0,1-.32.18l.55-.23a2.67,2.67,0,0,1-.66.17l.61-.08-.61,0a1.67,1.67,0,0,0-.88.19A2.16,2.16,0,0,0,135.05,68a1.77,1.77,0,0,0-.19.88l.08.61a2.22,2.22,0,0,0,.59,1,2.26,2.26,0,0,0,1.61.67,7.89,7.89,0,0,0,1.53-.18,4,4,0,0,0,1.72-.93,3.35,3.35,0,0,0,1-1.59,4.55,4.55,0,0,0,.11-.74,1.2,1.2,0,0,0,0-.19,3.22,3.22,0,0,0-.4-1.45,2.57,2.57,0,0,0-.52-.66,3.08,3.08,0,0,0-1.23-.7,3.35,3.35,0,0,0-1.75,0,4.38,4.38,0,0,0-.81.31,2.63,2.63,0,0,0-.52.35c-.11.09-.24.17-.34.27a6.9,6.9,0,0,0-.45.56,3.93,3.93,0,0,0-.59,1.93,2.35,2.35,0,0,0,0,.53,10,10,0,0,0,.28,1.64,1.75,1.75,0,0,0,.41.77,2.36,2.36,0,0,0,2.4.82,2.28,2.28,0,0,0,1.36-1l.23-.54a2.3,2.3,0,0,0,0-1.22Z"/><path d="M149.05,99.35a24.48,24.48,0,0,1-15.18-1.9,2.34,2.34,0,0,0-3.12.81,2.3,2.3,0,0,0,.82,3.13,29.6,29.6,0,0,0,18.69,2.36,2.3,2.3,0,0,0,1.6-2.8,2.33,2.33,0,0,0-2.81-1.6Z"/><path d="M3.59,241.4A123.58,123.58,0,0,1,52.82,238c3.5.49,7.21,1.27,9.55,4.13a2.31,2.31,0,0,0,3.23,0,2.33,2.33,0,0,0,0-3.23c-2.31-2.82-5.85-4.22-9.33-4.92a89.3,89.3,0,0,0-12.53-1.4A130.36,130.36,0,0,0,2.38,237c-2.83.78-1.63,5.18,1.21,4.41Z"/><path class="cls-3" d="M446,182.28a47,47,0,0,1-8.57,7.23c-3.22,1.91-6.94,2.61-10.35,4.1s-7.07,4.51-5.79,8.8c.51,1.72,1.38,3.19,1.47,5a10.77,10.77,0,0,1-1,5.24,2.57,2.57,0,0,0,.9,3.42,2.53,2.53,0,0,0,3.42-.9,15.85,15.85,0,0,0,1.09-11.32c-.34-1.13-1.71-2.87-.85-3.95s2.85-1.87,4.27-2.38c3.59-1.29,7.21-2.27,10.42-4.4a57.8,57.8,0,0,0,8.52-7.34c2.29-2.26-1.25-5.8-3.54-3.53Z"/><path class="cls-3" d="M425.87,213.16A282.42,282.42,0,0,0,405.46,179L404,182.63c3-1,5,3.72,6.49,5.55a9.39,9.39,0,0,0,9.54,3.75c3.57-.74,6.32-3.23,9-5.48a15.18,15.18,0,0,1,3.66-2.44,16.82,16.82,0,0,1,5-.83,13.24,13.24,0,0,0,5.87-1.69,5.38,5.38,0,0,1,1.14-.7s-.31-.1-.28,0a5.85,5.85,0,0,1,.09,2.25,2.52,2.52,0,0,0,2.5,2.5,2.56,2.56,0,0,0,2.5-2.5c.15-2.06,0-4.23-1.55-5.8a4.8,4.8,0,0,0-5.9-.7,14,14,0,0,1-2.24,1.24,11.65,11.65,0,0,1-2.75.47,20.16,20.16,0,0,0-5.87,1c-3.62,1.45-6,4.43-9.26,6.46a7.19,7.19,0,0,1-4.58,1.43c-1.56-.22-2.68-1.57-3.53-2.78a21.7,21.7,0,0,0-4.3-5.14,7.56,7.56,0,0,0-6.87-1.42c-1.42.46-2.46,2.28-1.49,3.67a285.81,285.81,0,0,1,20.41,34.2c1.45,2.87,5.76.34,4.31-2.52Z"/><path class="cls-3" d="M401.69,178.46l-18.18,9.85a2.5,2.5,0,1,0,2.52,4.32l18.18-9.86a2.5,2.5,0,1,0-2.52-4.31Z"/><path class="cls-3" d="M381.88,191.67l8.65,14.75a49.37,49.37,0,0,1,3.73,6.75c.66,1.71,1.09,4.07-.24,5.6l3.53,3.54c.4-.4.21-.37-.54.1-.1-.06-.07-.06.1,0s.43.13.62.23a9,9,0,0,1,1.87,1.4,18.27,18.27,0,0,1,3.34,3.94,2.55,2.55,0,0,0,3.42.89l18.37-9.6a2.53,2.53,0,0,0,0-4.32l-.7-.43c-2.74-1.7-5.25,2.62-2.52,4.32l.7.43V215l-18.38,9.61,3.42.89a23.38,23.38,0,0,0-5.91-6.39c-2.06-1.54-5.36-2.61-7.32-.29a2.57,2.57,0,0,0,0,3.54,2.52,2.52,0,0,0,3.53,0,9.7,9.7,0,0,0,2.16-8c-.46-3-2.1-5.69-3.63-8.29l-9.89-16.85c-1.62-2.78-5.95-.26-4.31,2.52Z"/><path class="cls-3" d="M390.33,192.86a119.08,119.08,0,0,0,15.21-8.78c.75-.51,0-1.74-.72-1.22a118.9,118.9,0,0,1-15.2,8.77c-.83.4-.11,1.62.71,1.23Z"/><path class="cls-3" d="M390.72,195.8l18.77-9.57c.81-.42.09-1.64-.72-1.23L390,194.57c-.81.42-.1,1.64.72,1.23Z"/><path class="cls-3" d="M394,199.42l13.15-8.92c.75-.51,0-1.74-.72-1.23l-13.14,8.92c-.75.51,0,1.74.71,1.23Z"/><path class="cls-3" d="M392.34,203.29a130.77,130.77,0,0,1,18.3-9.62c.84-.36.12-1.58-.71-1.22a131.21,131.21,0,0,0-18.3,9.61c-.77.49-.06,1.71.71,1.23Z"/><path class="cls-3" d="M395,206.86q8.9-5.75,18.13-10.91a.71.71,0,0,0-.72-1.22q-9.23,5.16-18.12,10.9c-.77.49-.06,1.72.71,1.23Z"/><path class="cls-3" d="M394.83,210.33l21.37-11c.81-.42.09-1.64-.72-1.23l-21.36,11c-.81.42-.1,1.64.71,1.23Z"/><path class="cls-3" d="M397.89,214a141.72,141.72,0,0,1,19.41-11.9c.81-.41.09-1.64-.72-1.22a139.09,139.09,0,0,0-19.4,11.9c-.73.53,0,1.76.71,1.22Z"/><path class="cls-3" d="M399.4,217.37l18.06-10.92a.71.71,0,0,0-.71-1.22l-18.06,10.91c-.78.48-.07,1.7.71,1.23Z"/><path class="cls-3" d="M400.29,221.83l19-10.89a.71.71,0,0,0-.71-1.22l-19,10.88a.71.71,0,0,0,.72,1.23Z"/><path class="cls-3" d="M404,223.71a160.35,160.35,0,0,1,15.33-9.3c.81-.43.09-1.65-.71-1.22a161.66,161.66,0,0,0-15.34,9.29c-.75.52,0,1.75.72,1.23Z"/><path class="cls-2" d="M222.94,271.15a22.82,22.82,0,0,1-9.36-5.95c-2.44-2.83-3.77-6.83-2.67-10.41a14.89,14.89,0,0,1,4.4-6.22,15.77,15.77,0,0,1,7.15-4.34c4.57-1,9.31,1.54,12.4,5.06a15.58,15.58,0,0,1,4.14,9.5,10,10,0,0,1-4.55,9c-3,1.74-6.7,1.5-9.89,2.79"/><path class="cls-4" d="M223.61,268.74c-4.26-1.63-8.85-4.29-10.23-8.94s2.12-8.51,5.67-11.17a8.93,8.93,0,0,1,6.46-2.08,11.57,11.57,0,0,1,5.61,2.58c3.35,2.75,6.24,7.42,5.18,11.91a6.93,6.93,0,0,1-4,5c-2.68,1.11-5.7,1.06-8.41,2.1a2.58,2.58,0,0,0-1.75,3.08,2.52,2.52,0,0,0,3.08,1.74c3-1.17,6.38-1.17,9.39-2.5a11.66,11.66,0,0,0,6.07-6.72c2.29-6.1-.56-12.89-5-17.23-4.69-4.57-11.48-6.61-17.46-3.31a24.79,24.79,0,0,0-7.18,6.27,12.45,12.45,0,0,0-3,8.9c.75,7.91,7.35,12.54,14.21,15.17a2.51,2.51,0,0,0,3.07-1.74,2.56,2.56,0,0,0-1.74-3.08Z"/><path class="cls-1" d="M79.59,172.63a18.45,18.45,0,0,0-.27,8.13c.43,2.33,1.36,5.05,3.22,6.63a5.59,5.59,0,0,0,7.5-.26c2.15-1.93,2.49-4.85,2.62-7.57a2.52,2.52,0,0,0-2.5-2.5,2.57,2.57,0,0,0-2.5,2.5c-.33,2.93-.26,6.14,1.9,8.4s5.78,2.36,8.49,1,4.26-4.45,4.7-7.4c.5-3.38-.22-6.71-.19-10.1,0-3.22-5-3.22-5,0,0,2.67.5,5.33.4,8-.07,1.81-.49,3.72-1.89,4.88.3-.25-.27.16-.32.19s-.6.29-.38.2-.43.12-.53.14-.56.07-.19,0a6.09,6.09,0,0,1-.74,0c.49,0-.21-.07-.28-.09a.92.92,0,0,1-.54-.36l-.17-.2c.11.13.11.12,0,0a3.72,3.72,0,0,1-.19-.34c.07.17.07.17,0,0s-.11-.42-.17-.63c-.13-.49,0,.08-.06-.4a19.07,19.07,0,0,1,.13-3.29h-5a13.57,13.57,0,0,1-.23,2.3,5.31,5.31,0,0,1-.26.87,1.62,1.62,0,0,1-.47.68c-.06.05-.31.25-.11.11a1.82,1.82,0,0,1-.45.26c.27-.11,0,0-.12,0,.49.06-.25-.14,0,0s-.33-.21-.09-.05-.27-.26-.09-.07c-.08-.09-.29-.33-.37-.45a11.62,11.62,0,0,1-1.4-4.22,12.88,12.88,0,0,1,.36-5,2.5,2.5,0,0,0-4.83-1.33Z"/><path class="cls-1" d="M104.87,170.58a34,34,0,0,0-.61,8.53c.15,2.42.35,5.26,2.18,7.07a5.05,5.05,0,0,0,7.28-.41c2.12-2.32,1.82-5.39,1.26-8.25a2.52,2.52,0,0,0-2.41-1.84,2.65,2.65,0,0,0-2.41,1.84c-1.13,3-1,6.7,1.53,9s6.42,1.84,8.94-.4c2.21-2,3.52-5.07,4.36-7.84a23.7,23.7,0,0,0,.88-9.17,2.56,2.56,0,0,0-2.5-2.5,2.53,2.53,0,0,0-2.5,2.5,18.58,18.58,0,0,1-2.78,12.36,3.78,3.78,0,0,1-1.78,1.57c.38-.15-.31.06-.35.07.4-.09-.21,0-.33,0h-.24c.25,0,.23,0-.07-.07.29.27-.12-.08-.23-.16.34.24-.12-.14-.2-.22.28.3-.1-.17-.16-.26-.24-.34,0,.07-.09-.16a4.72,4.72,0,0,0-.16-.51c0-.19,0-1,0-1.1a9.71,9.71,0,0,1,.51-1.77h-4.82a8.49,8.49,0,0,1,.27,2.42,1.9,1.9,0,0,1-.19.9c.13-.33,0,0-.1.12s.22-.22,0,0-.39.31-.1.12c0,0-.58.33-.29.17s-.35,0,0,0-.33.06.15,0l.19.1c-.21-.14-.24-.15-.09,0s-.14-.22,0,0-.12-.22-.16-.28c-.24-.37,0,.15,0-.11a15.54,15.54,0,0,1-.55-4.75,28.19,28.19,0,0,1,.49-5.62,2.5,2.5,0,0,0-4.82-1.33Z"/><path class="cls-1" d="M127.28,170.4a46.28,46.28,0,0,0,0,7.72c.21,2.58.47,5.48,2.9,7,2.17,1.34,5,.68,6.81-.88s2.49-4,3-6.25a2.55,2.55,0,0,0-1.74-3.07,2.53,2.53,0,0,0-3.08,1.75c-.74,3.47-1.17,7.37,1.59,10.12a5.89,5.89,0,0,0,8.75-.37,24,24,0,0,0,4.29-8.68,33.83,33.83,0,0,0,1.45-9.89c0-3.22-5-3.22-5,0a28.52,28.52,0,0,1-3.41,13.65,11.43,11.43,0,0,1-.82,1.34c.16-.21-.19.2-.23.25a4.11,4.11,0,0,1-.3.29c.13-.07.12-.06,0,0s-.51.32-.23.16c-.21.12-.17.11-.39.06.42.1-.38-.15,0,0-.07,0-.54-.33-.41-.23a1.89,1.89,0,0,1-.59-.75c-.2-.37,0,0-.16-.4a3.57,3.57,0,0,1-.11-.55,10.91,10.91,0,0,1,.4-3.72l-4.82-1.32a7.9,7.9,0,0,1-1.38,3.78l-.1.09a3.3,3.3,0,0,1-.45.26c.49-.21-.82.25-.22,0-.31,0-.33,0-.07,0q-.42-.12-.09,0c.23.1-.07-.08-.11-.16-.52-.93-.47-2.94-.53-4.4a46.19,46.19,0,0,1,.15-5.88,2.5,2.5,0,0,0-5,0Z"/><path class="cls-1" d="M154.56,188c3.22,0,3.22-5,0-5s-3.22,5,0,5Z"/><path class="cls-3" d="M386.53,227.45c.39.41.76.84,1.11,1.28s-.17-.24,0,0l.22.29.5.72a17.84,17.84,0,0,1,1.66,3l-.25-.59a3.31,3.31,0,0,1,.2.7l-.09-.67a3.09,3.09,0,0,1,0,.43l.09-.66a1.8,1.8,0,0,1-.1.33l.26-.6a1.65,1.65,0,0,0-.14.26c0-.06.46-.54.16-.26-.15.14.57-.35.24-.19a2.29,2.29,0,0,0-.27.14l.59-.25a4.55,4.55,0,0,1-1.14.29l.66-.09a7.82,7.82,0,0,1-2,0l.67.09a4.15,4.15,0,0,1-.92-.24l.6.25-.27-.13c-.28-.17-.09-.22.2.16l-.07-.07c-.17-.18-.1-.08.2.29,0-.09-.1-.17-.14-.26l.25.6a2,2,0,0,1-.12-.47l.09.66a2.16,2.16,0,0,1,0-.36l-.09.66a2.56,2.56,0,0,1,.17-.6l-.26.6c.14-.29.34-.52.48-.8-.28.53-.19.26,0,.08l.27-.31a9.31,9.31,0,0,0,1.38-1.76,4.39,4.39,0,0,0-.38-5.32,2.54,2.54,0,0,0-3.54,0,2.56,2.56,0,0,0,0,3.54q.25.28-.18-.24a.82.82,0,0,1,.09.19l-.25-.59a1.57,1.57,0,0,1,.08.31l-.09-.67a2.16,2.16,0,0,1,0,.44l.09-.66a3.11,3.11,0,0,1-.19.68l.25-.59a4.74,4.74,0,0,1-.26.5l-.14.21c-.14.21-.3.23.13-.15a9.48,9.48,0,0,0-.8.88,6.16,6.16,0,0,0-1.64,2.93,4.19,4.19,0,0,0,1.13,3.78,4.75,4.75,0,0,0,2.57,1.27,8.44,8.44,0,0,0,5.36-.63,4,4,0,0,0,2.06-3.25,6.39,6.39,0,0,0-1-3.38,24.23,24.23,0,0,0-3.76-5.22,2.52,2.52,0,0,0-3.54,0,2.54,2.54,0,0,0,0,3.53Z"/><path class="cls-3" d="M386.31,224l-1.6,5.38a2.5,2.5,0,1,0,4.82,1.33l1.6-5.38a2.57,2.57,0,0,0-.25-1.92,2.52,2.52,0,0,0-1.49-1.15,2.55,2.55,0,0,0-3.08,1.74Z"/></g></g></svg>