<svg xmlns="http://www.w3.org/2000/svg" xmlns:xlink="http://www.w3.org/1999/xlink" viewBox="0 0 204.79 64.38"><defs><style>.cls-1{fill:#a6a6a6;}.cls-10,.cls-2,.cls-3{fill:#fff;}.cls-2{stroke:#fff;stroke-miterlimit:10;stroke-width:0.2px;}.cls-4{fill:url(#linear-gradient);}.cls-5{fill:url(#linear-gradient-2);}.cls-6{fill:url(#linear-gradient-3);}.cls-7{fill:url(#linear-gradient-4);}.cls-8{opacity:0.2;}.cls-10,.cls-8,.cls-9{isolation:isolate;}.cls-9{opacity:0.12;}.cls-10{opacity:0.25;}</style><linearGradient id="linear-gradient" x1="-185.56" y1="442.59" x2="-186.85" y2="443.26" gradientTransform="matrix(20.81, 0, 0, -40.38, 3896.38, 17921.59)" gradientUnits="userSpaceOnUse"><stop offset="0" stop-color="#00a0ff"/><stop offset="0.01" stop-color="#00a1ff"/><stop offset="0.26" stop-color="#00beff"/><stop offset="0.51" stop-color="#00d2ff"/><stop offset="0.76" stop-color="#00dfff"/><stop offset="1" stop-color="#00e3ff"/></linearGradient><linearGradient id="linear-gradient-2" x1="-183.07" y1="425.17" x2="-185.45" y2="425.17" gradientTransform="matrix(16.36, 0, 0, -13.77, 3046.44, 5887.32)" gradientUnits="userSpaceOnUse"><stop offset="0" stop-color="#ffe000"/><stop offset="0.41" stop-color="#ffbd00"/><stop offset="0.78" stop-color="orange"/><stop offset="1" stop-color="#ff9c00"/></linearGradient><linearGradient id="linear-gradient-3" x1="-188.16" y1="434.39" x2="-189.52" y2="436.16" gradientTransform="matrix(26.85, 0, 0, -20.67, 5076.26, 9019.94)" gradientUnits="userSpaceOnUse"><stop offset="0" stop-color="#ff3a44"/><stop offset="1" stop-color="#c31162"/></linearGradient><linearGradient id="linear-gradient-4" x1="-189.26" y1="432.63" x2="-188.66" y2="433.42" gradientTransform="matrix(26.85, 0, 0, -20.67, 5076.81, 8998.9)" gradientUnits="userSpaceOnUse"><stop offset="0" stop-color="#32a071"/><stop offset="0.07" stop-color="#2da771"/><stop offset="0.48" stop-color="#15cf74"/><stop offset="0.8" stop-color="#06e775"/><stop offset="1" stop-color="#00f076"/></linearGradient></defs><title>googleplay2</title><g id="Layer_2" data-name="Layer 2"><g id="Layer_2-2" data-name="Layer 2"><path id="Path_68" data-name="Path 68" d="M13.29,0H191.54c7.31,0,13.25,2,13.25,14.06V50.32c0,13-5.94,14.06-13.25,14.06H13.29C6,64.38.73,62.11.73,54.35v-46C.73.62,6,0,13.29,0Z"/><path id="Path_51" data-name="Path 51" class="cls-1" d="M197.2,1.29a6.58,6.58,0,0,1,6.37,6.76V56.32a6.58,6.58,0,0,1-6.37,6.76H7.59a6.56,6.56,0,0,1-6.37-6.76V8.05A6.56,6.56,0,0,1,7.59,1.29H197.2m0-1.29H7.59A7.85,7.85,0,0,0,0,8.05V56.32a7.85,7.85,0,0,0,7.59,8.05H197.2a7.85,7.85,0,0,0,7.59-8.05V8.05A7.85,7.85,0,0,0,197.2,0Z"/><g id="Layer_1-2" data-name="Layer 1"><path id="Path_52" data-name="Path 52" class="cls-2" d="M72.15,17A4.4,4.4,0,0,1,71,20.19a4.7,4.7,0,0,1-3.55,1.43A5.07,5.07,0,0,1,63.84,13a4.89,4.89,0,0,1,3.56-1.45,5,5,0,0,1,2,.41,3.94,3.94,0,0,1,1.51,1l-.85.85a3.25,3.25,0,0,0-2.64-1.14,3.91,3.91,0,0,0-3.75,4.07,3.87,3.87,0,0,0,1.11,2.57,3.83,3.83,0,0,0,5.33,0,3,3,0,0,0,.81-1.95H67.4V16.26h4.68A4.27,4.27,0,0,1,72.15,17Z"/><path id="Path_53" data-name="Path 53" class="cls-2" d="M79.05,12.94h-4.4V16h4v1.14h-4V20.2h4.4v1.19H73.41V11.75h5.64Z"/><path id="Path_54" data-name="Path 54" class="cls-2" d="M83.91,21.41H82.66V12.94H80V11.75H86.6v1.19H83.9Z"/><path id="Path_55" data-name="Path 55" class="cls-2" d="M90.94,21.41V11.75h1.24v9.66Z"/><path id="Path_56" data-name="Path 56" class="cls-2" d="M97.41,21.41H96.17V12.94h-2.7V11.75h6.64v1.19h-2.7Z"/><path id="Path_57" data-name="Path 57" class="cls-2" d="M112,20.16a5,5,0,0,1-7.08,0A5.23,5.23,0,0,1,105,13,5,5,0,0,1,112,13h0a5.2,5.2,0,0,1,0,7.15Zm-6.16-.81a3.71,3.71,0,0,0,5.25,0,4.11,4.11,0,0,0,0-5.54,3.72,3.72,0,0,0-5.25,0h0a4.11,4.11,0,0,0,0,5.54Z"/><path id="Path_58" data-name="Path 58" class="cls-2" d="M114.66,21.41V11.75h1.52l4.69,7.51h0l0-1.86V11.75h1.24v9.66h-1.3l-4.91-7.88h-.05l.05,1.86v6Z"/><path id="Path_59" data-name="Path 59" class="cls-3" d="M97.31,35.49a6.87,6.87,0,1,0,6.87,6.87,6.75,6.75,0,0,0-6.63-6.87Zm0,11a4.16,4.16,0,1,1,3.86-4.44c0,.1,0,.19,0,.29a4,4,0,0,1-3.77,4.15Zm-15-11a6.87,6.87,0,1,0,6.87,6.87,6.75,6.75,0,0,0-6.63-6.87Zm0,11a4.16,4.16,0,1,1,3.85-4.44,2.81,2.81,0,0,1,0,.29,4,4,0,0,1-3.75,4.15ZM64.5,37.59v2.9h7a6.13,6.13,0,0,1-1.59,3.65,7.09,7.09,0,0,1-5.36,2.13,7.73,7.73,0,1,1,0-15.45,7.37,7.37,0,0,1,5.23,2.06l2-2a10.13,10.13,0,0,0-7.28-2.93,10.63,10.63,0,0,0,0,21.26,9.7,9.7,0,0,0,7.41-3,9.9,9.9,0,0,0,2.51-6.8,9.22,9.22,0,0,0-.15-1.81Zm72.91,2.25a6.34,6.34,0,0,0-5.86-4.35c-3.57,0-6.45,2.77-6.45,6.87a6.69,6.69,0,0,0,6.52,6.87h.27a6.78,6.78,0,0,0,5.72-3l-2.34-1.6a3.89,3.89,0,0,1-3.37,1.9,3.49,3.49,0,0,1-3.32-2.07l9.15-3.79Zm-9.33,2.29a3.76,3.76,0,0,1,3.49-4h.08a2.66,2.66,0,0,1,2.55,1.45Zm-7.44,6.64h3V28.65h-3Zm-4.93-11.72h-.1a4.73,4.73,0,0,0-3.6-1.53,6.85,6.85,0,0,0,0,13.68,4.65,4.65,0,0,0,3.6-1.55h.1v1c0,2.62-1.4,4-3.65,4a3.79,3.79,0,0,1-3.44-2.44L106,51.29a6.51,6.51,0,0,0,6.07,4c3.52,0,6.5-2.07,6.5-7.13V35.9h-2.86Zm-3.43,9.46a4.16,4.16,0,0,1,0-8.29c2.09,0,3.65,1.76,3.65,4.17a3.8,3.8,0,0,1-3.47,4.09h-.19Zm39.23-17.83h-7.2V48.8h3V41.14h4.2a6.25,6.25,0,1,0,.61-12.49h-.6Zm.08,9.7h-4.3V31.45h4.27a3.45,3.45,0,0,1,0,6.9Zm18.56-2.9a5.64,5.64,0,0,0-5.36,3.08l2.66,1.15a2.87,2.87,0,0,1,2.73-1.52,2.9,2.9,0,0,1,3.16,2.59V41a6.69,6.69,0,0,0-3.13-.78c-2.87,0-5.8,1.58-5.8,4.53,0,2.69,2.35,4.43,5,4.43a4.21,4.21,0,0,0,3.82-2h.11v1.56h2.9V41c0-3.57-2.66-5.57-6.1-5.57Zm-.37,11c-1,0-2.35-.5-2.35-1.72,0-1.55,1.72-2.15,3.18-2.15a5.49,5.49,0,0,1,2.75.67,3.64,3.64,0,0,1-3.59,3.17Zm17-10.6-3.43,8.72h-.11l-3.56-8.72h-3.2l5.35,12.19-3.06,6.77h3.13l8.24-19ZM159.73,48.78h3V28.65h-3Z"/><path id="Path_60" data-name="Path 60" class="cls-4" d="M16.94,12.62a3.21,3.21,0,0,0-.75,2.26V50.47a3.19,3.19,0,0,0,.75,2.29l.12.12L37,32.91v-.47L17.05,12.5Z"/><path id="Path_61" data-name="Path 61" class="cls-5" d="M40.8,39.56l-6.65-6.65v-.47l6.65-6.65.15.09,7.88,4.47c2.25,1.28,2.25,3.37,0,4.65L41,39.47Z"/><path id="Path_62" data-name="Path 62" class="cls-6" d="M43.78,39.47,37,32.67l-20,20c.73.78,2,.88,3.34.1L43.81,39.45"/><path id="Path_63" data-name="Path 63" class="cls-7" d="M43.78,25.88,20.27,12.52c-1.38-.79-2.6-.69-3.34.1l20,20Z"/><path id="Path_64" data-name="Path 64" class="cls-8" d="M43.64,39.34,20.27,52.6c-1.3.74-2.47.69-3.22,0h0l-.12.12h0l.12.11h0c.75.68,1.92.72,3.22,0L43.78,39.47Z"/><path id="Path_65" data-name="Path 65" class="cls-9" d="M16.94,52.51a3.19,3.19,0,0,1-.75-2.29v.24a3.19,3.19,0,0,0,.75,2.29l.12-.12Z"/><path id="Path_66" data-name="Path 66" class="cls-9" d="M48.56,34.76l-8,4.58.15.15L48.57,35a2.84,2.84,0,0,0,1.72-2.32h0A3,3,0,0,1,48.56,34.76Z"/><path id="Path_67" data-name="Path 67" class="cls-10" d="M20.28,12.75,51.66,30.58a3,3,0,0,1,1.72,2.09h0a2.83,2.83,0,0,0-1.72-2.32L20.28,12.52c-2.25-1.28-4.09-.22-4.09,2.36v.23C16.19,12.54,18,11.48,20.28,12.75Z"/></g></g></g></svg>