<svg id="Google_play" data-name="Google play" xmlns="http://www.w3.org/2000/svg" xmlns:xlink="http://www.w3.org/1999/xlink" width="236.974" height="96.563" viewBox="0 0 236.974 96.563">
  <defs>
    <linearGradient id="linear-gradient" x1="0.915" y1="0.978" x2="-0.383" y2="0.309" gradientUnits="objectBoundingBox">
      <stop offset="0" stop-color="#00a0ff"/>
      <stop offset="0.01" stop-color="#00a1ff"/>
      <stop offset="0.26" stop-color="#00beff"/>
      <stop offset="0.51" stop-color="#00d2ff"/>
      <stop offset="0.76" stop-color="#00dfff"/>
      <stop offset="1" stop-color="#00e3ff"/>
    </linearGradient>
    <linearGradient id="linear-gradient-2" x1="1.076" y1="0.583" x2="-1.305" y2="0.583" gradientUnits="objectBoundingBox">
      <stop offset="0" stop-color="#ffe000"/>
      <stop offset="0.41" stop-color="#ffbd00"/>
      <stop offset="0.78" stop-color="orange"/>
      <stop offset="1" stop-color="#ff9c00"/>
    </linearGradient>
    <linearGradient id="linear-gradient-3" x1="0.862" y1="-0.123" x2="-0.502" y2="-1.895" gradientUnits="objectBoundingBox">
      <stop offset="0" stop-color="#ff3a44"/>
      <stop offset="1" stop-color="#c31162"/>
    </linearGradient>
    <linearGradient id="linear-gradient-4" x1="-0.188" y1="2.6" x2="0.421" y2="1.808" gradientUnits="objectBoundingBox">
      <stop offset="0" stop-color="#32a071"/>
      <stop offset="0.07" stop-color="#2da771"/>
      <stop offset="0.48" stop-color="#15cf74"/>
      <stop offset="0.8" stop-color="#06e775"/>
      <stop offset="1" stop-color="#00f076"/>
    </linearGradient>
  </defs>
  <g id="Layer_1" data-name="Layer 1">
    <rect id="Rectangle_42" data-name="Rectangle 42" width="236.974" height="96.563" fill="rgba(255,255,255,0)"/>
    <path id="Path_68" data-name="Path 68" d="M13.291,0H191.533c7.318,0,13.25,2,13.25,14.06V50.317c0,13.019-5.932,14.06-13.25,14.06H13.291C5.974,64.377.726,62.11.726,54.345V8.382C.726.617,5.974,0,13.291,0Z" transform="translate(16.096 16.096)"/>
    <path id="Path_51" data-name="Path 51" d="M225.317,29.408a6.58,6.58,0,0,1,6.372,6.76V84.444a6.58,6.58,0,0,1-6.372,6.76H35.706a6.574,6.574,0,0,1-6.372-6.76V36.168a6.574,6.574,0,0,1,6.372-6.76H225.317m0-1.288H35.706a7.844,7.844,0,0,0-7.586,8.048V84.444a7.844,7.844,0,0,0,7.586,8.048H225.317a7.849,7.849,0,0,0,7.586-8.048V36.168a7.849,7.849,0,0,0-7.586-8.048Z" transform="translate(-12.024 -12.024)" fill="#a6a6a6"/>
    <path id="Path_52" data-name="Path 52" d="M154.165,52.878a4.379,4.379,0,0,1-1.2,3.223,4.694,4.694,0,0,1-3.549,1.425,5.071,5.071,0,0,1-3.555-8.609,4.848,4.848,0,0,1,3.555-1.448,4.986,4.986,0,0,1,1.98.406,4.007,4.007,0,0,1,1.511,1.042l-.847.853a3.263,3.263,0,0,0-2.644-1.145,3.915,3.915,0,0,0-2.639,6.646,3.852,3.852,0,0,0,5.335,0,3.016,3.016,0,0,0,.807-1.958h-3.5V52.169H154.1A4.11,4.11,0,0,1,154.165,52.878Z" transform="translate(-66.062 -20.298)" fill="#fff" stroke="#fff" stroke-miterlimit="10" stroke-width="0.2"/>
    <path id="Path_53" data-name="Path 53" d="M170.188,48.985h-4.4v3.062h3.967v1.145h-3.967v3.057h4.4v1.191H164.55V47.8h5.638Z" transform="translate(-75.184 -20.44)" fill="#fff" stroke="#fff" stroke-miterlimit="10" stroke-width="0.2"/>
    <path id="Path_54" data-name="Path 54" d="M180.6,57.456h-1.242V48.985h-2.7V47.8h6.634v1.185h-2.7Z" transform="translate(-80.738 -20.44)" fill="#fff" stroke="#fff" stroke-miterlimit="10" stroke-width="0.2"/>
    <path id="Path_55" data-name="Path 55" d="M196.64,57.456V47.8h1.242v9.656Z" transform="translate(-89.744 -20.44)" fill="#fff" stroke="#fff" stroke-miterlimit="10" stroke-width="0.2"/>
    <path id="Path_56" data-name="Path 56" d="M205.478,57.456h-1.242V48.985h-2.7V47.8h6.64v1.185h-2.7Z" transform="translate(-92.109 -20.44)" fill="#fff" stroke="#fff" stroke-miterlimit="10" stroke-width="0.2"/>
    <path id="Path_57" data-name="Path 57" d="M228.73,56.044a5.026,5.026,0,0,1-7.081,0,5.226,5.226,0,0,1,0-7.161,5,5,0,0,1,7.075,0,5.2,5.2,0,0,1,0,7.155Zm-6.165-.807a3.726,3.726,0,0,0,5.249,0,4.127,4.127,0,0,0,0-5.547,3.709,3.709,0,0,0-5.249,0A4.127,4.127,0,0,0,222.566,55.237Z" transform="translate(-100.74 -20.275)" fill="#fff" stroke="#fff" stroke-miterlimit="10" stroke-width="0.2"/>
    <path id="Path_58" data-name="Path 58" d="M240.61,57.456V47.8h1.511l4.694,7.51h.052l-.052-1.86V47.8h1.236v9.656h-1.294l-4.911-7.876h-.052l.052,1.86v6.016Z" transform="translate(-109.989 -20.44)" fill="#fff" stroke="#fff" stroke-miterlimit="10" stroke-width="0.2"/>
    <path id="Path_59" data-name="Path 59" d="M187.235,83.608a6.869,6.869,0,1,0,6.869,6.869,6.749,6.749,0,0,0-6.869-6.869Zm0,11a4.156,4.156,0,1,1,3.864-4.15,3.961,3.961,0,0,1-3.864,4.15Zm-14.991-11a6.869,6.869,0,1,0,6.869,6.869,6.749,6.749,0,0,0-6.869-6.869Zm0,11a4.156,4.156,0,1,1,3.864-4.15,3.955,3.955,0,0,1-3.864,4.15Zm-17.824-8.9v2.9h6.949a6.079,6.079,0,0,1-1.586,3.652,7.1,7.1,0,0,1-5.363,2.129,7.727,7.727,0,0,1,0-15.455A7.441,7.441,0,0,1,159.657,81L161.7,78.96a10.114,10.114,0,0,0-7.281-2.931,10.629,10.629,0,0,0,0,21.259,9.711,9.711,0,0,0,7.413-2.982,9.877,9.877,0,0,0,2.513-6.794,9.575,9.575,0,0,0-.155-1.814Zm72.917,2.255a6.346,6.346,0,0,0-5.861-4.356c-3.572,0-6.457,2.776-6.457,6.869a6.7,6.7,0,0,0,6.794,6.869,6.794,6.794,0,0,0,5.724-3.034l-2.347-1.6a3.9,3.9,0,0,1-3.371,1.895,3.48,3.48,0,0,1-3.32-2.072l9.158-3.789ZM218,90.253a3.755,3.755,0,0,1,3.577-4.007A2.662,2.662,0,0,1,224.12,87.7Zm-7.441,6.64h3.005V76.767H210.56ZM205.632,85.17h-.1a4.728,4.728,0,0,0-3.6-1.534,6.849,6.849,0,0,0,0,13.686,4.665,4.665,0,0,0,3.6-1.557h.1v.985c0,2.622-1.4,4.007-3.652,4.007a3.789,3.789,0,0,1-3.434-2.438l-2.616,1.088A6.52,6.52,0,0,0,202,103.452c3.526,0,6.508-2.078,6.508-7.132v-12.3h-2.862ZM202.2,94.632a4.162,4.162,0,0,1,0-8.294c2.095,0,3.658,1.763,3.658,4.173a3.793,3.793,0,0,1-3.669,4.093ZM241.435,76.8h-7.206v20.12h2.982V89.263h4.2a6.257,6.257,0,1,0,.017-12.5Zm.074,9.7h-4.3V79.566h4.27a3.449,3.449,0,0,1,0,6.9ZM260.072,83.6a5.635,5.635,0,0,0-5.358,3.079l2.662,1.145a2.862,2.862,0,0,1,2.73-1.511c1.551,0,3.131.933,3.16,2.587v.206a6.685,6.685,0,0,0-3.137-.773c-2.862,0-5.8,1.574-5.8,4.528,0,2.69,2.358,4.425,5,4.425a4.224,4.224,0,0,0,3.829-1.969h.109v1.557h2.9V89.137c.006-3.572-2.662-5.564-6.1-5.564Zm-.366,11.024c-.979,0-2.353-.492-2.353-1.717,0-1.551,1.717-2.146,3.183-2.146a5.363,5.363,0,0,1,2.747.67,3.646,3.646,0,0,1-3.589,3.165Zm17-10.6-3.434,8.723h-.109l-3.555-8.723H266.4l5.358,12.192-3.068,6.771h3.131l8.242-18.963ZM249.654,96.9h3.011V76.767H249.66Z" transform="translate(-73.967 -32.51)" fill="#fff"/>
    <path id="Path_60" data-name="Path 60" d="M56.9,49.224a3.223,3.223,0,0,0-.744,2.261V87.077a3.2,3.2,0,0,0,.744,2.29l.12.12L76.955,69.516v-.469L57.018,49.11Z" transform="translate(-24.008 -21)" fill="url(#linear-gradient)"/>
    <path id="Path_61" data-name="Path 61" d="M99.146,86.1,92.5,79.445v-.469l6.646-6.646.149.086,7.876,4.47c2.25,1.282,2.25,3.371,0,4.648L99.294,86.01Z" transform="translate(-42.389 -30.929)" fill="url(#linear-gradient-2)"/>
    <path id="Path_62" data-name="Path 62" d="M84.328,91.15l-6.794-6.8L57.5,104.384c.738.784,1.963.881,3.343.1l23.508-13.36" transform="translate(-24.587 -36.069)" fill="url(#linear-gradient-3)"/>
    <path id="Path_63" data-name="Path 63" d="M84.311,62.095,60.8,48.735c-1.379-.784-2.6-.687-3.343.1L77.494,68.866Z" transform="translate(-24.57 -20.608)" fill="url(#linear-gradient-4)"/>
    <path id="Path_64" data-name="Path 64" d="M84.162,96,60.8,109.257c-1.305.738-2.473.693-3.223,0h0l-.12.12h0l.12.114h0c.75.675,1.918.721,3.223,0l23.508-13.36Z" transform="translate(-24.57 -41.05)" opacity="0.2"/>
    <path id="Path_65" data-name="Path 65" d="M56.9,117.29a3.211,3.211,0,0,1-.744-2.29v.24a3.223,3.223,0,0,0,.744,2.29l.12-.12Z" transform="translate(-24.008 -49.175)" opacity="0.12"/>
    <path id="Path_66" data-name="Path 66" d="M112.144,86.452l-8.014,4.579.149.149,7.876-4.476a2.823,2.823,0,0,0,1.717-2.324h0A3.011,3.011,0,0,1,112.144,86.452Z" transform="translate(-47.63 -36.081)" opacity="0.12"/>
    <path id="Path_67" data-name="Path 67" d="M60.247,48.97,91.631,66.8a3.022,3.022,0,0,1,1.717,2.089h0a2.83,2.83,0,0,0-1.717-2.324L60.247,48.736c-2.25-1.276-4.087-.218-4.087,2.358v.235C56.16,48.753,58,47.694,60.247,48.97Z" transform="translate(-24.014 -20.608)" fill="#fff" opacity="0.25"/>
  </g>
</svg>
