<svg xmlns="http://www.w3.org/2000/svg" width="1639.756" height="3975.953" viewBox="0 0 1639.756 3975.953">
  <path id="Green_Line" data-name="Green Line" d="M1299.966,943.3S1136.059,742.559,777,1025.161s185.564,314.226,589,356.12c585.538,60.8,524.344,627.861,333.247,735.958C1475.776,2364.1,96.483,2209.771,206.673,2964.354c77.894,481.012,628.646,593.88,899.824,568.43,195.237-18.323,217.935-131.1,121.775-112.677-53.18-187.084-172.043,34.955-85.6,221.854,64.574,139.612,255.149,416.37,362.3,313.046,152.7-166.922-78.571-369.605-278.658-91.569-171.138,257.99,117.586,488.054,150.354,753.63,22.308,198.236-277.5,113.69-219.279,227.916" transform="translate(-196.937 -870.622)" fill="none" stroke="#72d156" stroke-width="7" stroke-dasharray="28"/>
</svg>
