<svg xmlns="http://www.w3.org/2000/svg" viewBox="0 0 560.77 286.86"><defs><style>.cls-1{fill:#ffba53;}.cls-2,.cls-4{fill:#ba53ff;}.cls-3,.cls-7{fill:#5398ff;}.cls-4{stroke:#000;stroke-width:1.42px;}.cls-4,.cls-7{stroke-miterlimit:10;}.cls-5{fill:#000006;}.cls-6{fill:#d0d72c;}.cls-7{stroke:#000006;stroke-width:2.13px;}</style></defs><title>group</title><g id="Layer_2" data-name="Layer 2"><g id="Layer_4" data-name="Layer 4"><path class="cls-1" d="M126.31,132.71s1.16,30.79,15.08,38.23l18.35-1.72-6.35,6.17-1.54,4.8-1,6.18,1.37,2.74,5.49,1.71,3.43.17-1.89,2.4-9.94,3.26-10.63,1.72-6.51,1.37-5.32,1.71-9.26.52s-7.2,1.71-12-13.89c0,0-7-7-10.62-7s-9.26.69-9.26.69l-10.8,61.2-1,3.77,6.69,16.46.51.85-12.34,1.2-10.63.17-3.77-.17-5.49-15.6,1.54-5.83s-2.57,2.06-2.57-23.48S46.25,191,46.25,191L22.08,171.11l-4.46-9.43L12,158.25s-18.51-7.71-7.37-28.8,27.6-39.6,27.6-39.6L55.51,71S77.79,59.85,85.34,59.85,109.85,59,109.85,59l1,2.23S105.22,79.39,103.34,95s-2.92,22.12-2.92,22.12l-.68,4.63,2.74,4.8s8.4,6.51,21.26,3.6Z"/><path class="cls-2" d="M459.65,232.91s7.2,11.31,8,20.31S472,273,472,273l4.12,7.2,8.74,2.32,65.57,2.57,9-2.57-3.34-8.75s-11.83-68.14-15.17-85.11-14.66-35.49-14.66-35.49l-14.4-8.48-6.94-4.12s-18.26,18.78-34,27.78l-12.85,11.31-9.77,10.54-34.27,43.65-2.25-2-14.66-8.49-12.6-3.6s-5.46,24.75-5.46,25.53,1.09,5.59,1.09,5.59,7.46,9.26,13.12,11.06,19.8,7.2,19.8,7.2l9.51-.78L442.94,253Z"/><path class="cls-3" d="M302.88,239l3.26,3.43,3.42,1.37,2.75,3.26,3.94,6.52.69,7.37s0,5.31,6.34-.17c0,0,10.63-12,17.14-15.43a97.71,97.71,0,0,1,15.43-6l-11-5.15-19.37-6.68-3.43-.86Z"/><path class="cls-3" d="M370.42,220.14a63.3,63.3,0,0,1-18.08-27.43c-5.66-17.4-6-19.46-6-19.46a3.39,3.39,0,0,0-4.29,1.8c-1.46,2.92-3.09-6.34-3.09-6.34l-5-3.43-36.25.86L309,148.48s40.12,11.4,53.4,28.37C362.36,176.85,376.34,212.42,370.42,220.14Z"/><path class="cls-3" d="M281.45,166.14l-9.77-10.2s-1.12,5.23-13.63,4.11-17.91.86-22.63,7.72-13.28,22.37-13.28,22.37l-10.2,25L205.68,236l-.94,8.83s5.57,3.77,7.11,12.43c0,0,4.89-.51,7.46,3.17s-2.32-14.91,15.17-14.05c0,0,9.43-8.23,10.37-12.69s3.77,7.8,3.77,7.8l3.26-.6,10,8.57,2,.6,6.26-4.63,3.94.26,7.63-2.06,7.8-.08,7.46,2.14,7.37-2.83L302.88,239l19.2-12.34-15.52-8.23-2.05,1.37L252.39,219l-5.31-14.14-8.23-33.43s-.34-2.57,6.17-2.74,30.94-1.2,30.94-1.2Z"/><path class="cls-4" d="M256.82,21c-3.25,0-6.5,0-9.75.16.33-1.58.64-3.16,1-4.73l7.5-.54a2.1,2.1,0,0,0,2-2.05,2.06,2.06,0,0,0-2-2l-6.68.48q.66-3.42,1.29-6.86a2.11,2.11,0,0,0-1.43-2.51,2.05,2.05,0,0,0-2.52,1.43q-.75,4.12-1.55,8.25l-7.11.51q1.42-4.95,2.86-9.89c.74-2.54-3.15-3.59-3.94-1.09l-.66,2.05a2.67,2.67,0,0,0-.09.53c-.84,2.91-1.69,5.81-2.53,8.72l-9.87.71a2.1,2.1,0,0,0-2.05,2,2.06,2.06,0,0,0,2.05,2l8.66-.62c-.45,1.56-.91,3.12-1.36,4.68-2,.2-3.95.42-5.92.66a2.12,2.12,0,0,0-2,2.05,2.06,2.06,0,0,0,2,2c1.57-.2,3.13-.37,4.7-.54q-1.51,5.24-3,10.47c-.73,2.53,3.22,3.61,3.95,1.08q1.74-6,3.47-12c2.74-.24,5.47-.44,8.21-.59-.89,4.12-1.81,8.24-2.79,12.34-.6,2.56,3.34,3.66,3.95,1.09,1.08-4.53,2.09-9.07,3.07-13.63,3.54-.13,7.08-.2,10.62-.19C259.46,25.13,259.46,21,256.82,21ZM235,21.9c.45-1.53.89-3.06,1.33-4.6l7.49-.54c-.31,1.54-.61,3.08-.94,4.61C240.23,21.51,237.61,21.68,235,21.9Z"/><path d="M288.14,118.13H288a1,1,0,0,0-.54.12,1,1,0,0,0-.44.28,1.2,1.2,0,0,0-.29.45,1.05,1.05,0,0,0-.11.53l0,.37a1.52,1.52,0,0,0,.36.61l.28.21a1.32,1.32,0,0,0,.7.19h.13a1.56,1.56,0,0,0,1-.4,1.09,1.09,0,0,0,.29-.45,1.18,1.18,0,0,0,.12-.53l0-.37a1.46,1.46,0,0,0-.36-.61l-.28-.21a1.31,1.31,0,0,0-.69-.19Z"/><path d="M268.59,126.55a1.39,1.39,0,0,0,0-2.77,1.39,1.39,0,0,0,0,2.77Z"/><path d="M287.8,137.82a14.24,14.24,0,0,1-12.9,3.91c-1.74-.37-2.48,2.29-.74,2.66a17.08,17.08,0,0,0,15.59-4.62c1.25-1.27-.7-3.22-1.95-2Z"/><path d="M275.65,122.85a67.4,67.4,0,0,0,.36,11.8c.23,1.78,1.07,3.48,3.05,3.67,1.82.18,3.19-1,4.26-2.35a1.4,1.4,0,0,0,0-1.95,1.39,1.39,0,0,0-1.95,0c-.38.46-1.39,1.92-2.19,1.55-.32-.15-.38-.79-.43-1.09-.11-.69-.15-1.41-.2-2.11a73.78,73.78,0,0,1-.14-9.52c.09-1.78-2.67-1.77-2.76,0Z"/><path d="M262.08,143.06c3.72,5.1,7.63,10.46,13.34,13.47a18.55,18.55,0,0,0,9,2.3,17,17,0,0,0,8.78-3c5.16-3.36,10.74-7.73,13.17-13.56a14.85,14.85,0,0,0,1.11-4.28,12.52,12.52,0,0,0,0-2,7.39,7.39,0,0,1-.06-2.81c.21-.62.56-.67,1.12-.83a4.3,4.3,0,0,0,1.79-.88,6.11,6.11,0,0,0,1.67-3.44,31.42,31.42,0,0,0,.09-11.68,3.3,3.3,0,0,0-.92-2.21,7.78,7.78,0,0,0-2.26-1.36,9.29,9.29,0,0,0-4.92-.55c-1.75.24-1,2.9.74,2.66a6.18,6.18,0,0,1,3.81.76,1.32,1.32,0,0,1,.85,1.21c.15.85.27,1.72.34,2.59a23.44,23.44,0,0,1-.62,8.79c-.39,1.26-1,1.27-2.13,1.7a3.66,3.66,0,0,0-2.22,2.51,10,10,0,0,0,0,3.54,11.69,11.69,0,0,1-.61,4.43c-1.77,5.25-6.62,9-10.95,12.1a17.17,17.17,0,0,1-7.59,3.51,14.62,14.62,0,0,1-7.91-1.38c-5.76-2.65-9.63-7.95-13.27-12.93-1-1.42-3.43,0-2.38,1.39Z"/><path d="M302.56,110.72c-2.37-1.81-2.64-5.34-3.1-8s-1.21-5.53-3.2-7.46c-2.26-2.19-5.48-2.4-8.35-1.42-3.21,1.1-5.71,3.44-8.77,4.83a7.56,7.56,0,0,1-4.26.71c-1.72-.25-3.33-1-5-1.39a8.45,8.45,0,0,0-8.13,2.45,18.3,18.3,0,0,0-2.76,3.89c-.56,1-1.46,3.58-2.74,3.86-1.08.23-1.62-1.94-1.87-2.66a37.87,37.87,0,0,1-1.42-5.21,37.19,37.19,0,0,1,2.68-22.5,1.38,1.38,0,0,0-2.38-1.4c-1.55,2.44.82,5.2,3.42,5a6.11,6.11,0,0,0,3.81-2c1.09-1.13,2-2.66,3.57-3.07l-1.7-1.7a14.14,14.14,0,0,0-.85,5.87,1.4,1.4,0,0,0,2.36,1,36.15,36.15,0,0,1,14.88-8.26l-1.35-2.31c-1.14,1.16-2.09,2.86-1.06,4.43,1.21,1.83,3.54.92,5.21.46l14-3.82-1.07-2.53a8.15,8.15,0,0,0-3.69,8.4,1.37,1.37,0,0,0,1.33,1c1.51-.11,3.52-.36,4.69.85a3.63,3.63,0,0,1,.65,1.93,6.56,6.56,0,0,0,.68,1.87,18.8,18.8,0,0,0,2.69,3.28,13.13,13.13,0,0,1,2.5,4.17,44.65,44.65,0,0,1,2.15,9.77,82.49,82.49,0,0,1,.77,11.32,1.39,1.39,0,0,0,2.77,0A89,89,0,0,0,308,99.44a39.42,39.42,0,0,0-2.69-10.76,16.07,16.07,0,0,0-2.86-4.21c-1.15-1.25-2.16-2.29-2.47-4-.72-4-4.44-4.69-7.94-4.44l1.33,1a5.27,5.27,0,0,1,2.43-5.28,1.39,1.39,0,0,0-1.07-2.53l-9.39,2.57L280.8,73a7.39,7.39,0,0,1-2.06.54c-.19,0-.15.28-.05,0a2.36,2.36,0,0,1,.65-.79A1.39,1.39,0,0,0,278,70.45a39.25,39.25,0,0,0-16.1,9l2.36,1a12.28,12.28,0,0,1,.75-5.13c.38-1-.75-1.94-1.7-1.7-1.92.48-3.1,1.88-4.36,3.3a4.37,4.37,0,0,1-2.28,1.69c-.48.09-1.45-.15-1-.8l-2.38-1.4a40,40,0,0,0-3.55,20.56,38.93,38.93,0,0,0,2.36,10.26,6,6,0,0,0,2.48,3.38,3.52,3.52,0,0,0,3.88-.57,13,13,0,0,0,2.74-4,15.79,15.79,0,0,1,2.93-4.08c2.92-2.66,6-.91,9.29-.12,3.53.84,6.63-.34,9.61-2.2,2.68-1.67,5.93-4.35,9.33-3.56s4.12,5.09,4.59,8c.56,3.43,1.38,6.81,4.27,9,1.41,1.08,2.78-1.32,1.39-2.39Z"/><path d="M263.71,141.66a93.83,93.83,0,0,1-7.1-31.54c-.09-1.77-2.85-1.78-2.77,0a96.27,96.27,0,0,0,7.2,32.27c.67,1.62,3.35.91,2.67-.73Z"/><path d="M304.59,142.62c.62,1.78,1.53,3.46,2,5.3s-.72,3.25-1.72,4.73a120.8,120.8,0,0,1-7.76,10.66c-1.15,1.34.79,3.31,1.95,1.95a133.14,133.14,0,0,0,8.56-11.76c1.15-1.69,2.13-3.4,1.8-5.5s-1.45-4.08-2.16-6.12c-.58-1.66-3.25-.95-2.66.74Z"/><path d="M273.13,154.11a2.69,2.69,0,0,0-1.22,3.18c.4,1.31,1.61,2.21,2.58,3.1l6.07,5.64a1.42,1.42,0,0,0,2,0,1.39,1.39,0,0,0,0-1.95l-5.08-4.71c-.81-.75-1.64-1.48-2.42-2.26a2.06,2.06,0,0,1-.34-.39,1.21,1.21,0,0,1-.11-.18c0,.06-.05-.22,0,0s0-.14,0-.18c0,.24,0,0,0,0l-.05.12c.08-.12.08-.14,0-.05s-.26.19,0,.08a1.38,1.38,0,0,0,.5-1.89,1.41,1.41,0,0,0-1.89-.49Z"/><path d="M309,150.85a82.28,82.28,0,0,1,20,6.1A183.4,183.4,0,0,1,347,166c5.43,3.14,10.55,6.92,13.94,12.3s5.09,11.66,6.53,17.83c1.8,7.67,4,15.84,2.06,23.7-.42,1.73,2.24,2.46,2.67.74,1.81-7.38.27-14.9-1.37-22.15-1.49-6.57-3-13.24-6.19-19.23s-7.91-10.36-13.48-13.9a154,154,0,0,0-18.44-9.67,88.14,88.14,0,0,0-23.06-7.47c-1.74-.28-2.49,2.38-.73,2.66Z"/><path d="M382,223.86c-11.64-1.88-19.68-11.35-24.66-21.4a112.13,112.13,0,0,1-6.79-17.64c-.89-2.94-1.67-5.92-2.36-8.92a5.73,5.73,0,0,0-1.27-3,2.9,2.9,0,0,0-3.08-.53c-2.51.94-2.74,4-2.9,6.25a37.61,37.61,0,0,0,.51,9.11,38.41,38.41,0,0,0,1,4.21c.45,1.47,1.21,3,1.16,4.59a2.22,2.22,0,0,1-2.65,2.38,10.68,10.68,0,0,1-4-2.3l-15.72-11.85-8.06-6.07c-1.84-1.39-4.13-3.39-6.59-2.19a2.88,2.88,0,0,0-1.68,2.51c0,1.45,1.06,2.65,1.92,3.71a63.48,63.48,0,0,0,5.86,6.08c4.15,3.9,8.52,7.78,10.81,13.13l1.09-1.42-14.17-5.76-7.19-2.93c-2.17-.89-4.42-2.09-6.77-2.39a4.73,4.73,0,0,0-4.61,1.76,3.3,3.3,0,0,0,0,4.14A9,9,0,0,0,294,197l3.46,2.19,6.31,4,14.65,9.29c1,.66,2-1,1-1.67L297.2,196.73l-2.64-1.67c-.76-.48-1.79-1-1.55-2,.51-2.3,3.44-1.76,5-1.21,4.08,1.43,8.05,3.25,12,4.88L324,202.39c.88.36,1.37-.76,1.09-1.42-1.9-4.44-5.24-8-8.7-11.26-1.78-1.69-3.6-3.34-5.33-5.09-.93-1-5.5-5.1-3.84-6.3,1-.72,2.33.17,3.15.74,1.32.92,2.58,1.93,3.86,2.9l7.48,5.64c5.09,3.82,10.1,7.79,15.28,11.49,1.84,1.32,4.4,2.6,6.57,1.23s2.14-3.94,1.6-6a71.25,71.25,0,0,1-2.14-8.52,32.3,32.3,0,0,1,0-9c.14-.92,1.05-3.64,2.49-2.5a2.77,2.77,0,0,1,.64,1.52c.19.8.37,1.61.56,2.41.72,3,1.55,6,2.48,8.89a114.1,114.1,0,0,0,6.44,16.34c5.18,10.44,13.72,20.33,25.81,22.28,1.22.2,1.74-1.66.52-1.86Z"/><path d="M296.58,199.88c-1.41-1.69-4.25-.93-5,1-1.05,2.58,1.05,5,3.2,6.07,2.8,1.42,5.73,2.5,8.48,4a60.55,60.55,0,0,1,8.28,5.66l.68-1.65-7.4,0a1,1,0,0,0-1,1c0,2.32,2.61,3.64,4.33,4.74a51,51,0,0,0,6.69,3.56,127.85,127.85,0,0,0,14.49,5.14,162.34,162.34,0,0,1,30,12.19,144,144,0,0,1,15.42,9.69c1,.73,2-.95,1-1.67a145.14,145.14,0,0,0-27.12-15.38,150.21,150.21,0,0,0-14.14-5.27c-4.76-1.51-9.56-2.88-14.25-4.61a64.61,64.61,0,0,1-7.67-3.37c-1.21-.64-2.4-1.32-3.55-2.06-.93-.61-3.18-1.68-3.2-3l-1,1,7.4,0c.78,0,1.36-1.1.69-1.65a63.37,63.37,0,0,0-11.9-7.66c-2-1-4.23-1.62-6.08-2.82a3.27,3.27,0,0,1-1.68-2.68c.06-1,1.27-1.76,2-.9s2.16-.42,1.36-1.36Z"/><path d="M340.88,178c2.14-3.54.81-8-1.95-10.76-3.37-3.42-8.52-3.89-13.06-3.78-11.61.26-23.23,1.07-34.83,1.62l-35,1.66-8.75.42-4.13.19a7.71,7.71,0,0,0-3.91.77c-1.82,1.16-1.88,3.46-1.52,5.37.52,2.68,1.45,5.34,2.18,8l10.51,37.85a1.4,1.4,0,0,0,1.33,1l54.14.84a1.38,1.38,0,0,0,0-2.76l-54.14-.84,1.33,1-8.63-31.07-2.14-7.71a67.48,67.48,0,0,1-1.94-7.22c-.12-.72-.24-1.74.47-2.18.92-.57,2.74-.31,3.78-.36l8.26-.39,64.19-3c2.94-.14,5.87-.32,8.81-.39a22.13,22.13,0,0,1,7.56.84c3.65,1.23,7.44,5.63,5.07,9.55a1.38,1.38,0,0,0,2.38,1.39Z"/><path d="M276.37,185.13l-.07-.07.35.61,0-.1v.74l0-.11-.36.61.07-.08-.61.36.1,0-1.74-1.33.66,8.25c.11,1.34.18,2.68.33,4a2.77,2.77,0,0,0,2.47,2.79A1.38,1.38,0,0,0,279,199.4a1.42,1.42,0,0,0-1.38-1.38c.43,0,.33.29.29-.05l-.06-.59c0-.54-.08-1.09-.13-1.63l-.27-3.38-.53-6.63a1.42,1.42,0,0,0-1.75-1.34,1.58,1.58,0,0,0-.71,2.68,1.4,1.4,0,0,0,1.95,0,1.38,1.38,0,0,0,0-2Z"/><path d="M280.66,194.18l1.14,6.2a1.38,1.38,0,0,0,2.67-.73l-1.14-6.2a1.38,1.38,0,0,0-2.67.73Z"/><path d="M284.37,188.94v-.08a1.38,1.38,0,0,0-2.76,0v.08a1.38,1.38,0,0,0,2.76,0v-.08a1.38,1.38,0,0,0-2.76,0v.08a1.38,1.38,0,0,0,2.76,0Z"/><path d="M285.75,194a16.63,16.63,0,0,1,.92,1.78c-.11-.23.06.16.06.17.07.17.13.33.19.5s.21.59.3.89c.18.6.33,1.21.46,1.83.06.31.12.61.17.93s.06.35.08.53,0,.17,0,0l0,.27a1.38,1.38,0,0,0,2.57.69q1.59-2.31,3.19-4.6a1.39,1.39,0,0,0-.49-1.89,1.41,1.41,0,0,0-1.89.5c-1.08,1.52-2.14,3.06-3.19,4.6l2.57.7a20.76,20.76,0,0,0-2.6-8.33,1.38,1.38,0,0,0-2.38,1.4Z"/><path d="M304.82,187.78v-.13a1.18,1.18,0,0,0-.12-.53,1.09,1.09,0,0,0-.29-.45,1.07,1.07,0,0,0-.44-.28,1,1,0,0,0-.53-.12l-.37,0a1.38,1.38,0,0,0-.61.35l-.22.28a1.44,1.44,0,0,0-.19.7v.13a1.18,1.18,0,0,0,.12.53,1.09,1.09,0,0,0,.29.45,1,1,0,0,0,.44.28,1,1,0,0,0,.54.12l.36,0a1.29,1.29,0,0,0,.61-.35l.22-.28a1.44,1.44,0,0,0,.19-.7Z"/><path d="M302.7,190.86,303,192a1.07,1.07,0,0,0,.25.47,1,1,0,0,0,.39.35,1.6,1.6,0,0,0,1.06.14l.33-.14a1.47,1.47,0,0,0,.5-.49l.13-.33a1.33,1.33,0,0,0,0-.74l-.24-1.16a1.19,1.19,0,0,0-.25-.47,1,1,0,0,0-.39-.35,1.07,1.07,0,0,0-.51-.17,1,1,0,0,0-.55,0l-.33.14a1.38,1.38,0,0,0-.5.49l-.14.33a1.54,1.54,0,0,0,0,.74Z"/><path d="M270.51,155.63c-2,3-5.81,3.68-9.13,3.63-4.45-.07-8.78-1.56-13.25-1.23-8.55.63-13.88,8.08-18.23,14.65a150.49,150.49,0,0,0-12.47,23.75c-3.55,8.25-6.86,16.64-9.89,25.09a99.81,99.81,0,0,0-4.22,14.79,54.08,54.08,0,0,0-1,7.7c-.07,1.91,1.21,4.33,3.49,3.49,1.65-.61.94-3.28-.73-2.67,0,0,.09-2,.12-2.35.11-1.15.25-2.3.43-3.44.34-2.15.8-4.29,1.34-6.4a124.86,124.86,0,0,1,4-12.52c3-8,6-15.92,9.44-23.7a146.84,146.84,0,0,1,11.75-22.17,51.16,51.16,0,0,1,7.33-9.3,14.37,14.37,0,0,1,10.67-4.2c4.45.15,8.8,1.6,13.28,1.2,3.73-.33,7.32-1.7,9.44-4.93,1-1.48-1.41-2.87-2.38-1.39Z"/><path d="M251.08,246.56l-.56-.42c-.9-.66-1.93.76-1.17,1.52A91,91,0,0,0,257.6,255c1.34,1,2.7,2.07,4.1,3s2.91,1.91,4.59,1.38c2.41-.76,3.06-3.92,2-6s-3.37-3.22-5.11-4.68c-3-2.49-5.82-5.18-8.86-7.6a4.71,4.71,0,0,0-3.68-1.25c-1.73.25-3.21,1.47-4.63,2.4s-2.87,1.77-4.21,2.78a14.18,14.18,0,0,1-3.14,2.14c-1.22.46-2.44-1-3.43-1.57a7.83,7.83,0,0,0-4.7-.68c-7.73,1-10.73,9.28-11.6,15.94l1.65-.69c-1.36-1.16-2.7-2.75-4.4-3.42a5.79,5.79,0,0,0-4.7.24l1.46.83a18,18,0,0,0-9.31-14.08c-1.1-.59-2.08,1.08-1,1.66A16.06,16.06,0,0,1,211,257.88a1,1,0,0,0,1.45.84c2.78-1.35,4.85,1.25,6.75,2.88a1,1,0,0,0,1.65-.68c.71-5.37,2.77-11.91,8.53-13.73a7.14,7.14,0,0,1,4.36-.08c1.17.42,2,1.41,3.17,1.9,2,.86,3.83-.69,5.34-1.86a64.29,64.29,0,0,1,7.16-4.74,2.94,2.94,0,0,1,3.83.36c1.32,1.08,2.59,2.22,3.89,3.34,2.13,1.83,4.21,3.74,6.47,5.41,1.4,1,3.68,2.49,3.23,4.54a1.74,1.74,0,0,1-1.59,1.56,5.39,5.39,0,0,1-2.56-1.27c-1.38-1-2.73-2-4.05-3a89.67,89.67,0,0,1-7.91-7.05l-1.17,1.52.56.42c1,.74,2-.94,1-1.67Z"/><path d="M247.05,254.05a47.07,47.07,0,0,0,10.11,8.67,31.86,31.86,0,0,0,2.81,1.66,3.16,3.16,0,0,0,2.83.28c2.17-1,1.84-3.64,1.21-5.51-.4-1.17-2.27-.67-1.87.51a3.89,3.89,0,0,1,.33,2.69c-.35.79-1,.64-1.63.3a42.06,42.06,0,0,1-4.52-2.81,45.94,45.94,0,0,1-7.91-7.16c-.82-.94-2.18.43-1.36,1.37Z"/><path d="M243.12,261.2l4.42,3.88a20.54,20.54,0,0,0,4.23,3.38,4.34,4.34,0,0,0,4.87-.56,8.23,8.23,0,0,0,2.32-4.56c.43-1.73-2.24-2.46-2.67-.74-.28,1.11-.54,2.49-1.48,3.25s-1.85.22-2.65-.39c-1.18-.91-2.26-2-3.37-2.95l-3.71-3.26a1.42,1.42,0,0,0-2,0,1.39,1.39,0,0,0,0,1.95Z"/><path d="M222.36,262.16c3.07-.69,5.44,1.93,7.26,4s3.71,4.13,6.41,4.71c2.26.49,4.36-.33,6.31-1.41s4-2.59,6.41-2.37c1.24.11,1.23-1.82,0-1.93-2.35-.21-4.42.93-6.38,2.06-2.17,1.24-4.45,2.54-7,1.41-2.71-1.21-4.28-3.95-6.38-5.91s-4.49-3-7.19-2.42c-1.22.27-.7,2.14.51,1.87Z"/><path d="M246.19,214.83a39.9,39.9,0,0,1-11.2,30c-1.24,1.27.71,3.22,1.95,2a42.61,42.61,0,0,0,12-31.94c-.1-1.77-2.87-1.78-2.76,0Z"/><path d="M249.62,240.49a21.81,21.81,0,0,1-3.24-10.06,1.41,1.41,0,0,0-1.38-1.38,1.39,1.39,0,0,0-1.38,1.38,24.76,24.76,0,0,0,3.62,11.45c.93,1.51,3.32.12,2.38-1.39Z"/><path d="M267.54,248.39a6.74,6.74,0,0,1,6.53-1.75c1.13.27,2.14-.45,3.22-.81a27.67,27.67,0,0,1,4.1-1,27.37,27.37,0,0,1,8.33-.13,26.24,26.24,0,0,1,3.72.81,15,15,0,0,0,4.15,1c2.43,0,3.92-2.05,6.09-2.77a7.23,7.23,0,0,1,6.83,1.8,16.63,16.63,0,0,1,4.09,6.61c.84,2.23,1.7,5.15.16,7.28s-4.32,2.45-6.59,2.84c-3.46.6-6.92,1.17-10.38,1.75-1.23.21-.71,2.07.51,1.87l9.2-1.56a19.64,19.64,0,0,0,6.64-1.86c4.54-2.6,3.58-7.86,1.88-12-1.82-4.36-5-8.63-10.12-9-2.42-.16-4.14,1-6.09,2.2a4.25,4.25,0,0,1-3.74.57c-1.4-.38-2.74-.88-4.17-1.18A29.37,29.37,0,0,0,274.18,245l.74-.1a8.65,8.65,0,0,0-8.75,2.14,1,1,0,0,0,1.37,1.37Z"/><path d="M298.66,257.55l-2,6.56c-.32,1-.58,2.13-1,3.15-.14.38-.29.63-.71.68a7.33,7.33,0,0,1-1.48,0l-3.34-.16c-.81,0-2,.1-2.47-.73-.91-1.66.64-3.74,1.63-5,1.62-2,3.28-4,4.92-5.94.79-1-.57-2.32-1.36-1.36-1.74,2.09-3.53,4.15-5.2,6.28-1.37,1.75-2.75,4.06-1.93,6.36,1,2.66,4,2.27,6.34,2.39a10.22,10.22,0,0,0,3.78-.06c1.15-.41,1.55-1.49,1.88-2.56.92-3,1.83-6.06,2.75-9.09.36-1.19-1.51-1.7-1.87-.51Z"/><path d="M282.77,256.42c-1.2,1.41-2.45,2.79-3.59,4.25a4.68,4.68,0,0,0-1.1,4.49,5.41,5.41,0,0,0,7.82,2.67,1,1,0,0,0-1-1.67c-1.83,1.06-4.64.35-5.09-1.93-.22-1.11.57-2,1.24-2.82l3.07-3.63a1,1,0,0,0-1.37-1.36Z"/><path d="M278.11,251.16l-2.94,5.27-1.47,2.64a8.44,8.44,0,0,0-1.11,2.58,3.83,3.83,0,0,0,1.87,4c1.51,1,3.38.9,5.09.77,1.24-.09,1.25-2,0-1.93s-2.84.27-4-.45-1.19-2-.57-3.18c1.52-2.94,3.23-5.8,4.84-8.68.61-1.09-1.06-2.07-1.67-1Z"/><path d="M272.72,247.92l-3.55,4a1,1,0,0,0,1.37,1.36l3.54-4a1,1,0,0,0-1.36-1.36Z"/><path d="M266.39,258.34a5.83,5.83,0,0,0,1.88,4.92,5.94,5.94,0,0,0,5.24,1.33,1,1,0,0,0,.68-1.19,1,1,0,0,0-1.19-.67l-.27,0c-.23.05.11,0-.1,0l-.55,0-.27,0s-.31,0-.11,0a5.17,5.17,0,0,1-.54-.11l-.52-.17c-.19-.07.09.06-.1-.05l-.2-.1a5.3,5.3,0,0,1-.47-.28l-.11-.08c.06.05.07.05,0,0l-.2-.18c-.13-.12-.24-.24-.35-.36s-.18-.22-.08-.09c-.06-.07-.11-.15-.16-.22s-.19-.31-.28-.48a2.56,2.56,0,0,1-.11-.24c.07.17,0-.1,0-.11a4.64,4.64,0,0,1-.16-.53l-.06-.26c0-.05,0-.31,0-.11a5,5,0,0,1,0-1.09,1,1,0,0,0-1-1,1,1,0,0,0-1,1Z"/><path d="M307,241.57a7.9,7.9,0,0,0-1.71-2.23,8.65,8.65,0,0,0-2.65-1.6,1.38,1.38,0,0,0-1.07.13,1.42,1.42,0,0,0-.63.83,1.4,1.4,0,0,0,.14,1.06,1.58,1.58,0,0,0,.82.64l.2.08-.33-.14a6.76,6.76,0,0,1,1.45.84l-.28-.21a6.76,6.76,0,0,1,1.23,1.22l-.22-.28a6.38,6.38,0,0,1,.66,1.05,1.44,1.44,0,0,0,.83.64,1.4,1.4,0,0,0,1.06-.14,1.42,1.42,0,0,0,.5-1.89Z"/><path d="M321.28,225.24c-3.16,2.16-6.29,4.38-9.5,6.46a31.8,31.8,0,0,1-9.64,4.5c-1.72.43-1,3.09.74,2.67a33.65,33.65,0,0,0,10-4.6c3.32-2.12,6.54-4.42,9.8-6.64,1.46-1,.08-3.4-1.4-2.39Z"/><path d="M316.13,260.92c-.13,3.05,3.48,4.42,5.93,3.31a9.39,9.39,0,0,0,3.37-3.08c1-1.33,2.07-2.63,3.19-3.88a56.28,56.28,0,0,1,15.79-12.18,55.69,55.69,0,0,1,10.67-4.2,1.38,1.38,0,0,0-.73-2.66,58.91,58.91,0,0,0-20.43,10.35,57.89,57.89,0,0,0-8.28,7.91c-1.2,1.41-2.23,3.05-3.55,4.36a2.9,2.9,0,0,1-1.93,1c-.61,0-1.3-.32-1.27-1,.07-1.78-2.69-1.78-2.76,0Z"/><path d="M210.57,259.15c.3.25.05.05.06-.06s0,.14,0,.16a2.53,2.53,0,0,1-.22.15c-.67.2-1.43-.64-1.8-1.06-1.17-1.29-2.25-2.62-3.54-3.81a73.75,73.75,0,0,0-8.68-6.53c-1.48-1-2.87,1.4-1.4,2.39,3.78,2.55,7.6,5.14,10.6,8.63,1.41,1.66,3.07,3.67,5.55,3,2-.52,3.18-3.37,1.38-4.85a1.42,1.42,0,0,0-2,0,1.39,1.39,0,0,0,0,1.95Z"/><path d="M196.43,244.3a11.88,11.88,0,0,1,1.94.21,16.5,16.5,0,0,1,2.17.57,11.8,11.8,0,0,1,1.8.78,16.44,16.44,0,0,1,1.91,1.19,1.39,1.39,0,0,0,1.89-.5,1.43,1.43,0,0,0-.5-1.89,16.83,16.83,0,0,0-9.21-3.12,1.38,1.38,0,0,0-1.38,1.38,1.4,1.4,0,0,0,1.38,1.38Z"/><path d="M205.28,258.69a2.35,2.35,0,0,1-2.53.5,15.48,15.48,0,0,1-3.15-1.45,61.52,61.52,0,0,1-6.18-3.82c-1-.71-2,1-1,1.67a58.51,58.51,0,0,0,7.49,4.5,8.3,8.3,0,0,0,3.86,1.18,3.93,3.93,0,0,0,3.15-1.6,1,1,0,0,0-.34-1.32,1,1,0,0,0-1.33.34Z"/><path d="M197.86,261a4.76,4.76,0,0,1-.28.49c-.11.15.2-.18-.06.05l-.17.17c-.08.08-.11.1,0,0l-.26.17c-.08,0-.52.26-.28.16a5.05,5.05,0,0,1-.55.18l-.24.05c-.11,0-.29,0-.08,0a5.63,5.63,0,0,1-.58,0h-.26s-.35,0-.08,0a9.74,9.74,0,0,1-4.48-2.56,1.41,1.41,0,0,0-1.95,0,1.39,1.39,0,0,0,0,1.95c1.86,1.55,3.82,3.11,6.32,3.35a5.33,5.33,0,0,0,5.33-2.67,1.41,1.41,0,0,0-.5-1.89,1.37,1.37,0,0,0-1.88.49Z"/><path d="M183.74,265.53a7.7,7.7,0,0,0,10-.95c.84-.91-.52-2.28-1.37-1.36a5.78,5.78,0,0,1-7.67.64,1,1,0,0,0-1.32.35,1,1,0,0,0,.35,1.32Z"/><path d="M214.56,203c-8.57,11-11.95,24.76-18.45,36.93-3.52,6.59-8.48,12.18-12.36,18.52-1.81,3-3.07,6.37-5.35,9a8.34,8.34,0,0,1-4.26,2.83c-1.55.37-3.17-.47-4.73-.66-3.76-.46-7.56,0-11.33.24a106.35,106.35,0,0,0-11.4,1.17c-3.94.64-7.86,1-11.76,1.85a43.09,43.09,0,0,1-11.33.8c-8.19-.3-16.4-.05-24.59,0a72.92,72.92,0,0,1-11.51-1.09,73.3,73.3,0,0,0-11.84-.77c-8.13.1-16.24.91-24.37.79-3.86-.06-7.62-.52-11.44-.9a16.35,16.35,0,0,1-4.07-.68,4,4,0,0,1-2.22-2.71,11.6,11.6,0,0,1-.68-3.82l-1.38,1.38c3.68-.16,7.3.61,10.93,1.09a116,116,0,0,0,12.08.72A236.65,236.65,0,0,0,79.2,267c4.66-.36,9.3-.87,13.92-1.5,1.75-.24,1-2.9-.73-2.66a237.62,237.62,0,0,1-24.41,2,176.09,176.09,0,0,1-24.31-.55c-4.05-.45-8.08-1.42-12.18-1.24a1.4,1.4,0,0,0-1.38,1.38c0,2.63.71,5.75,2.55,7.73,2,2.14,5.35,2,8,2.33,8.37,1,16.63.8,25,.39,4.17-.21,8.35-.41,12.54-.37a86.78,86.78,0,0,1,12,1.22c8.28,1.21,16.78.55,25.12.51,4,0,8,.22,12,.21a34.25,34.25,0,0,0,5.81-.48c2-.36,4-.92,6-1.29s3.94-.4,5.9-.7,4.13-.7,6.21-1c3.89-.51,7.87-.58,11.78-.8a36,36,0,0,1,5.87,0c1.68.19,3.23,1,4.94.78,3.52-.41,6.22-3.08,8.06-5.91,2-3.16,3.56-6.61,5.67-9.74s4.53-6.24,6.72-9.42c8.22-11.93,11.43-26.36,19-38.61a51.14,51.14,0,0,1,3.1-4.49c1.07-1.39-.87-3.35-2-2Z"/><path d="M92.39,268.82c5.94-8.95,11.89-17.9,17-27.34s9-19.57,14.48-28.86c1.27-2.17,2.69-4.22,4.06-6.32a19.52,19.52,0,0,1,3.26-4.29c1.81-1.59,4.1-.82,6.23-.37a56.22,56.22,0,0,0,8,1c11,.64,21.86-1.13,32.78.32,6.06.81,12.1,2.08,18.25,2s12.3-1.36,18.49-.91c1.78.13,1.77-2.63,0-2.76-5.57-.41-11.08.56-16.64.84s-11.3-.61-16.93-1.45a96.1,96.1,0,0,0-16.52-1.09c-5.54.12-11.09.54-16.64.42a58,58,0,0,1-8.42-.72c-2.47-.43-5.14-1.43-7.66-.85-3.72.87-5.74,5.28-7.69,8.15-6.2,9.1-10.2,19.45-15.16,29.22-5.59,11-12.43,21.34-19.26,31.62-1,1.49,1.4,2.87,2.38,1.4Z"/><path d="M202.92,179.57a16.57,16.57,0,0,0,8.91,2.82c1,0,4.35-.58,4,1.27s-3.65,1.32-4.92,1.22a18.26,18.26,0,0,1-9.63-3.22c-2.47-1.8-4.77-3.84-7.3-5.58-2.18-1.5-4.54-2.63-7.24-2.1s-5.2,2.13-7.54,3.54c-5.46,3.3-10.63,7.2-16.38,10-2.59,1.26-7,3.59-9.48,1-2.06-2.2-1.81-5.81-.83-8.44,2.37-6.34,8.95-9.35,15.08-10.87,3.37-.83,6.81-1.32,10.21-2s6.63-1.92,10-2.84,7.18-.84,10.72-1.54,7-1.7,10.6-1.79a26.24,26.24,0,0,1,11.39,2.31c3.44,1.55,6.25,3.93,9.18,6.25.67.54,1.77,1.17,2.14,2s-.15,1.48-1,1.7c-1.85.49-3.79-.77-5.23-1.78-2.31-1.6-5.71-4.67-8.53-2.34-1,.8.41,2.16,1.36,1.37,1.34-1.11,3.75.88,4.81,1.65a17.62,17.62,0,0,0,4.8,2.79c2.38.74,6.62-.09,5.78-3.5-.39-1.59-1.91-2.55-3.12-3.5-1.41-1.11-2.78-2.28-4.22-3.35a28.19,28.19,0,0,0-21.22-5.14c-4.11.63-8.07,1.82-12.23,2.17a30.69,30.69,0,0,0-5.55.8c-1.93.51-3.79,1.27-5.72,1.83-3.84,1.11-7.81,1.65-11.73,2.43-6.81,1.36-14.05,3.79-18,10a13.18,13.18,0,0,0-2.07,9c.48,3,2.43,5.62,5.56,5.93,3.44.33,7.18-1.76,10.11-3.34,3.27-1.78,6.35-3.88,9.47-5.91a94.44,94.44,0,0,1,8.64-5.18,10.12,10.12,0,0,1,4.49-1.39,8.82,8.82,0,0,1,4.58,1.9c2.76,1.87,5.21,4.15,7.94,6a20.72,20.72,0,0,0,10.57,3.17c1.64.11,3.5.22,4.93-.75a3.27,3.27,0,0,0,1.39-3.54,3.32,3.32,0,0,0-3-2.11c-2-.23-3.84.1-5.8-.36a15,15,0,0,1-5-2.19c-1-.7-2,1-1,1.67Z"/><path d="M203.21,166.11a20.71,20.71,0,0,1,6.06,3.41c1,.8,4.76,3.74,3.2,5.24-.74.72-2,.2-2.75-.19-1.2-.62-2.36-1.33-3.54-2l-7.25-4.09a1,1,0,0,0-1,1.67l6.86,3.87,3.47,2a6.56,6.56,0,0,0,3.2,1,3.16,3.16,0,0,0,3.11-4.07c-.54-2.05-2.64-3.78-4.24-5.05a23.64,23.64,0,0,0-6.63-3.67c-1.17-.42-1.67,1.45-.51,1.87Z"/><path d="M218.81,166.51a8.58,8.58,0,0,0-6.8-3.62,5.91,5.91,0,0,0-4,1.14,2.42,2.42,0,0,0,.71,4.12,1.38,1.38,0,0,0,1.7-1,1.43,1.43,0,0,0-1-1.7.6.6,0,0,1,.45.54c0-.31-.07.15,0,0s-.07.18-.1.15.29-.25.15-.15.17-.08.2-.1c-.18.09,0,0,.1,0l.32-.09c.21-.05.42-.1.63-.13-.2,0,0,0,.08,0l.32,0c.21,0,.43,0,.64,0l.32,0c.23,0-.32-.07.08,0a7.67,7.67,0,0,1,1.25.33l.24.09c-.26-.1.12.06.14.07l.51.27c.19.11.36.23.54.35s-.11-.1.08.06l.24.21c.16.14.31.29.46.45l.21.24c.19.22-.09-.12.09.13a1.42,1.42,0,0,0,1.89.5,1.39,1.39,0,0,0,.5-1.89Z"/><path d="M218.71,172l.35,0-.37-.05a2.43,2.43,0,0,1,.6.17L219,172a2.43,2.43,0,0,1,.54.31l-.28-.22a3,3,0,0,1,.5.51l-.22-.28a2.51,2.51,0,0,1,.36.61l-.14-.33a2.66,2.66,0,0,1,.17.63l0-.37a2.08,2.08,0,0,1,0,.61l0-.37a2.48,2.48,0,0,1-.15.55l.13-.33a2.08,2.08,0,0,1-.28.48l.22-.28a2.74,2.74,0,0,1-.45.45l.28-.22a1.81,1.81,0,0,1-.33.2l.33-.14a2.72,2.72,0,0,1-.38.11l.36,0a2.35,2.35,0,0,1-.53,0l.36,0c-.69-.11-1.34-.42-2-.53a1.5,1.5,0,0,0-1.06.14,1.44,1.44,0,0,0-.64.83,1.4,1.4,0,0,0,.14,1.06,1.37,1.37,0,0,0,.83.64,8.73,8.73,0,0,1,1.12.28,6.19,6.19,0,0,0,1.29.29,3,3,0,0,0,2.67-1.15,3.54,3.54,0,0,0,.84-2.61,4.14,4.14,0,0,0-1.14-2.47,3.86,3.86,0,0,0-2.75-1.15,1.38,1.38,0,0,0,0,2.76Z"/><path d="M215.78,182.07a2.78,2.78,0,0,0,2.91-.16,4,4,0,0,0,1.54-2.42,11.34,11.34,0,0,0-.11-5.61,1.39,1.39,0,0,0-2.67.74c.09.32.16.64.22,1a2,2,0,0,1,0,.24v.07c0,.17,0,.33,0,.5,0,.33,0,.66,0,1,0,.17,0,.33,0,.5s0,.29,0,.12,0,.19,0,.19a6.82,6.82,0,0,1-.2.87.68.68,0,0,1-.07.2s.12-.24,0,0-.15.35-.21.36.14-.2,0,0,0,0,.06,0-.15.09-.2.12.22-.05.06,0-.25,0-.05,0,0,0,0,0,.24.07.1,0,.3.17,0,0a1.38,1.38,0,1,0-1.39,2.38Z"/><path d="M159.66,190.84a7.34,7.34,0,0,1-3,3.27,22,22,0,0,1-5,1.2l-11.16,2.16c-1.74.34-1,3,.74,2.66l12.33-2.38a14.85,14.85,0,0,0,5-1.57,10.7,10.7,0,0,0,3.42-4,1.38,1.38,0,0,0-2.38-1.39Z"/><path d="M128.33,200.47c-6.22.51-14.11,1.06-18.19-4.74-3.34-4.75-4-11.7-10-14.25-1.62-.69-3,1.68-1.4,2.39,6,2.58,6.24,10.71,10.46,15.06,5,5.13,12.58,4.84,19.11,4.3,1.76-.15,1.78-2.91,0-2.76Z"/><path d="M159.4,168a52,52,0,0,0-32.79,9.39c-1.44,1-.06,3.41,1.4,2.38a49.65,49.65,0,0,1,31.39-9c1.78.1,1.77-2.66,0-2.76Z"/><path d="M141,169.1a40.69,40.69,0,0,1-12.23-28.33,1.38,1.38,0,0,0-2.76,0,43.52,43.52,0,0,0,13,30.28c1.28,1.24,3.23-.71,2-2Z"/><path d="M124.86,137.06a43,43,0,0,0,39.48,10.63,1.38,1.38,0,0,0,1-1.33,253.21,253.21,0,0,1,1.32-60.83c.25-1.73-2.41-2.48-2.66-.73a255.61,255.61,0,0,0-2.41,47.8c.2,4.6.54,9.18,1,13.76l1-1.33a40.1,40.1,0,0,1-36.78-9.92c-1.29-1.24-3.24.71-2,1.95Z"/><path d="M135.33,90.34a.92.92,0,0,1,.54-1.25c.82-.39,1.84.2,2.48.71,1.31,1,2.18,2.51,3.47,3.57,2.63,2.16,6.22,2.44,9.5,2.55,3,.11,5.92-.7,7.29-3.64.55-1.19.82-2.47,1.36-3.66s1.65-1.6,2.66-2.5a8.86,8.86,0,0,1,2-1.55,5,5,0,0,0,1.73-1.24A8.94,8.94,0,0,0,168,79.05c.34-1.73-2.32-2.48-2.67-.73-.22,1.12-.31,2.68-1.28,3.45-.57.46-1.32.63-1.91,1.08S161,84,160.4,84.39a7.12,7.12,0,0,0-2.76,2.71c-.59,1.21-.86,2.55-1.41,3.78-1.39,3.14-5.62,2.41-8.41,2a8.11,8.11,0,0,1-4.64-2c-1.29-1.25-2.27-2.76-3.81-3.74a4.77,4.77,0,0,0-5-.36,3.64,3.64,0,0,0-1.68,4.29c.65,1.63,3.32.92,2.67-.74Z"/><path d="M172.09,64.82V64.7l-2.72.37a32.75,32.75,0,0,1,.33,5.51c0,1-.09,1.92-.2,2.87a7.87,7.87,0,0,1-.39,2.1c-.12.28-.42.73-.72.69s-.49-.4-.63-.56-.51-.63-.77-1l-3.66-4.55a1.39,1.39,0,0,0-2,0,1.4,1.4,0,0,0,0,1.95c1.45,1.81,2.86,3.68,4.37,5.44A3.68,3.68,0,0,0,168.21,79,3.31,3.31,0,0,0,171,77.74a5.56,5.56,0,0,0,1.11-2.82c.17-1.15.29-2.31.35-3.47a36,36,0,0,0-.39-7.11,1.37,1.37,0,0,0-1.52-1,1.39,1.39,0,0,0-1.2,1.35v.12a1.39,1.39,0,0,0,2.77,0Z"/><path d="M173.7,67.45A27.6,27.6,0,0,0,180,42.78c-.41-1.73-3.08-1-2.66.73a24.71,24.71,0,0,1-5.59,22c-1.18,1.32.77,3.28,2,2Z"/><path d="M179.73,39.9a20.71,20.71,0,0,0-6.44-16.07,24.51,24.51,0,0,0-17-6.89c-14.33-.17-25.9,9.59-33.76,20.69a117.09,117.09,0,0,0-17.76,39.71A121.45,121.45,0,0,0,101.49,99a113.72,113.72,0,0,1-.82,11.81,38.63,38.63,0,0,1-1.35,5.39,10.72,10.72,0,0,0-.56,5.11c1.13,6.35,9.13,8.82,14.53,9.85a41.06,41.06,0,0,0,26-3.43,1.39,1.39,0,0,0,.28-2.17c-5.5-5.61-5.35-14.81-6.08-22.11l-2.84-28.16L129,59.21c-.18-1.75-2.94-1.77-2.77,0l3,29.36,1.51,14.92c.42,4.18.7,8.41,1.48,12.54s2.34,8.39,5.41,11.53l.28-2.17a38.87,38.87,0,0,1-19.66,3.7,37.36,37.36,0,0,1-9.63-2c-2.43-.86-5.1-2.26-6.46-4.54-1.75-2.93.22-6.23.86-9.2a62.93,62.93,0,0,0,1.09-10.71,127.77,127.77,0,0,1,2.35-20.35,118.36,118.36,0,0,1,15-38c6.55-10.67,15.5-20.93,28.22-23.83,6.63-1.52,13.84-.69,19.41,3.41,5.05,3.71,8.39,9.73,7.9,16.07-.14,1.77,2.62,1.76,2.76,0Z"/><path d="M131.83,56.5c-.84.4-2,1.06-3,.61s-.39-1.81-.27-2.56a44.87,44.87,0,0,1,1.85-7.21c.39-1.15.83-2.27,1.32-3.38a8.27,8.27,0,0,1,1.5-2.57,1.08,1.08,0,0,1,1.8,0,5.16,5.16,0,0,1,.55,3.15,1.38,1.38,0,0,0,2.76,0,7.68,7.68,0,0,0-1.08-4.75,3.84,3.84,0,0,0-4.09-1.57,5.58,5.58,0,0,0-3.08,2.79A31.25,31.25,0,0,0,128,46a45,45,0,0,0-1.56,5.32,22.38,22.38,0,0,0-.83,5.06,3.62,3.62,0,0,0,2.66,3.5c1.74.5,3.41-.2,5-.94s.2-3.15-1.39-2.39Z"/><path d="M174.53,37.93C161.8,39,148.66,44.15,136,40.05c-1.7-.54-2.43,2.12-.74,2.67,13,4.19,26.25-.9,39.29-2,1.76-.15,1.77-2.91,0-2.76Z"/><path d="M163.58,60.75a0,0,0,0,0,0,0l-.21.28,0,0-.28.22h0l-.33.13h0l-.37,0h.05l-.36,0h.06l-.33-.14.06,0-.28-.22,0,0-.22-.28,0,0-.14-.33s0,0,0,0l-.05-.37v0l.05-.37s0,0,0,0l.14-.32h0a1.07,1.07,0,0,0-.17.52,1,1,0,0,0,0,.55.94.94,0,0,0,.25.47.92.92,0,0,0,.38.35l.33.14a1.33,1.33,0,0,0,.74,0l.33-.14a1.35,1.35,0,0,0,.49-.49,1.76,1.76,0,0,0,.15-.35,0,0,0,0,0,0,0,1.47,1.47,0,0,0,0-.78v0h0l-.14-.33s0,0,0,0l-.23-.3,0,0h0l-.15-.11-.14-.11,0,0h0l-.36-.15h0l-.39,0h0a2.6,2.6,0,0,0-.39,0h0l-.33.14h0l-.27.21,0,0c.12-.14-.16.2-.22.29v0a1.05,1.05,0,0,0-.16.51,1.21,1.21,0,0,0,.27,1,1.12,1.12,0,0,0,.39.36l.33.14a1.3,1.3,0,0,0,.73,0l.33-.14a1.41,1.41,0,0,0,.5-.5Z"/><path d="M160.08,81.25a6.29,6.29,0,0,1-.62-.17l-.3-.1s-.31-.13-.08,0a8.42,8.42,0,0,1-1.07-.57l-.47-.33c.22.16-.1-.1-.12-.11l-.19-.17a6.25,6.25,0,0,1-.44-.45l-.21-.24s-.2-.27-.06-.07a8.28,8.28,0,0,1-.67-1.1c0-.11-.1-.21-.14-.31.07.17,0,0,0-.12a5.8,5.8,0,0,1-.19-.59q-.09-.33-.15-.66s-.06-.38,0-.23,0-.23,0-.22a8.93,8.93,0,0,1,0-1.37A1.38,1.38,0,0,0,153.92,73a1.42,1.42,0,0,0-1.38,1.38,9,9,0,0,0,6.8,9.5,1.38,1.38,0,0,0,.74-2.66Z"/><path d="M107.9,57.44C93.5,56,79,59,65.82,64.79A111.11,111.11,0,0,0,31.16,89.64,172.86,172.86,0,0,0,6,123.92C2.4,130.18-.78,137.14.17,144.54a17.16,17.16,0,0,0,3.93,9.07c2.2,2.55,5.1,4.39,7.81,6.33a21.33,21.33,0,0,1,6.51,7.21,38.34,38.34,0,0,0,2.43,4.28,16.85,16.85,0,0,0,3.25,3.23c3,2.29,6,4.43,8.9,6.82s5.79,5,8.5,7.69q2,2,4,4.15c1.21,1.32,3.16-.64,2-1.95A128.86,128.86,0,0,0,31.16,176.5c-2.59-2-5.74-3.75-7.81-6.33A27.21,27.21,0,0,1,21,166.08a28.72,28.72,0,0,0-2.45-3.81c-4-5.12-11-7.15-14.12-13.06-3.34-6.39-1.17-14,1.86-20a152.27,152.27,0,0,1,10.86-17.83A157.28,157.28,0,0,1,29.92,95,113.88,113.88,0,0,1,62.3,69.52c12.44-6.36,26.38-10.07,40.41-9.66,1.73.06,3.46.17,5.19.34s1.76-2.58,0-2.76Z"/><path d="M45.12,137.88c2.11,7.44,2.09,15.27,2.2,23q.18,12.12-.11,24.25t-1.08,24.23c-.5,7.87-1.3,15.79-.49,23.66.78,7.6,3.09,15,7.91,21.06,1.1,1.39,3.05-.57,2-1.95C46,240.22,48,223.88,48.86,209.8q1.55-23.73,1.24-47.51c-.1-8.39,0-17-2.32-25.15a1.38,1.38,0,0,0-2.66.74Z"/><path d="M55.66,265.56a40.2,40.2,0,0,1-4.92-17.82c-.06-1.78-2.82-1.78-2.76,0A43.11,43.11,0,0,0,53.28,267c.86,1.56,3.24.17,2.38-1.39Z"/><path d="M80.91,261.76q-2.77-6.43-5.07-13.07a1.41,1.41,0,0,0-1.7-1,1.38,1.38,0,0,0-1,1.69q2.41,7,5.35,13.74a1.39,1.39,0,0,0,1.89.49,1.41,1.41,0,0,0,.49-1.89Z"/><path d="M67.45,249.8c5.38.72,8.64-4,9.7-8.67.85-3.78,1.3-7.69,1.91-11.51q2-12.54,3.91-25.08,4.25-27.54,8.48-55.1,2-13.11,4.13-26.22c.28-1.74-2.38-2.49-2.66-.74-2.6,16.1-5.07,32.22-7.54,48.33q-4,26.07-8,52.15-1,6.15-2,12.31a39.65,39.65,0,0,1-1.46,7.17c-.83,2.32-2.91,5.07-5.72,4.69-1.74-.23-2.5,2.43-.74,2.67Z"/><path d="M113.74,149.31a83.14,83.14,0,0,1-9.23,20.34c-3.36,5.32-8.77,12.74-16.09,10.26-1.69-.57-2.41,2.1-.73,2.67,7.94,2.69,14.32-4.11,18.25-10.07a85.3,85.3,0,0,0,10.46-22.46c.52-1.71-2.15-2.44-2.66-.74Z"/><path d="M497.69,128.87c4.69-.22,7.11-4.68,9.16-8.31a78.27,78.27,0,0,0,6.6-13.94,34.17,34.17,0,0,0-3.16-28.22C505.42,70.14,497.4,64.21,488.47,61c-9.93-3.6-20.52-3.06-30.89-3.75-6-.4-12-1.34-17.48-3.84s-10.24-6-15-9.46c-1.24-.9-2.39.79-1.89,1.89a37.65,37.65,0,0,1,3.3,18c-.18,2.9-1.09,6-.29,8.83A6,6,0,0,0,431,77.27c2.58.32,4.56-1.45,6.7-2.57a5.5,5.5,0,0,1,6,.58c2,1.57,2.27,4,1.75,6.39-.65,2.92-1.86,5.64-2.09,8.66-.54,6.87,2.83,13.4,6,19.28a1.39,1.39,0,0,0,2.17.28c3.13-3.84,6.4-7.86,10.9-10.15,3.58-1.82,8.24-2.07,11.7.2a7.19,7.19,0,0,1,3.17,5c.28,2.16-.47,4.31-1.11,6.33a19.57,19.57,0,0,0-1.24,6.63,13.81,13.81,0,0,0,2,6.27A16.14,16.14,0,0,0,489.18,132c1.77.17,1.76-2.59,0-2.76a13.28,13.28,0,0,1-10.61-7.77,10.2,10.2,0,0,1-.54-6.56c.51-2.19,1.41-4.27,1.82-6.49a10.3,10.3,0,0,0-5.13-11.31,14.68,14.68,0,0,0-12.13-.45c-5.48,2.22-9.38,6.84-13,11.3l2.17.28c-2.84-5.36-5.94-11.22-5.61-17.47.28-5.19,4.49-10.88,1-15.83a8.63,8.63,0,0,0-5.46-3.5A9.1,9.1,0,0,0,435.07,73c-1.93,1.18-4.24,2.54-5.74,0s-.31-6-.11-8.76a40.51,40.51,0,0,0-3.64-19.85l-1.89,1.89a104.09,104.09,0,0,0,12.69,8.31,44.78,44.78,0,0,0,13.88,4.57c10,1.58,20.26.56,30.22,2.46a42.11,42.11,0,0,1,23.43,12.69c6.1,6.76,9.51,16.14,8.35,25.25-.71,5.61-3.07,10.85-5.7,15.79-1.22,2.28-2.44,4.6-3.84,6.78-1.15,1.79-2.72,3.84-5,4-1.77.08-1.78,2.84,0,2.76Z"/><path d="M469.6,166.71a54.11,54.11,0,0,0-20.41-15,81.13,81.13,0,0,0-11.76-3.51c-3.94-1-7.46-2.63-8.32-7a35.37,35.37,0,0,1-.2-7.56l.18-9.25a1.4,1.4,0,0,0-2.36-1,3.09,3.09,0,0,1-3.69,0,4.63,4.63,0,0,1-2-4.13c0-4,2.86-7.3,4.54-10.76,3.24-6.67,2.42-14.16,2.84-21.33.24-4,1-7.89,3.2-11.25,1-1.49-1.4-2.87-2.38-1.4-4.69,7-3.34,15.85-4,23.84a28.82,28.82,0,0,1-1,6,29,29,0,0,1-2.9,6c-2.12,3.65-4.2,8.08-2.37,12.29,1.57,3.64,6.53,5.44,9.66,2.62l-2.35-1-.17,8.28a64.36,64.36,0,0,0,0,7.35c.41,4.33,2.49,7.73,6.53,9.5,3.79,1.67,8,2.09,11.93,3.39a51,51,0,0,1,11.77,5.71,51.61,51.61,0,0,1,11.24,10c1.15,1.36,3.09-.6,2-1.95Z"/><path d="M432.15,101.15l0,0,.22.28a.41.41,0,0,1,0-.09l.14.33a.2.2,0,0,1,0-.11l.05.37a.24.24,0,0,1,0-.12l-.05.36a.26.26,0,0,1,0-.11l-.14.33a.41.41,0,0,1,0-.09l-.21.28.06-.06-.28.22.07,0-.33.14.1,0-.36,0h.11l-.37,0,.12,0-.33-.13.1,0-.28-.21a.23.23,0,0,1,.07.07l-.21-.28a.43.43,0,0,1,0,.07l.21-1.68-.44.54a1.09,1.09,0,0,0-.29.45,1.23,1.23,0,0,0,0,1.06,1.09,1.09,0,0,0,.29.45l.28.21a1.32,1.32,0,0,0,.7.19l.36,0a1.29,1.29,0,0,0,.61-.35l.45-.54.21-.28a1.07,1.07,0,0,0,.17-.52.73.73,0,0,0,0-.36A1.07,1.07,0,0,0,433,101l0-.06c-.06-.09-.16-.2-.22-.28l0,0,0,0,0,0a3.4,3.4,0,0,0-.3-.23l-.07,0a1.43,1.43,0,0,0-.46-.18l-.4,0h0a3.29,3.29,0,0,0-.44,0l-.06,0a2.4,2.4,0,0,0-.4.17l0,0-.29.22h0l0,0h0l-.23.3a.16.16,0,0,0,0,.06,1.71,1.71,0,0,0-.17.39s0,0,0,.07,0,.26-.05.38h0v.08l0,.2,0,.21a.31.31,0,0,0,0,.08l.07.17c0,.06.05.13.08.18l0,0a2.24,2.24,0,0,0,.27.34,1,1,0,0,0,.44.29,1.08,1.08,0,0,0,.53.12,1.12,1.12,0,0,0,.54-.12,1,1,0,0,0,.44-.29l.22-.28a1.37,1.37,0,0,0,.18-.69l0-.37a1.46,1.46,0,0,0-.36-.61Z"/><path d="M405.67,248.15l.87,1.54a1.39,1.39,0,0,0,2.57-.7c.06-4.6,3-8.61,5.76-12.05,2.93-3.65,6.11-7.1,8.48-11.16,1.19-2,2.62-3.94,4-5.85,2.46-3.4,5-6.75,7.52-10.1q9.25-12.24,18.71-24.32c4.73-6.08,11.1-10.86,17.27-15.38,4.56-3.35,9.23-6.58,14-9.6,1.5-.95.12-3.34-1.39-2.39-4.08,2.58-8.07,5.32-12,8.13-6.45,4.63-13.16,9.48-18.4,15.5-3.18,3.66-6,7.67-9,11.51q-4.84,6.27-9.65,12.58c-4.45,5.84-9.18,11.64-13.08,17.88-1,1.65-2,3.3-3.21,4.85-1.69,2.18-3.51,4.25-5.23,6.39-3.25,4.05-6.5,8.61-6.57,14l2.57-.7-.87-1.54a1.38,1.38,0,0,0-2.38,1.4Z"/><path d="M381.68,220.52,379,235.2c-.81,4.45-2.15,9.22-1.26,13.76s5.06,7.87,8.62,10.45a59.61,59.61,0,0,0,18.8,8.94c5.52,1.57,11.38,2.92,17,1,4.72-1.6,8.88-4.53,12.69-7.67a112.57,112.57,0,0,0,12.37-12.24c7.23-8.17,13.66-17,20.17-25.7,2.64-3.53,5.49-6.87,8.12-10.54,2.81-3.92,6.49-10.29,12.24-8.44a16,16,0,0,1,4.79,2.79c1.38,1.09,3.35-.85,2-1.95-2.56-2-5.56-4-9-4a10.12,10.12,0,0,0-6.81,3.14,50,50,0,0,0-5.8,7.32c-1.48,2.06-3.07,4-4.66,6-5.91,7.4-11.26,15.24-17.24,22.6A173.19,173.19,0,0,1,439.2,254a67.28,67.28,0,0,1-12.35,10.11c-3.43,2.08-7.39,3.84-11.49,3.49a56.5,56.5,0,0,1-21.65-6.82c-4.3-2.33-9-5.32-11.93-9.35a7.43,7.43,0,0,1-1-1.91,15.23,15.23,0,0,1-.25-6.88c.7-4.77,1.7-9.51,2.56-14.25l1.29-7.11c.31-1.74-2.35-2.48-2.67-.73Z"/><path d="M503.1,139.9c3.87,2.86,7.9,5.49,12,8a71.49,71.49,0,0,1,8.49,5.7c6.77,5.65,10.34,14.35,13.06,22.5,4.29,12.8,5.69,26.26,7.25,39.6,1.41,12.14,3.58,24.13,5.74,36.15.78,4.29,1.64,8.56,2.8,12.77,1.58,5.75,3.59,11.38,5.65,17l.35-1.35c-2.52,3.14-6.58,3.75-10.38,3.82-4.87.09-9.77-.33-14.63-.51-10.3-.39-20.59-.7-30.89-1.08-5.13-.18-10.26-.36-15.39-.61-4.32-.21-9.1-.72-11.9-4.45-2.5-3.34-3.21-7.89-4.08-11.87-.83-3.78-1.47-7.59-2.12-11.39a71.43,71.43,0,0,0-2.37-10.32,68.18,68.18,0,0,0-5.58-12.16,1.38,1.38,0,0,0-2.39,1.39A62,62,0,0,1,464.44,246a94.31,94.31,0,0,1,2.3,11c.84,5,1.75,9.95,3.08,14.82s3.71,9.39,8.68,11.38a25,25,0,0,0,7.86,1.42c3.06.18,6.13.27,9.2.39,6.21.25,12.43.46,18.64.67s12.35.42,18.53.65c3.14.11,6.28.24,9.42.37a65.21,65.21,0,0,0,8,.06,18.28,18.28,0,0,0,6.62-1.65,10.91,10.91,0,0,0,2.7-1.88,6.8,6.8,0,0,0,1-1.13c.47-.73.2-1.33-.07-2.07-1.69-4.61-3.33-9.25-4.73-14A202.75,202.75,0,0,1,551,244c-1-5.66-2.12-11.29-2.95-17-.88-6.1-1.53-12.23-2.25-18.35-1.41-11.9-3.13-23.85-7.19-35.18-2.65-7.37-5.95-15.13-11.77-20.59-4.85-4.56-11-7.57-16.52-11.23q-3-2-5.87-4.11c-1.43-1.06-2.81,1.34-1.39,2.38Z"/><path d="M387.16,220.33l-1.44-1.18-1.34,2.31a63.4,63.4,0,0,1,20.16,7.23,67.61,67.61,0,0,1,8.64,5.41c1.42,1.07,2.8-1.32,1.39-2.38a67.78,67.78,0,0,0-8.91-5.57,65.69,65.69,0,0,0-20.54-7.35c-1.2-.19-2.54,1.33-1.35,2.31l1.43,1.17c1.37,1.12,3.33-.82,2-1.95Z"/><path class="cls-1" d="M166.08,240A9,9,0,0,1,148.37,243c-.74-2.64-.25-5.45-.42-8.18s-1-5.49-.58-8.21,2.89-5.46,5.57-4.81c1.73.42,2.86,2,3.82,3.52l9.6,14.88"/><path class="cls-5" d="M165.11,240a8.06,8.06,0,0,1-15.65,3.17c-.85-2.39-.45-5-.5-7.48s-.71-4.86-.74-7.32c0-2.12.73-4.59,2.86-5.5s3.79,1.29,4.84,2.9c3.22,4.94,6.4,9.91,9.6,14.87.68,1.05,2.37.08,1.68-1l-5.45-8.44c-1.67-2.59-3.22-5.32-5.07-7.78-1.35-1.78-3.29-3.2-5.63-2.62a6.74,6.74,0,0,0-4.47,4.8c-.81,2.93.16,6,.38,8.92s-.38,6.09.57,9A10,10,0,0,0,167.06,240c-.05-1.25-2-1.25-1.95,0Z"/><path class="cls-6" d="M156.68,243.16a7.76,7.76,0,0,1-3.87-7.49,2,2,0,0,1,.78-1.56c.79-.46,1.77.18,2.36.88a17.74,17.74,0,0,1,2.94,6,3.19,3.19,0,0,1,.2,2.18c-.29.68-1.35,1-1.78.43"/><path d="M157.17,242.32a6.82,6.82,0,0,1-3.42-6.3c0-.27,0-1,.36-1.09.48-.16,1.15.73,1.38,1a14.78,14.78,0,0,1,2,4,10.82,10.82,0,0,1,.75,2.45.84.84,0,0,1-.11.55L158,243h0s.22.22,0,0a1,1,0,0,0-1.38,0,1,1,0,0,0,0,1.38,1.94,1.94,0,0,0,2.58.19,2.68,2.68,0,0,0,.86-3,20,20,0,0,0-1-2.91,17.63,17.63,0,0,0-1.34-2.85,7,7,0,0,0-2.13-2.39,2.37,2.37,0,0,0-3,.25,3.91,3.91,0,0,0-.82,2.71,8.4,8.4,0,0,0,.42,2.72,8.81,8.81,0,0,0,4,4.91,1,1,0,0,0,1-1.68Z"/><path d="M431.89,131.93l.43.74a2,2,0,0,0,2.66.7l1-.7-2.86-1.16a6.59,6.59,0,0,1,.3,1.24l-.07-.51a6.75,6.75,0,0,1,0,1.68l.07-.52a6.72,6.72,0,0,1-.18.87l2.39-1.36-.18-.06.46.19a1.56,1.56,0,0,1-.28-.16l.39.3a1.72,1.72,0,0,1-.27-.27l.3.39a2.22,2.22,0,0,1-.25-.42l.2.46a2.36,2.36,0,0,1-.17-.59l.07.52a3.21,3.21,0,0,1,0-.62l-.06.52a2,2,0,0,1,.11-.44l-.19.46a1.87,1.87,0,0,1,.22-.39l-.3.4a1.72,1.72,0,0,1,.27-.27l-.4.3a2.71,2.71,0,0,1,.37-.21l-.46.2a1.46,1.46,0,0,1,.41-.11l-.52.07a1.63,1.63,0,0,1,.54,0l-.52-.07a1.91,1.91,0,0,1,.52.14l-.46-.2a2.22,2.22,0,0,1,.42.25l-.39-.3a2.38,2.38,0,0,1,.36.35l-.31-.4a2,2,0,0,1,.26.45l-.2-.47a2.64,2.64,0,0,1,.15.55l-.07-.52a2.66,2.66,0,0,1,0,.63l.07-.51a2.93,2.93,0,0,1-.18.66l.19-.46a2.86,2.86,0,0,1-.3.54l.3-.4a2,2,0,0,1-.38.39l.39-.3a1.76,1.76,0,0,1-.42.24l.47-.19a1.78,1.78,0,0,1-.38.1l.51-.07a2.09,2.09,0,0,1-.5,0l.52.07a2.11,2.11,0,0,1-.49-.14l.46.2a3.1,3.1,0,0,1-.5-.29l.4.3a2.33,2.33,0,0,1-.42-.41l.3.39a2.62,2.62,0,0,1-.3-.51l.2.46a2.38,2.38,0,0,1-.15-.52l.07.52a2.25,2.25,0,0,1,0-.58l-.07.52a2.56,2.56,0,0,1,.15-.56l-.19.46a2.52,2.52,0,0,1,.33-.54l-.31.39a2.52,2.52,0,0,1,.4-.4l-.39.3a2.78,2.78,0,0,1,.47-.28l-.46.2a1.88,1.88,0,0,1,.46-.14l-.52.07a1.93,1.93,0,0,1,.48,0l-.51-.07a2.24,2.24,0,0,1,.37.1l-.46-.19a1.86,1.86,0,0,1,.43.25l-.39-.3a2.21,2.21,0,0,1,.41.4l-.31-.39a2.84,2.84,0,0,1,.33.56l-.19-.47a2.66,2.66,0,0,1,.17.63l-.07-.52a2.41,2.41,0,0,1,0,.6l.07-.52a2.33,2.33,0,0,1-.13.52l.19-.47a2.46,2.46,0,0,1-.25.45l.3-.39a2.46,2.46,0,0,1-.39.4l.39-.3a2.31,2.31,0,0,1-.48.28l.46-.19a2.26,2.26,0,0,1-.58.16l.52-.07a2,2,0,0,1-.49,0l.52.07a1.81,1.81,0,0,1-.47-.13l.46.2a2.4,2.4,0,0,1-.38-.23l.4.3a2.32,2.32,0,0,1-.35-.35l.31.39a2.87,2.87,0,0,1-.28-.48l.2.46a2.94,2.94,0,0,1-.19-.66l.07.52a2.66,2.66,0,0,1,0-.69l-.07.52a2.41,2.41,0,0,1,.16-.6l-.2.46a2.3,2.3,0,0,1,.25-.43l-.3.39a1.87,1.87,0,0,1,.31-.32l-.39.31a2.06,2.06,0,0,1,.37-.23l-.46.2a1.48,1.48,0,0,1,.41-.12l-.52.07a1.45,1.45,0,0,1,.36,0l-.52-.07.29.07-.46-.19a1.23,1.23,0,0,1,.25.14l-.39-.31.17.17-.3-.39a1.28,1.28,0,0,1,.17.3l-.19-.46a2,2,0,0,1,.09.35l-.07-.52a2.16,2.16,0,0,1,0,.36l.07-.52a1.35,1.35,0,0,1-.09.33l.2-.47c0,.08-.08.14-.12.21l.3-.4-.13.14.39-.31-.16.1.46-.2-.13,0,.52-.07a.54.54,0,0,1-.18,0l.52.07-.17-.05.46.2-.19-.13.39.31a1.37,1.37,0,0,1-.17-.17l.31.39a1.28,1.28,0,0,1-.15-.25l.19.47a1,1,0,0,1-.06-.23l.07.52a1.09,1.09,0,0,1,0-.18l-.07.52a1.21,1.21,0,0,1,.05-.18l-.2.47a.75.75,0,0,1,.07-.12l-.31.39.07-.07a2,2,0,0,0,.57-1.37,1.95,1.95,0,0,0-1.95-1.95,2,2,0,0,0-1.37.57,2.64,2.64,0,0,0-.67,2.48A3.07,3.07,0,0,0,434.3,135a2.52,2.52,0,0,0,2.13.35,2.61,2.61,0,0,0,1.12-.66,2.9,2.9,0,0,0,.7-1.15,3.22,3.22,0,0,0,.07-1.82,3,3,0,0,0-.86-1.53,3.3,3.3,0,0,0-4.08-.23,3.78,3.78,0,0,0-1.27,1.42,4.6,4.6,0,0,0-.46,1.86,4.46,4.46,0,0,0,1.16,3.11,3.66,3.66,0,0,0,1.57,1,3.82,3.82,0,0,0,1.9.09,4.05,4.05,0,0,0,3.11-5.18,4.77,4.77,0,0,0-.94-1.69,2.83,2.83,0,0,0-.34-.35,4.23,4.23,0,0,0-.78-.55,3.61,3.61,0,0,0-1.88-.42,4,4,0,0,0-1.88.62,4.71,4.71,0,0,0-1.38,1.43,4.51,4.51,0,0,0-.58,2,4.12,4.12,0,0,0,4.86,4.2,3.85,3.85,0,0,0,2.53-2,4.57,4.57,0,0,0,.41-3.34,3.85,3.85,0,0,0-2.53-2.63,3.7,3.7,0,0,0-3.19.33,3.76,3.76,0,0,0-1.69,3.07,4.07,4.07,0,0,0,1.1,2.89,3.32,3.32,0,0,0,1.51.89A2,2,0,0,0,437,135.3a8.09,8.09,0,0,0-.12-4.82,2,2,0,0,0-1.12-1.27,1.89,1.89,0,0,0-1.73.1l-1,.7,2.66.7-.43-.74a2,2,0,0,0-2.67-.7,2,2,0,0,0-.69,2.66Z"/><path class="cls-7" d="M376,22.7c-4.27-.55-7.87,1.26-11,3.83C361.1,20,353.75,13.39,347.48,19c-2.55,2.27-2.64,5.89-2.15,9.28a16.36,16.36,0,0,0,1.32,6.25,59.42,59.42,0,0,0,6.1,14.66c0,.08.1.14.15.22,1.34,2.25,3.16,4,5.92,4.49,5.75.93,10.9-5.32,14.81-8.58,4.06-3.39,10.48-7,10.9-12.86C384.89,27.46,380.7,23.31,376,22.7Z"/></g></g></svg>