<svg xmlns="http://www.w3.org/2000/svg" viewBox="0 0 341.46 262.82"><defs><style>.cls-1{fill:#5398ff;}.cls-2{fill:#ffba53;}</style></defs><title>laptop</title><g id="Layer_2" data-name="Layer 2"><g id="Layer_2-2" data-name="Layer 2"><path class="cls-1" d="M260.46,96.67s7.2-7.71,31.2,6.17S322,123.07,322,123.07s8.23,7,8.23,23.31S339,198.16,339,198.16l-1.37,5.48-4.45,1.2.51-10.28s.34-10.12-27.94-5.83c0,0-10.12,1.37-11,9.77s-1.38,11-1.38,11-22.8,3.77-40.62,10.63c0,0-24.86,6-39.6,6.34S190,223.7,190,223.7h-2.91s-2.23-29-9.77-38.06l-15.6,18.52L132.4,192.84l-4.63-18.17,34.46-53s9.94-21.43,38.92-17.49l4.62,4.46,5.66,5.66,5.49,10.45,8.4,9.6s7.37,16.63,23.31-.68c0,0,11.14-15.09,11.49-22.29S260.46,96.67,260.46,96.67Z"/><path d="M253.22,61.81a17.62,17.62,0,0,1,3.83-5.34,7.7,7.7,0,0,1,2.25-1.64c.1,0,.52,0,.25,0s-.09-.48.11.11c-.12-.36.26.45.26.44.69,1.4.63,3.94.5,5.73a17.22,17.22,0,0,1-1.65,6.43c-1,2-2.46,3.69-3.62,5.57a17.2,17.2,0,0,0-2.44,7.17c-.57,5,1,9.92,2.92,14.43a26.26,26.26,0,0,1,2.17,6.57,22.2,22.2,0,0,1-.08,6.61,39.28,39.28,0,0,1-5,13.3,108.3,108.3,0,0,1-8.23,12.14c-2.17,2.83-5.15,6.2-8.89,6.18-5.12,0-8.49-5.11-10.95-8.93a114.77,114.77,0,0,1-8.28-15.31,2.78,2.78,0,0,0-3.78-1,2.83,2.83,0,0,0-1,3.78,114.77,114.77,0,0,0,8.28,15.31c3,4.63,6.44,9.23,11.89,11,5.25,1.74,10.35-.49,14.08-4.24a49.44,49.44,0,0,0,4.82-6c1.64-2.25,3.26-4.52,4.76-6.86,5.86-9.1,10.69-21,6.53-31.75-1.86-4.83-4.4-9.54-3.81-14.91a13.39,13.39,0,0,1,2.66-6.2,27.44,27.44,0,0,0,3.81-6.86A25.81,25.81,0,0,0,266,58c-.17-2.78-.76-5.83-3.11-7.61-5.66-4.28-12.27,4.13-14.41,8.65a2.84,2.84,0,0,0,1,3.78,2.79,2.79,0,0,0,3.78-1Z"/><path d="M246,89c-.87,7.81-6.57,14.17-13.11,18a50.05,50.05,0,0,1-11.63,4.86c-3.37,1-7.76,2-10.63-.69s-3.87-6.58-5.49-9.82c-2-4-4.33-8-6.51-11.94a86.94,86.94,0,0,1-5.67-12,86.14,86.14,0,0,1-3.54-13.12c-.95-4.89-1.59-9.82-2.15-14.76-.27-2.32-.61-4.65-.68-7-.05-1.89.08-4,1.34-5.57a2.12,2.12,0,0,0,0-2.93,2.08,2.08,0,0,0-2.93,0c-2.89,3.49-2.72,7.87-2.25,12.14.55,5,1.13,10,1.93,15A100.86,100.86,0,0,0,188,75.6a82.57,82.57,0,0,0,5.92,13.78c2.31,4.33,4.83,8.54,7.08,12.9,1.95,3.78,3.29,8.19,6.23,11.35,3.25,3.48,8,3.83,12.42,2.94a51.69,51.69,0,0,0,13-4.66c9-4.56,16.39-12.58,17.54-22.91a2.09,2.09,0,0,0-2.07-2.08A2.12,2.12,0,0,0,246,89Z"/><path d="M200.57,72.53a52.81,52.81,0,0,0-2.4,8.65c-.52,2.83-.95,5.85.3,8.55,1,2.06,3.06,3.81,5.42,3.67a4.68,4.68,0,0,0,4.51-4.3c.1-1.78-2.66-1.77-2.76,0-.08,1.3-1.77,1.8-2.81,1.37-1.62-.67-2.32-2.58-2.41-4.2a23.66,23.66,0,0,1,.85-6.47,53.42,53.42,0,0,1,2-6.54c.62-1.67-2-2.39-2.66-.73Z"/><path d="M204.23,99.72a13.24,13.24,0,0,0,16.68-1.41,1.38,1.38,0,0,0-1.95-2,10.5,10.5,0,0,1-13.34,1,1.39,1.39,0,0,0-1.89.5,1.42,1.42,0,0,0,.5,1.89Z"/><path d="M221.62,68.94h0l-.21.27,0,0-.28.22.05,0-.33.14.06,0-.37.05h.08l-.37-.05.06,0-.33-.14.06,0-.28-.21,0,0-.21-.28a.08.08,0,0,1,0,0l-.14-.33,0,0,0-.37v.06l0-.37a.64.64,0,0,1,0,.07l.14-.33a.21.21,0,0,1,0,.06l.22-.28-.05,0,.28-.21,0,0,.33-.14h0l.36,0h0a1.08,1.08,0,0,0-.53.11,1.09,1.09,0,0,0-.44.29,1.06,1.06,0,0,0-.29.44,1.25,1.25,0,0,0-.12.54l0,.36a1.4,1.4,0,0,0,.36.61l.28.22a1.38,1.38,0,0,0,.69.19h0l.39,0h0l.33-.14.05,0a1.87,1.87,0,0,0,.56-.56s0,0,0,0a2.74,2.74,0,0,0,.15-.35v0a2,2,0,0,0,.05-.42,1.52,1.52,0,0,0-.21-.78v0a2.37,2.37,0,0,0-.23-.3h0l-.28-.21,0,0a1.69,1.69,0,0,0-.37-.15,2.25,2.25,0,0,0-.41-.06h-.07l-.36,0h-.07l-.33.14h0l-.3.23v0a3.36,3.36,0,0,0-.24.29,1.06,1.06,0,0,0-.16.52,1,1,0,0,0,0,.55,1.44,1.44,0,0,0,.63.82l.33.14a1.3,1.3,0,0,0,.73,0l.33-.14a1.31,1.31,0,0,0,.5-.49Z"/><path d="M195.24,69.57l0,0,.28-.22a.51.51,0,0,1-.16.09l.33-.14a.76.76,0,0,1-.2.06l.36,0a.81.81,0,0,1-.22,0l.36,0a.86.86,0,0,1-.23-.06l.33.14-.2-.11.28.21a.62.62,0,0,1-.14-.14l.22.28a.64.64,0,0,1-.08-.14l.14.33,0,0a1.05,1.05,0,0,0-.24-.47,1,1,0,0,0-.39-.35,1.07,1.07,0,0,0-.51-.17,1,1,0,0,0-.55,0l-.33.14a1.31,1.31,0,0,0-.5.49l-.14.33a1.33,1.33,0,0,0,0,.74,2.55,2.55,0,0,0,.24.5,2.11,2.11,0,0,0,.34.41,2.49,2.49,0,0,0,.44.32,2.85,2.85,0,0,0,.51.2,2.32,2.32,0,0,0,1.11,0l.1,0a3,3,0,0,0,.41-.18,1.55,1.55,0,0,0,.44-.32,1,1,0,0,0,.29-.44,1,1,0,0,0,.12-.54,1,1,0,0,0-.12-.53,1,1,0,0,0-.29-.44l-.27-.22a1.44,1.44,0,0,0-.7-.19l-.37,0a1.46,1.46,0,0,0-.61.36Z"/><path d="M190.37,36A22.47,22.47,0,0,1,203.78,9.85l-3.5-2.66-.39,3.92c-.24,2.27,2.46,3.19,4.15,2.38,7.81-3.73,15.88-7.53,24.67-7.93,7.53-.33,15.25,1.86,20.49,7.5s6.13,13.74,8.36,20.77a59.51,59.51,0,0,0,5.11,11.23c1.94,3.43,4,6.85,5.23,10.64a29.3,29.3,0,0,1-3,24l4.77,2.79c1.94-4,0-9.24-4.64-10.09a7.11,7.11,0,0,0-6.19,1.73,13.45,13.45,0,0,0-1.95,2.67c-.21.35-.48.63-.69,1-.37.54-.57,0,0,.12-3.45-.88-4.92,4.45-1.47,5.33a5.63,5.63,0,0,0,5.37-1.55,10.16,10.16,0,0,0,1.56-2.06,5.17,5.17,0,0,1,1.09-1.55,1.6,1.6,0,0,1,1.71,0,1.13,1.13,0,0,1,.49.85,1.07,1.07,0,0,1,0,.55s-.12.38-.08.3c-1.54,3.17,2.89,5.86,4.77,2.79a35.06,35.06,0,0,0,4.48-24.49,40.62,40.62,0,0,0-4.75-12.27c-2.05-3.71-4.36-7.33-5.82-11.33-2.87-7.85-3.68-16.6-8.92-23.41-5.38-7-13.94-10.58-22.61-11-11-.53-21.12,4-30.82,8.68l4.16,2.39.4-3.92a2.78,2.78,0,0,0-3.5-2.67,28.41,28.41,0,0,0-14.52,12.31A28.23,28.23,0,0,0,185,37.49c.86,3.45,6.19,2,5.33-1.47Z"/><path d="M248.77,49.13a25.93,25.93,0,0,1-.1,9.54c-.09.46-.32,1.17-.35,1.51s-.43.22.32,0c1.16-.36.37.12.81.07.24,0-.09-.18,0-.07-.14-.24-.28-.46-.4-.71s-.45-1.34-.66-2c-1-3.17-2-6.36-3.11-9.52a29.45,29.45,0,0,0-3.79-8.06c-3.66-5-9.28-6.93-15.25-7.48a90.23,90.23,0,0,0-19.22.72c-3.63.46-7.2,1.2-10.81,1.75-2.39.37-5.46.68-7.39-1l-1.22,4.62.81-.13a2.77,2.77,0,0,0,1.93-3.39,2.83,2.83,0,0,0-3.4-1.93l-.81.12c-2,.32-2.71,3.35-1.22,4.62,5.44,4.61,12.56,2.31,18.86,1.3a97,97,0,0,1,21.32-1.28,20.33,20.33,0,0,1,7.76,1.75,12.34,12.34,0,0,1,5.65,6.08,73.45,73.45,0,0,1,3.15,8.9l1.72,5.27a10.32,10.32,0,0,0,2.32,4.35,4.57,4.57,0,0,0,5.4.87c1.69-.9,2.45-2.75,2.84-4.52a32.54,32.54,0,0,0,.19-12.93,2.78,2.78,0,0,0-3.39-1.93,2.83,2.83,0,0,0-1.93,3.4Z"/><path d="M260.63,98.57c9.82-2.61,19.71,1.62,28.19,6.28,4.56,2.5,9,5.22,13.63,7.55a123.82,123.82,0,0,1,12,6.28,22.84,22.84,0,0,1,8.4,9.25,37.28,37.28,0,0,1,3.06,12.25c.53,4.86.72,9.75,1.2,14.61q.8,8.19,2.21,16.29c1.06,6.08,2.39,12.12,4,18.08.78,2.91,1.8,5.79,2.47,8.73a4.21,4.21,0,0,1-.13,3.08,2.3,2.3,0,0,1-.56.52c-.21.12.06.12-.37.13.21,0,.39,0-.1-.12-3.39-1.09-4.84,4.24-1.46,5.33a6.38,6.38,0,0,0,7.07-2.79c1.74-2.5,1.42-5.72.65-8.5-1.54-5.65-3.2-11.23-4.45-17a239.79,239.79,0,0,1-4.58-33.86c-.74-9.91-2.31-20.41-10.11-27.41-3.68-3.29-8.06-5.58-12.46-7.72-4.81-2.35-9.47-4.88-14.11-7.53-10.84-6.18-23.19-12.21-36-8.81-3.43.91-2,6.24,1.47,5.32Z"/><path d="M289.78,161.28,291.3,198a1.39,1.39,0,0,0,2.57.7c4.34-7.93,14-9.67,22.3-9.39,2.4.08,4.8.28,7.19.53a17.82,17.82,0,0,1,5.19,1.15,5.37,5.37,0,0,1,3.38,3.75c.49,2.18,0,4.63-.21,6.82l-2.91,30.73c-.2,2.15-.2,4.52-1,6.54a5.65,5.65,0,0,1-4.09,3.22c-4.11,1-8.41-.25-12.51-.66-4.63-.45-9.09,1-13.64,1.61q-7.52,1-15.07,1.82-15.35,1.58-30.78,2.11c-5.17.17-10.32.17-15.49.15a50.61,50.61,0,0,1-7.39-.36,65.2,65.2,0,0,0-6.95-1,18.23,18.23,0,0,0-6.75,1c-2.17.72-4.27,1.68-6.51,2.2-4.78,1.1-9.65-.51-14.16-2-4.15-1.36-8.4-2.74-12.81-2.66a15.69,15.69,0,0,0-6.12,1.29c-1.79.79-3.57,2.69-5.58,2.76-2.6.08-1.47-2.42-.44-3.64a29.77,29.77,0,0,1,4.45-4.24,32.37,32.37,0,0,1,11-5.56,31.23,31.23,0,0,1,6.06-1.11l-1.19-.69.42-.68c-1.71-.52-2.44,2.15-.74,2.66a2.35,2.35,0,0,0,2.7-3.37A1.33,1.33,0,0,0,191,231a35,35,0,0,0-23.3,11.57c-1.35,1.56-2.68,3.62-2,5.77a4.26,4.26,0,0,0,4.28,2.73c2.36,0,4.09-1.64,6.07-2.7a13.21,13.21,0,0,1,6.84-1.33c5,.21,9.62,2.27,14.34,3.64,5,1.45,9.85,1.85,14.82.1,2.36-.83,4.69-1.92,7.2-2.22a27.93,27.93,0,0,1,7.78.6c5.36.89,10.82.69,16.24.68,11.1,0,22.24-.74,33.29-1.73q8.34-.75,16.66-1.81c2.56-.32,5.13-.61,7.67-1.09a52.1,52.1,0,0,1,7.54-1.19c4.7-.19,9.26,1.49,14,1,4.39-.47,7.71-2.83,8.59-7.32.47-2.41.57-4.92.8-7.36l.8-8.4,1.57-16.57c.25-2.67.61-5.36.72-8.05a9.25,9.25,0,0,0-1.64-6.26c-2.42-3.11-6.72-3.72-10.4-4.07-9.43-.9-19.87-1.13-27.46,5.49a17.47,17.47,0,0,0-3.85,4.79l2.57.7-1.52-36.68c-.07-1.77-2.83-1.78-2.76,0Z"/><path d="M292.15,195.22l-.3,9.68c-.05,1.55-.12,3.23.83,4.56a4.13,4.13,0,0,0,2.05,1.56,3.67,3.67,0,0,0,2.72-.23,2.1,2.1,0,0,0,.75-2.84,2.13,2.13,0,0,0-2.84-.74.81.81,0,0,1,.73-.11c-.22-.07-.23-.06,0,0l0,0c-.1-.1-.09-.08,0,.07a1.43,1.43,0,0,1-.18-.93c0-1.19.06-2.39.1-3.58l.24-7.49a2.1,2.1,0,0,0-2.07-2.08,2.12,2.12,0,0,0-2.08,2.08Z"/><path d="M303.41,207.61c-23-.27-44.06,10.66-66.32,14.74a142.84,142.84,0,0,1-35.4,2A141.53,141.53,0,0,1,183.93,222a74.39,74.39,0,0,0-8.63-1.46,22.37,22.37,0,0,0-7.93.84c-10.08,2.81-19.09,9.75-23.18,19.52-.68,1.63,2,2.35,2.66.73,3.56-8.49,11.59-14.6,20.22-17.28a21.09,21.09,0,0,1,7.3-1.11,58.3,58.3,0,0,1,8.82,1.42,145.62,145.62,0,0,0,51.44.93c11-1.77,21.65-5.12,32.32-8.37,11.86-3.62,24-7,36.46-6.83a1.38,1.38,0,0,0,0-2.76Z"/><path d="M168.23,242.13a55.75,55.75,0,0,1-5.77,3.86c-1,.59-2,1.14-3.06,1.66-.73.36-2.18,1.35-3.05,1-1.45-.59-.33-3.42.14-4.3a13.83,13.83,0,0,1,4-4.33c7.1-5.32,15.81-8.87,24.37-11,1.72-.43,1-3.09-.74-2.66a76.06,76.06,0,0,0-23.17,10c-3.05,2-6.1,4.4-7.45,7.9-1.15,3-.43,7.72,3.76,7.13,2.17-.3,4.34-1.73,6.2-2.8a57.11,57.11,0,0,0,6.16-4.08c1.4-1.06,0-3.46-1.4-2.38Z"/><path d="M155.37,246.91c-1.59-.61-3,.09-4.47.62-.37.13-1.19.48-1.58.21s-.27-1.33-.21-1.78c.34-2.91,2.15-5.41,4.22-7.37,4.63-4.41,11-7.11,17.18-8.42,1.74-.37,1-3-.74-2.67-7.18,1.53-15,5-19.84,10.66-2.14,2.51-4,5.94-3.59,9.36a3.27,3.27,0,0,0,3.26,3,6.2,6.2,0,0,0,2.32-.47c.89-.34,1.77-.87,2.72-.51,1.66.63,2.38-2,.73-2.66Z"/><path d="M143.84,238.5a7,7,0,0,0-1.6,3,8.12,8.12,0,0,0,0,3.47,7.07,7.07,0,0,0,3.58,4.85,2.93,2.93,0,0,0,2.13.28,2.77,2.77,0,0,0,1.93-3.4,2.74,2.74,0,0,0-1.27-1.65,3.77,3.77,0,0,1-.64-.39l.56.43a4.21,4.21,0,0,1-.76-.76l.43.56a5.08,5.08,0,0,1-.63-1.08l.28.66a5.8,5.8,0,0,1-.33-1.22l.1.74a5.47,5.47,0,0,1,0-1.34l-.1.73a5.45,5.45,0,0,1,.3-1.12l-.28.66a4.6,4.6,0,0,1,.5-.86l-.43.56.16-.2a2.91,2.91,0,0,0,.81-2,2.78,2.78,0,0,0-.81-1.95,2.71,2.71,0,0,0-2-.81,2.68,2.68,0,0,0-1.95.81Z"/><path d="M202.33,100.63c-13.07.32-27.51,1.2-37.28,11.06-5.05,5.1-8.62,11.63-12.44,17.65l-13,20.43-14.52,22.89c-1.91,3,2.86,5.79,4.77,2.79q12.57-19.83,25.16-39.64,3.1-4.91,6.23-9.81a78.86,78.86,0,0,1,5.47-8,29,29,0,0,1,15-9.63c6.7-1.87,13.71-2.1,20.62-2.26,3.55-.09,3.56-5.61,0-5.53Z"/><path d="M170.31,169.79c3.45,8.88,7.09,17.7,10.29,26.67a72.71,72.71,0,0,1,3.55,13.36,123.33,123.33,0,0,1,1,14.24c.07,1.77,2.83,1.78,2.77,0a136.34,136.34,0,0,0-1.05-14.28,71,71,0,0,0-3.49-13.61c-3.22-9.13-6.94-18.09-10.45-27.11-.64-1.64-3.31-.93-2.66.73Z"/><path d="M173.86,183.12l-8.41,12a30.09,30.09,0,0,1-3.75,4.93c-1.33,1.26-2.74,1.23-4.47.73a98.83,98.83,0,0,1-12.71-5q-6.47-2.93-12.62-6.46c-3.09-1.76-5.88,3-2.79,4.77a154,154,0,0,0,22,10.36c3.8,1.44,7.89,3.22,11.86,1.35,3.35-1.57,5.34-5.19,7.37-8.09l8.27-11.87a2.76,2.76,0,1,0-4.77-2.78Z"/><path d="M121.8,164.94l9.68,46,4.78,22.77,2.4,11.39c.65,3.1,1.2,6.54,3.59,8.85,3.17,3.06,7.56,2.17,11.39,1.19L166.11,252c3.44-.88,2-6.21-1.47-5.32L154,249.37c-1.57.4-3.14.91-4.75,1.16a3.85,3.85,0,0,1-3.12-.46,5.61,5.61,0,0,1-1.36-2.77c-.45-1.66-.75-3.37-1.1-5.06l-2.3-10.91-9.08-43.18-5.18-24.68a2.76,2.76,0,1,0-5.33,1.47Z"/><path d="M191.92,246.63c-13,2.86-26,5.66-39,8.7a68.72,68.72,0,0,1-9.32,1.79,75,75,0,0,1-9.36.06c-6.6-.2-13.2-.25-19.8-.5A664.55,664.55,0,0,1,36,249c-2.76-.44-5.51-1-8.3-1.21a12.44,12.44,0,0,1-2.55-.34l-.51-.14c-.6-.16.2.26-.18-.11.12.12.36.37.5.48-.13-.25-.11-.22,0,.1-.05-.15-.09-.3-.13-.46a13.88,13.88,0,0,1-.31-2.25c-.08-.87-.13-1.75-.23-2.63-.4-3.29-1.13-6.56-1.74-9.82Q18.88,213.22,14.13,194q-2.34-9.48-5-18.89-1.34-4.81-2.73-9.61A21.74,21.74,0,0,1,5.51,162a4.86,4.86,0,0,1,0-.54c0,.58,0-.06.06-.2-.11.25-.19.36-.26.32s.83-.25,0,0a3.31,3.31,0,0,1,.42-.12c.7-.1-.56-.07.2,0,.17,0,.35,0,.51,0,.85,0-.51-.12.38,0,.19,0,.39.07.58.12.91.2,1.79.38,2.71.5a55.92,55.92,0,0,0,9.24-.09c6.28-.27,12.4,1.41,18.66,1.6,3.2.09,6.41-.06,9.61,0s6.35.31,9.51.63,6.21.88,9.33,1.15a73.86,73.86,0,0,0,9.41.12c6.42-.26,12.8-.73,19.24-.62a199.7,199.7,0,0,1,20,1.36c3.08.35,6.15.77,9.21,1.23v-5.32l-2.37.57c-3.46.84-2,6.16,1.47,5.33l2.37-.58c2.5-.6,2.76-4.9,0-5.32a208.07,208.07,0,0,0-41.18-2.64c-6.43.31-12.86.93-19.29.23-3.27-.35-6.52-.89-9.81-1.19s-6.49-.46-9.74-.52-6.71.14-10-.13-6.41-.8-9.63-1.17a54.87,54.87,0,0,0-9.42-.15,43.57,43.57,0,0,1-4.85.1A35,35,0,0,1,8,156.14c-2.24-.35-4.68-.23-6.4,1.45C-.29,159.41-.24,162.2.4,164.54,2.16,171,4.13,177.46,5.85,184q5.25,19.8,9.34,39.88c.67,3.26,1.31,6.54,1.93,9.81.3,1.56.58,3.13.87,4.69l.42,2.35c.09.47.17.94.25,1.41,0,.24.22,1.45.12.56a39.25,39.25,0,0,0,.77,6.4c.7,2.4,2.57,3.52,4.94,3.92,1.14.19,2.3.3,3.45.39l.81.07s.8.1.29,0c-.67-.1.86.15.77.13l1.63.27q5,.82,10.1,1.57,10.31,1.51,20.63,2.72,20.33,2.37,40.76,3.51,10.33.57,20.7.82c3.32.08,6.65.1,10,.2a89.36,89.36,0,0,0,9.82,0c6.68-.56,13.21-2.61,19.73-4.05l20.32-4.48,9.92-2.18a2.76,2.76,0,0,0-1.47-5.33Z"/><path d="M156.71,203.22c-1.13-2.25-4.21-2-5.82-.48a10.68,10.68,0,0,0-2,3.25,35.66,35.66,0,0,1-1.85,3.38,34.4,34.4,0,0,1-10.7,10.81,1.4,1.4,0,0,0,.7,2.58l1,.06c1.77.13,1.76-2.63,0-2.76l-1-.07.7,2.58a37.93,37.93,0,0,0,10-9.35,35.71,35.71,0,0,0,3.53-5.84,8.37,8.37,0,0,1,1.54-2.69c.38-.35,1.17-.68,1.48-.08.8,1.59,3.18.19,2.38-1.39Z"/><path class="cls-2" d="M58.16,203.1l.1,6.22c0,1.92-.25,4.25.81,6a3.51,3.51,0,0,0,4.86,1.23c1.72-1,2.26-2.95,2.55-4.81.36-2.32.71-4.64,1.07-7H64.88L66,212.22a6.93,6.93,0,0,0,1.18,3.47,3.29,3.29,0,0,0,2.88,1.25c2.63-.3,2.69-3.25,2.84-5.26l.55-7.73a1.38,1.38,0,0,0-2.76,0l-.46,6.38c-.07,1-.09,2-.22,3,0,0-.11.57-.12.6s-.24.35-.14.24,0,0-.05,0c.17,0-.12-.07-.09,0a2.77,2.77,0,0,1-.26-.19,1.82,1.82,0,0,1-.37-.78,24.06,24.06,0,0,1-.5-2.94L67.55,204a1.4,1.4,0,0,0-2.67,0l-1,6.47a9.8,9.8,0,0,1-.66,2.84c-.24.48-.77,1-1.24,1s-.79-.88-.87-1.4a26.34,26.34,0,0,1-.09-3.08l-.11-6.71a1.38,1.38,0,0,0-2.76,0Z"/><path class="cls-2" d="M259.1,182.73c-3.65-3.11-5.53-7.83-6.6-12.51a10.77,10.77,0,0,1-.37-3.78,4.26,4.26,0,0,1,1.89-3.17,3.29,3.29,0,0,1,3.54.2,3.26,3.26,0,0,1,1.19,3.32,12.38,12.38,0,0,1,3.13-2.74,4.14,4.14,0,0,1,4-.15c1.95,1.14,2,3.89,1.71,6.13a44.25,44.25,0,0,1-2,8.26,12.49,12.49,0,0,1-1.95,3.85A5.21,5.21,0,0,1,260,184.2"/><path d="M260.08,181.76c-3.21-2.8-4.92-6.72-6-10.76-.47-1.81-1.28-4.35,0-6a1.85,1.85,0,0,1,3.3,1.43c-.24,1.25,1.31,2.44,2.31,1.34,1.19-1.31,3.67-4.13,5.67-2.54,1.34,1.08,1,3.55.76,5a43.29,43.29,0,0,1-1.93,7.69c-.69,2-1.85,4.69-4.28,4.89-1.76.15-1.78,2.92,0,2.77,3.4-.29,5.4-2.94,6.57-5.9A38.43,38.43,0,0,0,269,169.34c.25-2.58-.28-5.69-2.92-6.85-3.29-1.46-6.27,1-8.34,3.33l2.3,1.34a4.63,4.63,0,0,0-4.57-5.69c-3.13.1-4.84,3.07-4.81,5.92a25,25,0,0,0,2.32,9,19.79,19.79,0,0,0,5.11,7.33c1.33,1.17,3.29-.78,1.95-2Z"/></g></g></svg>