<?xml version="1.0" encoding="utf-8"?>
<!-- Generator: Adobe Illustrator 24.0.0, SVG Export Plug-In . SVG Version: 6.00 Build 0)  -->
<svg version="1.1" id="Layer_1" xmlns="http://www.w3.org/2000/svg" xmlns:xlink="http://www.w3.org/1999/xlink" x="0px" y="0px"
	 viewBox="0 0 90 50" style="enable-background:new 0 0 90 50;" xml:space="preserve">
<style type="text/css">
	.st0{fill:#002D79;}
	.st1{fill:url(#SVGID_1_);}
</style>
<title>liwi-logo</title>
<g id="Layer_2_1_">
	<g id="Layer_2-2">
		<path class="st0" d="M7.6,38.2v-2.1c0-2.7-0.1-5.5-0.1-8.2L7.3,11.6C7.3,10,7.3,8.5,7.2,7c0-0.8-0.1-1.6-0.1-2.3
			C7,4.3,7,3.9,6.9,3.5l0-0.2c0-0.5-0.2-1-0.4-1.4C6.4,1.6,6.2,1.3,6,1.1c-0.9-0.9-2.3-0.9-3.2,0C2.5,1.3,2.4,1.5,2.2,1.8
			C2.1,2,2,2.3,1.9,2.5C1.9,2.8,1.8,3,1.8,3.3c0,0.4-0.1,0.7-0.1,1.1c-0.1,0.7-0.1,1.3-0.1,2c-0.1,1.4-0.1,2.7-0.2,4.1
			c0,2.7-0.1,5.5-0.1,8.2c-0.1,5.5-0.2,10.9-0.2,16.4v4.6c0,0.4,0,0.8,0.1,1.2c0.1,0.6,0.1,1.2,0.2,1.9c0.1,0.3,0.1,0.7,0.2,1
			c0.1,0.4,0.3,0.7,0.4,1.1c0.2,0.6,0.6,1.1,1.1,1.5c0.7,0.4,1.5,0.4,2.2,0.1c0.7-0.3,1.2-0.9,1.4-1.6h0C6.8,44.6,6.9,44.3,7,44
			c0.1-0.3,0.2-0.7,0.2-1c0.2-0.9,0.2-1.8,0.3-2.7C7.7,39.6,7.7,38.9,7.6,38.2z"/>
		<path class="st0" d="M20,46.4c1.2-0.7,1.5-2.1,1.7-3.3c0.2-1.3,0.3-2.5,0.3-3.8c0.1-2.3,0.1-4.6,0.1-6.9c0-2.2-0.1-4.5-0.3-6.7
			c-0.2-2.3-0.1-5.2-1.9-6.9c-0.5-0.5-1.3-0.5-1.8,0c-1.9,1.7-1.7,4.7-2,7.1c-0.2,2.4-0.3,4.8-0.3,7.2c0,2.4,0.1,4.7,0.2,7
			c0,1.3,0.2,2.6,0.5,3.9C16.7,45.6,18.2,47.4,20,46.4z"/>
		<path class="st0" d="M82,45.5c1.3-2.9,1.1-6.5,1.1-9.6c0-2.7-0.1-5.5-0.4-8.2c-0.2-1.6-0.3-4-2.1-4.8c-1.9-0.9-2.9,1.7-3.2,3.2
			c-0.5,2.9-0.7,5.9-0.7,8.8c0,1.5,0,3.1,0.1,4.6c0.1,2.1,0.2,4.1,1,6C78.5,47.1,81.3,47.1,82,45.5L82,45.5z"/>
		<path class="st0" d="M81.6,14.9C81.6,14.9,81.5,14.9,81.6,14.9c-0.5-0.5-1-0.7-1.6-0.7c-1.1,0-2.1,0.7-2.4,1.8
			c-0.3,1.1,0.2,2.2,1.2,2.8c1.1,0.7,2.5,0.2,3.2-0.9C82.5,17,82.4,15.7,81.6,14.9z"/>
		<path class="st0" d="M20.6,10.1L20.6,10.1c-0.5-0.5-1-0.7-1.6-0.7c-1.1,0-2.1,0.7-2.4,1.8c-0.3,1.1,0.2,2.2,1.2,2.8
			c1.1,0.7,2.5,0.2,3.2-0.9C21.6,12.1,21.4,10.9,20.6,10.1z"/>
		
			<linearGradient id="SVGID_1_" gradientUnits="userSpaceOnUse" x1="33.5772" y1="17.3982" x2="64.6724" y2="17.3982" gradientTransform="matrix(0.9999 -1.043680e-02 -1.043680e-02 -0.9999 -0.185 50.899)">
			<stop  offset="3.000000e-02" style="stop-color:#1E75FE"/>
			<stop  offset="0.25" style="stop-color:#1E3CFE"/>
			<stop  offset="1" style="stop-color:#EB2AE5"/>
		</linearGradient>
		<path class="st1" d="M68.3,20.4c-0.2-4.4-5.6-5.8-7.9-2.4c-2.1,3,1.8,33.9-5.1,19.2c-2.3-6,0-23.6-8.7-20.3
			c-3.7,1.8-2.5,12.8-2.5,15.6c0.8,7.7-5.4,11.9-6.9,4.9c-0.9-4.5,1.1-22.5-4.5-21c-4-0.1-2.3,21.5-2.6,22.7
			c0.9,12.9,13.8,12.3,18.1,2.2c2.9,7.7,11.7,11.2,16.7,5.2C70.1,39.7,68.2,24.5,68.3,20.4z"/>
	</g>
</g>
</svg>
