<?xml version="1.0" encoding="utf-8"?>
<!-- Generator: Adobe Illustrator 24.0.0, SVG Export Plug-In . SVG Version: 6.00 Build 0)  -->
<svg version="1.1" id="Layer_1" xmlns="http://www.w3.org/2000/svg" xmlns:xlink="http://www.w3.org/1999/xlink" x="0px" y="0px"
	 viewBox="0 0 437 907.5" style="enable-background:new 0 0 437 907.5;" xml:space="preserve">
<style type="text/css">
	.st0{fill:url(#SVGID_1_);}
	.st1{opacity:0.64;}
	.st2{fill:#1E1E1E;}
	.st3{fill:#3C3C3B;}
	.st4{fill:#F8F7F7;}
	.st5{fill:url(#SVGID_2_);}
	.st6{opacity:0.49;}
	.st7{enable-background:new    ;}
	.st8{fill:#FFFFFF;}
	.st9{fill:none;}
	.st10{fill:#3F3F3F;}
	.st11{opacity:0.61;}
	.st12{fill:url(#SVGID_3_);}
	.st13{opacity:0.74;enable-background:new    ;}
	.st14{fill:#1D1D1B;}
	.st15{fill:#EDAE49;}
</style>
<title>phone</title>
<g>
	<g id="Layer_2_1_">
		<g id="phone">
			
				<linearGradient id="SVGID_1_" gradientUnits="userSpaceOnUse" x1="431.3961" y1="119.3738" x2="-1.8424" y2="869.7565" gradientTransform="matrix(1 0 0 -1 0 947.8898)">
				<stop  offset="3.000000e-02" style="stop-color:#DBE0FE"/>
				<stop  offset="1" style="stop-color:#EFEAEA"/>
			</linearGradient>
			<path class="st0" d="M421.1,366.6c0.7,29.1,4.3,59.7,1.4,88.7c-4.1,40.5-0.2,82.3-0.4,123.1c-0.2,57.4-1.7,114.7-1.6,172.1
				c0,25.3,1.5,50.8,1.6,76.1l-4.3,3.8l-20.5,17.8c-2.3,0.7-4.6,1.2-7,1.5l-50.4-1.9c0,0-125-1.5-210.3-0.5s-82.3-4.6-82.3-4.6
				l-14.7-5.9c-5.3-4.2-10.2-8.9-14.6-14l-2.6-4.3c0,0.5,0,1,0,1.4c0.5,64,36,70,36,70l38,2.6c0,0,10,0.5,26.2,1.1l-38.5-0.7
				c-9.7-0.2-19.5-0.4-28.7-3.4c-22.6-7.4-34.4-32-35.2-54.4c-1.1-32-0.6-64.1-0.8-96.1c-0.3-64.1,0-128.1,0.7-192.2
				c1.4-125.8,2.9-251,4.9-376.8c0-24.2,0.8-48.5,1.1-72.8c0.2-10.2-1.2-19.8-1.7-29.2c0.8-0.8,14.6-13,33.2-13h1.7
				c2.7,0,6.9-0.1,12.3-0.2l0,0c4.9,0.2,9.9,0.6,14.8,0.9c50.4,3.3,101-2.4,151.4-4.9l27.6-0.7l89.6,4.1c8,0.8,16,1.6,24.1,2.5
				c4.6,0.5,9.3,1,13.9,1.8c3.5,0.8,7.2,1.7,10.8,2.7c1.6,0.6,3.2,1.2,4.8,1.9c5.2,2.4,9.7,5.9,13.3,10.4c1.3,5,2.8,9.4,2.8,9.4
				l1.1-2.6l5-12.2c0.1,6.6-0.2,13.3-0.9,19.8c-2.1,20.2-1.8,41-2.3,61.3c-1.1,40.5-1.3,81-1,121.5
				C419.8,302.9,420.3,334.8,421.1,366.6z"/>
			<g class="st1">
				<path class="st2" d="M386.9,74v11.9c0,0.6,0.5,1.1,1.1,1.1c0.6,0,1.1-0.5,1.1-1.1V74c-0.1-0.6-0.6-1-1.2-1
					C387.4,73.1,387,73.5,386.9,74L386.9,74z"/>
				<path class="st2" d="M383.6,80.4l0.2,5.2c0,0.6,0.5,1.1,1.1,1.1c0.6,0,1.1-0.5,1.1-1.1l-0.2-5.2c0-0.6-0.5-1.1-1.1-1.1
					C384.1,79.3,383.6,79.8,383.6,80.4z"/>
				<path class="st2" d="M380.8,83.6l-0.2,2.4c0,0.3,0.1,0.6,0.3,0.8c0.2,0.2,0.5,0.3,0.8,0.3c0.3,0,0.6-0.1,0.8-0.3
					c0.2-0.2,0.3-0.5,0.3-0.8l0.2-2.4c0-0.3-0.1-0.6-0.3-0.8c-0.2-0.2-0.5-0.3-0.8-0.3c-0.3,0-0.6,0.1-0.8,0.3
					C381,83,380.8,83.3,380.8,83.6L380.8,83.6z"/>
				<path class="st2" d="M39.8,76.6l0.2,5.2c-0.1,0.8,0,1.6,0.1,2.4c0.3,0.9,1.1,1.1,1.9,1l10.6-0.4c0.5,0,0.9-0.4,0.9-0.9l-0.2-5.5
					c0.1-0.8-0.1-1.7-0.3-2.5c-0.3-0.7-0.9-1.2-1.7-1.3c-0.8-0.1-1.7-0.2-2.5-0.2l-2.8-0.1l-5.6-0.2c-0.8,0-1.3,1.1-0.7,1.6l3.1,2.5
					c0.9,0.8,1.9,1.6,3,2.2c1,0.4,2.2,0.2,3-0.6l3.2-2.4c0.4-0.3,0.6-0.8,0.3-1.3c-0.3-0.4-0.8-0.6-1.3-0.3l-2.6,1.9
					c-0.4,0.3-0.8,0.6-1.2,0.9c-0.4,0.2-0.6,0.1-1-0.1c-0.9-0.6-1.7-1.3-2.5-2l-2.6-2.1l-0.7,1.6l9.7,0.3c0.5,0,1.1,0,1.2,0.5
					c0.1,0.7,0.1,1.4,0.1,2.1l0.2,4.9l0.9-0.9l-5.7,0.2L44,83.3c-0.9,0.1-1.8,0.1-2.7,0.1l0.5,0.1h-0.1l0.2,0.4
					c-0.1-0.5-0.2-1.1-0.1-1.7l0-1.9l-0.1-3.7c0-0.5-0.4-0.9-0.9-0.9S39.8,76.1,39.8,76.6L39.8,76.6z"/>
				<path class="st2" d="M393.7,75.8v7.5c-0.1,0.8,0,1.5,0.1,2.3c0.4,1.7,2.1,1.7,3.5,1.7l5,0.3c0.6,0,1.1-0.5,1.1-1.1
					c-0.4-4.2-0.3-8.4,0.3-12.6c0.1-0.6-0.6-1-1.1-1.1l-7.3-0.5c-0.6,0-1.1,0.5-1.1,1.1c0.1,0.7,0,1.5-0.2,2.2
					c-0.1,0.6,0.3,1.2,0.9,1.3c0.5,0.1,1-0.2,1.2-0.7c0.3-0.9,0.4-1.9,0.3-2.8l-1.1,1.1l7.3,0.5l-1.1-1.1c-0.5,4.2-0.6,8.4-0.3,12.6
					l1.1-1.1l-4.1-0.2c-0.7,0-1.4,0-2.1-0.1c-0.1,0-0.2,0-0.3,0c-0.1,0,0,0,0,0.1c-0.1-0.3-0.1-0.6,0-0.9v-8.5c-0.1-0.6-0.6-1-1.2-1
					C394.2,74.9,393.7,75.3,393.7,75.8L393.7,75.8z"/>
				<path class="st2" d="M401.6,77.3c-1.7,0.1-3.4,0-5-0.3c-0.6-0.2-1.2,0.2-1.3,0.8c0,0.1,0,0.1,0,0.2l0.1,3.9c0.1,0.6,0.6,1,1.2,1
					c0.5,0,0.9-0.5,1-1v-1.6h-2.2c0.1,1.3,0.3,2.6,0.5,3.8c0.1,0.5,0.5,0.8,1,0.8c0.5,0,0.9-0.4,1-0.8l1.4-4.1l-2.1-0.3l0.4,3.6
					c0,0.5,0.3,0.9,0.8,1c0.5,0.1,1-0.1,1.2-0.5c0.7-0.9,1.1-1.9,1.3-3h-2.1c0.2,0.5,0.4,1.1,0.5,1.6c0,0.1,0,0.1,0,0
					c0,0.1,0,0.2,0,0.2c0,0.1,0,0.3,0,0.4c0,0.3,0,0.6,0,0.9h2.2v-1.6c0-0.5-0.4-1-0.9-1.1c-0.5-0.1-1,0.3-1.2,0.8
					c-0.1,0.5-0.1,0.9,0,1.4c0,0.1,0,0.2,0.1,0.3c0,0.1,0-0.3,0,0s0-0.1,0,0s0,0.1,0,0c0-0.1,0.1-0.2,0.2-0.3c0,0,0.1-0.1,0.2-0.1
					h-2.2c-0.6,0.1-1,0.6-1,1.2c0,0.5,0.5,0.9,1,1h1.6c0.6,0.1,1.2,0,1.7-0.3c0.5-0.3,0.8-0.9,0.8-1.5c0-0.2,0-0.5-0.1-0.7
					c0-0.1,0-0.1,0-0.2s0-0.1,0-0.1s0,0.1,0-0.1c0,0.1,0,0.1,0,0l-2.1-0.3V84c0,0.6,0.5,1.1,1.1,1.1c0.6,0,1.1-0.5,1.1-1.1
					c0.1-1.3-0.1-2.6-0.5-3.7c-0.1-0.4-0.5-0.8-1-0.8c-0.5,0-0.9,0.3-1,0.8c-0.1,0.9-0.5,1.8-1.1,2.5l2,0.5l-0.4-3.6
					c0-0.5-0.4-1-0.9-1.1c-0.5-0.1-1,0.3-1.2,0.8l-1.2,4.2h2c-0.2-1.1-0.3-2.1-0.4-3.2c0-0.6-0.5-1.1-1.1-1.1
					c-0.6,0-1.1,0.5-1.1,1.1V82h2.2l-0.1-4l-1.4,1c1.8,0.4,3.7,0.5,5.5,0.4c0.6,0,1.1-0.5,1.1-1.1C402.7,77.7,402.2,77.3,401.6,77.3
					L401.6,77.3z"/>
			</g>
			<rect x="12.8" y="514.7" class="st3" width="410.7" height="334.1"/>
			
				<image style="overflow:visible;enable-background:new    ;" width="379" height="420" xlink:href="E0949C9C.png"  transform="matrix(1.0728 0 0 1.0538 15.31 415.2159)">
			</image>
			<rect x="55" y="832.3" class="st4" width="306.5" height="22.1"/>
			
				<image style="overflow:visible;opacity:0.75;enable-background:new    ;" width="437" height="346" xlink:href="E0949C9D.png"  transform="matrix(1 0 0 1 0.43 203.98)">
			</image>
			
				<linearGradient id="SVGID_2_" gradientUnits="userSpaceOnUse" x1="390.6397" y1="397.1203" x2="42.9512" y2="744.8188" gradientTransform="matrix(1 0 0 -1 0 947.8898)">
				<stop  offset="0" style="stop-color:#B523B8"/>
				<stop  offset="1" style="stop-color:#EB2AE5"/>
			</linearGradient>
			<path class="st5" d="M421.2,520.2H15.6V248c0-23.5,19-42.5,42.5-42.5h309.4c29.6,0,53.7,24,53.7,53.7L421.2,520.2z"/>
			<g id="Lisbon_santos..._" class="st6">
				<g class="st7">
					<path class="st8" d="M71.7,454.3c-0.1-0.1-0.2-0.3-0.2-0.5v-10.4c0-0.1,0-0.2,0.1-0.2c0.1-0.1,0.1-0.1,0.2-0.1h1.3
						c0.1,0,0.2,0,0.2,0.1c0.1,0.1,0.1,0.1,0.1,0.2v9.2h3.7c0.1,0,0.2,0,0.2,0.1c0.1,0.1,0.1,0.1,0.1,0.2v1.2c0,0.1,0,0.2-0.1,0.2
						c-0.1,0.1-0.1,0.1-0.2,0.1h-5C72,454.5,71.8,454.5,71.7,454.3z"/>
					<path class="st8" d="M80.5,454.3c-0.2-0.2-0.2-0.3-0.2-0.6v-6.5H79c-0.1,0-0.2,0-0.2-0.1c-0.1-0.1-0.1-0.1-0.1-0.2v-1.2
						c0-0.1,0-0.2,0.1-0.2c0.1-0.1,0.1-0.1,0.2-0.1h2.4c0.2,0,0.4,0.1,0.6,0.2c0.2,0.2,0.2,0.3,0.2,0.6v6.5h1.3c0.1,0,0.2,0,0.2,0.1
						c0.1,0.1,0.1,0.1,0.1,0.2v1.2c0,0.1,0,0.2-0.1,0.2c-0.1,0.1-0.1,0.1-0.2,0.1h-2.4C80.9,454.5,80.7,454.5,80.5,454.3z
						 M80.5,444.2c-0.1-0.1-0.1-0.1-0.1-0.2v-1.7c0-0.1,0-0.2,0.1-0.2c0.1-0.1,0.1-0.1,0.2-0.1h1.1c0.1,0,0.2,0,0.2,0.1
						c0.1,0.1,0.1,0.1,0.1,0.2v1.7c0,0.1,0,0.2-0.1,0.2c-0.1,0.1-0.1,0.1-0.2,0.1h-1.1C80.6,444.3,80.5,444.3,80.5,444.2z"/>
					<path class="st8" d="M86.6,454.5c-0.5-0.2-1-0.4-1.4-0.8c-0.1,0-0.1-0.1-0.1-0.2c0-0.1,0-0.1,0-0.2c0.1-0.2,0.3-0.5,0.5-1
						c0.1-0.1,0.2-0.2,0.3-0.2c0.1,0,0.1,0,0.2,0.1c0.4,0.3,0.7,0.5,1.1,0.6c0.3,0.1,0.7,0.2,1.1,0.2c0.4,0,0.8-0.1,1-0.2
						c0.2-0.2,0.4-0.4,0.4-0.7c0-0.2-0.1-0.4-0.3-0.6s-0.6-0.3-1.2-0.5l-0.6-0.2c-0.5-0.2-0.9-0.4-1.2-0.6c-0.3-0.2-0.6-0.5-0.8-0.9
						c-0.2-0.4-0.3-0.8-0.3-1.4c0-0.8,0.3-1.5,0.8-2s1.3-0.7,2.2-0.7c0.5,0,1.1,0.1,1.6,0.3c0.5,0.2,1,0.4,1.4,0.7
						c0.1,0,0.1,0.1,0.1,0.2s0,0.1,0,0.2c-0.1,0.2-0.3,0.6-0.5,1c-0.1,0.1-0.2,0.2-0.3,0.2c-0.1,0-0.1,0-0.2-0.1
						c-0.7-0.5-1.4-0.7-2-0.7c-0.4,0-0.6,0.1-0.9,0.2c-0.2,0.2-0.3,0.4-0.3,0.6s0.1,0.5,0.4,0.7c0.2,0.2,0.7,0.4,1.3,0.6
						c0.6,0.2,1.1,0.4,1.4,0.6c0.3,0.2,0.6,0.4,0.9,0.8c0.3,0.4,0.4,0.8,0.4,1.4c0,0.6-0.1,1-0.4,1.5c-0.3,0.4-0.7,0.8-1.2,1
						c-0.5,0.2-1.1,0.4-1.7,0.4C87.7,454.7,87.2,454.7,86.6,454.5z"/>
					<path class="st8" d="M96.3,454.4c-0.4-0.2-0.8-0.5-1-0.9v0.7c0,0.1,0,0.2-0.1,0.2c-0.1,0.1-0.1,0.1-0.2,0.1h-1
						c-0.1,0-0.2,0-0.2-0.1c-0.1-0.1-0.1-0.1-0.1-0.2v-11.6c0-0.1,0-0.2,0.1-0.2c0.1-0.1,0.1-0.1,0.2-0.1h1.2c0.1,0,0.2,0,0.2,0.1
						c0.1,0.1,0.1,0.1,0.1,0.2v3.6c0.3-0.3,0.6-0.6,1-0.8c0.4-0.2,0.8-0.3,1.2-0.3c0.7,0,1.2,0.2,1.8,0.5s1,0.8,1.3,1.4
						c0.3,0.6,0.5,1.2,0.5,1.8v2.2c0,0.7-0.2,1.3-0.5,1.8c-0.3,0.6-0.8,1-1.3,1.4c-0.5,0.3-1.1,0.5-1.8,0.5
						C97.2,454.7,96.7,454.6,96.3,454.4z M98.8,452.4c0.4-0.4,0.6-0.8,0.6-1.3v-2.1c0-0.5-0.2-1-0.6-1.3c-0.4-0.4-0.8-0.6-1.3-0.6
						c-0.5,0-1,0.2-1.3,0.6c-0.4,0.4-0.6,0.8-0.6,1.3v2.1c0,0.5,0.2,1,0.6,1.3c0.4,0.4,0.8,0.6,1.3,0.6
						C97.9,452.9,98.4,452.7,98.8,452.4z"/>
					<path class="st8" d="M105,454.2c-0.6-0.3-1-0.8-1.4-1.4s-0.5-1.2-0.5-1.9v-2.1c0-0.7,0.2-1.3,0.5-1.9s0.8-1,1.4-1.4
						c0.6-0.3,1.2-0.5,1.9-0.5c0.7,0,1.3,0.2,1.9,0.5s1,0.8,1.4,1.4c0.3,0.6,0.5,1.2,0.5,1.9v2.1c0,0.7-0.2,1.3-0.5,1.9
						c-0.3,0.6-0.8,1-1.4,1.4s-1.2,0.5-1.9,0.5C106.2,454.7,105.6,454.6,105,454.2z M108.2,452.3c0.4-0.4,0.6-0.8,0.6-1.3v-2.1
						c0-0.5-0.2-1-0.6-1.3c-0.4-0.4-0.8-0.6-1.3-0.6c-0.5,0-1,0.2-1.3,0.6c-0.4,0.4-0.6,0.8-0.6,1.3v2.1c0,0.5,0.2,1,0.6,1.3
						c0.4,0.4,0.8,0.6,1.3,0.6C107.4,452.9,107.9,452.7,108.2,452.3z"/>
					<path class="st8" d="M113,454.4c-0.1-0.1-0.1-0.1-0.1-0.2v-8.5c0-0.1,0-0.2,0.1-0.2c0.1-0.1,0.1-0.1,0.2-0.1h1.2
						c0.1,0,0.2,0,0.2,0.1c0.1,0.1,0.1,0.1,0.1,0.2v0.8c0.3-0.4,0.7-0.7,1.1-1s0.9-0.3,1.4-0.3c0.6,0,1.2,0.1,1.6,0.4
						c0.5,0.3,0.9,0.7,1.1,1.2c0.3,0.5,0.4,1.1,0.4,1.7v5.7c0,0.1,0,0.2-0.1,0.2c-0.1,0.1-0.1,0.1-0.2,0.1h-1.2
						c-0.1,0-0.2,0-0.2-0.1c-0.1-0.1-0.1-0.1-0.1-0.2v-5.4c0-0.6-0.1-1-0.4-1.3s-0.7-0.5-1.2-0.5c-0.6,0-1.1,0.2-1.5,0.6
						c-0.4,0.4-0.6,1-0.6,1.7v4.9c0,0.1,0,0.2-0.1,0.2c-0.1,0.1-0.1,0.1-0.2,0.1h-1.2C113.1,454.5,113,454.5,113,454.4z"/>
					<path class="st8" d="M122.3,456.3c-0.1-0.1-0.1-0.2,0-0.3l0.9-3.1c0-0.1,0.1-0.2,0.1-0.2s0.2-0.1,0.3-0.1h1.6
						c0.1,0,0.2,0,0.3,0.1c0.1,0.1,0.1,0.1,0.1,0.2c0,0.1,0,0.1,0,0.2l-1.9,3.3h-1C122.5,456.4,122.4,456.4,122.3,456.3z"/>
					<path class="st8" d="M132.5,454.5c-0.5-0.2-1-0.4-1.4-0.8c-0.1,0-0.1-0.1-0.1-0.2c0-0.1,0-0.1,0-0.2c0.1-0.2,0.3-0.5,0.5-1
						c0.1-0.1,0.2-0.2,0.3-0.2c0.1,0,0.1,0,0.2,0.1c0.4,0.3,0.7,0.5,1.1,0.6c0.3,0.1,0.7,0.2,1.1,0.2c0.4,0,0.8-0.1,1-0.2
						c0.2-0.2,0.4-0.4,0.4-0.7c0-0.2-0.1-0.4-0.3-0.6s-0.6-0.3-1.2-0.5l-0.6-0.2c-0.5-0.2-0.9-0.4-1.2-0.6c-0.3-0.2-0.6-0.5-0.8-0.9
						c-0.2-0.4-0.3-0.8-0.3-1.4c0-0.8,0.3-1.5,0.8-2s1.3-0.7,2.2-0.7c0.5,0,1.1,0.1,1.6,0.3c0.5,0.2,1,0.4,1.4,0.7
						c0.1,0,0.1,0.1,0.1,0.2s0,0.1,0,0.2c-0.1,0.2-0.3,0.6-0.5,1c-0.1,0.1-0.2,0.2-0.3,0.2c-0.1,0-0.1,0-0.2-0.1
						c-0.7-0.5-1.4-0.7-2-0.7c-0.4,0-0.6,0.1-0.9,0.2c-0.2,0.2-0.3,0.4-0.3,0.6s0.1,0.5,0.4,0.7c0.2,0.2,0.7,0.4,1.3,0.6
						c0.6,0.2,1.1,0.4,1.4,0.6c0.3,0.2,0.6,0.4,0.9,0.8c0.3,0.4,0.4,0.8,0.4,1.4c0,0.6-0.1,1-0.4,1.5c-0.3,0.4-0.7,0.8-1.2,1
						c-0.5,0.2-1.1,0.4-1.7,0.4C133.6,454.7,133,454.7,132.5,454.5z"/>
					<path class="st8" d="M139.7,454c-0.6-0.5-0.8-1.2-0.8-2c0-0.7,0.3-1.3,0.8-1.8c0.5-0.5,1.2-0.8,2.2-1c0.2,0,0.5-0.1,0.7-0.1
						c0.7-0.1,1.2-0.1,1.4-0.2c0.4-0.1,0.6-0.3,0.6-0.7c0-0.4-0.2-0.7-0.5-1c-0.3-0.2-0.7-0.4-1.2-0.4c-0.9,0-1.5,0.3-1.9,0.9
						c-0.1,0.1-0.2,0.2-0.3,0.2c-0.1,0-0.2,0-0.2-0.1l-0.9-0.6c-0.1-0.1-0.1-0.2-0.1-0.3c0,0,0-0.1,0-0.1c0.3-0.6,0.8-1,1.4-1.4
						c0.6-0.3,1.3-0.5,2.1-0.5c0.7,0,1.3,0.1,1.9,0.4c0.5,0.3,0.9,0.6,1.2,1.1s0.4,1.1,0.4,1.7v5.8c0,0.1,0,0.2-0.1,0.2
						c-0.1,0.1-0.1,0.1-0.2,0.1h-1.1c-0.1,0-0.2,0-0.2-0.1c-0.1-0.1-0.1-0.1-0.1-0.2v-0.6c-0.7,0.8-1.6,1.2-2.6,1.2
						C141,454.7,140.2,454.5,139.7,454z M143.2,452.7c0.4-0.2,0.7-0.5,0.9-0.8s0.3-0.7,0.3-1.1v-0.3l-1.2,0.2
						c-0.7,0.1-1.1,0.1-1.3,0.2c-0.9,0.2-1.3,0.5-1.3,1.1c0,0.3,0.1,0.6,0.4,0.8c0.2,0.2,0.6,0.3,1,0.3
						C142.4,453,142.8,452.9,143.2,452.7z"/>
					<path class="st8" d="M148.7,454.4c-0.1-0.1-0.1-0.1-0.1-0.2v-8.5c0-0.1,0-0.2,0.1-0.2c0.1-0.1,0.1-0.1,0.2-0.1h1.2
						c0.1,0,0.2,0,0.2,0.1c0.1,0.1,0.1,0.1,0.1,0.2v0.8c0.3-0.4,0.7-0.7,1.1-1s0.9-0.3,1.4-0.3c0.6,0,1.2,0.1,1.6,0.4
						c0.5,0.3,0.9,0.7,1.1,1.2c0.3,0.5,0.4,1.1,0.4,1.7v5.7c0,0.1,0,0.2-0.1,0.2c-0.1,0.1-0.1,0.1-0.2,0.1h-1.2
						c-0.1,0-0.2,0-0.2-0.1c-0.1-0.1-0.1-0.1-0.1-0.2v-5.4c0-0.6-0.1-1-0.4-1.3s-0.7-0.5-1.2-0.5c-0.6,0-1.1,0.2-1.5,0.6
						c-0.4,0.4-0.6,1-0.6,1.7v4.9c0,0.1,0,0.2-0.1,0.2c-0.1,0.1-0.1,0.1-0.2,0.1H149C148.9,454.5,148.8,454.5,148.7,454.4z"/>
					<path class="st8" d="M160,453.8c-0.5-0.5-0.8-1.2-0.8-2v-4.6h-1.1c-0.1,0-0.2,0-0.2-0.1c-0.1-0.1-0.1-0.1-0.1-0.2v-1.1
						c0-0.1,0-0.2,0.1-0.2c0.1-0.1,0.1-0.1,0.2-0.1h1.1v-1.7c0-0.1,0-0.2,0.1-0.2c0.1-0.1,0.1-0.1,0.2-0.1h1.2c0.1,0,0.2,0,0.2,0.1
						c0.1,0.1,0.1,0.1,0.1,0.2v1.7h2.7c0.1,0,0.2,0,0.2,0.1c0.1,0.1,0.1,0.1,0.1,0.2v1.1c0,0.1,0,0.2-0.1,0.2
						c-0.1,0.1-0.1,0.1-0.2,0.1h-2.7v4.5c0,0.3,0.1,0.6,0.3,0.8c0.2,0.2,0.4,0.3,0.7,0.3l1.7,0c0.1,0,0.2,0,0.2,0.1
						c0.1,0.1,0.1,0.1,0.1,0.2v1.1c0,0.1,0,0.2-0.1,0.2c-0.1,0.1-0.1,0.1-0.2,0.1h-1.8C161.2,454.5,160.6,454.3,160,453.8z"/>
					<path class="st8" d="M167.8,454.2c-0.6-0.3-1-0.8-1.4-1.4s-0.5-1.2-0.5-1.9v-2.1c0-0.7,0.2-1.3,0.5-1.9s0.8-1,1.4-1.4
						c0.6-0.3,1.2-0.5,1.9-0.5c0.7,0,1.3,0.2,1.9,0.5s1,0.8,1.4,1.4c0.3,0.6,0.5,1.2,0.5,1.9v2.1c0,0.7-0.2,1.3-0.5,1.9
						c-0.3,0.6-0.8,1-1.4,1.4s-1.2,0.5-1.9,0.5C169.1,454.7,168.4,454.6,167.8,454.2z M171.1,452.3c0.4-0.4,0.6-0.8,0.6-1.3v-2.1
						c0-0.5-0.2-1-0.6-1.3c-0.4-0.4-0.8-0.6-1.3-0.6c-0.5,0-1,0.2-1.3,0.6c-0.4,0.4-0.6,0.8-0.6,1.3v2.1c0,0.5,0.2,1,0.6,1.3
						c0.4,0.4,0.8,0.6,1.3,0.6C170.3,452.9,170.7,452.7,171.1,452.3z"/>
					<path class="st8" d="M176.8,454.5c-0.5-0.2-1-0.4-1.4-0.8c-0.1,0-0.1-0.1-0.1-0.2c0-0.1,0-0.1,0-0.2c0.1-0.2,0.3-0.5,0.5-1
						c0.1-0.1,0.2-0.2,0.3-0.2c0.1,0,0.1,0,0.2,0.1c0.4,0.3,0.7,0.5,1.1,0.6c0.3,0.1,0.7,0.2,1.1,0.2c0.4,0,0.8-0.1,1-0.2
						c0.2-0.2,0.4-0.4,0.4-0.7c0-0.2-0.1-0.4-0.3-0.6s-0.6-0.3-1.2-0.5l-0.6-0.2c-0.5-0.2-0.9-0.4-1.2-0.6c-0.3-0.2-0.6-0.5-0.8-0.9
						c-0.2-0.4-0.3-0.8-0.3-1.4c0-0.8,0.3-1.5,0.8-2s1.3-0.7,2.2-0.7c0.5,0,1.1,0.1,1.6,0.3c0.5,0.2,1,0.4,1.4,0.7
						c0.1,0,0.1,0.1,0.1,0.2s0,0.1,0,0.2c-0.1,0.2-0.3,0.6-0.5,1c-0.1,0.1-0.2,0.2-0.3,0.2c-0.1,0-0.1,0-0.2-0.1
						c-0.7-0.5-1.4-0.7-2-0.7c-0.4,0-0.6,0.1-0.9,0.2c-0.2,0.2-0.3,0.4-0.3,0.6s0.1,0.5,0.4,0.7c0.2,0.2,0.7,0.4,1.3,0.6
						c0.6,0.2,1.1,0.4,1.4,0.6c0.3,0.2,0.6,0.4,0.9,0.8c0.3,0.4,0.4,0.8,0.4,1.4c0,0.6-0.1,1-0.4,1.5c-0.3,0.4-0.7,0.8-1.2,1
						c-0.5,0.2-1.1,0.4-1.7,0.4C177.9,454.7,177.3,454.7,176.8,454.5z"/>
					<path class="st8" d="M183.7,454.5c-0.3-0.3-0.4-0.6-0.4-0.9c0-0.4,0.1-0.7,0.4-0.9c0.3-0.3,0.6-0.4,1-0.4
						c0.4,0,0.7,0.1,0.9,0.4s0.4,0.6,0.4,0.9c0,0.4-0.1,0.7-0.4,0.9c-0.3,0.3-0.6,0.4-0.9,0.4C184.3,454.9,184,454.8,183.7,454.5z"
						/>
					<path class="st8" d="M188.1,454.5c-0.3-0.3-0.4-0.6-0.4-0.9c0-0.4,0.1-0.7,0.4-0.9c0.3-0.3,0.6-0.4,1-0.4
						c0.4,0,0.7,0.1,0.9,0.4s0.4,0.6,0.4,0.9c0,0.4-0.1,0.7-0.4,0.9c-0.3,0.3-0.6,0.4-0.9,0.4C188.7,454.9,188.3,454.8,188.1,454.5z
						"/>
					<path class="st8" d="M192.4,454.5c-0.3-0.3-0.4-0.6-0.4-0.9c0-0.4,0.1-0.7,0.4-0.9c0.3-0.3,0.6-0.4,1-0.4
						c0.4,0,0.7,0.1,0.9,0.4s0.4,0.6,0.4,0.9c0,0.4-0.1,0.7-0.4,0.9c-0.3,0.3-0.6,0.4-0.9,0.4C193,454.9,192.7,454.8,192.4,454.5z"
						/>
				</g>
			</g>
			<g id="Path_1561">
				<path class="st9" d="M70.3,430.1h310.9c6.7,0,12.2,5.5,12.2,12.2l0,0v14.5c0,6.7-5.5,12.2-12.2,12.2l0,0H70.3
					c-6.7,0-12.2-5.5-12.2-12.2v-14.5C58.1,435.6,63.5,430.1,70.3,430.1L70.3,430.1z"/>
				<path class="st8" d="M70.3,433.2c-5,0-9.1,4.1-9.1,9.1c0,0,0,0,0,0v14.5c0,5,4.1,9.1,9.1,9.1c0,0,0,0,0,0h310.9
					c5,0,9.1-4.1,9.1-9.1v-14.5c0-5-4.1-9.1-9.1-9.1L70.3,433.2 M70.3,430.1h310.9c6.7,0,12.2,5.5,12.2,12.2l0,0v14.5
					c0,6.7-5.5,12.2-12.2,12.2l0,0H70.3c-6.7,0-12.2-5.5-12.2-12.2v-14.5C58.1,435.6,63.5,430.1,70.3,430.1L70.3,430.1z"/>
			</g>
			<path id="search" class="st8" d="M368.1,458.3l-4.7-4.7c2.4-3.3,1.7-8-1.7-10.4s-8-1.7-10.4,1.7s-1.7,8,1.7,10.4
				c2.5,1.8,6,1.9,8.5,0.1l4.8,4.8L368.1,458.3z M352.1,449.2c0-2.9,2.3-5.2,5.2-5.2c2.9,0,5.2,2.3,5.2,5.2c0,2.9-2.3,5.2-5.2,5.2
				c0,0,0,0,0,0l0,0C354.4,454.4,352.1,452.1,352.1,449.2L352.1,449.2z"/>
			<g class="st7">
				<path class="st8" d="M64.7,288.3c-0.1-0.1-0.2-0.2-0.2-0.3l-4.9-16.8c0,0,0-0.1,0-0.2c0-0.1,0-0.3,0.1-0.3
					c0.1-0.1,0.2-0.2,0.4-0.2h2c0.1,0,0.3,0,0.4,0.1c0.1,0.1,0.2,0.2,0.2,0.3l3.7,12.9L70,271c0-0.1,0.1-0.2,0.2-0.3
					c0.1-0.1,0.3-0.1,0.4-0.1h2c0.1,0,0.3,0,0.4,0.1c0.1,0.1,0.2,0.2,0.2,0.3l3.7,12.9l3.6-12.9c0-0.1,0.1-0.2,0.2-0.3
					c0.1-0.1,0.3-0.1,0.4-0.1h2.1c0.2,0,0.3,0.1,0.4,0.2s0.1,0.3,0.1,0.5l-5,16.8c0,0.1-0.1,0.3-0.2,0.3s-0.3,0.1-0.4,0.1h-2.4
					c-0.1,0-0.3,0-0.4-0.1c-0.1-0.1-0.2-0.2-0.2-0.3l-3.4-12.2l-3.5,12.2c0,0.1-0.1,0.3-0.2,0.3s-0.3,0.1-0.4,0.1h-2.4
					C64.9,288.4,64.8,288.4,64.7,288.3z"/>
				<path class="st8" d="M89,287.6c-0.9-0.5-1.6-1.3-2.2-2.2c-0.5-0.9-0.8-1.9-0.8-3v-2.7c0-1.1,0.3-2.1,0.8-3
					c0.5-0.9,1.3-1.6,2.2-2.2c0.9-0.5,1.9-0.8,3-0.8c1.1,0,2.1,0.3,3,0.8s1.6,1.3,2.2,2.2c0.5,0.9,0.8,1.9,0.8,3v1.7
					c0,0.3-0.1,0.6-0.3,0.8c-0.2,0.2-0.5,0.3-0.8,0.3h-7.8v0.1c0,0.8,0.3,1.5,0.9,2.1c0.6,0.6,1.3,0.9,2.1,0.9h4
					c0.1,0,0.3,0,0.4,0.1c0.1,0.1,0.1,0.2,0.1,0.4v1.8c0,0.2,0,0.3-0.1,0.4c-0.1,0.1-0.2,0.2-0.4,0.2h-4
					C90.9,288.4,89.9,288.1,89,287.6z M95,279.7v-0.2c0-0.8-0.3-1.5-0.9-2.1c-0.6-0.6-1.3-0.9-2.1-0.9c-0.8,0-1.5,0.3-2.1,0.9
					c-0.6,0.6-0.9,1.3-0.9,2.1v0.2H95z"/>
				<path class="st8" d="M102.7,288c-0.2-0.2-0.3-0.5-0.3-0.8v-15.2h-2.3c-0.1,0-0.3,0-0.4-0.2c-0.1-0.1-0.1-0.2-0.1-0.4v-1.8
					c0-0.2,0-0.3,0.1-0.4s0.2-0.2,0.4-0.2h4.2c0.3,0,0.6,0.1,0.8,0.3c0.2,0.2,0.3,0.5,0.3,0.8v15.2h2.3c0.2,0,0.3,0.1,0.4,0.2
					c0.1,0.1,0.2,0.2,0.2,0.4v1.8c0,0.2-0.1,0.3-0.2,0.4c-0.1,0.1-0.2,0.2-0.4,0.2h-4.2C103.2,288.4,102.9,288.3,102.7,288z"/>
				<path class="st8" d="M113.3,287.9c-0.9-0.5-1.6-1.3-2.2-2.2c-0.5-0.9-0.8-1.9-0.8-3v-3c0-1.1,0.3-2.1,0.8-3
					c0.5-0.9,1.3-1.6,2.2-2.2c0.9-0.5,1.9-0.8,3-0.8c0.8,0,1.6,0.2,2.4,0.5c0.8,0.3,1.4,0.8,2,1.4c0.1,0.1,0.2,0.3,0.2,0.4
					c0,0.2-0.1,0.3-0.2,0.5l-1.1,1.1c-0.1,0.1-0.3,0.2-0.4,0.2s-0.3-0.1-0.4-0.2c-0.6-0.6-1.5-1-2.4-1c-0.8,0-1.5,0.3-2.1,0.9
					c-0.6,0.6-0.9,1.3-0.9,2.1v3.3c0,0.8,0.3,1.5,0.9,2.1c0.6,0.6,1.3,0.9,2.1,0.9c1,0,1.8-0.3,2.4-1c0.1-0.2,0.3-0.2,0.4-0.2
					s0.3,0.1,0.4,0.2l1.1,1.1c0.1,0.2,0.2,0.3,0.2,0.5c0,0.2-0.1,0.3-0.2,0.4c-0.5,0.6-1.2,1.1-2,1.4s-1.6,0.5-2.4,0.5
					C115.2,288.7,114.2,288.4,113.3,287.9z"/>
				<path class="st8" d="M126.5,287.9c-0.9-0.5-1.6-1.2-2.2-2.1c-0.5-0.9-0.8-1.9-0.8-2.9v-3.3c0-1,0.3-2,0.8-2.9
					c0.5-0.9,1.3-1.6,2.2-2.1c0.9-0.5,1.9-0.8,3-0.8c1.1,0,2.1,0.3,3,0.8c0.9,0.5,1.6,1.2,2.2,2.1c0.5,0.9,0.8,1.9,0.8,2.9v3.3
					c0,1.1-0.3,2-0.8,2.9c-0.5,0.9-1.3,1.6-2.2,2.1c-0.9,0.5-1.9,0.8-3,0.8C128.4,288.7,127.4,288.4,126.5,287.9z M131.5,284.9
					c0.6-0.6,0.9-1.3,0.9-2.1v-3.3c0-0.8-0.3-1.5-0.9-2.1c-0.6-0.6-1.3-0.9-2.1-0.9c-0.8,0-1.5,0.3-2.1,0.9
					c-0.6,0.6-0.9,1.3-0.9,2.1v3.3c0,0.8,0.3,1.5,0.9,2.1c0.6,0.6,1.3,0.9,2.1,0.9C130.3,285.8,131,285.5,131.5,284.9z"/>
				<path class="st8" d="M139,288.2c-0.1-0.1-0.1-0.2-0.1-0.4v-13.3c0-0.2,0-0.3,0.1-0.4c0.1-0.1,0.2-0.2,0.4-0.2h1.9
					c0.2,0,0.3,0,0.4,0.2c0.1,0.1,0.2,0.2,0.2,0.4v1.3c0.5-0.7,1.1-1.3,1.7-1.6c0.7-0.4,1.4-0.5,2.1-0.5c0.9,0,1.7,0.2,2.4,0.7
					c0.7,0.4,1.3,1,1.7,1.8c0.5-0.8,1.1-1.4,1.9-1.8c0.8-0.4,1.6-0.7,2.5-0.7c1.5,0,2.6,0.5,3.5,1.4c0.9,1,1.3,2.2,1.3,3.8v8.9
					c0,0.2,0,0.3-0.1,0.4c-0.1,0.1-0.2,0.2-0.4,0.2h-2c-0.1,0-0.3,0-0.4-0.2c-0.1-0.1-0.1-0.2-0.1-0.4v-8.5c0-0.9-0.2-1.6-0.6-2
					s-1-0.7-1.7-0.7c-1,0-1.8,0.3-2.3,1c-0.6,0.6-0.9,1.5-0.9,2.6v7.6c0,0.2-0.1,0.3-0.1,0.4c-0.1,0.1-0.2,0.2-0.4,0.2h-2
					c-0.1,0-0.3,0-0.4-0.2c-0.1-0.1-0.1-0.2-0.1-0.4v-8.5c0-0.9-0.2-1.6-0.6-2s-1-0.7-1.7-0.7c-1,0-1.8,0.3-2.3,1s-0.9,1.5-0.9,2.6
					v7.6c0,0.2-0.1,0.3-0.2,0.4c-0.1,0.1-0.2,0.2-0.4,0.2h-1.9C139.2,288.4,139.1,288.3,139,288.2z"/>
				<path class="st8" d="M165,287.6c-0.9-0.5-1.6-1.3-2.2-2.2c-0.5-0.9-0.8-1.9-0.8-3v-2.7c0-1.1,0.3-2.1,0.8-3
					c0.5-0.9,1.3-1.6,2.2-2.2c0.9-0.5,1.9-0.8,3-0.8c1.1,0,2.1,0.3,3,0.8s1.6,1.3,2.2,2.2c0.5,0.9,0.8,1.9,0.8,3v1.7
					c0,0.3-0.1,0.6-0.3,0.8c-0.2,0.2-0.5,0.3-0.8,0.3H165v0.1c0,0.8,0.3,1.5,0.9,2.1c0.6,0.6,1.3,0.9,2.1,0.9h4c0.1,0,0.3,0,0.4,0.1
					c0.1,0.1,0.1,0.2,0.1,0.4v1.8c0,0.2,0,0.3-0.1,0.4c-0.1,0.1-0.2,0.2-0.4,0.2h-4C166.9,288.4,165.9,288.1,165,287.6z
					 M170.9,279.7v-0.2c0-0.8-0.3-1.5-0.9-2.1c-0.6-0.6-1.3-0.9-2.1-0.9c-0.8,0-1.5,0.3-2.1,0.9c-0.6,0.6-0.9,1.3-0.9,2.1v0.2H170.9
					z"/>
				<path class="st8" d="M185.8,287.2c-0.8-0.8-1.2-1.8-1.2-3.1v-7.2h-1.7c-0.1,0-0.3,0-0.4-0.1c-0.1-0.1-0.1-0.2-0.1-0.4v-1.8
					c0-0.2,0-0.3,0.1-0.4c0.1-0.1,0.2-0.2,0.4-0.2h1.7v-2.7c0-0.1,0-0.3,0.1-0.4c0.1-0.1,0.2-0.1,0.4-0.1h2c0.1,0,0.3,0,0.4,0.1
					c0.1,0.1,0.1,0.2,0.1,0.4v2.7h4.2c0.1,0,0.3,0,0.4,0.2c0.1,0.1,0.1,0.2,0.1,0.4v1.8c0,0.2,0,0.3-0.1,0.4
					c-0.1,0.1-0.2,0.2-0.4,0.2h-4.2v7c0,0.5,0.1,0.9,0.4,1.2c0.3,0.3,0.7,0.5,1.2,0.5l2.6,0c0.1,0,0.3,0,0.4,0.1
					c0.1,0.1,0.1,0.2,0.1,0.4v1.8c0,0.2,0,0.3-0.1,0.4c-0.1,0.1-0.2,0.2-0.4,0.2h-2.9C187.6,288.4,186.6,288,185.8,287.2z"/>
				<path class="st8" d="M198,287.9c-0.9-0.5-1.6-1.2-2.2-2.1c-0.5-0.9-0.8-1.9-0.8-2.9v-3.3c0-1,0.3-2,0.8-2.9
					c0.5-0.9,1.3-1.6,2.2-2.1c0.9-0.5,1.9-0.8,3-0.8c1.1,0,2.1,0.3,3,0.8c0.9,0.5,1.6,1.2,2.2,2.1c0.5,0.9,0.8,1.9,0.8,2.9v3.3
					c0,1.1-0.3,2-0.8,2.9c-0.5,0.9-1.3,1.6-2.2,2.1c-0.9,0.5-1.9,0.8-3,0.8C199.9,288.7,198.9,288.4,198,287.9z M203,284.9
					c0.6-0.6,0.9-1.3,0.9-2.1v-3.3c0-0.8-0.3-1.5-0.9-2.1c-0.6-0.6-1.3-0.9-2.1-0.9c-0.8,0-1.5,0.3-2.1,0.9
					c-0.6,0.6-0.9,1.3-0.9,2.1v3.3c0,0.8,0.3,1.5,0.9,2.1c0.6,0.6,1.3,0.9,2.1,0.9C201.8,285.8,202.5,285.5,203,284.9z"/>
				<path class="st8" d="M218.1,288c-0.2-0.2-0.3-0.5-0.3-0.8v-15.2h-2.3c-0.1,0-0.3,0-0.4-0.2c-0.1-0.1-0.1-0.2-0.1-0.4v-1.8
					c0-0.2,0-0.3,0.1-0.4s0.2-0.2,0.4-0.2h4.2c0.3,0,0.6,0.1,0.8,0.3c0.2,0.2,0.3,0.5,0.3,0.8v15.2h2.3c0.2,0,0.3,0.1,0.4,0.2
					c0.1,0.1,0.2,0.2,0.2,0.4v1.8c0,0.2-0.1,0.3-0.2,0.4c-0.1,0.1-0.2,0.2-0.4,0.2h-4.2C218.5,288.4,218.3,288.3,218.1,288z"/>
				<path class="st8" d="M228.2,288c-0.2-0.2-0.4-0.5-0.4-0.9v-10.2h-2c-0.1,0-0.3-0.1-0.4-0.2s-0.1-0.2-0.1-0.4v-1.8
					c0-0.2,0-0.3,0.1-0.4c0.1-0.1,0.2-0.2,0.4-0.2h3.8c0.4,0,0.6,0.1,0.9,0.4c0.2,0.2,0.4,0.5,0.4,0.9v10.2h2c0.1,0,0.3,0,0.4,0.1
					c0.1,0.1,0.1,0.2,0.1,0.4v1.8c0,0.2-0.1,0.3-0.1,0.4c-0.1,0.1-0.2,0.2-0.4,0.2H229C228.7,288.4,228.4,288.2,228.2,288z
					 M228.1,272.2c-0.1-0.1-0.2-0.2-0.2-0.4v-2.7c0-0.2,0.1-0.3,0.2-0.4c0.1-0.1,0.2-0.2,0.4-0.2h1.7c0.1,0,0.3,0.1,0.4,0.2
					s0.1,0.2,0.1,0.4v2.7c0,0.2,0,0.3-0.1,0.4c-0.1,0.1-0.2,0.2-0.4,0.2h-1.7C228.3,272.4,228.2,272.3,228.1,272.2z"/>
				<path class="st8" d="M239.9,288.5c-0.4,0-0.6-0.2-0.8-0.5l-4.4-13.2c0-0.1-0.1-0.2-0.1-0.2c0-0.2,0.1-0.3,0.2-0.4
					c0.1-0.1,0.3-0.2,0.4-0.2h1.8c0.2,0,0.3,0,0.5,0.2c0.1,0.1,0.2,0.2,0.3,0.4l3.1,10.1l2.8-10.1c0.1-0.2,0.1-0.3,0.3-0.4
					c0.1-0.1,0.3-0.2,0.5-0.2h1.8c0.2,0,0.3,0,0.5,0.2c0.1,0.1,0.2,0.2,0.3,0.4l3,10.1l2.9-10.1c0-0.2,0.1-0.3,0.3-0.4
					c0.1-0.1,0.3-0.2,0.5-0.2h1.6c0.2,0,0.3,0.1,0.5,0.2c0.1,0.1,0.2,0.2,0.2,0.4c0,0,0,0.1,0,0.2l-4.1,13.2c0,0.2-0.1,0.3-0.3,0.4
					c-0.1,0.1-0.3,0.1-0.5,0.1l-2,0c-0.2,0-0.3,0-0.5-0.1c-0.1-0.1-0.2-0.2-0.3-0.4l-2.8-9.5l-2.6,9.5c0,0.2-0.1,0.3-0.3,0.4
					c-0.1,0.1-0.3,0.1-0.5,0.1L239.9,288.5z"/>
				<path class="st8" d="M260.4,288c-0.2-0.2-0.4-0.5-0.4-0.9v-10.2h-2c-0.2,0-0.3-0.1-0.4-0.2c-0.1-0.1-0.2-0.2-0.2-0.4v-1.8
					c0-0.2,0-0.3,0.2-0.4c0.1-0.1,0.2-0.2,0.4-0.2h3.8c0.4,0,0.6,0.1,0.9,0.4c0.2,0.2,0.4,0.5,0.4,0.9v10.2h2c0.2,0,0.3,0,0.4,0.1
					c0.1,0.1,0.2,0.2,0.2,0.4v1.8c0,0.2-0.1,0.3-0.2,0.4c-0.1,0.1-0.2,0.2-0.4,0.2h-3.8C260.9,288.4,260.6,288.2,260.4,288z
					 M260.3,272.2c-0.1-0.1-0.2-0.2-0.2-0.4v-2.7c0-0.2,0.1-0.3,0.2-0.4s0.2-0.2,0.4-0.2h1.7c0.1,0,0.3,0.1,0.4,0.2
					c0.1,0.1,0.1,0.2,0.1,0.4v2.7c0,0.2,0,0.3-0.1,0.4c-0.1,0.1-0.2,0.2-0.4,0.2h-1.7C260.5,272.4,260.4,272.3,260.3,272.2z"/>
				<path class="st8" d="M269.4,288.2c-0.4-0.4-0.6-0.9-0.6-1.5c0-0.6,0.2-1.1,0.6-1.5c0.4-0.4,0.9-0.6,1.5-0.6c0.6,0,1,0.2,1.5,0.6
					c0.4,0.4,0.6,0.9,0.6,1.5s-0.2,1.1-0.6,1.5c-0.4,0.4-0.9,0.6-1.5,0.6C270.3,288.8,269.8,288.6,269.4,288.2z M269.5,282.9
					c-0.1-0.1-0.1-0.2-0.1-0.4V271c0-0.2,0-0.3,0.1-0.4c0.1-0.1,0.2-0.2,0.4-0.2h1.9c0.2,0,0.3,0,0.4,0.2c0.1,0.1,0.2,0.2,0.2,0.4
					v11.5c0,0.1-0.1,0.3-0.2,0.4c-0.1,0.1-0.2,0.1-0.4,0.1h-1.9C269.8,283.1,269.6,283,269.5,282.9z"/>
			</g>
			<g class="st7">
				<path class="st8" d="M62.4,318.2c-0.9-0.3-1.7-0.7-2.4-1.2c-0.1-0.1-0.1-0.1-0.2-0.3c0-0.1,0-0.2,0-0.3l0.9-1.6
					c0.1-0.2,0.3-0.3,0.5-0.3c0.1,0,0.3,0,0.4,0.1c1.3,0.8,2.4,1.2,3.5,1.2c0.9,0,1.6-0.2,2.1-0.6c0.5-0.4,0.8-1,0.8-1.7
					c0-0.5-0.1-0.8-0.4-1.1s-0.6-0.6-1-0.8c-0.4-0.2-1-0.5-1.8-0.8l-0.7-0.3c-1.1-0.5-2.1-1.1-2.9-1.8s-1.2-1.9-1.2-3.3
					c0-1,0.2-1.9,0.7-2.7c0.5-0.8,1.1-1.4,1.9-1.8c0.8-0.4,1.8-0.7,2.8-0.7c0.9,0,1.8,0.1,2.6,0.4c0.9,0.3,1.7,0.7,2.4,1.2
					c0.1,0,0.1,0.1,0.2,0.3c0,0.1,0,0.2,0,0.3l-0.8,1.6c-0.1,0.2-0.3,0.3-0.5,0.3c-0.1,0-0.3,0-0.4-0.1c-0.6-0.4-1.3-0.7-1.9-0.9
					c-0.6-0.2-1.1-0.3-1.6-0.3c-0.8,0-1.3,0.2-1.8,0.6s-0.6,0.9-0.6,1.6c0,0.6,0.2,1.2,0.7,1.6c0.5,0.4,1.2,0.9,2.3,1.3
					c0.1,0.1,0.7,0.3,1.7,0.7c1,0.4,1.8,1,2.4,1.8c0.6,0.8,0.9,1.7,0.9,2.8c0,1-0.2,2-0.7,2.8c-0.5,0.8-1.2,1.4-2.1,1.9
					s-1.9,0.7-3,0.7C64.2,318.7,63.3,318.5,62.4,318.2z"/>
				<path class="st8" d="M76.6,317.6c-0.9-0.5-1.6-1.3-2.2-2.2c-0.5-0.9-0.8-1.9-0.8-3v-2.7c0-1.1,0.3-2.1,0.8-3
					c0.5-0.9,1.3-1.6,2.2-2.2c0.9-0.5,1.9-0.8,3-0.8c1.1,0,2.1,0.3,3,0.8s1.6,1.3,2.2,2.2c0.5,0.9,0.8,1.9,0.8,3v1.7
					c0,0.3-0.1,0.6-0.3,0.8c-0.2,0.2-0.5,0.3-0.8,0.3h-7.8v0.1c0,0.8,0.3,1.5,0.9,2.1c0.6,0.6,1.3,0.9,2.1,0.9h4
					c0.1,0,0.3,0,0.4,0.1c0.1,0.1,0.1,0.2,0.1,0.4v1.8c0,0.2,0,0.3-0.1,0.4c-0.1,0.1-0.2,0.2-0.4,0.2h-4
					C78.5,318.4,77.5,318.1,76.6,317.6z M82.5,309.7v-0.2c0-0.8-0.3-1.5-0.9-2.1c-0.6-0.6-1.3-0.9-2.1-0.9c-0.8,0-1.5,0.3-2.1,0.9
					c-0.6,0.6-0.9,1.3-0.9,2.1v0.2H82.5z"/>
				<path class="st8" d="M89.2,317.5c-0.9-0.8-1.3-1.8-1.3-3.1c0-1.1,0.4-2.1,1.2-2.9c0.8-0.8,1.9-1.3,3.4-1.5c0.4,0,0.7-0.1,1-0.2
					c1.2-0.1,1.9-0.2,2.1-0.3c0.6-0.1,0.9-0.5,0.9-1c0-0.6-0.3-1.1-0.8-1.5c-0.5-0.4-1.1-0.6-1.9-0.6c-1.4,0-2.3,0.5-3,1.5
					c-0.1,0.2-0.3,0.3-0.5,0.3c-0.1,0-0.2,0-0.3-0.1l-1.4-0.9c-0.1-0.1-0.2-0.2-0.2-0.4c0,0,0-0.1,0-0.2c0.5-0.9,1.2-1.6,2.2-2.1
					c0.9-0.5,2-0.8,3.2-0.8c1.1,0,2.1,0.2,2.9,0.6c0.8,0.4,1.5,1,1.9,1.8c0.5,0.8,0.7,1.7,0.7,2.7v9.1c0,0.2-0.1,0.3-0.2,0.4
					c-0.1,0.1-0.2,0.2-0.4,0.2h-1.7c-0.1,0-0.3,0-0.4-0.1c-0.1-0.1-0.1-0.2-0.1-0.4v-1c-1.2,1.2-2.5,1.8-4.1,1.8
					C91.2,318.7,90,318.3,89.2,317.5z M94.6,315.5c0.6-0.3,1.1-0.8,1.4-1.3c0.4-0.5,0.5-1.1,0.5-1.7V312l-1.9,0.3
					c-1,0.1-1.7,0.2-2,0.3c-1.4,0.3-2,0.8-2,1.8c0,0.5,0.2,0.9,0.6,1.2s0.9,0.5,1.5,0.5C93.4,316,94.1,315.8,94.6,315.5z"/>
				<path class="st8" d="M102.7,318.2c-0.1-0.1-0.1-0.2-0.1-0.4V316c0-0.2,0-0.3,0.1-0.4s0.2-0.2,0.4-0.2h1.9v-8.6h-2.1
					c-0.1,0-0.3,0-0.4-0.2c-0.1-0.1-0.1-0.2-0.1-0.4v-1.8c0-0.2,0-0.3,0.1-0.4c0.1-0.1,0.2-0.2,0.4-0.2h3.9c0.3,0,0.6,0.1,0.8,0.3
					c0.2,0.2,0.3,0.5,0.3,0.8v0.9l1.3-1.1c0.5-0.4,0.9-0.7,1.3-0.8c0.4-0.2,0.8-0.2,1.3-0.2h0.8c0.2,0,0.3,0,0.4,0.2
					c0.1,0.1,0.2,0.2,0.2,0.4v1.9c0,0.1-0.1,0.3-0.2,0.4c-0.1,0.1-0.2,0.1-0.4,0.1h-0.6c-0.4,0-0.8,0.1-1.1,0.2
					c-0.3,0.1-0.8,0.5-1.4,1l-1.4,1.1v6.3h2.5c0.2,0,0.3,0.1,0.4,0.2c0.1,0.1,0.2,0.2,0.2,0.4v1.8c0,0.2-0.1,0.3-0.2,0.4
					c-0.1,0.1-0.2,0.2-0.4,0.2h-7.3C102.9,318.4,102.8,318.3,102.7,318.2z"/>
				<path class="st8" d="M118.1,317.9c-0.9-0.5-1.6-1.3-2.2-2.2c-0.5-0.9-0.8-1.9-0.8-3v-3c0-1.1,0.3-2.1,0.8-3
					c0.5-0.9,1.3-1.6,2.2-2.2c0.9-0.5,1.9-0.8,3-0.8c0.8,0,1.6,0.2,2.4,0.5c0.8,0.3,1.4,0.8,2,1.4c0.1,0.1,0.2,0.3,0.2,0.4
					c0,0.2-0.1,0.3-0.2,0.5l-1.1,1.1c-0.1,0.1-0.3,0.2-0.4,0.2s-0.3-0.1-0.4-0.2c-0.6-0.6-1.5-1-2.4-1c-0.8,0-1.5,0.3-2.1,0.9
					c-0.6,0.6-0.9,1.3-0.9,2.1v3.3c0,0.8,0.3,1.5,0.9,2.1c0.6,0.6,1.3,0.9,2.1,0.9c1,0,1.8-0.3,2.4-1c0.1-0.2,0.3-0.2,0.4-0.2
					s0.3,0.1,0.4,0.2l1.1,1.1c0.1,0.2,0.2,0.3,0.2,0.5c0,0.2-0.1,0.3-0.2,0.4c-0.5,0.6-1.2,1.1-2,1.4s-1.6,0.5-2.4,0.5
					C120,318.7,119,318.4,118.1,317.9z"/>
				<path class="st8" d="M129,318.2c-0.1-0.1-0.1-0.2-0.1-0.4v-18.1c0-0.2,0-0.3,0.1-0.4s0.2-0.2,0.4-0.2h1.9c0.2,0,0.3,0.1,0.4,0.2
					c0.1,0.1,0.2,0.2,0.2,0.4v5.5c0.5-0.5,1-0.9,1.6-1.1c0.6-0.3,1.3-0.4,1.9-0.4c1,0,1.9,0.2,2.7,0.7s1.4,1.1,1.8,1.8
					c0.4,0.8,0.6,1.7,0.6,2.7v8.9c0,0.2-0.1,0.3-0.1,0.4c-0.1,0.1-0.2,0.2-0.4,0.2h-2c-0.1,0-0.3,0-0.4-0.2
					c-0.1-0.1-0.1-0.2-0.1-0.4v-8.5c0-0.9-0.2-1.6-0.7-2c-0.4-0.5-1.1-0.7-1.9-0.7c-1,0-1.8,0.3-2.3,1s-0.9,1.5-0.9,2.6v7.6
					c0,0.2-0.1,0.3-0.2,0.4c-0.1,0.1-0.2,0.2-0.4,0.2h-1.9C129.2,318.4,129.1,318.3,129,318.2z"/>
				<path class="st8" d="M152.8,323c-0.1-0.1-0.1-0.3,0-0.5l1.3-3.7l-4.9-14c0-0.1-0.1-0.2-0.1-0.2c0-0.2,0.1-0.3,0.2-0.4
					c0.1-0.1,0.3-0.2,0.4-0.2h1.8c0.2,0,0.3,0,0.5,0.2c0.1,0.1,0.2,0.2,0.3,0.4l3.4,10l3.4-10c0.1-0.2,0.1-0.3,0.3-0.4
					c0.1-0.1,0.3-0.2,0.5-0.2h1.6c0.2,0,0.3,0.1,0.5,0.2c0.1,0.1,0.2,0.2,0.2,0.4c0,0,0,0.1,0,0.2l-6.3,17.8
					c-0.1,0.2-0.2,0.3-0.3,0.4c-0.1,0.1-0.3,0.2-0.5,0.2h-1.7C153.1,323.2,152.9,323.1,152.8,323z"/>
				<path class="st8" d="M167.2,317.9c-0.9-0.5-1.6-1.2-2.2-2.1c-0.5-0.9-0.8-1.9-0.8-2.9v-3.3c0-1,0.3-2,0.8-2.9
					c0.5-0.9,1.3-1.6,2.2-2.1c0.9-0.5,1.9-0.8,3-0.8c1.1,0,2.1,0.3,3,0.8c0.9,0.5,1.6,1.2,2.2,2.1c0.5,0.9,0.8,1.9,0.8,2.9v3.3
					c0,1.1-0.3,2-0.8,2.9c-0.5,0.9-1.3,1.6-2.2,2.1c-0.9,0.5-1.9,0.8-3,0.8C169.1,318.7,168.1,318.4,167.2,317.9z M172.3,314.9
					c0.6-0.6,0.9-1.3,0.9-2.1v-3.3c0-0.8-0.3-1.5-0.9-2.1c-0.6-0.6-1.3-0.9-2.1-0.9c-0.8,0-1.5,0.3-2.1,0.9
					c-0.6,0.6-0.9,1.3-0.9,2.1v3.3c0,0.8,0.3,1.5,0.9,2.1c0.6,0.6,1.3,0.9,2.1,0.9C171,315.8,171.7,315.5,172.3,314.9z"/>
				<path class="st8" d="M181.7,318c-0.8-0.5-1.4-1.1-1.8-1.9c-0.4-0.8-0.6-1.7-0.6-2.7v-8.9c0-0.2,0.1-0.3,0.1-0.4
					c0.1-0.1,0.2-0.2,0.4-0.2h2c0.1,0,0.3,0,0.4,0.2c0.1,0.1,0.1,0.2,0.1,0.4v8.5c0,0.9,0.2,1.6,0.7,2c0.4,0.5,1.1,0.7,1.9,0.7
					c1,0,1.8-0.3,2.3-1s0.9-1.5,0.9-2.6v-7.6c0-0.2,0.1-0.3,0.2-0.4c0.1-0.1,0.2-0.2,0.4-0.2h1.9c0.1,0,0.3,0,0.4,0.2
					c0.1,0.1,0.1,0.2,0.1,0.4v13.3c0,0.2,0,0.3-0.1,0.4c-0.1,0.1-0.2,0.2-0.4,0.2h-1.9c-0.2,0-0.3,0-0.4-0.2
					c-0.1-0.1-0.2-0.2-0.2-0.4v-1.2c-0.5,0.6-1,1.1-1.7,1.5c-0.6,0.4-1.3,0.5-2.1,0.5C183.3,318.7,182.4,318.5,181.7,318z"/>
				<path class="st8" d="M194.5,318.2c-0.1-0.1-0.1-0.2-0.1-0.4V316c0-0.2,0-0.3,0.1-0.4s0.2-0.2,0.4-0.2h1.9v-8.6h-2.1
					c-0.1,0-0.3,0-0.4-0.2c-0.1-0.1-0.1-0.2-0.1-0.4v-1.8c0-0.2,0-0.3,0.1-0.4c0.1-0.1,0.2-0.2,0.4-0.2h3.9c0.3,0,0.6,0.1,0.8,0.3
					c0.2,0.2,0.3,0.5,0.3,0.8v0.9l1.3-1.1c0.5-0.4,0.9-0.7,1.3-0.8c0.4-0.2,0.8-0.2,1.3-0.2h0.8c0.2,0,0.3,0,0.4,0.2
					c0.1,0.1,0.2,0.2,0.2,0.4v1.9c0,0.1-0.1,0.3-0.2,0.4c-0.1,0.1-0.2,0.1-0.4,0.1h-0.6c-0.4,0-0.8,0.1-1.1,0.2
					c-0.3,0.1-0.8,0.5-1.4,1l-1.4,1.1v6.3h2.5c0.2,0,0.3,0.1,0.4,0.2c0.1,0.1,0.2,0.2,0.2,0.4v1.8c0,0.2-0.1,0.3-0.2,0.4
					c-0.1,0.1-0.2,0.2-0.4,0.2h-7.3C194.8,318.4,194.6,318.3,194.5,318.2z"/>
				<path class="st8" d="M214.1,317.5c-0.9-0.8-1.3-1.8-1.3-3.1c0-1.1,0.4-2.1,1.2-2.9c0.8-0.8,1.9-1.3,3.4-1.5c0.4,0,0.7-0.1,1-0.2
					c1.2-0.1,1.9-0.2,2.1-0.3c0.6-0.1,0.9-0.5,0.9-1c0-0.6-0.3-1.1-0.8-1.5c-0.5-0.4-1.1-0.6-1.9-0.6c-1.4,0-2.3,0.5-3,1.5
					c-0.1,0.2-0.3,0.3-0.5,0.3c-0.1,0-0.2,0-0.3-0.1l-1.4-0.9c-0.1-0.1-0.2-0.2-0.2-0.4c0,0,0-0.1,0-0.2c0.5-0.9,1.2-1.6,2.2-2.1
					c0.9-0.5,2-0.8,3.2-0.8c1.1,0,2.1,0.2,2.9,0.6c0.8,0.4,1.5,1,1.9,1.8c0.5,0.8,0.7,1.7,0.7,2.7v9.1c0,0.2-0.1,0.3-0.2,0.4
					c-0.1,0.1-0.2,0.2-0.4,0.2h-1.7c-0.1,0-0.3,0-0.4-0.1c-0.1-0.1-0.1-0.2-0.1-0.4v-1c-1.2,1.2-2.5,1.8-4.1,1.8
					C216.1,318.7,215,318.3,214.1,317.5z M219.6,315.5c0.6-0.3,1.1-0.8,1.4-1.3c0.4-0.5,0.5-1.1,0.5-1.7V312l-1.9,0.3
					c-1,0.1-1.7,0.2-2,0.3c-1.4,0.3-2,0.8-2,1.8c0,0.5,0.2,0.9,0.6,1.2s0.9,0.5,1.5,0.5C218.4,316,219,315.8,219.6,315.5z"/>
				<path class="st8" d="M227.7,318.2c-0.1-0.1-0.1-0.2-0.1-0.4V316c0-0.2,0-0.3,0.1-0.4s0.2-0.2,0.4-0.2h1.9v-8.6h-2.1
					c-0.1,0-0.3,0-0.4-0.2c-0.1-0.1-0.1-0.2-0.1-0.4v-1.8c0-0.2,0-0.3,0.1-0.4c0.1-0.1,0.2-0.2,0.4-0.2h3.9c0.3,0,0.6,0.1,0.8,0.3
					c0.2,0.2,0.3,0.5,0.3,0.8v0.9l1.3-1.1c0.5-0.4,0.9-0.7,1.3-0.8c0.4-0.2,0.8-0.2,1.3-0.2h0.8c0.2,0,0.3,0,0.4,0.2
					c0.1,0.1,0.2,0.2,0.2,0.4v1.9c0,0.1-0.1,0.3-0.2,0.4c-0.1,0.1-0.2,0.1-0.4,0.1h-0.6c-0.4,0-0.8,0.1-1.1,0.2
					c-0.3,0.1-0.8,0.5-1.4,1l-1.4,1.1v6.3h2.5c0.2,0,0.3,0.1,0.4,0.2c0.1,0.1,0.2,0.2,0.2,0.4v1.8c0,0.2-0.1,0.3-0.2,0.4
					c-0.1,0.1-0.2,0.2-0.4,0.2H228C227.9,318.4,227.8,318.3,227.7,318.2z"/>
				<path class="st8" d="M243.1,317.6c-0.9-0.5-1.6-1.3-2.2-2.2c-0.5-0.9-0.8-1.9-0.8-3v-2.7c0-1.1,0.3-2.1,0.8-3
					c0.5-0.9,1.3-1.6,2.2-2.2c0.9-0.5,1.9-0.8,3-0.8s2.1,0.3,3,0.8s1.6,1.3,2.2,2.2c0.5,0.9,0.8,1.9,0.8,3v1.7
					c0,0.3-0.1,0.6-0.3,0.8c-0.2,0.2-0.5,0.3-0.8,0.3h-7.8v0.1c0,0.8,0.3,1.5,0.9,2.1c0.6,0.6,1.3,0.9,2.1,0.9h4
					c0.1,0,0.3,0,0.4,0.1c0.1,0.1,0.1,0.2,0.1,0.4v1.8c0,0.2,0,0.3-0.1,0.4c-0.1,0.1-0.2,0.2-0.4,0.2h-4
					C245,318.4,244,318.1,243.1,317.6z M249,309.7v-0.2c0-0.8-0.3-1.5-0.9-2.1s-1.3-0.9-2.1-0.9s-1.5,0.3-2.1,0.9
					c-0.6,0.6-0.9,1.3-0.9,2.1v0.2H249z"/>
				<path class="st8" d="M255.6,317.5c-0.9-0.8-1.3-1.8-1.3-3.1c0-1.1,0.4-2.1,1.2-2.9c0.8-0.8,1.9-1.3,3.4-1.5c0.4,0,0.7-0.1,1-0.2
					c1.2-0.1,1.9-0.2,2.1-0.3c0.6-0.1,0.9-0.5,0.9-1c0-0.6-0.3-1.1-0.8-1.5c-0.5-0.4-1.1-0.6-1.9-0.6c-1.3,0-2.3,0.5-3,1.5
					c-0.1,0.2-0.3,0.3-0.5,0.3c-0.1,0-0.2,0-0.3-0.1l-1.4-0.9c-0.2-0.1-0.2-0.2-0.2-0.4c0,0,0-0.1,0-0.2c0.5-0.9,1.2-1.6,2.2-2.1
					c1-0.5,2-0.8,3.2-0.8c1.1,0,2.1,0.2,2.9,0.6c0.8,0.4,1.5,1,1.9,1.8c0.5,0.8,0.7,1.7,0.7,2.7v9.1c0,0.2,0,0.3-0.2,0.4
					c-0.1,0.1-0.2,0.2-0.4,0.2h-1.7c-0.2,0-0.3,0-0.4-0.1c-0.1-0.1-0.2-0.2-0.2-0.4v-1c-1.2,1.2-2.5,1.8-4.1,1.8
					C257.6,318.7,256.5,318.3,255.6,317.5z M261.1,315.5c0.6-0.3,1.1-0.8,1.4-1.3c0.4-0.5,0.5-1.1,0.5-1.7V312l-1.9,0.3
					c-1,0.1-1.7,0.2-2,0.3c-1.4,0.3-2,0.8-2,1.8c0,0.5,0.2,0.9,0.6,1.2c0.4,0.3,0.9,0.5,1.5,0.5C259.9,316,260.5,315.8,261.1,315.5z
					"/>
				<path class="st8" d="M278.3,317.2c-0.8-0.8-1.2-1.8-1.2-3.1v-7.2h-1.7c-0.2,0-0.3,0-0.4-0.1c-0.1-0.1-0.2-0.2-0.2-0.4v-1.8
					c0-0.2,0-0.3,0.2-0.4c0.1-0.1,0.2-0.2,0.4-0.2h1.7v-2.7c0-0.1,0-0.3,0.2-0.4c0.1-0.1,0.2-0.1,0.4-0.1h2c0.1,0,0.3,0,0.4,0.1
					c0.1,0.1,0.1,0.2,0.1,0.4v2.7h4.2c0.1,0,0.3,0,0.4,0.2c0.1,0.1,0.1,0.2,0.1,0.4v1.8c0,0.2,0,0.3-0.1,0.4
					c-0.1,0.1-0.2,0.2-0.4,0.2H280v7c0,0.5,0.1,0.9,0.4,1.2c0.3,0.3,0.7,0.5,1.2,0.5l2.6,0c0.1,0,0.3,0,0.4,0.1
					c0.1,0.1,0.1,0.2,0.1,0.4v1.8c0,0.2,0,0.3-0.1,0.4c-0.1,0.1-0.2,0.2-0.4,0.2h-2.9C280.1,318.4,279.1,318,278.3,317.2z"/>
				<path class="st8" d="M290.4,317.9c-0.9-0.5-1.6-1.2-2.2-2.1c-0.5-0.9-0.8-1.9-0.8-2.9v-3.3c0-1,0.3-2,0.8-2.9
					c0.5-0.9,1.3-1.6,2.2-2.1c0.9-0.5,1.9-0.8,3-0.8c1.1,0,2.1,0.3,3,0.8c0.9,0.5,1.6,1.2,2.2,2.1c0.5,0.9,0.8,1.9,0.8,2.9v3.3
					c0,1.1-0.3,2-0.8,2.9c-0.5,0.9-1.3,1.6-2.2,2.1c-0.9,0.5-1.9,0.8-3,0.8C292.3,318.7,291.3,318.4,290.4,317.9z M295.5,314.9
					c0.6-0.6,0.9-1.3,0.9-2.1v-3.3c0-0.8-0.3-1.5-0.9-2.1c-0.6-0.6-1.3-0.9-2.1-0.9c-0.8,0-1.5,0.3-2.1,0.9s-0.9,1.3-0.9,2.1v3.3
					c0,0.8,0.3,1.5,0.9,2.1s1.3,0.9,2.1,0.9C294.2,315.8,294.9,315.5,295.5,314.9z"/>
			</g>
			<g class="st7">
				<path class="st8" d="M62.2,348.3c-0.8-0.3-1.6-0.7-2.2-1.2c-0.1-0.1-0.1-0.2-0.2-0.3s0-0.2,0-0.3c0.1-0.3,0.4-0.8,0.9-1.6
					c0.1-0.2,0.3-0.3,0.5-0.3c0.1,0,0.2,0,0.3,0.1c0.6,0.4,1.2,0.7,1.7,0.9c0.5,0.2,1.1,0.3,1.7,0.3c0.7,0,1.2-0.1,1.6-0.4
					c0.4-0.3,0.5-0.6,0.5-1.1c0-0.4-0.2-0.7-0.5-0.9c-0.3-0.2-0.9-0.5-1.8-0.8l-0.9-0.4c-0.7-0.3-1.4-0.6-1.9-0.9s-1-0.8-1.3-1.3
					c-0.4-0.6-0.5-1.3-0.5-2.1c0-1.3,0.4-2.4,1.3-3.1c0.9-0.8,2-1.2,3.5-1.2c0.8,0,1.7,0.1,2.5,0.4c0.8,0.3,1.5,0.7,2.1,1.1
					c0.1,0.1,0.1,0.2,0.2,0.3c0,0.1,0,0.2,0,0.3c-0.1,0.3-0.4,0.9-0.8,1.6c-0.1,0.2-0.3,0.3-0.5,0.3c-0.1,0-0.2,0-0.4-0.1
					c-1.1-0.8-2.2-1.1-3.2-1.1c-0.6,0-1,0.1-1.3,0.4c-0.3,0.2-0.5,0.6-0.5,1s0.2,0.8,0.6,1.1c0.4,0.3,1,0.6,2,1
					c0.9,0.4,1.7,0.7,2.2,0.9c0.5,0.3,1,0.7,1.5,1.2c0.4,0.6,0.7,1.3,0.7,2.2c0,0.9-0.2,1.6-0.7,2.3c-0.4,0.7-1.1,1.2-1.9,1.6
					c-0.8,0.4-1.7,0.5-2.7,0.5C63.9,348.7,63,348.5,62.2,348.3z"/>
				<path class="st8" d="M75.5,347.6c-0.9-0.5-1.6-1.3-2.2-2.2c-0.5-0.9-0.8-1.9-0.8-3v-2.7c0-1.1,0.3-2.1,0.8-3
					c0.5-0.9,1.3-1.6,2.2-2.2c0.9-0.5,1.9-0.8,3-0.8c1.1,0,2.1,0.3,3,0.8s1.6,1.3,2.2,2.2c0.5,0.9,0.8,1.9,0.8,3v1.7
					c0,0.3-0.1,0.6-0.3,0.8c-0.2,0.2-0.5,0.3-0.8,0.3h-7.8v0.1c0,0.8,0.3,1.5,0.9,2.1c0.6,0.6,1.3,0.9,2.1,0.9h4
					c0.1,0,0.3,0,0.4,0.1c0.1,0.1,0.1,0.2,0.1,0.4v1.8c0,0.2,0,0.3-0.1,0.4c-0.1,0.1-0.2,0.2-0.4,0.2h-4
					C77.4,348.4,76.4,348.1,75.5,347.6z M81.4,339.7v-0.2c0-0.8-0.3-1.5-0.9-2.1c-0.6-0.6-1.3-0.9-2.1-0.9c-0.8,0-1.5,0.3-2.1,0.9
					c-0.6,0.6-0.9,1.3-0.9,2.1v0.2H81.4z"/>
				<path class="st8" d="M90.1,347.6c-0.9-0.5-1.6-1.3-2.2-2.2c-0.5-0.9-0.8-1.9-0.8-3v-2.7c0-1.1,0.3-2.1,0.8-3
					c0.5-0.9,1.3-1.6,2.2-2.2c0.9-0.5,1.9-0.8,3-0.8c1.1,0,2.1,0.3,3,0.8s1.6,1.3,2.2,2.2c0.5,0.9,0.8,1.9,0.8,3v1.7
					c0,0.3-0.1,0.6-0.3,0.8c-0.2,0.2-0.5,0.3-0.8,0.3h-7.8v0.1c0,0.8,0.3,1.5,0.9,2.1c0.6,0.6,1.3,0.9,2.1,0.9h4
					c0.1,0,0.3,0,0.4,0.1c0.1,0.1,0.1,0.2,0.1,0.4v1.8c0,0.2,0,0.3-0.1,0.4c-0.1,0.1-0.2,0.2-0.4,0.2h-4
					C92,348.4,91,348.1,90.1,347.6z M96,339.7v-0.2c0-0.8-0.3-1.5-0.9-2.1c-0.6-0.6-1.3-0.9-2.1-0.9c-0.8,0-1.5,0.3-2.1,0.9
					c-0.6,0.6-0.9,1.3-0.9,2.1v0.2H96z"/>
				<path class="st8" d="M112.3,348.5c-0.4,0-0.6-0.2-0.8-0.5l-4.4-13.2c0-0.1-0.1-0.2-0.1-0.2c0-0.2,0.1-0.3,0.2-0.4
					c0.1-0.1,0.3-0.2,0.4-0.2h1.8c0.2,0,0.3,0,0.5,0.2c0.1,0.1,0.2,0.2,0.3,0.4l3.1,10.1l2.8-10.1c0.1-0.2,0.1-0.3,0.3-0.4
					c0.1-0.1,0.3-0.2,0.5-0.2h1.8c0.2,0,0.3,0,0.5,0.2c0.1,0.1,0.2,0.2,0.3,0.4l3,10.1l2.9-10.1c0.1-0.2,0.1-0.3,0.3-0.4
					c0.1-0.1,0.3-0.2,0.5-0.2h1.6c0.2,0,0.3,0.1,0.5,0.2c0.1,0.1,0.2,0.2,0.2,0.4c0,0,0,0.1,0,0.2l-4.1,13.2c0,0.2-0.1,0.3-0.3,0.4
					c-0.1,0.1-0.3,0.1-0.5,0.1l-2,0c-0.2,0-0.3,0-0.5-0.1c-0.1-0.1-0.2-0.2-0.3-0.4l-2.8-9.5l-2.6,9.5c0,0.2-0.1,0.3-0.3,0.4
					c-0.1,0.1-0.3,0.1-0.5,0.1L112.3,348.5z"/>
				<path class="st8" d="M131,348.2c-0.1-0.1-0.1-0.2-0.1-0.4v-18.1c0-0.2,0-0.3,0.1-0.4s0.2-0.2,0.4-0.2h1.9c0.2,0,0.3,0.1,0.4,0.2
					c0.1,0.1,0.2,0.2,0.2,0.4v5.5c0.5-0.5,1-0.9,1.6-1.1c0.6-0.3,1.3-0.4,1.9-0.4c1,0,1.9,0.2,2.7,0.7s1.4,1.1,1.8,1.8
					c0.4,0.8,0.6,1.7,0.6,2.7v8.9c0,0.2-0.1,0.3-0.1,0.4c-0.1,0.1-0.2,0.2-0.4,0.2h-2c-0.1,0-0.3,0-0.4-0.2
					c-0.1-0.1-0.1-0.2-0.1-0.4v-8.5c0-0.9-0.2-1.6-0.7-2c-0.4-0.5-1.1-0.7-1.9-0.7c-1,0-1.8,0.3-2.3,1s-0.9,1.5-0.9,2.6v7.6
					c0,0.2-0.1,0.3-0.2,0.4c-0.1,0.1-0.2,0.2-0.4,0.2h-1.9C131.2,348.4,131.1,348.3,131,348.2z"/>
				<path class="st8" d="M148.7,347.9c-0.9-0.5-1.6-1.2-2.2-2.1c-0.5-0.9-0.8-1.9-0.8-2.9v-3.3c0-1,0.3-2,0.8-2.9
					c0.5-0.9,1.3-1.6,2.2-2.1c0.9-0.5,1.9-0.8,3-0.8c1.1,0,2.1,0.3,3,0.8c0.9,0.5,1.6,1.2,2.2,2.1c0.5,0.9,0.8,1.9,0.8,2.9v3.3
					c0,1.1-0.3,2-0.8,2.9c-0.5,0.9-1.3,1.6-2.2,2.1c-0.9,0.5-1.9,0.8-3,0.8C150.6,348.7,149.6,348.4,148.7,347.9z M153.8,344.9
					c0.6-0.6,0.9-1.3,0.9-2.1v-3.3c0-0.8-0.3-1.5-0.9-2.1c-0.6-0.6-1.3-0.9-2.1-0.9c-0.8,0-1.5,0.3-2.1,0.9
					c-0.6,0.6-0.9,1.3-0.9,2.1v3.3c0,0.8,0.3,1.5,0.9,2.1c0.6,0.6,1.3,0.9,2.1,0.9C152.5,345.8,153.2,345.5,153.8,344.9z"/>
				<path class="st8" d="M160.4,337c-0.1-0.1-0.1-0.3-0.1-0.5l1.4-5.6c0-0.1,0.1-0.2,0.2-0.3s0.3-0.1,0.4-0.1h2.5
					c0.2,0,0.3,0,0.4,0.2c0.1,0.1,0.1,0.2,0.1,0.4c0,0.1,0,0.2-0.1,0.3l-2.9,5.9h-1.6C160.7,337.2,160.5,337.2,160.4,337z"/>
				<path class="st8" d="M170.3,348.3c-0.8-0.3-1.6-0.7-2.2-1.2c-0.1-0.1-0.1-0.2-0.2-0.3s0-0.2,0-0.3c0.1-0.3,0.4-0.8,0.9-1.6
					c0.1-0.2,0.3-0.3,0.5-0.3c0.1,0,0.2,0,0.3,0.1c0.6,0.4,1.2,0.7,1.7,0.9c0.5,0.2,1.1,0.3,1.7,0.3c0.7,0,1.2-0.1,1.6-0.4
					c0.4-0.3,0.5-0.6,0.5-1.1c0-0.4-0.2-0.7-0.5-0.9c-0.3-0.2-0.9-0.5-1.8-0.8l-0.9-0.4c-0.7-0.3-1.4-0.6-1.9-0.9s-1-0.8-1.3-1.3
					c-0.4-0.6-0.5-1.3-0.5-2.1c0-1.3,0.4-2.4,1.3-3.1c0.9-0.8,2-1.2,3.5-1.2c0.8,0,1.7,0.1,2.5,0.4c0.8,0.3,1.5,0.7,2.1,1.1
					c0.1,0.1,0.1,0.2,0.2,0.3c0,0.1,0,0.2,0,0.3c-0.1,0.3-0.4,0.9-0.8,1.6c-0.1,0.2-0.3,0.3-0.5,0.3c-0.1,0-0.2,0-0.4-0.1
					c-1.1-0.8-2.2-1.1-3.2-1.1c-0.6,0-1,0.1-1.3,0.4c-0.3,0.2-0.5,0.6-0.5,1s0.2,0.8,0.6,1.1c0.4,0.3,1,0.6,2,1
					c0.9,0.4,1.7,0.7,2.2,0.9c0.5,0.3,1,0.7,1.5,1.2c0.4,0.6,0.7,1.3,0.7,2.2c0,0.9-0.2,1.6-0.7,2.3c-0.4,0.7-1.1,1.2-1.9,1.6
					c-0.8,0.4-1.7,0.5-2.7,0.5C172,348.7,171.1,348.5,170.3,348.3z"/>
				<path class="st8" d="M191.2,348.5c-0.4,0-0.6-0.2-0.8-0.5l-4.4-13.2c0-0.1-0.1-0.2-0.1-0.2c0-0.2,0.1-0.3,0.2-0.4
					c0.1-0.1,0.3-0.2,0.4-0.2h1.8c0.2,0,0.3,0,0.5,0.2c0.1,0.1,0.2,0.2,0.3,0.4l3.1,10.1l2.8-10.1c0.1-0.2,0.1-0.3,0.3-0.4
					c0.1-0.1,0.3-0.2,0.5-0.2h1.8c0.2,0,0.3,0,0.5,0.2c0.1,0.1,0.2,0.2,0.3,0.4l3,10.1l2.9-10.1c0.1-0.2,0.1-0.3,0.3-0.4
					c0.1-0.1,0.3-0.2,0.5-0.2h1.6c0.2,0,0.3,0.1,0.5,0.2c0.1,0.1,0.2,0.2,0.2,0.4c0,0,0,0.1,0,0.2l-4.1,13.2c0,0.2-0.1,0.3-0.3,0.4
					c-0.1,0.1-0.3,0.1-0.5,0.1l-2,0c-0.2,0-0.3,0-0.5-0.1c-0.1-0.1-0.2-0.2-0.3-0.4l-2.8-9.5l-2.6,9.5c0,0.2-0.1,0.3-0.3,0.4
					c-0.1,0.1-0.3,0.1-0.5,0.1L191.2,348.5z"/>
				<path class="st8" d="M212.2,347.9c-0.9-0.5-1.6-1.2-2.2-2.1c-0.5-0.9-0.8-1.9-0.8-2.9v-3.3c0-1,0.3-2,0.8-2.9
					c0.5-0.9,1.3-1.6,2.2-2.1c0.9-0.5,1.9-0.8,3-0.8c1.1,0,2.1,0.3,3,0.8c0.9,0.5,1.6,1.2,2.2,2.1c0.5,0.9,0.8,1.9,0.8,2.9v3.3
					c0,1.1-0.3,2-0.8,2.9c-0.5,0.9-1.3,1.6-2.2,2.1c-0.9,0.5-1.9,0.8-3,0.8C214.1,348.7,213.1,348.4,212.2,347.9z M217.3,344.9
					c0.6-0.6,0.9-1.3,0.9-2.1v-3.3c0-0.8-0.3-1.5-0.9-2.1c-0.6-0.6-1.3-0.9-2.1-0.9c-0.8,0-1.5,0.3-2.1,0.9
					c-0.6,0.6-0.9,1.3-0.9,2.1v3.3c0,0.8,0.3,1.5,0.9,2.1c0.6,0.6,1.3,0.9,2.1,0.9C216,345.8,216.7,345.5,217.3,344.9z"/>
				<path class="st8" d="M224.1,348.2c-0.1-0.1-0.1-0.2-0.1-0.4V346c0-0.2,0-0.3,0.1-0.4s0.2-0.2,0.4-0.2h1.9v-8.6h-2.1
					c-0.1,0-0.3,0-0.4-0.2c-0.1-0.1-0.1-0.2-0.1-0.4v-1.8c0-0.2,0-0.3,0.1-0.4c0.1-0.1,0.2-0.2,0.4-0.2h3.9c0.3,0,0.6,0.1,0.8,0.3
					c0.2,0.2,0.3,0.5,0.3,0.8v0.9l1.3-1.1c0.5-0.4,0.9-0.7,1.3-0.8c0.4-0.2,0.8-0.2,1.3-0.2h0.8c0.2,0,0.3,0,0.4,0.2
					c0.1,0.1,0.2,0.2,0.2,0.4v1.9c0,0.1-0.1,0.3-0.2,0.4c-0.1,0.1-0.2,0.1-0.4,0.1h-0.6c-0.4,0-0.8,0.1-1.1,0.2
					c-0.3,0.1-0.8,0.5-1.4,1l-1.4,1.1v6.3h2.5c0.2,0,0.3,0.1,0.4,0.2c0.1,0.1,0.2,0.2,0.2,0.4v1.8c0,0.2-0.1,0.3-0.2,0.4
					c-0.1,0.1-0.2,0.2-0.4,0.2h-7.3C224.3,348.4,224.2,348.3,224.1,348.2z"/>
				<path class="st8" d="M237.2,348.2c-0.1-0.1-0.1-0.2-0.1-0.4v-18.1c0-0.2,0-0.3,0.1-0.4s0.2-0.2,0.4-0.2h1.9
					c0.2,0,0.3,0.1,0.4,0.2c0.1,0.1,0.2,0.2,0.2,0.4v9.4h0.8l4.5-4.8c0.2-0.2,0.4-0.3,0.7-0.3h2.3c0.2,0,0.3,0,0.4,0.1
					c0.1,0.1,0.2,0.2,0.2,0.3c0,0.1,0,0.2-0.2,0.4l-5.4,5.6l5.7,7.1c0.1,0.1,0.1,0.2,0.1,0.3c0,0.1,0,0.2-0.1,0.3
					c-0.1,0.1-0.2,0.1-0.3,0.1h-2.2c-0.3,0-0.6-0.1-0.8-0.4l-4.8-6H240v5.9c0,0.2-0.1,0.3-0.2,0.4c-0.1,0.1-0.2,0.2-0.4,0.2h-1.9
					C237.4,348.4,237.3,348.3,237.2,348.2z"/>
				<path class="st8" d="M253.6,348c-0.2-0.2-0.4-0.5-0.4-0.9v-10.2h-2c-0.1,0-0.3-0.1-0.4-0.2c-0.1-0.1-0.1-0.2-0.1-0.4v-1.8
					c0-0.2,0-0.3,0.1-0.4c0.1-0.1,0.2-0.2,0.4-0.2h3.8c0.3,0,0.6,0.1,0.9,0.4c0.2,0.2,0.4,0.5,0.4,0.9v10.2h2c0.1,0,0.3,0,0.4,0.1
					c0.1,0.1,0.1,0.2,0.1,0.4v1.8c0,0.2,0,0.3-0.1,0.4c-0.1,0.1-0.2,0.2-0.4,0.2h-3.8C254.2,348.4,253.9,348.2,253.6,348z
					 M253.5,332.2c-0.1-0.1-0.2-0.2-0.2-0.4v-2.7c0-0.2,0-0.3,0.2-0.4c0.1-0.1,0.2-0.2,0.4-0.2h1.7c0.2,0,0.3,0.1,0.4,0.2
					c0.1,0.1,0.2,0.2,0.2,0.4v2.7c0,0.2,0,0.3-0.2,0.4c-0.1,0.1-0.2,0.2-0.4,0.2h-1.7C253.8,332.4,253.6,332.3,253.5,332.2z"/>
				<path class="st8" d="M261.7,348.2c-0.1-0.1-0.2-0.2-0.2-0.4v-13.3c0-0.2,0-0.3,0.2-0.4c0.1-0.1,0.2-0.2,0.4-0.2h1.9
					c0.2,0,0.3,0,0.4,0.2c0.1,0.1,0.2,0.2,0.2,0.4v1.2c0.5-0.6,1-1.1,1.7-1.5s1.3-0.5,2.1-0.5c0.9,0,1.8,0.2,2.6,0.7
					c0.8,0.4,1.4,1.1,1.8,1.9c0.4,0.8,0.7,1.7,0.7,2.7v8.9c0,0.2-0.1,0.3-0.2,0.4c-0.1,0.1-0.2,0.2-0.4,0.2h-2c-0.1,0-0.3,0-0.4-0.2
					c-0.1-0.1-0.1-0.2-0.1-0.4v-8.5c0-0.9-0.2-1.6-0.7-2c-0.4-0.5-1.1-0.7-1.9-0.7c-1,0-1.8,0.3-2.3,1s-0.9,1.5-0.9,2.6v7.6
					c0,0.2,0,0.3-0.2,0.4c-0.1,0.1-0.2,0.2-0.4,0.2h-1.9C261.9,348.4,261.8,348.3,261.7,348.2z"/>
				<path class="st8" d="M278,352.6c-1-0.6-1.5-1.5-1.5-2.8c0-0.9,0.3-1.7,1-2.4c-0.6-0.5-0.9-1.2-0.9-2c0-0.6,0.1-1.1,0.4-1.6
					c0.3-0.5,0.7-0.9,1.1-1.3c-0.5-0.4-0.9-1-1.2-1.6c-0.3-0.6-0.4-1.3-0.4-2.1c0-1,0.2-1.9,0.7-2.7c0.5-0.8,1.2-1.4,2-1.8
					c0.8-0.4,1.8-0.6,2.8-0.6c0.7,0,1.4,0.1,2.1,0.3h4.9c0.1,0,0.3,0,0.4,0.2c0.1,0.1,0.1,0.2,0.1,0.4v1.6c0,0.2,0,0.3-0.1,0.4
					c-0.1,0.1-0.2,0.2-0.4,0.2h-2c0.3,0.7,0.4,1.3,0.4,2.1c0,1-0.2,1.9-0.7,2.7c-0.5,0.8-1.2,1.4-2,1.8c-0.8,0.4-1.8,0.6-2.8,0.6
					c-0.8,0-1.5-0.1-2.3-0.4c-0.3,0.4-0.5,0.7-0.5,1.1c0,0.3,0.1,0.6,0.4,0.7s0.6,0.2,1.1,0.2c0.7,0,1.3,0,2,0l1.1,0
					c1.4,0,2.5,0.3,3.4,0.8s1.3,1.3,1.3,2.6c0,1.5-0.6,2.6-1.8,3.4s-2.8,1.1-4.7,1.1C280.4,353.5,279,353.2,278,352.6z M285.5,349.4
					c0-0.4-0.2-0.7-0.5-0.8c-0.3-0.1-0.8-0.2-1.4-0.2h-2.5c-0.6,0-1.1,0-1.5-0.1c-0.2,0.3-0.3,0.7-0.3,1c0,0.6,0.2,1.1,0.7,1.3
					c0.5,0.2,1.2,0.3,2.1,0.3C284.4,351,285.5,350.4,285.5,349.4z M283.8,340.6c0.5-0.5,0.7-1.1,0.7-1.8s-0.2-1.4-0.7-1.8
					c-0.4-0.5-1.1-0.7-1.8-0.7s-1.4,0.2-1.9,0.7c-0.5,0.5-0.7,1.1-0.7,1.8s0.2,1.4,0.7,1.8c0.5,0.4,1.1,0.7,1.9,0.7
					S283.4,341.1,283.8,340.6z"/>
			</g>
			<g class="st7">
				<path class="st8" d="M60.7,378.2c-0.1-0.1-0.1-0.2-0.1-0.4v-13.3c0-0.2,0-0.3,0.1-0.4c0.1-0.1,0.2-0.2,0.4-0.2H63
					c0.2,0,0.3,0,0.4,0.2c0.1,0.1,0.2,0.2,0.2,0.4v1.2c0.5-0.6,1-1.1,1.7-1.5s1.3-0.5,2.1-0.5c0.9,0,1.8,0.2,2.6,0.7
					c0.8,0.4,1.4,1.1,1.8,1.9c0.4,0.8,0.6,1.7,0.6,2.7v8.9c0,0.2-0.1,0.3-0.1,0.4c-0.1,0.1-0.2,0.2-0.4,0.2h-2c-0.1,0-0.3,0-0.4-0.2
					c-0.1-0.1-0.1-0.2-0.1-0.4v-8.5c0-0.9-0.2-1.6-0.7-2c-0.4-0.5-1.1-0.7-1.9-0.7c-1,0-1.8,0.3-2.3,1s-0.9,1.5-0.9,2.6v7.6
					c0,0.2-0.1,0.3-0.2,0.4c-0.1,0.1-0.2,0.2-0.4,0.2H61C60.9,378.4,60.8,378.3,60.7,378.2z"/>
				<path class="st8" d="M78.4,377.6c-0.9-0.5-1.6-1.3-2.2-2.2c-0.5-0.9-0.8-1.9-0.8-3v-2.7c0-1.1,0.3-2.1,0.8-3
					c0.5-0.9,1.3-1.6,2.2-2.2c0.9-0.5,1.9-0.8,3-0.8c1.1,0,2.1,0.3,3,0.8s1.6,1.3,2.2,2.2c0.5,0.9,0.8,1.9,0.8,3v1.7
					c0,0.3-0.1,0.6-0.3,0.8c-0.2,0.2-0.5,0.3-0.8,0.3h-7.8v0.1c0,0.8,0.3,1.5,0.9,2.1c0.6,0.6,1.3,0.9,2.1,0.9h4
					c0.1,0,0.3,0,0.4,0.1c0.1,0.1,0.1,0.2,0.1,0.4v1.8c0,0.2,0,0.3-0.1,0.4c-0.1,0.1-0.2,0.2-0.4,0.2h-4
					C80.3,378.4,79.3,378.1,78.4,377.6z M84.3,369.7v-0.2c0-0.8-0.3-1.5-0.9-2.1c-0.6-0.6-1.3-0.9-2.1-0.9c-0.8,0-1.5,0.3-2.1,0.9
					c-0.6,0.6-0.9,1.3-0.9,2.1v0.2H84.3z"/>
				<path class="st8" d="M90.9,377.5c-0.9-0.8-1.3-1.8-1.3-3.1c0-1.1,0.4-2.1,1.2-2.9c0.8-0.8,1.9-1.3,3.4-1.5c0.4,0,0.7-0.1,1-0.2
					c1.2-0.1,1.9-0.2,2.1-0.3c0.6-0.1,0.9-0.5,0.9-1c0-0.6-0.3-1.1-0.8-1.5c-0.5-0.4-1.1-0.6-1.9-0.6c-1.4,0-2.3,0.5-3,1.5
					c-0.1,0.2-0.3,0.3-0.5,0.3c-0.1,0-0.2,0-0.3-0.1l-1.4-0.9c-0.1-0.1-0.2-0.2-0.2-0.4c0,0,0-0.1,0-0.2c0.5-0.9,1.2-1.6,2.2-2.1
					c0.9-0.5,2-0.8,3.2-0.8c1.1,0,2.1,0.2,2.9,0.6c0.8,0.4,1.5,1,1.9,1.8c0.5,0.8,0.7,1.7,0.7,2.7v9.1c0,0.2-0.1,0.3-0.2,0.4
					c-0.1,0.1-0.2,0.2-0.4,0.2H99c-0.1,0-0.3,0-0.4-0.1c-0.1-0.1-0.1-0.2-0.1-0.4v-1c-1.2,1.2-2.5,1.8-4.1,1.8
					C92.9,378.7,91.8,378.3,90.9,377.5z M96.4,375.5c0.6-0.3,1.1-0.8,1.4-1.3c0.4-0.5,0.5-1.1,0.5-1.7V372l-1.9,0.3
					c-1,0.1-1.7,0.2-2,0.3c-1.4,0.3-2,0.8-2,1.8c0,0.5,0.2,0.9,0.6,1.2s0.9,0.5,1.5,0.5C95.2,376,95.8,375.8,96.4,375.5z"/>
				<path class="st8" d="M104.5,378.2c-0.1-0.1-0.1-0.2-0.1-0.4V376c0-0.2,0-0.3,0.1-0.4s0.2-0.2,0.4-0.2h1.9v-8.6h-2.1
					c-0.1,0-0.3,0-0.4-0.2c-0.1-0.1-0.1-0.2-0.1-0.4v-1.8c0-0.2,0-0.3,0.1-0.4c0.1-0.1,0.2-0.2,0.4-0.2h3.9c0.3,0,0.6,0.1,0.8,0.3
					c0.2,0.2,0.3,0.5,0.3,0.8v0.9l1.3-1.1c0.5-0.4,0.9-0.7,1.3-0.8c0.4-0.2,0.8-0.2,1.3-0.2h0.8c0.2,0,0.3,0,0.4,0.2
					c0.1,0.1,0.2,0.2,0.2,0.4v1.9c0,0.1-0.1,0.3-0.2,0.4c-0.1,0.1-0.2,0.1-0.4,0.1h-0.6c-0.4,0-0.8,0.1-1.1,0.2
					c-0.3,0.1-0.8,0.5-1.4,1l-1.4,1.1v6.3h2.5c0.2,0,0.3,0.1,0.4,0.2c0.1,0.1,0.2,0.2,0.2,0.4v1.8c0,0.2-0.1,0.3-0.2,0.4
					c-0.1,0.1-0.2,0.2-0.4,0.2h-7.3C104.7,378.4,104.6,378.3,104.5,378.2z"/>
				<path class="st8" d="M126,383c-0.1-0.1-0.1-0.3,0-0.5l1.3-3.7l-4.9-14c0-0.1-0.1-0.2-0.1-0.2c0-0.2,0.1-0.3,0.2-0.4
					c0.1-0.1,0.3-0.2,0.4-0.2h1.8c0.2,0,0.3,0,0.5,0.2c0.1,0.1,0.2,0.2,0.3,0.4l3.4,10l3.4-10c0.1-0.2,0.1-0.3,0.3-0.4
					c0.1-0.1,0.3-0.2,0.5-0.2h1.6c0.2,0,0.3,0.1,0.5,0.2c0.1,0.1,0.2,0.2,0.2,0.4c0,0,0,0.1,0,0.2l-6.3,17.8
					c-0.1,0.2-0.2,0.3-0.3,0.4c-0.1,0.1-0.3,0.2-0.5,0.2h-1.7C126.2,383.2,126.1,383.1,126,383z"/>
				<path class="st8" d="M140.4,377.9c-0.9-0.5-1.6-1.2-2.2-2.1c-0.5-0.9-0.8-1.9-0.8-2.9v-3.3c0-1,0.3-2,0.8-2.9
					c0.5-0.9,1.3-1.6,2.2-2.1c0.9-0.5,1.9-0.8,3-0.8c1.1,0,2.1,0.3,3,0.8c0.9,0.5,1.6,1.2,2.2,2.1c0.5,0.9,0.8,1.9,0.8,2.9v3.3
					c0,1.1-0.3,2-0.8,2.9c-0.5,0.9-1.3,1.6-2.2,2.1c-0.9,0.5-1.9,0.8-3,0.8C142.3,378.7,141.3,378.4,140.4,377.9z M145.4,374.9
					c0.6-0.6,0.9-1.3,0.9-2.1v-3.3c0-0.8-0.3-1.5-0.9-2.1c-0.6-0.6-1.3-0.9-2.1-0.9c-0.8,0-1.5,0.3-2.1,0.9
					c-0.6,0.6-0.9,1.3-0.9,2.1v3.3c0,0.8,0.3,1.5,0.9,2.1c0.6,0.6,1.3,0.9,2.1,0.9C144.2,375.8,144.9,375.5,145.4,374.9z"/>
				<path class="st8" d="M154.9,378c-0.8-0.5-1.4-1.1-1.8-1.9c-0.4-0.8-0.6-1.7-0.6-2.7v-8.9c0-0.2,0.1-0.3,0.1-0.4
					c0.1-0.1,0.2-0.2,0.4-0.2h2c0.1,0,0.3,0,0.4,0.2c0.1,0.1,0.1,0.2,0.1,0.4v8.5c0,0.9,0.2,1.6,0.7,2c0.4,0.5,1.1,0.7,1.9,0.7
					c1,0,1.8-0.3,2.3-1s0.9-1.5,0.9-2.6v-7.6c0-0.2,0.1-0.3,0.2-0.4c0.1-0.1,0.2-0.2,0.4-0.2h1.9c0.1,0,0.3,0,0.4,0.2
					c0.1,0.1,0.1,0.2,0.1,0.4v13.3c0,0.2,0,0.3-0.1,0.4c-0.1,0.1-0.2,0.2-0.4,0.2h-1.9c-0.2,0-0.3,0-0.4-0.2
					c-0.1-0.1-0.2-0.2-0.2-0.4v-1.2c-0.5,0.6-1,1.1-1.7,1.5c-0.6,0.4-1.3,0.5-2.1,0.5C156.5,378.7,155.6,378.5,154.9,378z"/>
				<path class="st8" d="M169.2,378.2c-0.4-0.4-0.6-0.9-0.6-1.5c0-0.6,0.2-1.1,0.6-1.5c0.4-0.4,0.9-0.6,1.5-0.6c0.6,0,1,0.2,1.5,0.6
					c0.4,0.4,0.6,0.9,0.6,1.5s-0.2,1.1-0.6,1.5c-0.4,0.4-0.9,0.6-1.5,0.6C170.1,378.8,169.6,378.6,169.2,378.2z M169.4,372.9
					c-0.1-0.1-0.1-0.2-0.1-0.4V361c0-0.2,0-0.3,0.1-0.4c0.1-0.1,0.2-0.2,0.4-0.2h1.9c0.2,0,0.3,0,0.4,0.2c0.1,0.1,0.2,0.2,0.2,0.4
					v11.5c0,0.1-0.1,0.3-0.2,0.4c-0.1,0.1-0.2,0.1-0.4,0.1h-1.9C169.6,373.1,169.5,373,169.4,372.9z"/>
			</g>
			<path class="st2" d="M420.6,833.1l4.3-3.8l-6.7-2.8c0.1,20.2,2.3,45.7-17.1,58.1c-17.7,11.3-40.5,9.7-60.6,9.3l-146.2-2.8
				c-35.6-0.7-71.3-0.4-106.7-2.7c-10.2-0.7-20.5-1.4-30.7-2.1c-1.6-0.1-3.2-0.2-4.8-0.3s0.6,0.2,0,0c-1.2-0.3-2.4-0.7-3.6-1.1
				c-24.2-10.2-29.1-43.3-29.3-66.5l-7.3,2c1.6,2.9,3.6,5.6,5.8,8c4,4.2,8.5,9.5,13.7,12.1c4.7,2.3,9.8,3.9,14.7,5.9l-2.3-5.8
				c-4.6,9.2,18.3,9.2,21.7,9.5c39.6,2.9,79.6,0.8,119.3,0.7c56.1-0.1,112.3-0.7,168.3,1.3c12.3,0.5,24.9,1.9,37.1,1.4
				c7.9-0.3,11.3-3.9,16.8-8.6L420.6,833.1c3.8-3.2-1.7-8.8-5.5-5.5l-10.6,9.3l-6.8,5.9c-2.2,1.9-2.5,2.4-4.8,2.5
				c-10.1,0.7-20.5-0.2-30.7-0.6c-14.7-0.5-29.3-0.9-43.9-1.1c-35.4-0.4-70.8-0.6-106.2-0.7c-41.7-0.1-83.6,1.2-125.3,0.2
				c-11-0.3-22.9-0.3-33.3-2.3c-1-0.2-1.9-0.4-2.8-0.7c-1.3-0.3-0.7-0.1-0.7-0.2c-0.1-0.5,0.7,0.6,0.8,0.9c0.7,1.2,0.7,2.6,0,3.7
				c1.2-2.5,0.1-4.8-2.3-5.8c-4.6-1.8-10-3.2-14.2-5.7c-5.3-3.2-11.8-10.6-15.3-16.7c-2-3.3-7.3-1.9-7.3,2
				c0.2,25.2,5.3,56.3,28.6,70.8c3.4,2.1,7.3,4.1,11.3,4.6c9.4,1.2,19,1.3,28.5,1.9c33.8,2.3,67.7,2.4,101.6,3l154.2,2.9
				c23.4,0.4,50.6,2.9,70.9-11.1c21-14.5,19.7-41.1,19.6-64c0-3.6-4.2-4.9-6.7-2.8l-4.3,3.8C411.3,830.9,416.9,836.4,420.6,833.1z"
				/>
			<path class="st2" d="M21.5,67.7c-0.7-16.1,2.8-31.8,14-44.1c5.1-5.6,11.8-10.3,19.2-12.3c7.7-2.1,15.4,1.2,23,2.4
				c8.8,1.3,17.9,1.3,26.8,1.6s17.9,0.7,26.9,0.9c18.3,0.5,36.5,0.6,54.8,0.4c36.5-0.3,73-1.9,109.4-4.8c16.7-1.3,33.3-3.4,50.1-3.9
				c14.9-0.4,30.8,0.4,44.4,7.1c15.1,7.5,24.3,21.7,27.9,37.8c0.9,4.1,2.5,10.2,1.8,14.4c-0.3,1.7-1.4,3.4-2,5
				c-1.3,3.2-2.6,6.4-3.9,9.6h7.5c-1-3-1.5-6.5-2.8-9.4c-1.6-3.6-5.3-6.5-8.4-8.8c-7.7-5.6-17.3-8.2-26.6-9.6
				c-12.6-1.8-25.5-3.4-38.2-4l-56.3-2.6c-13.5-0.6-26.9-1.5-40.4-1.2c-43,1.1-85.8,5.8-128.9,6.3C97.5,53,75.3,50.8,53,51
				c-13.9,0.1-27.6,4.8-38.1,14.2l6.7,2.8L21.5,67.7c-0.3-5-8.1-5-7.8,0v0.2c0.1,2.2,2,3.9,4.2,3.8c0.9,0,1.8-0.4,2.5-1
				c8.9-8,20.8-11.8,32.6-11.9c18.7-0.2,37.4,1.7,56.1,1.8c42.6,0.3,85-4.9,127.5-6c33.9-0.9,67.8,1.5,101.6,3.1
				c8.3,0.4,16.5,1.1,24.8,2c11.3,1.2,23,1.8,33.7,5.7c4.9,1.7,9.3,4.5,13,8.2c2.7,2.8,3.1,7,4.3,10.6c1.3,3.9,6.1,3.5,7.5,0
				l3.5-8.8c0.9-1.8,1.6-3.7,2.3-5.6c0.8-2.9,0.2-6.3-0.1-9.3c-1.7-16-7.9-32-20-43.1C383-4.8,346.3-0.5,316.3,2.3
				C277,5.9,237.7,8.1,198.2,8.7C178.3,9,158.3,9,138.4,8.5c-10-0.2-19.9-0.5-29.9-0.9C98.5,7.3,88,7.6,78.1,5.9
				C69.2,4.3,60.8,1.3,51.8,4c-8.1,2.6-15.4,7.3-21.2,13.5C17.6,31.2,13,49.3,13.7,67.7C13.9,72.8,21.8,72.8,21.5,67.7z"/>
			<path class="st2" d="M425.3,84.3c-0.8-4.9-2.7-9.5-5.7-13.4c-1.7-2.3-4.6-3.5-7.3-1.9c-2.3,1.3-3.6,5-1.9,7.3
				c2.5,3.1,4.1,6.9,4.6,10.8c0.4,2.8,4,4.4,6.6,3.7C424.6,90,425.7,87.2,425.3,84.3L425.3,84.3z"/>
			<path class="st2" d="M384.7,63.7c3.7,0.6,7.3,1.6,10.8,2.7c2.7,0.9,5.8-1.1,6.6-3.7c0.7-2.8-0.9-5.7-3.7-6.6
				c-3.5-1.2-7.1-2.1-10.8-2.7c-2.8-0.5-5.8,0.8-6.6,3.7C380.3,59.7,381.9,63.1,384.7,63.7z"/>
			<path class="st2" d="M231,56.1c39.3-1.9,78.1-0.4,117.2,3.4c6.8,0.7,6.8-10,0-10.7c-39.1-3.9-77.9-5.4-117.2-3.4
				C224.2,45.8,224.1,56.5,231,56.1z"/>
			<path class="st2" d="M64.8,49.4c-11.2-0.4-23.1,0.3-33.2,5.8c-8.6,4.8-15,12.8-17.8,22.3c-2.1,6.6,8.2,9.4,10.3,2.8
				C29.8,62.3,48.3,59.5,64.8,60C71.7,60.3,71.6,49.6,64.8,49.4z"/>
			<path class="st2" d="M17.2,816L17.2,816l-0.8-0.6l-0.4-0.2c-0.5-0.2-1-0.4-1.5-0.3l-1.1,0.1c-0.5,0.1-1,0.3-1.3,0.7
				c-0.4,0.3-0.8,0.6-1,1.1l-0.4,0.9c-0.1,0.3-0.1,0.7-0.1,1c0,0.5,0.1,1,0.3,1.5c0.2,0.5,0.4,0.9,0.8,1.3c0.3,0.4,0.8,0.7,1.3,0.8
				c0.5,0.2,1,0.4,1.5,0.3l1.1-0.1c0.7-0.2,1.2-0.5,1.7-1l0.6-0.8c0.4-0.6,0.5-1.3,0.5-2l0,0l-0.5,2l0,0l-1.4,1.4l0,0l-2,0.5l0,0
				l-2-0.5l0,0l-0.8-0.6l0,0c0.3,0.4,0.8,0.7,1.3,0.8c0.5,0.2,1,0.4,1.5,0.3c0.5,0,1-0.1,1.5-0.3c0.5-0.2,0.9-0.4,1.3-0.8l0.6-0.8
				c0.4-0.6,0.5-1.3,0.5-2l-0.1-1C18.1,817.1,17.7,816.5,17.2,816L17.2,816z"/>
			<path class="st2" d="M17.8,816.8L17.8,816.8c-0.2-0.4-0.6-0.8-1-1.1c-0.4-0.3-0.8-0.6-1.3-0.7c-0.5-0.2-1-0.2-1.6-0.1
				c-0.5,0-1,0.2-1.4,0.5l-0.8,0.6c-0.5,0.5-0.8,1.1-1,1.7l-0.1,1c0,0.7,0.2,1.4,0.5,2l0,0c0.2,0.4,0.6,0.8,1,1.1
				c0.4,0.3,0.8,0.6,1.3,0.7c0.5,0.2,1,0.2,1.6,0.1c0.5,0,1-0.2,1.5-0.5l0.8-0.6c0.5-0.5,0.8-1.1,1-1.7l0.1-1
				C18.3,818.1,18.1,817.4,17.8,816.8L17.8,816.8z"/>
			<path class="st2" d="M11.1,820.8c1.3,1.7,2.7,3.3,4.1,4.8c1.5,1.5,4,1.5,5.5,0c1.5-1.5,1.5-4,0-5.5c-0.7-0.8-1.3-1.5-2-2.3
				l-0.7-0.8c-0.3-0.3-1.2-1.5-0.1-0.1c-0.5-0.9-1.4-1.5-2.3-1.8c-1-0.3-2.1-0.1-3,0.4C10.9,816.4,9.8,819,11.1,820.8L11.1,820.8z"
				/>
			<path class="st2" d="M30.6,840.1c17.6,13.5,41.1,12.2,62.1,12.2l72.3,0.1l145.5,0.1h40.7c13,0,26.2,2.4,39.1,1c5-0.5,5-8.4,0-7.8
				c-11.1,1.2-22.2-0.9-33.3-1c-12-0.1-23.9,0-35.9,0l-70.5-0.1l-142.3-0.1c-12.6,0-25.3,0.3-37.8-0.3c-13-0.7-25.4-2.8-36-10.8
				C30.5,830.3,26.6,837.1,30.6,840.1L30.6,840.1z"/>
			<path class="st2" d="M398.4,852c14-4.6,25.8-16.5,25-32.1c-0.3-5-8.1-5-7.8,0c0.6,12-8.5,21-19.3,24.5
				C391.5,846,393.5,853.6,398.4,852L398.4,852z"/>
			<path class="st2" d="M421.3,856.8l-5.8,16.2c0,0,0.2,2.5-2.3,6c-0.1,0.2-0.3,0.4-0.4,0.6c-4.5,5.6-16.1,13.4-46.6,17.1
				c-5,0.6-11.6,1-19.5,1.4l0,0c-56.2,2.2-177.4-2.2-230.9-4.4h-0.1c-16.2-0.7-26.2-1.1-26.2-1.1L51.4,890c0,0-35.5-6.1-36-70
				c0-0.5,0-1,0-1.4l2.5,4.3l6.2,10.6l8.5,3.4l14.7,5.9c0,0-3.1,5.7,82.3,4.6s210.3,0.5,210.3,0.5l50.4,1.9l5.1,0.2l1.9-1.7
				l20.5-17.8l4.3-3.8l0.5-0.4l0.5,25.2L421.3,856.8z"/>
			<path class="st2" d="M425.3,64.5l-1.5,3.7l-5,12.2l-1,2.6c0,0-1.5-4.4-2.8-9.4c-0.4-1.4-0.7-2.9-1-4.3c-0.6-2.7-8.2-5.6-17-8.1
				c-3.6-1-7.3-1.9-10.8-2.7c-8.5-2-15.8-3.3-15.8-3.3l-22.2-1l-89.6-4.1L231,50.8c-44.6,1.1-131,3.3-166.2,3.9l0,0
				c-5.4,0.1-9.6,0.2-12.3,0.2h-1.7c-18.6,0-32.4,12.2-33.2,13l0,0v-0.2l5.1-30.6c1.9-4.5,4.3-8.8,7.2-12.8l0.1-0.1
				c7-9.8,15.1-14.5,22.8-16.4l0,0c2.9-0.7,5.9-1.1,8.8-1.1c5.9,0,11.7,1.1,17.2,3.2c1.1,0.4,2.2,0.9,3.2,1.4c0,0,62.7,2.7,82.6,2.7
				c5.1,0,18.5-0.6,35.5-1.6c49.5-2.7,130.1-8,130.1-8c18.9-3.1,34.2-1.9,46.4,1.9c27.5,8.6,39.7,30.2,45,44.5
				C423.3,55.4,424.5,59.9,425.3,64.5z"/>
			<path class="st10" d="M90.3,32.4h-0.3c-1.1-0.1-2.2,0.2-3.1,0.7c-1,0.3-1.9,0.9-2.6,1.7c-0.8,0.7-1.4,1.6-1.7,2.6
				c-0.5,1-0.8,2-0.7,3.1l0.3,2.2c0.4,1.4,1.1,2.6,2.1,3.6l1.7,1.3c1.2,0.7,2.7,1.1,4.1,1.1h0.3c1.1,0.1,2.2-0.2,3.1-0.7
				c1-0.3,1.9-0.9,2.6-1.7c0.8-0.7,1.4-1.6,1.7-2.6c0.5-1,0.8-2.1,0.7-3.2l-0.3-2.2c-0.4-1.4-1.1-2.6-2.1-3.6l-1.7-1.3
				C93.2,32.7,91.7,32.4,90.3,32.4z"/>
			<path class="st10" d="M134.5,32.7h-1c-2.1,0.1-4.2,0.9-5.8,2.4c-0.8,0.7-1.4,1.6-1.7,2.6c-0.5,1-0.8,2.1-0.7,3.2l0.3,2.2
				c0.4,1.4,1.1,2.6,2.1,3.6l1.6,1.3c1.3,0.7,2.7,1.1,4.2,1.1h1c1.1,0,2.2-0.2,3.1-0.7c2-0.7,3.6-2.3,4.4-4.3c0.5-1,0.8-2,0.7-3.1
				l-0.3-2.2c-0.4-1.4-1.1-2.6-2.1-3.6l-1.6-1.3C137.4,33.1,136,32.7,134.5,32.7L134.5,32.7z"/>
			<path class="st10" d="M176.7,33.1c30.9,1.6,61.9,1.7,92.9,0.4c6.8-0.3,6.9-11,0-10.7c-31,1.3-61.9,1.2-92.9-0.4
				C169.8,22.1,169.8,32.8,176.7,33.1z"/>
			<path class="st10" d="M291.5,48.3c6.9,0,6.9-10.7,0-10.7S284.7,48.3,291.5,48.3z"/>
			<path class="st10" d="M176,889.9c31.8-1.5,63.6-1.3,95.3,0.4c5,0.3,5-7.5,0-7.8c-31.7-1.8-63.6-1.9-95.3-0.4
				C171,882.3,171,890.2,176,889.9L176,889.9z"/>
			<g class="st11">
				<g>
					<path class="st8" d="M229.4,806.8c-0.5,5.2-0.3,10.4,0.5,15.5c0.2,0.6,0.8,0.9,1.3,0.8c0.6-0.2,0.9-0.8,0.8-1.3
						c-0.8-5-0.9-10-0.4-15C231.7,805.4,229.6,805.4,229.4,806.8L229.4,806.8z"/>
				</g>
				<g>
					<path class="st8" d="M361.7,801.8c-3.9,2.5-7.1,5.8-9.6,9.6c-0.3,0.5-0.1,1.2,0.4,1.5c0.2,0.1,0.3,0.1,0.5,0.1
						c5.8,0,11.5,0.1,17.3,0.2c0.6-0.1,1-0.6,1-1.2c0-0.5-0.5-0.9-1-1c-5.8-0.2-11.5-0.2-17.3-0.2l0.9,1.6c2.3-3.5,5.3-6.6,8.9-8.9
						C363.9,803,362.8,801.1,361.7,801.8L361.7,801.8z"/>
					<path class="st8" d="M362.8,819.1l-9.5-8.1c-0.4-0.4-1.1-0.4-1.5,0c-0.4,0.4-0.4,1.1,0,1.5l9.5,8.1c0.4,0.4,1.1,0.4,1.5,0
						C363.2,820.2,363.2,819.6,362.8,819.1L362.8,819.1z"/>
					<path class="st8" d="M216.3,823.4l13.7,0.1c0.6-0.1,1-0.6,1-1.2c0-0.5-0.5-0.9-1-1l-13.7-0.1c-0.6,0.1-1,0.6-1,1.2
						C215.4,823,215.8,823.4,216.3,823.4z"/>
					<path class="st8" d="M213,822.1c0-3.8,0-7.5-0.1-11.3c-0.1-2.1-0.8-4.3-0.2-6.3c0.1-0.8,0.9-1.4,1.7-1.3c1.2,0,2.5,0.2,3.7,0.5
						c3.4,0.6,6.9,0.7,10.3,1c0.6,0,1.1-0.5,1.1-1.1c0-0.3-0.1-0.5-0.3-0.7l-0.4-0.4c-1-1-2.5,0.6-1.5,1.5l0.4,0.4l0.8-1.8
						c-3-0.3-6.2-0.4-9.2-0.8c-2-0.3-4.1-1-6.1-0.5c-4,1.1-2.4,6.8-2.3,9.7c0.1,3.7,0.1,7.4,0.1,11.1c0.1,0.6,0.6,1,1.2,1
						C212.5,823,213,822.6,213,822.1L213,822.1z"/>
					<path class="st8" d="M70.9,810.6c6.1,1,12.3,1.1,18.5,0.5c0.6,0,1.1-0.6,1-1.2c0-0.1,0-0.1,0-0.2c-0.4-2-0.4-4.1,0-6
						c0.3-1.4-1.8-2-2.1-0.6c-0.4,2.4-0.4,4.8,0,7.2l1-1.4c-6,0.7-12,0.6-17.9-0.4C70.1,808.3,69.4,810.4,70.9,810.6L70.9,810.6z"/>
					<path class="st8" d="M73.3,824.1l0.4-6.2v-0.5l-0.3,0.3c0,0,0.5,0.1,0.5,0.1c0.5,0.1,1,0.2,1.5,0.3c1,0.2,2,0.3,3,0.4
						c4,0.3,8,0.2,12-0.5c1.4-0.2,0.8-2.3-0.6-2.1c-4.5,0.8-9.1,0.9-13.7,0.2c-1.6-0.2-4.2-1.2-4.6,1.1c-0.1,1.1-0.2,2.2-0.2,3.3
						l-0.3,3.7C71,825.5,73.2,825.5,73.3,824.1L73.3,824.1z"/>
				</g>
			</g>
			<path class="st2" d="M418.3,366.6c0.5,20.8,2.4,41.6,2.5,62.5s-2.8,41.7-3,62.6c-0.3,20.9,0.7,41.8,1.2,62.7
				c0.5,21.5,0.2,43,0,64.5c-0.5,43.2-1.4,86.3-1.3,129.5c0,21.5,1,43,1.5,64.4c0,2.6,0.1,5.2,0.1,7.8c0,1.5,0.5,4.1,0.3,4.4
				c-0.7,1.3-2.8,2.4-3.9,3.3l-8.3,7.2l-10.5,9.2c-2.2,1.9-5,2-8,2c-8.8,0-17.6-0.7-26.3-1c-10.5-0.4-21.1-0.8-31.6-1
				c-54.5-0.6-109-0.9-163.5-0.7c-31.2,0.1-62.5,1.2-93.7-0.3c-6.7-0.2-13.4-0.8-20.1-1.8c-1.3-0.2-2.6-0.5-3.9-0.9
				c-0.6-0.2-0.5-0.3-0.5-0.2c0.4,1,1,1.6,0.3,3c0.7-1.4,0.2-3.1-1.2-3.8c-0.2-0.1-0.3-0.1-0.5-0.2c-4.6-1.8-10-3.2-14.2-5.7
				c-3.7-2.2-7.2-6.4-10.2-9.5c-2.2-2.3-4.2-4.9-5.8-7.7c-0.8-1.3-2.6-1.7-3.9-0.9c-0.8,0.5-1.3,1.4-1.3,2.3
				c0.2,24.8,5.1,55.5,28,69.8c3.2,2.2,6.9,3.7,10.8,4.4c9.3,1.3,19.1,1.3,28.5,1.9c11.9,0.8,23.8,1.3,35.8,1.8v-5.6
				c-12.8-0.3-25.6-0.5-38.4-0.7c-11.3-0.2-23.3-0.4-33.6-5.7c-16.8-8.7-25.8-27.9-27.3-46.1c-2-24.8-1-50.1-0.9-74.9
				c0-25.7-0.1-51.3-0.1-77c0-103.7,1.6-207.5,2.9-311.2c0.7-51.8,1.4-103.6,2.1-155.4c0.4-25.8,0.6-51.6,1-77.4
				c0.2-13.1,0.5-26.2,0.8-39.3c0.1-5.7,0.1-11.4-0.2-17.1c-0.2-3-0.5-6-0.7-9c-0.1-1.2-0.2-2.4-0.3-3.6c0,0.4-0.5-5.1-1-3.4
				c0.4-1.1,3.4-2.7,4.3-3.3c3.5-2.4,7.3-4.4,11.3-5.9c8.9-3.3,18.3-3,27.7-3.1c12.1-0.1,24.2,1.5,36.2,1.8
				c12.4,0.3,24.9,0.2,37.3-0.3c40.7-1.4,81.5-6.8,122.3-6.1c19.7,0.3,39.5,1.8,59.2,2.7l27.8,1.3c4.5,0.2,9,0.8,13.4,1.2
				c12.3,1.3,25,1.9,36.9,5.8c5.1,1.7,9.8,4.5,13.7,8.2c3.2,3.2,3.7,7.5,5.1,11.6c0.9,2.8,4.3,2.5,5.4,0l6-14.8l-5.4-0.9
				c0.2,9.2-0.9,18.3-1.6,27.4s-1,18.5-1.2,27.8c-0.4,19.3-0.8,38.5-1.1,57.8c-0.6,39.5-0.5,79.1,0,118.6
				C417.4,322.1,417.8,344.4,418.3,366.6c0.1,3.6,5.7,3.6,5.6,0c-0.9-39.2-1.6-78.4-1.7-117.6s0.8-78.5,1.4-117.8
				c0.2-10.6,0.3-21.2,1-31.7s2.1-20.8,1.9-31.3c-0.1-3.3-4.3-3.5-5.5-0.7c-2,4.9-4,9.9-6,14.8h5.4c-1.1-3.5-1.6-7.6-3.5-10.7
				c-2.6-4.3-8-7.9-12.4-10.2c-9.9-5.1-21.4-6.4-32.3-7.5c-11.3-1.2-22.4-2.4-33.7-2.9l-71.3-3.3c-31.1-1.4-62.3,1.9-93.3,3.9
				c-26.5,1.7-53.1,2.9-79.6,2c-12-0.4-24-1.8-36-1.6c-9.4,0.2-18.1,0.5-27,4.2c-5.1,2.2-11.2,5.1-15.1,9.2
				c-2.3,2.4-1.1,6.4-0.9,9.5c0.5,6.4,1.1,12.8,1.2,19.2c0.3,26.5-0.8,53.1-1.2,79.6c-0.9,53.8-1.6,107.7-2.3,161.5
				C11.6,443.4,10,551.5,9.7,659.6C9.6,712.8,9,766.1,10.1,819.3c0.4,19.8,1.5,39.1,14,55.5c5.3,7.1,12.3,12.6,20.4,16.1
				c10.3,4.3,21.7,4.6,32.7,4.8l38.5,0.7c3.6,0.1,3.6-5.4,0-5.6c-20.5-0.8-41-2.1-61.5-3.5c-0.9-0.1-1.8,0-2.7-0.2
				c1.5,0.2,0.2,0-0.1-0.1c-1.6-0.4-3.1-1-4.6-1.7c-6.9-3.6-12.7-9-16.7-15.6c-9.5-15.1-11.7-33.7-11.8-51.2l-5.2,1.4
				c1.6,2.8,3.4,5.4,5.6,7.8c3.9,4.1,8.2,9.2,13.2,11.8c4.6,2.4,9.9,3.9,14.7,5.9l-1.7-4.1c-2.5,5,6.5,6.2,9.3,6.6
				c24.4,3.7,49.9,2.5,74.4,2.3c61.9-0.7,123.8-0.4,185.7,0.2c10.5,0.1,21,0.1,31.4,0.5l31,1.2c6.6,0.3,16.8,2.1,22.7-1.8
				c3-2,5.7-4.9,8.4-7.3l11-9.5c2-1.8,5.3-3.5,6.2-6c0.6-1.7,0.1-4.8,0-6.6c0-2.6-0.1-5.2-0.1-7.8c-0.1-5.9-0.3-11.7-0.5-17.6
				c-1.3-44.6-0.8-89.2-0.2-133.9c0.6-44.4,1.1-88.7-0.2-133.1c-0.6-21.8-1-43.7,0.7-65.4c1.6-21.4,1.9-42.9,0.7-64.3
				c-0.6-10.7-1.2-21.4-1.5-32C423.8,363.1,418.2,363.1,418.3,366.6z"/>
			
				<linearGradient id="SVGID_3_" gradientUnits="userSpaceOnUse" x1="184.08" y1="806.1245" x2="248.19" y2="806.1245" gradientTransform="matrix(1 0 0 -1 0 947.8898)">
				<stop  offset="3.000000e-02" style="stop-color:#1E75FE"/>
				<stop  offset="0.25" style="stop-color:#1E3CFE"/>
				<stop  offset="1" style="stop-color:#EB2AE5"/>
			</linearGradient>
			<path class="st12" d="M256.7,116.2c0-4.9-4.1-8.9-9-8.9c-2.9,0-5.6,1.4-7.2,3.8c-4.4,6.2,2.9,69.9-11,39.5
				c-4.7-12.3,0.5-48.7-17.4-42.1c-7.7,3.6-5.5,26.4-5.5,32.2c1.4,15.8-11.5,24.4-14.4,10.1c-1.9-9.3,2.9-46.4-8.9-43.3
				c-8.3-0.3-5.3,44.2-5.9,46.7c1.5,26.7,28.1,25.7,37.2,5c5.8,15.9,23.9,23.4,34.3,11.1C259.9,156.1,256.3,124.8,256.7,116.2z"/>
			<g class="st13">
				<path class="st14" d="M82.4,836.2c-0.4-0.3-0.8-0.6-1-1.1c-0.3-0.4-0.4-0.9-0.4-1.5v-2.3c0-0.5,0.1-1,0.4-1.5
					c0.3-0.4,0.6-0.8,1-1.1c0.4-0.3,0.9-0.4,1.4-0.4c0.4,0,0.9,0.1,1.3,0.2s0.7,0.4,1,0.7c0,0.1,0.1,0.1,0.1,0.2s0,0.1-0.1,0.2
					l-0.5,0.5c-0.1,0.1-0.1,0.1-0.2,0.1c-0.1,0-0.1,0-0.2-0.1c-0.4-0.4-0.8-0.6-1.4-0.6c-0.3,0-0.5,0.1-0.8,0.2s-0.4,0.3-0.6,0.6
					c-0.1,0.3-0.2,0.5-0.2,0.8v2.3c0,0.3,0.1,0.6,0.2,0.8c0.1,0.2,0.3,0.4,0.6,0.6c0.2,0.1,0.5,0.2,0.8,0.2c0.6,0,1-0.2,1.4-0.6
					c0.1-0.1,0.1-0.1,0.2-0.1c0.1,0,0.1,0,0.2,0.1l0.5,0.5c0.1,0.1,0.1,0.1,0.1,0.2c0,0.1,0,0.1-0.1,0.2c-0.3,0.3-0.6,0.6-1,0.7
					c-0.4,0.2-0.8,0.3-1.3,0.3C83.3,836.5,82.9,836.4,82.4,836.2z"/>
				<path class="st14" d="M88.7,836.2c-0.4-0.2-0.7-0.5-1-0.9c-0.2-0.4-0.4-0.8-0.4-1.3v-1.4c0-0.5,0.1-0.9,0.4-1.3
					c0.2-0.4,0.6-0.7,1-0.9c0.4-0.2,0.8-0.3,1.3-0.3c0.5,0,0.9,0.1,1.3,0.3c0.4,0.2,0.7,0.5,1,0.9c0.2,0.4,0.4,0.8,0.4,1.3v1.4
					c0,0.5-0.1,0.9-0.4,1.3c-0.2,0.4-0.6,0.7-1,0.9c-0.4,0.2-0.8,0.3-1.3,0.3C89.5,836.5,89.1,836.4,88.7,836.2z M90.9,834.9
					c0.3-0.3,0.4-0.6,0.4-0.9v-1.4c0-0.4-0.1-0.7-0.4-0.9c-0.3-0.3-0.6-0.4-0.9-0.4c-0.4,0-0.7,0.1-0.9,0.4
					c-0.3,0.3-0.4,0.6-0.4,0.9v1.4c0,0.4,0.1,0.7,0.4,0.9s0.6,0.4,0.9,0.4C90.3,835.3,90.6,835.1,90.9,834.9z"/>
				<path class="st14" d="M94.2,836.3c0,0-0.1-0.1-0.1-0.2v-5.8c0-0.1,0-0.1,0.1-0.2s0.1-0.1,0.2-0.1h0.9c0.1,0,0.1,0,0.2,0.1
					s0.1,0.1,0.1,0.2v0.6c0.2-0.3,0.5-0.6,0.8-0.7c0.3-0.2,0.6-0.2,0.9-0.2c0.4,0,0.8,0.1,1.1,0.3c0.3,0.2,0.6,0.5,0.7,0.8
					c0.2-0.3,0.5-0.6,0.8-0.8c0.3-0.2,0.7-0.3,1.1-0.3c0.6,0,1.1,0.2,1.5,0.6s0.6,1,0.6,1.7v3.9c0,0.1,0,0.1-0.1,0.2
					c0,0-0.1,0.1-0.2,0.1h-0.9c-0.1,0-0.1,0-0.2-0.1c0,0-0.1-0.1-0.1-0.2v-3.7c0-0.4-0.1-0.7-0.3-0.9c-0.2-0.2-0.4-0.3-0.8-0.3
					c-0.4,0-0.8,0.1-1,0.4s-0.4,0.7-0.4,1.2v3.4c0,0.1,0,0.1-0.1,0.2c0,0-0.1,0.1-0.2,0.1h-0.9c-0.1,0-0.1,0-0.2-0.1
					c0,0-0.1-0.1-0.1-0.2v-3.7c0-0.4-0.1-0.7-0.3-0.9c-0.2-0.2-0.4-0.3-0.8-0.3c-0.4,0-0.8,0.1-1,0.4s-0.4,0.7-0.4,1.2v3.4
					c0,0.1,0,0.1-0.1,0.2s-0.1,0.1-0.2,0.1h-0.9C94.3,836.4,94.2,836.4,94.2,836.3z"/>
				<path class="st14" d="M104.6,836.3c0,0-0.1-0.1-0.1-0.2v-5.8c0-0.1,0-0.1,0.1-0.2s0.1-0.1,0.2-0.1h0.9c0.1,0,0.1,0,0.2,0.1
					s0.1,0.1,0.1,0.2v0.6c0.2-0.3,0.5-0.6,0.8-0.7c0.3-0.2,0.6-0.2,0.9-0.2c0.4,0,0.8,0.1,1.1,0.3c0.3,0.2,0.6,0.5,0.7,0.8
					c0.2-0.3,0.5-0.6,0.8-0.8c0.3-0.2,0.7-0.3,1.1-0.3c0.6,0,1.1,0.2,1.5,0.6s0.6,1,0.6,1.7v3.9c0,0.1,0,0.1-0.1,0.2
					c0,0-0.1,0.1-0.2,0.1h-0.9c-0.1,0-0.1,0-0.2-0.1c0,0-0.1-0.1-0.1-0.2v-3.7c0-0.4-0.1-0.7-0.3-0.9c-0.2-0.2-0.4-0.3-0.8-0.3
					c-0.4,0-0.8,0.1-1,0.4s-0.4,0.7-0.4,1.2v3.4c0,0.1,0,0.1-0.1,0.2c0,0-0.1,0.1-0.2,0.1h-0.9c-0.1,0-0.1,0-0.2-0.1
					c0,0-0.1-0.1-0.1-0.2v-3.7c0-0.4-0.1-0.7-0.3-0.9c-0.2-0.2-0.4-0.3-0.8-0.3c-0.4,0-0.8,0.1-1,0.4s-0.4,0.7-0.4,1.2v3.4
					c0,0.1,0,0.1-0.1,0.2s-0.1,0.1-0.2,0.1h-0.9C104.7,836.4,104.6,836.4,104.6,836.3z"/>
				<path class="st14" d="M115.9,836.3c-0.3-0.2-0.6-0.5-0.8-0.8c-0.2-0.4-0.3-0.7-0.3-1.2v-3.9c0-0.1,0-0.1,0.1-0.2
					s0.1-0.1,0.2-0.1h0.9c0.1,0,0.1,0,0.2,0.1s0.1,0.1,0.1,0.2v3.7c0,0.4,0.1,0.7,0.3,0.9c0.2,0.2,0.5,0.3,0.8,0.3
					c0.4,0,0.8-0.1,1-0.4c0.3-0.3,0.4-0.7,0.4-1.2v-3.4c0-0.1,0-0.1,0.1-0.2s0.1-0.1,0.2-0.1h0.9c0.1,0,0.1,0,0.2,0.1
					s0.1,0.1,0.1,0.2v5.8c0,0.1,0,0.1-0.1,0.2s-0.1,0.1-0.2,0.1h-0.9c-0.1,0-0.1,0-0.2-0.1s-0.1-0.1-0.1-0.2v-0.5
					c-0.2,0.3-0.4,0.5-0.7,0.7c-0.3,0.2-0.6,0.2-0.9,0.2C116.6,836.5,116.2,836.5,115.9,836.3z"/>
				<path class="st14" d="M121.8,836.3c0,0-0.1-0.1-0.1-0.2v-5.8c0-0.1,0-0.1,0.1-0.2s0.1-0.1,0.2-0.1h0.9c0.1,0,0.1,0,0.2,0.1
					s0.1,0.1,0.1,0.2v0.5c0.2-0.3,0.4-0.5,0.7-0.7c0.3-0.2,0.6-0.2,0.9-0.2c0.4,0,0.8,0.1,1.1,0.3c0.3,0.2,0.6,0.5,0.8,0.8
					c0.2,0.4,0.3,0.7,0.3,1.2v3.9c0,0.1,0,0.1-0.1,0.2s-0.1,0.1-0.2,0.1h-0.9c-0.1,0-0.1,0-0.2-0.1s-0.1-0.1-0.1-0.2v-3.7
					c0-0.4-0.1-0.7-0.3-0.9c-0.2-0.2-0.5-0.3-0.8-0.3c-0.4,0-0.8,0.1-1,0.4s-0.4,0.7-0.4,1.2v3.4c0,0.1,0,0.1-0.1,0.2
					s-0.1,0.1-0.2,0.1H122C121.9,836.4,121.9,836.4,121.8,836.3z"/>
				<path class="st14" d="M129.4,836.2c-0.1-0.1-0.2-0.2-0.2-0.4v-4.5h-0.9c-0.1,0-0.1,0-0.2-0.1s-0.1-0.1-0.1-0.2v-0.8
					c0-0.1,0-0.1,0.1-0.2s0.1-0.1,0.2-0.1h1.7c0.2,0,0.3,0.1,0.4,0.2c0.1,0.1,0.2,0.2,0.2,0.4v4.5h0.9c0.1,0,0.1,0,0.2,0.1
					c0,0,0.1,0.1,0.1,0.2v0.8c0,0.1,0,0.1-0.1,0.2s-0.1,0.1-0.2,0.1h-1.7C129.6,836.4,129.5,836.4,129.4,836.2z M129.4,829.3
					c0,0-0.1-0.1-0.1-0.2v-1.2c0-0.1,0-0.1,0.1-0.2s0.1-0.1,0.2-0.1h0.7c0.1,0,0.1,0,0.2,0.1c0,0,0.1,0.1,0.1,0.2v1.2
					c0,0.1,0,0.1-0.1,0.2c0,0-0.1,0.1-0.2,0.1h-0.7C129.5,829.4,129.4,829.3,129.4,829.3z"/>
				<path class="st14" d="M133.9,835.9c-0.4-0.4-0.5-0.8-0.5-1.4v-3.2h-0.8c-0.1,0-0.1,0-0.2-0.1s-0.1-0.1-0.1-0.2v-0.8
					c0-0.1,0-0.1,0.1-0.2s0.1-0.1,0.2-0.1h0.8v-1.2c0-0.1,0-0.1,0.1-0.2s0.1-0.1,0.2-0.1h0.9c0.1,0,0.1,0,0.2,0.1s0.1,0.1,0.1,0.2
					v1.2h1.9c0.1,0,0.1,0,0.2,0.1c0,0,0.1,0.1,0.1,0.2v0.8c0,0.1,0,0.1-0.1,0.2c0,0-0.1,0.1-0.2,0.1h-1.9v3.1c0,0.2,0.1,0.4,0.2,0.5
					c0.1,0.1,0.3,0.2,0.5,0.2l1.2,0c0.1,0,0.1,0,0.2,0.1c0,0,0.1,0.1,0.1,0.2v0.8c0,0.1,0,0.1-0.1,0.2c0,0-0.1,0.1-0.2,0.1h-1.3
					C134.8,836.4,134.3,836.2,133.9,835.9z"/>
				<path class="st14" d="M139.2,838.4c0-0.1-0.1-0.1,0-0.2l0.6-1.6l-2.2-6.1c0,0,0-0.1,0-0.1c0-0.1,0-0.1,0.1-0.2s0.1-0.1,0.2-0.1
					h0.8c0.1,0,0.1,0,0.2,0.1c0.1,0,0.1,0.1,0.1,0.2l1.5,4.4l1.5-4.4c0-0.1,0.1-0.1,0.1-0.2s0.1-0.1,0.2-0.1h0.7
					c0.1,0,0.1,0,0.2,0.1s0.1,0.1,0.1,0.2c0,0,0,0.1,0,0.1l-2.8,7.8c0,0.1-0.1,0.1-0.1,0.2c-0.1,0-0.1,0.1-0.2,0.1h-0.7
					C139.4,838.5,139.3,838.5,139.2,838.4z"/>
			</g>
			<g class="st13">
				<path class="st14" d="M307.7,838.2c-0.1,0-0.1-0.1-0.1-0.2l-1.5-4.4l-0.3-1l-0.1,1l-0.5,4.3c0,0.1-0.1,0.1-0.1,0.2
					c-0.1,0.1-0.1,0.1-0.2,0.1h-0.8c-0.1,0-0.1,0-0.2-0.1c0-0.1-0.1-0.1-0.1-0.2l0.9-7.3c0-0.1,0-0.2,0.1-0.2
					c0.1-0.1,0.2-0.1,0.3-0.1h1c0.1,0,0.2,0,0.2,0.1s0.1,0.1,0.1,0.2l1.7,5.1l0.2,0.8l0.2-0.7l1.7-5.1c0-0.1,0.1-0.1,0.1-0.2
					s0.1-0.1,0.2-0.1h0.9c0.1,0,0.2,0,0.3,0.1s0.1,0.1,0.1,0.2l0.9,7.3c0,0.1,0,0.1-0.1,0.2c0,0.1-0.1,0.1-0.2,0.1h-0.9
					c-0.1,0-0.2,0-0.2-0.1c-0.1-0.1-0.1-0.1-0.1-0.2l-0.5-4.4l-0.1-0.9l-0.3,1l-1.4,4.4c0,0.1-0.1,0.1-0.1,0.2
					c-0.1,0-0.1,0.1-0.2,0.1h-0.8C307.8,838.3,307.8,838.3,307.7,838.2z"/>
				<path class="st14" d="M315.4,837.9c-0.4-0.2-0.7-0.6-1-1s-0.4-0.8-0.4-1.3v-1.2c0-0.5,0.1-0.9,0.4-1.3s0.6-0.7,1-1
					c0.4-0.2,0.8-0.4,1.3-0.4c0.5,0,0.9,0.1,1.3,0.4c0.4,0.2,0.7,0.6,1,1s0.4,0.8,0.4,1.3v0.7c0,0.1,0,0.2-0.1,0.3
					c-0.1,0.1-0.2,0.1-0.3,0.1h-3.4v0.1c0,0.4,0.1,0.7,0.4,0.9s0.6,0.4,0.9,0.4h1.7c0.1,0,0.1,0,0.2,0.1c0,0,0.1,0.1,0.1,0.2v0.8
					c0,0.1,0,0.1-0.1,0.2s-0.1,0.1-0.2,0.1h-1.7C316.2,838.2,315.8,838.1,315.4,837.9z M318,834.4L318,834.4c0-0.5-0.1-0.8-0.4-1
					s-0.6-0.4-0.9-0.4c-0.4,0-0.7,0.1-0.9,0.4s-0.4,0.6-0.4,0.9v0.1H318z"/>
				<path class="st14" d="M321.5,838.2c-0.4-0.1-0.7-0.3-1-0.5c0,0-0.1-0.1-0.1-0.1c0,0,0-0.1,0-0.1c0.1-0.1,0.2-0.3,0.4-0.7
					c0.1-0.1,0.1-0.1,0.2-0.1c0.1,0,0.1,0,0.2,0c0.3,0.2,0.5,0.3,0.7,0.4c0.2,0.1,0.5,0.1,0.7,0.1c0.3,0,0.5-0.1,0.7-0.2
					c0.2-0.1,0.2-0.3,0.2-0.5c0-0.2-0.1-0.3-0.2-0.4c-0.1-0.1-0.4-0.2-0.8-0.4l-0.4-0.2c-0.3-0.1-0.6-0.3-0.8-0.4s-0.4-0.3-0.6-0.6
					c-0.2-0.2-0.2-0.6-0.2-0.9c0-0.6,0.2-1,0.6-1.4c0.4-0.3,0.9-0.5,1.5-0.5c0.4,0,0.7,0.1,1.1,0.2c0.4,0.1,0.7,0.3,0.9,0.5
					c0,0,0.1,0.1,0.1,0.1c0,0,0,0.1,0,0.1c-0.1,0.2-0.2,0.4-0.3,0.7c0,0.1-0.1,0.1-0.2,0.1c-0.1,0-0.1,0-0.2,0
					c-0.5-0.3-1-0.5-1.4-0.5c-0.2,0-0.4,0.1-0.6,0.2c-0.1,0.1-0.2,0.3-0.2,0.4s0.1,0.4,0.2,0.5c0.2,0.1,0.5,0.3,0.9,0.4
					c0.4,0.2,0.7,0.3,1,0.4c0.2,0.1,0.4,0.3,0.6,0.5c0.2,0.2,0.3,0.6,0.3,1c0,0.4-0.1,0.7-0.3,1c-0.2,0.3-0.5,0.5-0.8,0.7
					c-0.3,0.2-0.7,0.2-1.2,0.2C322.2,838.4,321.8,838.3,321.5,838.2z"/>
				<path class="st14" d="M327,838.2c-0.4-0.1-0.7-0.3-1-0.5c0,0-0.1-0.1-0.1-0.1c0,0,0-0.1,0-0.1c0.1-0.1,0.2-0.3,0.4-0.7
					c0.1-0.1,0.1-0.1,0.2-0.1c0.1,0,0.1,0,0.2,0c0.3,0.2,0.5,0.3,0.7,0.4c0.2,0.1,0.5,0.1,0.7,0.1c0.3,0,0.5-0.1,0.7-0.2
					c0.2-0.1,0.2-0.3,0.2-0.5c0-0.2-0.1-0.3-0.2-0.4c-0.1-0.1-0.4-0.2-0.8-0.4l-0.4-0.2c-0.3-0.1-0.6-0.3-0.8-0.4s-0.4-0.3-0.6-0.6
					c-0.2-0.2-0.2-0.6-0.2-0.9c0-0.6,0.2-1,0.6-1.4c0.4-0.3,0.9-0.5,1.5-0.5c0.4,0,0.7,0.1,1.1,0.2c0.4,0.1,0.7,0.3,0.9,0.5
					c0,0,0.1,0.1,0.1,0.1c0,0,0,0.1,0,0.1c-0.1,0.2-0.2,0.4-0.3,0.7c0,0.1-0.1,0.1-0.2,0.1c-0.1,0-0.1,0-0.2,0
					c-0.5-0.3-1-0.5-1.4-0.5c-0.2,0-0.4,0.1-0.6,0.2c-0.1,0.1-0.2,0.3-0.2,0.4s0.1,0.4,0.2,0.5c0.2,0.1,0.5,0.3,0.9,0.4
					c0.4,0.2,0.7,0.3,1,0.4c0.2,0.1,0.4,0.3,0.6,0.5c0.2,0.2,0.3,0.6,0.3,1c0,0.4-0.1,0.7-0.3,1c-0.2,0.3-0.5,0.5-0.8,0.7
					c-0.3,0.2-0.7,0.2-1.2,0.2C327.7,838.4,327.3,838.3,327,838.2z"/>
				<path class="st14" d="M331.9,837.9c-0.4-0.3-0.6-0.8-0.6-1.4c0-0.5,0.2-0.9,0.5-1.3c0.4-0.3,0.8-0.6,1.5-0.7
					c0.2,0,0.3,0,0.5-0.1c0.5-0.1,0.8-0.1,0.9-0.1c0.3,0,0.4-0.2,0.4-0.5c0-0.3-0.1-0.5-0.3-0.7s-0.5-0.2-0.8-0.2
					c-0.6,0-1,0.2-1.3,0.6c-0.1,0.1-0.1,0.1-0.2,0.1c-0.1,0-0.1,0-0.1,0l-0.6-0.4c-0.1,0-0.1-0.1-0.1-0.2c0,0,0-0.1,0-0.1
					c0.2-0.4,0.5-0.7,0.9-0.9s0.9-0.3,1.4-0.3c0.5,0,0.9,0.1,1.3,0.3c0.4,0.2,0.7,0.4,0.9,0.8c0.2,0.3,0.3,0.7,0.3,1.2v4
					c0,0.1,0,0.1-0.1,0.2c0,0-0.1,0.1-0.2,0.1h-0.7c-0.1,0-0.1,0-0.2-0.1s-0.1-0.1-0.1-0.2v-0.4c-0.5,0.5-1.1,0.8-1.8,0.8
					C332.8,838.4,332.3,838.2,331.9,837.9z M334.3,837c0.3-0.1,0.5-0.3,0.6-0.6c0.2-0.2,0.2-0.5,0.2-0.8v-0.2l-0.8,0.1
					c-0.4,0.1-0.7,0.1-0.9,0.1c-0.6,0.1-0.9,0.4-0.9,0.8c0,0.2,0.1,0.4,0.3,0.5s0.4,0.2,0.7,0.2C333.8,837.2,334.1,837.1,334.3,837z
					"/>
				<path class="st14" d="M338.5,840.1c-0.4-0.3-0.7-0.7-0.7-1.2c0-0.4,0.1-0.8,0.4-1c-0.3-0.2-0.4-0.5-0.4-0.9
					c0-0.2,0.1-0.5,0.2-0.7c0.1-0.2,0.3-0.4,0.5-0.6c-0.2-0.2-0.4-0.4-0.5-0.7c-0.1-0.3-0.2-0.6-0.2-0.9c0-0.4,0.1-0.8,0.3-1.2
					s0.5-0.6,0.9-0.8c0.4-0.2,0.8-0.3,1.2-0.3c0.3,0,0.6,0.1,0.9,0.2h2.2c0.1,0,0.1,0,0.2,0.1s0.1,0.1,0.1,0.2v0.7
					c0,0.1,0,0.1-0.1,0.2s-0.1,0.1-0.2,0.1h-0.9c0.1,0.3,0.2,0.6,0.2,0.9c0,0.4-0.1,0.8-0.3,1.2c-0.2,0.3-0.5,0.6-0.9,0.8
					c-0.4,0.2-0.8,0.3-1.2,0.3c-0.3,0-0.7-0.1-1-0.2c-0.2,0.2-0.2,0.3-0.2,0.5c0,0.1,0.1,0.2,0.2,0.3c0.1,0.1,0.3,0.1,0.5,0.1
					c0.3,0,0.6,0,0.9,0l0.5,0c0.6,0,1.1,0.1,1.5,0.3s0.6,0.6,0.6,1.2c0,0.7-0.3,1.2-0.8,1.5c-0.5,0.3-1.2,0.5-2.1,0.5
					C339.6,840.5,339,840.4,338.5,840.1z M341.8,838.7c0-0.2-0.1-0.3-0.2-0.4c-0.1-0.1-0.3-0.1-0.6-0.1h-1.1c-0.3,0-0.5,0-0.7,0
					c-0.1,0.1-0.1,0.3-0.1,0.5c0,0.3,0.1,0.5,0.3,0.6c0.2,0.1,0.5,0.1,0.9,0.1C341.3,839.4,341.8,839.2,341.8,838.7z M341.1,834.8
					c0.2-0.2,0.3-0.5,0.3-0.8s-0.1-0.6-0.3-0.8c-0.2-0.2-0.5-0.3-0.8-0.3s-0.6,0.1-0.8,0.3c-0.2,0.2-0.3,0.5-0.3,0.8
					s0.1,0.6,0.3,0.8c0.2,0.2,0.5,0.3,0.8,0.3S340.9,835,341.1,834.8z"/>
				<path class="st14" d="M345.7,837.9c-0.4-0.2-0.7-0.6-1-1s-0.4-0.8-0.4-1.3v-1.2c0-0.5,0.1-0.9,0.4-1.3s0.6-0.7,1-1
					c0.4-0.2,0.8-0.4,1.3-0.4c0.5,0,0.9,0.1,1.3,0.4c0.4,0.2,0.7,0.6,1,1s0.4,0.8,0.4,1.3v0.7c0,0.1,0,0.2-0.1,0.3
					c-0.1,0.1-0.2,0.1-0.3,0.1h-3.4v0.1c0,0.4,0.1,0.7,0.4,0.9s0.6,0.4,0.9,0.4h1.7c0.1,0,0.1,0,0.2,0.1c0,0,0.1,0.1,0.1,0.2v0.8
					c0,0.1,0,0.1-0.1,0.2s-0.1,0.1-0.2,0.1H347C346.6,838.2,346.1,838.1,345.7,837.9z M348.3,834.4L348.3,834.4c0-0.5-0.1-0.8-0.4-1
					s-0.6-0.4-0.9-0.4c-0.4,0-0.7,0.1-0.9,0.4s-0.4,0.6-0.4,0.9v0.1H348.3z"/>
				<path class="st14" d="M351.8,838.2c-0.4-0.1-0.7-0.3-1-0.5c0,0-0.1-0.1-0.1-0.1c0,0,0-0.1,0-0.1c0.1-0.1,0.2-0.3,0.4-0.7
					c0.1-0.1,0.1-0.1,0.2-0.1c0.1,0,0.1,0,0.2,0c0.3,0.2,0.5,0.3,0.7,0.4c0.2,0.1,0.5,0.1,0.7,0.1c0.3,0,0.5-0.1,0.7-0.2
					c0.2-0.1,0.2-0.3,0.2-0.5c0-0.2-0.1-0.3-0.2-0.4c-0.1-0.1-0.4-0.2-0.8-0.4l-0.4-0.2c-0.3-0.1-0.6-0.3-0.8-0.4s-0.4-0.3-0.6-0.6
					c-0.2-0.2-0.2-0.6-0.2-0.9c0-0.6,0.2-1,0.6-1.4c0.4-0.3,0.9-0.5,1.5-0.5c0.4,0,0.7,0.1,1.1,0.2c0.4,0.1,0.7,0.3,0.9,0.5
					c0,0,0.1,0.1,0.1,0.1c0,0,0,0.1,0,0.1c-0.1,0.2-0.2,0.4-0.3,0.7c0,0.1-0.1,0.1-0.2,0.1c-0.1,0-0.1,0-0.2,0
					c-0.5-0.3-1-0.5-1.4-0.5c-0.2,0-0.4,0.1-0.6,0.2c-0.1,0.1-0.2,0.3-0.2,0.4s0.1,0.4,0.2,0.5c0.2,0.1,0.5,0.3,0.9,0.4
					c0.4,0.2,0.7,0.3,1,0.4c0.2,0.1,0.4,0.3,0.6,0.5c0.2,0.2,0.3,0.6,0.3,1c0,0.4-0.1,0.7-0.3,1c-0.2,0.3-0.5,0.5-0.8,0.7
					c-0.3,0.2-0.7,0.2-1.2,0.2C352.6,838.4,352.2,838.3,351.8,838.2z"/>
			</g>
			<g class="st7">
				<path class="st15" d="M205.6,838.7c-0.4-0.1-0.7-0.3-1.1-0.5c0,0-0.1-0.1-0.1-0.1c0-0.1,0-0.1,0-0.1l0.4-0.7
					c0-0.1,0.1-0.1,0.2-0.1c0.1,0,0.1,0,0.2,0c0.5,0.3,1.1,0.5,1.5,0.5c0.4,0,0.7-0.1,0.9-0.3c0.2-0.2,0.3-0.4,0.3-0.7
					c0-0.2-0.1-0.4-0.2-0.5s-0.3-0.3-0.4-0.3c-0.2-0.1-0.5-0.2-0.8-0.4l-0.3-0.1c-0.5-0.2-0.9-0.5-1.3-0.8c-0.3-0.3-0.5-0.8-0.5-1.5
					c0-0.4,0.1-0.8,0.3-1.2c0.2-0.3,0.5-0.6,0.8-0.8c0.4-0.2,0.8-0.3,1.2-0.3c0.4,0,0.8,0.1,1.2,0.2c0.4,0.1,0.7,0.3,1,0.5
					c0,0,0.1,0.1,0.1,0.1c0,0.1,0,0.1,0,0.1l-0.4,0.7c0,0.1-0.1,0.1-0.2,0.1c-0.1,0-0.1,0-0.2,0c-0.3-0.2-0.6-0.3-0.8-0.4
					c-0.3-0.1-0.5-0.1-0.7-0.1c-0.3,0-0.6,0.1-0.8,0.3c-0.2,0.2-0.3,0.4-0.3,0.7c0,0.3,0.1,0.5,0.3,0.7c0.2,0.2,0.5,0.4,1,0.6
					c0.1,0,0.3,0.1,0.8,0.3c0.4,0.2,0.8,0.4,1,0.8s0.4,0.8,0.4,1.2c0,0.5-0.1,0.9-0.3,1.2c-0.2,0.4-0.5,0.6-0.9,0.8
					c-0.4,0.2-0.8,0.3-1.3,0.3C206.4,838.9,206,838.9,205.6,838.7z"/>
				<path class="st15" d="M210.8,840.9c0,0-0.1-0.1-0.1-0.2v-8c0-0.1,0-0.1,0.1-0.2s0.1-0.1,0.2-0.1h0.7c0.1,0,0.1,0,0.2,0.1
					c0,0,0.1,0.1,0.1,0.2v0.5c0.2-0.3,0.4-0.5,0.7-0.6c0.3-0.1,0.6-0.2,0.9-0.2c0.4,0,0.8,0.1,1.2,0.3c0.4,0.2,0.7,0.5,0.9,0.9
					s0.3,0.8,0.3,1.3v1.5c0,0.4-0.1,0.9-0.3,1.3c-0.2,0.4-0.5,0.7-0.9,0.9c-0.4,0.2-0.8,0.3-1.2,0.3c-0.3,0-0.5-0.1-0.8-0.2
					c-0.3-0.1-0.5-0.3-0.7-0.5v2.4c0,0.1,0,0.1-0.1,0.2s-0.1,0.1-0.2,0.1H211C210.9,840.9,210.9,840.9,210.8,840.9z M214.3,837.3
					c0.3-0.3,0.4-0.6,0.4-0.9v-1.5c0-0.4-0.1-0.7-0.4-0.9c-0.3-0.3-0.6-0.4-0.9-0.4s-0.7,0.1-0.9,0.4s-0.4,0.6-0.4,0.9v1.5
					c0,0.4,0.1,0.7,0.4,0.9c0.3,0.3,0.6,0.4,0.9,0.4S214.1,837.6,214.3,837.3z"/>
				<path class="st15" d="M217.7,838.4c-0.4-0.3-0.6-0.8-0.6-1.4c0-0.5,0.2-0.9,0.5-1.3c0.4-0.3,0.8-0.6,1.5-0.7
					c0.2,0,0.3,0,0.5-0.1c0.5-0.1,0.8-0.1,0.9-0.1c0.3,0,0.4-0.2,0.4-0.5c0-0.3-0.1-0.5-0.3-0.7s-0.5-0.2-0.8-0.2
					c-0.6,0-1,0.2-1.3,0.6c-0.1,0.1-0.1,0.1-0.2,0.1c-0.1,0-0.1,0-0.1,0l-0.6-0.4c-0.1,0-0.1-0.1-0.1-0.2c0,0,0-0.1,0-0.1
					c0.2-0.4,0.5-0.7,0.9-0.9s0.9-0.3,1.4-0.3c0.5,0,0.9,0.1,1.3,0.3s0.7,0.4,0.9,0.8c0.2,0.3,0.3,0.7,0.3,1.2v4
					c0,0.1,0,0.1-0.1,0.2c0,0-0.1,0.1-0.2,0.1h-0.7c-0.1,0-0.1,0-0.2-0.1s-0.1-0.1-0.1-0.2v-0.4c-0.5,0.5-1.1,0.8-1.8,0.8
					C218.6,839,218.1,838.8,217.7,838.4z M220.1,837.6c0.3-0.1,0.5-0.3,0.6-0.6c0.2-0.2,0.2-0.5,0.2-0.8V836l-0.8,0.1
					c-0.4,0.1-0.7,0.1-0.9,0.1c-0.6,0.1-0.9,0.4-0.9,0.8c0,0.2,0.1,0.4,0.3,0.5c0.2,0.1,0.4,0.2,0.7,0.2
					C219.6,837.8,219.8,837.7,220.1,837.6z"/>
				<path class="st15" d="M224.9,838.6c-0.4-0.2-0.7-0.6-1-1c-0.2-0.4-0.4-0.8-0.4-1.3V835c0-0.5,0.1-0.9,0.4-1.3
					c0.2-0.4,0.6-0.7,1-1c0.4-0.2,0.8-0.4,1.3-0.4c0.4,0,0.7,0.1,1.1,0.2s0.6,0.4,0.9,0.6c0.1,0.1,0.1,0.1,0.1,0.2
					c0,0.1,0,0.2-0.1,0.2l-0.5,0.5c-0.1,0.1-0.1,0.1-0.2,0.1s-0.1,0-0.2-0.1c-0.3-0.3-0.6-0.4-1.1-0.4c-0.4,0-0.7,0.1-0.9,0.4
					c-0.3,0.3-0.4,0.6-0.4,0.9v1.4c0,0.4,0.1,0.7,0.4,0.9s0.6,0.4,0.9,0.4c0.4,0,0.8-0.1,1.1-0.4c0.1-0.1,0.1-0.1,0.2-0.1
					s0.1,0,0.2,0.1l0.5,0.5c0.1,0.1,0.1,0.1,0.1,0.2c0,0.1,0,0.1-0.1,0.2c-0.2,0.3-0.5,0.5-0.9,0.6c-0.3,0.1-0.7,0.2-1.1,0.2
					C225.8,839,225.3,838.8,224.9,838.6z"/>
				<path class="st15" d="M230.7,838.5c-0.4-0.2-0.7-0.6-1-1c-0.2-0.4-0.4-0.8-0.4-1.3V835c0-0.5,0.1-0.9,0.4-1.3
					c0.2-0.4,0.6-0.7,1-1c0.4-0.2,0.8-0.4,1.3-0.4c0.5,0,0.9,0.1,1.3,0.4c0.4,0.2,0.7,0.6,1,1c0.2,0.4,0.4,0.8,0.4,1.3v0.7
					c0,0.1,0,0.2-0.1,0.3c-0.1,0.1-0.2,0.1-0.3,0.1h-3.4v0.1c0,0.4,0.1,0.7,0.4,0.9s0.6,0.4,0.9,0.4h1.7c0.1,0,0.1,0,0.2,0.1
					c0,0,0.1,0.1,0.1,0.2v0.8c0,0.1,0,0.1-0.1,0.2s-0.1,0.1-0.2,0.1H232C231.5,838.8,231.1,838.7,230.7,838.5z M233.3,835L233.3,835
					c0-0.5-0.1-0.8-0.4-1s-0.6-0.4-0.9-0.4c-0.4,0-0.7,0.1-0.9,0.4s-0.4,0.6-0.4,0.9v0.1H233.3z"/>
			</g>
		</g>
	</g>
</g>
</svg>
