<?xml version="1.0" encoding="utf-8"?>
<!-- Generator: Adobe Illustrator 24.0.0, SVG Export Plug-In . SVG Version: 6.00 Build 0)  -->
<svg version="1.1" id="Layer_1" xmlns="http://www.w3.org/2000/svg" xmlns:xlink="http://www.w3.org/1999/xlink" x="0px" y="0px"
	 viewBox="0 0 297.5 303.2" style="enable-background:new 0 0 297.5 303.2;" xml:space="preserve">
<style type="text/css">
	.st0{opacity:0.74;fill:#5398FF;enable-background:new    ;}
	.st1{clip-path:url(#SVGID_2_);}
	.st2{fill:#F3E600;}
	.st3{clip-path:url(#SVGID_4_);}
	.st4{fill:#09672F;}
	.st5{fill:#E52320;}
	.st6{stroke:#000000;stroke-miterlimit:10;}
	.st7{fill:#221E20;}
</style>
<title>portugal</title>
<g id="Layer_2_1_">
	<g id="Layer_13">
		<path class="st0" d="M295.2,156c0,81.1-82.7,157.8-119.2,116.1c-18.3-2-9.3-30.3-76.4-2c-3.9,1.6-14.1,18.7-17.8,16.8
			c-72-37.4-100-126.1-62.6-198c36.4-70.1,121.8-98.8,193.2-65c-1.6-0.3-2.5-0.3-2.5-0.3s3.8,18.2-11,36s-49.3,18.5-75.7,21.9
			s-27.8,9.3-27.8,9.3s-18.9,84.3-23.3,113.5s6.8,24.8,6.8,24.8l59.3,4c19,0.4,38-0.6,56.9-3.1c30.2-4.1,34.3-49.4,34.3-49.4
			s3.4-8.9,4.8-10.6s18.2-19.5,18.2-19.5l7.5-12.3c0,0-3.4,1,2.4-23.3c2.4-10,7.5-13,12.6-13.1c6.2,0,11.6,4.1,13.3,10
			C292.9,126,295.2,141,295.2,156z"/>
		<g>
			<defs>
				<circle id="SVGID_1_" cx="144.8" cy="156" r="146.8"/>
			</defs>
			<clipPath id="SVGID_2_">
				<use xlink:href="#SVGID_1_"  style="overflow:visible;"/>
			</clipPath>
			<g class="st1">
				<path class="st2" d="M106.6,177.9c-0.3,0.3-0.6,0.6-0.9,0.9c-0.4,0.5-0.9,1.1-1.2,1.7c-0.2,0.3-0.4,0.7-0.6,1.1
					c-0.3,0.6-0.6,1.3-0.8,2c-0.1,0.5-0.2,0.9-0.1,1.4c0.1,0.9,0.6,1.7,1.3,2.3c0.3,0.3,0.8,0.5,1.2,0.6c0.9,0.2,1.9,0.1,2.7-0.4
					c0.8-0.5,1.3-1.2,1.6-2.1c0.1-0.3,0.2-0.7,0.4-1l-0.3,0.8c0.3-0.7,0.7-1.4,1.2-2l-0.6,0.7c0.3-0.4,0.6-0.8,1-1.1
					c1.3-1.4,1.3-3.6,0-5c-0.7-0.6-1.6-1-2.5-1l-0.9,0.1C107.5,177.1,107,177.5,106.6,177.9L106.6,177.9z"/>
				<path class="st2" d="M96.6,174.9l4-0.2c1.2-0.1,2.4-0.2,3.6-0.1l-0.9-0.1c0.3,0,0.5,0.1,0.7,0.2l-0.8-0.4
					c0.2,0.1,0.3,0.2,0.4,0.3l-0.7-0.5l0.1,0.1c0.7,0.6,1.6,1,2.5,1c1.9,0,3.5-1.6,3.5-3.5c0-0.9-0.4-1.8-1-2.5
					c-1.1-0.9-2.4-1.5-3.9-1.6c-0.8,0-1.5,0-2.3,0.1l-5.3,0.3c-0.9,0-1.8,0.4-2.5,1c-1.4,1.4-1.4,3.6-0.1,4.9c0,0,0,0,0.1,0.1
					C94.8,174.6,95.7,174.9,96.6,174.9L96.6,174.9z"/>
				<path class="st2" d="M115.6,165.1l-0.4,0.2L115.6,165.1c-0.1,0.1-0.3,0.1-0.5,0.2c-0.4,0.1-0.8,0.3-1.2,0.4
					c-0.8,0.2-1.7,0.4-2.5,0.6c-2.1,0.4-4.1,1.4-5.7,2.9c-1.2,1.3-2.2,2.8-2.9,4.5c-0.3,0.7-0.6,1.5-1,2.2c-0.2,0.4-0.3,0.7-0.5,1.1
					s-1,1.4-0.3,0.5c-1.3,1.2-1.4,3.2-0.3,4.6c1.1,1.4,3,1.8,4.5,0.9l1.2-0.8c1.8-0.8,2.5-2.9,1.7-4.6c-0.8-1.8-2.9-2.5-4.6-1.7
					c-0.2,0.1-0.4,0.2-0.6,0.3l-1.2,0.8l4.3,5.5c1.1-1.4,2-3,2.7-4.7c0.3-0.7,0.6-1.4,1-2c0.2-0.3,0.4-0.7,0.6-1
					c0.4-0.6-0.3,0.4-0.1,0.1s0.3-0.3,0.4-0.4s0.2-0.2,0.3-0.3c0.5-0.5-0.6,0.4-0.1,0.1c0.4-0.2,0.7-0.4,1.1-0.6
					c-0.5,0.2-0.6,0.3-0.4,0.2l0.3-0.1l0.6-0.2c0.4-0.1,0.8-0.2,1.2-0.3c1.9-0.4,3.8-0.9,5.5-1.8c1.7-1,2.2-3.1,1.3-4.8
					C119.4,164.9,117.3,164.3,115.6,165.1L115.6,165.1z"/>
				<path class="st2" d="M112.6,172.9c-1-1.1-2.5-1.8-4-1.9c-1.1-0.1-2.2,0.1-3.3,0.5c-1.8,0.6-3.7,1.1-5.5,1.7
					c-0.9,0.3-1.6,0.8-2.1,1.6c-1,1.7-0.4,3.8,1.2,4.8c0.8,0.5,1.9,0.6,2.8,0.4l3.5-1.1c1.1-0.4,2.3-0.7,3.4-0.9l-0.9,0.1
					c0.3,0,0.6,0,0.9,0l-0.9-0.1c0.2,0,0.5,0.1,0.7,0.2l-0.8-0.4c0.2,0.1,0.3,0.2,0.5,0.3l-0.7-0.6c0.1,0.1,0.3,0.2,0.4,0.4
					c0.7,0.6,1.6,1,2.5,1c0.9,0,1.8-0.4,2.5-1c0.6-0.7,1-1.6,1-2.5l-0.1-0.9C113.4,173.8,113.1,173.3,112.6,172.9L112.6,172.9z"/>
				<g>
					<defs>
						<path id="SVGID_3_" d="M90,126.3c0,0,44.5-7,46.5,24.9s-18.2,70.3-18.4,72.7c-0.3,2-0.7,4-1.3,6L79,229.1
							c0,0-11.9,4.7-7.6-19.1S90,126.3,90,126.3z"/>
					</defs>
					<clipPath id="SVGID_4_">
						<use xlink:href="#SVGID_3_"  style="overflow:visible;"/>
					</clipPath>
					<g class="st3">
						<path class="st4" d="M65.5,120.6l4.3,65.2c0.7,10.5,1.4,21.1,2.1,31.6c0.4,4.9,0.5,9.8,0.4,14.7c0,1.1-0.2,2.3-0.2,3.4
							c-0.2,2.8,0.8-2.7-0.1-0.1c-0.8,2.4-1.3,4.9-2.3,7.3l35.5-4.6l-4.2-5.9c-6-8.2-17.2-13-26.6-7c-8.1,5.2-13.4,17.8-7,26.6
							l4.3,5.9c4.7,6.5,11,10.4,19.3,9.3s13.1-6.5,16.1-13.9c4.1-10.1,4.4-21.5,3.8-32.2c-0.6-11-1.4-22.1-2.2-33.1l-4.4-67.2
							c-0.7-10.1-8.4-19.9-19.4-19.4C75,101.6,64.8,109.7,65.5,120.6z"/>
						<path class="st5" d="M96.5,119.1l5.3,66.6c0.9,10.9,1.7,21.9,2.6,32.8c0.4,4.5,0.6,8.9,0.6,13.4c0,1.4-0.2,2.8-0.3,4.2
							c-0.2,2.9,1-3.6,0-0.9c-0.4,1-0.7,2.1-0.8,3.2c-0.4,2.7,2.2-4.3-0.1,0.3l34.4-4.4l-5.3-6.1c-7.6-8.6-23.3-8.3-31,0
							c-8.4,9.2-8.1,21.8,0,31l5.3,6.1c8.9,10.1,28.4,7.7,34.4-4.4c11-22.3,6.1-47.2,4.2-71.1l-5.6-70.5
							c-0.9-11.4-9.4-22.5-21.9-21.9C107.3,97.7,95.5,106.9,96.5,119.1L96.5,119.1z"/>
						<path class="st2" d="M106.8,170.9c-2.6-3-6-6-10.2-5.7c-2.4,0-4.6,1.6-5.3,3.9c-0.3,1.4,0,2.9,0.8,4.1c0.5,0.7,1,1.4,1.4,2.1
							c0.7,1.4,1.3,2.9,1.8,4.3c0.7,1.8,1.6,3.6,2.7,5.3c2,3.2,4.2,6.2,5.8,9.6c0.8,1.4,2.5,2,4,1.6c1.5-0.4,2.5-1.8,2.6-3.4
							c0.1-3.9,2.8-7.5,4.8-11c1.1-2,2-4.1,2.5-6.3c0.2-1,0.4-2,0.6-3c0.2-0.9,0.5-1.7,1-2.4c0.9-1.7,0.3-3.8-1.4-4.8
							c-1.6-0.9-3.7-0.4-4.7,1.2c-1.1,2-1.9,4.2-2.2,6.5c-0.4,2.1-1.2,4.1-2.3,6c-2.5,4.4-5.2,8.6-5.3,13.8l6.5-1.8
							c-1.3-2.6-2.8-5.2-4.5-7.6c-0.8-1.2-1.5-2.4-2.2-3.6c-0.6-1.1-1.1-2.3-1.6-3.5c-0.5-1.4-1.1-2.8-1.8-4.2
							c-0.3-0.6-0.7-1.3-1.2-1.9c-0.2-0.3-0.4-0.5-0.6-0.8c-0.3-0.5-0.4-0.2-0.3,1.1c0.2,0.6-0.1,1.4-0.7,1.6c-0.1,0-0.1,0-0.2,0.1
							l0.3-0.1c-0.4,0.1-0.4,0.1-0.1,0.1c0.2,0.1,0.1,0,0.5,0.1c0.5,0.2,1,0.4,1.4,0.7c1.1,0.9,2,1.8,2.9,2.9c1.4,1.4,3.6,1.4,5,0
							s1.4-3.6,0-5L106.8,170.9z"/>
					</g>
				</g>
				<path class="st2" d="M103.7,177c-0.7,1.3-1,2.7-1,4.2h6.7l-0.1-3.3c0-0.9-0.4-1.7-1-2.4l-0.7-0.5c-0.4-0.2-0.8-0.4-1.3-0.4
					c-0.3-0.1-0.6-0.1-0.9,0c-0.4,0-0.9,0.2-1.3,0.4c-0.8,0.4-1.3,1.2-1.5,2c-0.3,2-0.5,4.1-0.4,6.1c0,0.9,0.4,1.7,1,2.4
					c1.3,1.3,3.4,1.3,4.7,0c0,0,0,0,0,0c0.6-0.6,1-1.5,1-2.4c-0.1-1.5,0-3,0.2-4.5l-0.1,0.9c0-0.2,0.1-0.5,0.1-0.7l-6.6-0.9l0.1,3.3
					c0,0.9,0.4,1.7,1,2.4c1.3,1.3,3.4,1.3,4.8,0c0.6-0.6,1-1.5,1-2.4c0-0.3,0-0.6,0-0.8l-0.1,0.9c0.1-0.5,0.2-0.9,0.4-1.3l-0.3,0.8
					c0-0.1,0.1-0.2,0.2-0.3c0.4-0.8,0.6-1.7,0.3-2.6c-0.2-0.8-0.8-1.5-1.5-2c-0.8-0.5-1.7-0.6-2.6-0.3
					C104.8,175.7,104.1,176.2,103.7,177L103.7,177z"/>
				<path class="st2" d="M108.1,179.6c-0.2-0.2-0.4-0.3-0.6-0.5l-0.2-0.2c-0.2-0.2-0.1-0.1,0.2,0.3c-0.1-0.2-0.2-0.4-0.4-0.6
					c-0.1-0.2-0.2-0.4-0.3-0.6c0.2,0.5,0.2,0.6,0.1,0.3l-0.1-0.2c-0.1-0.2-0.1-0.5-0.2-0.8c-0.2-0.6,0,0.8,0,0.1c0-0.3,0-0.5,0-0.8
					l-2.5,3.2c0.1-0.1,0.7-0.1,0.1-0.1s0,0,0.1,0c0.3,0,0.6,0,0.9,0c0.6,0.1,1.2,0.1,1.8,0c1.3-0.1,2.5-0.6,3.4-1.4
					c0.6-0.5,1.1-1.2,1.4-1.9c0.7-1.3,1.4-2.5,2-3.8c0.8-1.4,0.8-3,0.2-4.4c-0.7-1.4-2.1-2.2-3.7-2.2c-0.9,0-1.7,0.4-2.4,1
					c-0.6,0.6-1,1.5-1,2.4c0.1,1.7,1.5,3.5,3.4,3.4c-1.9-0.3-2.7-1.4-2.4-3.1c-0.1,0.3-0.1,0.3,0.1-0.2c-0.1,0.2-0.2,0.4-0.3,0.6
					l-0.8,1.5l-0.7,1.3c-0.1,0.2-0.2,0.5-0.4,0.7l-0.1,0.2c-0.2,0.3-0.1,0.2,0.2-0.2l-0.2,0.3c-0.2,0.2-0.1,0.1,0.3-0.3
					s0.6-0.2,0.3-0.1s-0.2,0.1,0.1,0c0.7-0.1-0.2,0-0.3,0h-0.6c-1.1-0.1-2.3-0.1-3.4,0.2c-1.4,0.4-2.4,1.7-2.5,3.2
					c-0.1,2.9,1.2,5.7,3.4,7.7c0.6,0.6,1.5,1,2.4,1c0.9,0,1.7-0.4,2.4-1C109.2,183.1,109.5,180.8,108.1,179.6L108.1,179.6z"/>
				<path class="st6" d="M311.2-49.3c-32,7.5-64.1,15-96.1,22.5c-6.6,1.6-14,3.5-18.6,9c-2.2,2.5-3.7,5.6-4.2,8.9
					c-0.3,1.6-0.2,3.3,0.1,4.8c0.4,1.8,1.3,3.4,2.6,4.7c7.8,9.4,12,21.4,11.7,33.7c-0.6,11.8-7,22.5-16.9,28.7
					c-10.9,7.2-23.9,9.9-36.7,11.1c-8,0.7-16,1-24,1.6c-7.4,0.6-15.3,1.1-22.4,3.5C100.1,81,94.8,85.7,92,91.8
					c-2.9,6.7-3.8,14-5.2,21.2L68,209.8c-1.3,6.6-2.6,14.2,2.5,19.5c4.8,5,12.4,4.8,18.8,5l49.4,1.4c14,0.4,28.3,1.5,42.3,0.2
					c11.9-1.1,24.1-4.2,33.1-12.5c9.4-8.7,12.2-21.3,15.2-33.2c1.3-5.9,3.3-11.5,6.1-16.8c2.9-5.1,7.2-8.9,11.7-12.6
					s9.1-7.4,12.5-12.2c4.2-5.9,5-12.9,4.8-19.9c-0.2-6.1-1-12.5,1.8-18.2c0.9-2.1,2.4-3.9,4.4-5.2c1.7-1,3.7-1.2,5.6-0.6
					c2,0.8,3.8,1.9,5.3,3.4c1.9,1.8,3.6,3.7,5.5,5.6c4.4,4.5,9.3,8.1,15.7,8.9c7.2,0.9,14.2-1.5,20.9-3.9c6.2-2.3,13.4-5.2,20-3.2
					c4.6,1.4,8.7,5.2,8.1,10.2c0,1.9,1.6,3.5,3.5,3.5c1.9,0,3.5-1.6,3.5-3.5c0.6-5.4-2.4-10.4-6.6-13.6c-4.6-3.4-10.3-4.9-16-4.2
					c-6.4,0.8-12.3,3.3-18.4,5.4c-5.4,1.8-11.5,3.4-17.1,1.6c-4.2-1.4-7.3-4.9-10.3-8.1s-6.4-6.6-10.6-8.4c-4.5-2-9.8-1.4-13.8,1.5
					c-4,3.2-6.7,7.6-7.7,12.6c-1.4,5.9-0.6,11.9-0.6,17.9c0,5.6-0.9,10.8-4.4,15.2c-6.2,7.9-15.4,12.5-21.4,20.7
					c-12,16.4-7.6,42.3-25.7,54.7c-8.2,5.6-18.2,7.5-28.1,8.1c-12.1,0.8-24.3,0-36.5-0.3l-42.3-1.3l-10.5-0.3
					c-2.7,0-5.5-0.1-8.2-0.6c-2.1-0.3-4-1.3-5.4-2.8c-1.4-1.9-1.4-4.6-1.2-6.9c0.4-3.1,0.9-6.1,1.6-9.1l2-10.3l4-20.9l8.1-41.7
					l3.9-20.5c1.2-6.1,2-12.4,4.1-18.2c1.6-4.8,5.4-8.6,10.3-10.2c5.9-1.8,11.9-2.8,18-3.1c24-2.1,50.3-0.6,70.4-16.1
					c8.7-6.5,14.7-16.1,16.6-26.8c1.6-11-0.3-22.3-5.3-32.3c-2.3-4.8-5.3-9.2-8.8-13.3l0.9,1.5c-2.5-6.2,3.1-11.4,8.4-13.5
					c3.6-1.3,7.3-2.3,11.1-3l12.9-3l51.7-12.1l29.2-6.9C317.5-43.5,315.6-50.3,311.2-49.3L311.2-49.3z"/>
				<path d="M88.6,129.2c9-0.4,18.3-1,27.1,1.8c6.8,2.2,13.2,6.6,16,13.4c3.1,7.5,1.6,16-0.3,23.6c-2.3,9.4-5.3,18.6-7.9,27.9
					l-9.3,32.3c-1.3,4.4,5.5,6.2,6.8,1.9l8.9-30.9c2.8-9.7,5.9-19.4,8.3-29.2c2.1-8.6,3.6-18.1,0.6-26.6s-9.8-14.4-18.1-17.8
					c-10.1-4.2-21.3-3.7-32-3.1C84.2,122.4,84.1,129.4,88.6,129.2L88.6,129.2z"/>
				<path class="st7" d="M90.4,280c15.2-10.7,32.9-23.3,52.6-20.3c15.1,2.2,26.6,13.8,39.3,21.1c7.3,4.2,15.3,7.1,23.8,6.6
					c4.5-0.3,4.5-7.3,0-7c-15,0.9-27.2-10.4-39-18c-6.6-4.2-13.8-8-21.6-9.4c-10-1.5-20.2-0.3-29.4,3.6c-10.6,4.2-20,10.7-29.3,17.3
					c-1.6,1-2.2,3.1-1.3,4.8C86.5,280.4,88.6,281,90.4,280L90.4,280z"/>
				<path class="st7" d="M125,167.6c-1-3.2-3.9-4.9-7-5.6c-3.5-0.9-7.6-1.4-11-0.1c-0.3,0.1-0.7,0.3-1,0.4
					c-2.7-2.9-6.6-4.3-10.6-3.9c-3.6,0.3-6.9,2.3-8.8,5.3c-1.9,3.2-2,7.1-0.1,10.4c0.3,0.5,0.6,0.9,1.1,1.2c0,0.2,0.1,0.3,0.2,0.4
					h-0.1c3.2,6.3,6.8,12.4,10.9,18.2c1,1.4,2,2.8,3,4.2c0.9,1.5,2,2.8,3.2,4.1c1.4,1.4,3.6,1.7,5.3,0.7c1.6-1,2.3-3.1,3-4.7
					l9.6-20.3C124.2,174.8,126.2,171.3,125,167.6z M116.8,173.9l-5.6,11.8l-2.8,6.3l-1.1,2.1c-0.6-0.9-1.3-1.7-1.9-2.6
					c-1.4-2-2.8-4-4.1-6.1c-2.7-4.2-5.2-8.6-7.5-13.1c-0.3-0.5-0.6-1-1.1-1.3c-0.1-0.1-0.1-0.2-0.2-0.4c-1.4-2.5,1-4.9,3.4-5.2
					c2-0.3,5.1,0.8,5.7,2.8c-0.2,1.1-0.2,2.1,0,3.2c0.7,3.4,5.9,3.3,6.8,0c0.2-0.8,0.3-1.6,0.3-2.5c0.5-0.4,1.1-0.6,1.8-0.7
					c1.6-0.1,3.3,0,4.9,0.4c0.8,0.1,2.4,0.4,2.8,1.1C118.8,170.7,117.3,173,116.8,173.9L116.8,173.9z"/>
			</g>
		</g>
		<path class="st7" d="M295.2,161.2c-0.2,7.6-0.9,15.1-2.2,22.6c-0.7,3.7-1.4,7.4-2.3,11.1s-2,7.3-3.2,10.9
			c-0.1,0.4-0.6,0.7-1.1,0.5s-0.7-0.6-0.5-1.1l0,0c1.3-3.5,2.5-7.1,3.5-10.7c1-3.6,1.9-7.3,2.6-11c1.4-7.4,2.2-14.9,2.4-22.4
			c0-0.2,0.2-0.4,0.4-0.4c0,0,0,0,0,0C295,160.8,295.2,161,295.2,161.2C295.2,161.2,295.2,161.2,295.2,161.2L295.2,161.2z"/>
		<path class="st7" d="M262.4,244.1c-4.5,6.2-9.4,12.1-14.8,17.5c-2.7,2.7-5.5,5.3-8.4,7.9c-2.9,2.5-5.9,4.9-9.1,7.2
			c-1.4,1.1-3.5,0.8-4.6-0.6c-1.1-1.4-0.8-3.5,0.6-4.6l0,0l0.1-0.1l0.1-0.1c3-2,6.1-4.2,9-6.4s5.8-4.6,8.5-7.1
			c5.5-5,10.6-10.3,15.3-16.1c0.7-0.9,1.9-1,2.8-0.3c0,0,0,0,0,0h0C262.9,242,263.1,243.3,262.4,244.1z"/>
		<path class="st7" d="M188.7,297.2c-7.4,2.2-15,3.8-22.7,4.8c-3.8,0.5-7.7,0.8-11.6,1s-7.7,0.2-11.6,0c-2-0.1-3.4-1.8-3.3-3.8
			c0.1-1.8,1.6-3.2,3.4-3.3c3.7,0,7.4-0.1,11-0.3s7.3-0.6,11-1.1c7.3-1,14.5-2.6,21.5-4.7c2-0.5,4.1,0.7,4.7,2.7
			C191.7,294.6,190.6,296.6,188.7,297.2L188.7,297.2z"/>
		<path class="st7" d="M96,298c-7.1-2.9-13.9-6.4-20.5-10.5c-3.3-2-6.4-4.1-9.5-6.4c-3.1-2.2-6.1-4.6-9-7c-0.7-0.6-0.9-1.6-0.3-2.3
			s1.6-0.9,2.3-0.3c0,0,0.1,0,0.1,0.1c2.9,2.3,6,4.5,9,6.6s6.3,4,9.5,5.8c6.5,3.6,13.3,6.7,20.3,9.2c1.4,0.4,2.2,1.9,1.8,3.3
			c-0.4,1.4-1.9,2.2-3.3,1.8c-0.1,0-0.2-0.1-0.3-0.1L96,298z"/>
		<path class="st7" d="M26.8,238.2c-4.4-6.2-8.2-12.8-11.5-19.7c-1.6-3.4-3.2-6.9-4.6-10.4c-1.4-3.5-2.7-7.1-3.8-10.8
			c-0.3-0.8,0.1-1.7,1-2c0.8-0.3,1.7,0.1,2,1c0,0,0,0.1,0,0.1l0,0c1,3.6,2.2,7.1,3.5,10.6c1.3,3.5,2.8,6.9,4.4,10.3
			c3.2,6.7,7,13.2,11.2,19.4c0.4,0.6,0.1,1.4-0.5,1.7C28,238.8,27.3,238.7,26.8,238.2L26.8,238.2z"/>
		<path class="st7" d="M0,152.2c0-7.7,0.7-15.3,1.9-22.9c1.2-7.6,3-15.1,5.4-22.4c0.7-1.6,2.6-2.4,4.2-1.7c1.5,0.6,2.3,2.2,1.9,3.7
			v0.1c-5.2,13.9-8.1,28.5-8.8,43.4c0,1.3-1.1,2.3-2.4,2.3C1,154.6-0.1,153.5,0,152.2z"/>
		<path class="st7" d="M28.7,66C38.1,53.5,49.3,42.7,62,33.7c1.9-1.3,4.5-0.9,5.8,1c1.3,1.9,0.9,4.5-1,5.8l0,0h-0.1
			c-12.1,8.3-22.9,18.4-31.9,30c-1.3,1.7-3.7,2-5.4,0.7C27.8,70,27.4,67.6,28.7,66L28.7,66L28.7,66z"/>
		<path class="st7" d="M87.8,12C95,9.1,102.4,6.8,110,5c3.8-0.9,7.6-1.6,11.5-2.1s7.7-1,11.6-1.2c2.5-0.1,4.6,1.9,4.6,4.4
			c0.1,2.3-1.7,4.3-4,4.6l0,0c-3.6,0.3-7.3,0.6-10.9,1.2s-7.2,1.2-10.8,2c-7.1,1.6-14.1,3.8-20.9,6.5c-2.4,0.8-4.9-0.4-5.8-2.7
			C84.5,15.4,85.6,12.9,87.8,12L87.8,12z"/>
		<path d="M195.3,15.7c7.3,2.7,14.4,5.9,21.1,9.7c3.4,1.9,6.7,4,9.9,6.1s6.3,4.4,9.3,6.8c1.5,1.2,1.6,3.4,0.4,4.9
			c-1.1,1.4-3.1,1.6-4.6,0.6c-3-2.2-6-4.2-9.2-6.1c-3.1-1.9-6.4-3.7-9.6-5.4c-6.5-3.4-13.2-6.3-20.2-8.6c-2.2-0.7-3.4-3.2-2.7-5.4
			c0.7-2.2,3.2-3.4,5.4-2.7L195.3,15.7z"/>
		<path d="M263.6,71c5.5,6.7,10.6,13.9,15,21.4c2.2,3.7,4.3,7.5,6.2,11.4c1.9,3.9,3.7,7.9,5.3,11.8c0.2,0.5,0,1.1-0.5,1.4
			c-0.5,0.2-1.1,0-1.4-0.5l0,0c-1.7-3.9-3.7-7.7-5.8-11.4s-4.3-7.4-6.6-10.9c-4.7-7.1-10-13.8-15.8-20c-0.9-1-0.8-2.5,0.2-3.4
			c1-0.9,2.4-0.8,3.3,0.1l0,0L263.6,71z"/>
		<path d="M282.4,105.5c0.3,2.7,1.5,5.2,3.4,7c0.3,0.4,0.9,0.4,1.2,0.1c0.4-0.3,0.4-0.9,0.1-1.2c0,0-0.1-0.1-0.1-0.1
			c-0.8-0.8-1.5-1.7-2-2.7c-0.5-1-0.8-2-0.9-3.1c0-0.5-0.4-0.9-0.9-0.9C282.8,104.6,282.4,105,282.4,105.5L282.4,105.5z"/>
		<path d="M283.4,109.6c0.3,0.8,0.8,1.6,1.3,2.3c0.5,0.7,1.3,1.2,2.1,1.3c0.5,0.1,0.9-0.2,1-0.7c0.1-0.4-0.2-0.8-0.6-1
			c-0.2,0-0.3-0.1-0.5-0.1c0.2,0,0.1,0,0,0h-0.1l-0.2-0.1l-0.1-0.1c-0.1-0.1,0,0,0,0s-0.1-0.1-0.2-0.2c-0.1-0.1-0.3-0.3-0.4-0.4
			c-0.1-0.1,0.1,0.2,0,0l-0.1-0.1l-0.2-0.2c-0.1-0.2-0.2-0.3-0.3-0.5c-0.2-0.4-0.3-0.7-0.5-1.1c-0.1-0.2-0.3-0.3-0.5-0.4
			c-0.5-0.1-0.9,0.1-1.1,0.6c0,0,0,0,0,0C283.2,109.1,283.2,109.4,283.4,109.6L283.4,109.6z"/>
		<path d="M284.4,111c0.3,1.1,0.9,2.1,1.8,2.9c0.4,0.4,0.8,0.7,1.1,1.1c0.2,0.2,0.3,0.4,0.4,0.6c0.1,0.1,0.1,0.2,0.2,0.4l0.1,0.2
			c0-0.1,0,0.1,0,0.1c0.1,0.4,0.6,0.7,1,0.6c0,0,0,0,0,0c0.4-0.1,0.7-0.5,0.6-1c0,0,0,0,0,0c-0.4-1.1-1.1-2-2-2.8l-0.5-0.6l-0.3-0.3
			l-0.1-0.1l-0.1-0.1c-0.2-0.2-0.3-0.5-0.4-0.7v-0.1c0,0.1,0,0,0,0c0-0.1-0.1-0.1-0.1-0.2c0-0.1-0.1-0.3-0.1-0.4
			c-0.1-0.4-0.5-0.7-0.9-0.6s-0.7,0.5-0.6,0.9C284.4,110.9,284.4,110.9,284.4,111L284.4,111z"/>
	</g>
</g>
</svg>
