<?xml version="1.0" encoding="utf-8"?>
<!-- Generator: Adobe Illustrator 24.0.0, SVG Export Plug-In . SVG Version: 6.00 Build 0)  -->
<svg version="1.1" id="Layer_1" xmlns="http://www.w3.org/2000/svg" xmlns:xlink="http://www.w3.org/1999/xlink" x="0px" y="0px"
	 viewBox="0 0 313 657" style="enable-background:new 0 0 313 657;" xml:space="preserve">
<style type="text/css">
	.st0{opacity:0.64;}
	.st1{fill:#1E1E1E;}
	.st2{fill:#3F3F3F;}
	.st3{opacity:0.61;}
	.st4{fill:#FFFFFF;}
	.st5{fill:#BA53FF;stroke:#1D1D1B;stroke-width:3.09;stroke-miterlimit:10;}
	.st6{fill:#FFBA53;stroke:#1D1D1B;stroke-width:3;stroke-miterlimit:10;}
	.st7{fill:url(#SVGID_1_);}
	.st8{fill:none;stroke:url(#SVGID_2_);stroke-width:0.74;stroke-miterlimit:10;}
	.st9{enable-background:new    ;}
	.st10{font-family:'MiriamLibre-Bold';}
	.st11{font-size:18.45px;}
	.st12{fill:url(#SVGID_3_);}
	.st13{fill:none;stroke:url(#SVGID_4_);stroke-width:0.74;stroke-miterlimit:10;}
</style>
<title>sml-phone</title>
<g>
	<g id="Layer_2_1_">
		<g id="phone">
			
				<image style="overflow:visible;enable-background:new    ;" width="427" height="837" xlink:href="29654F4B.png"  transform="matrix(0.69 0 0 0.66 11.34 49.76)">
			</image>
			<g class="st0">
				<path class="st1" d="M280,53.7v8.6c0,0.4,0.4,0.7,0.9,0.7c0.4,0,0.7-0.3,0.7-0.7v-8.6c0-0.4-0.4-0.7-0.9-0.7
					C280.3,53,280,53.3,280,53.7z"/>
				<path class="st1" d="M277.6,58.4l0.1,3.8c0,0.4,0.4,0.8,0.8,0.8c0.4,0,0.8-0.3,0.8-0.8l-0.1-3.8c0-0.4-0.3-0.8-0.7-0.9
					c-0.4,0-0.8,0.3-0.9,0.7C277.6,58.3,277.6,58.3,277.6,58.4z"/>
				<path class="st1" d="M275.6,60.7l-0.1,1.8c0,0.2,0.1,0.4,0.2,0.6c0.2,0.1,0.4,0.2,0.6,0.2c0.2,0,0.4-0.1,0.5-0.2
					c0.1-0.2,0.2-0.4,0.2-0.6l0.1-1.8c0-0.4-0.4-0.8-0.8-0.8c-0.2,0-0.4,0.1-0.6,0.2C275.7,60.3,275.6,60.5,275.6,60.7z"/>
				<path class="st1" d="M28,55.6l0.1,3.7c0,0.6,0,1.2,0.1,1.8c0.2,0.7,0.8,0.8,1.4,0.7l7.7-0.3c0.4,0,0.7-0.3,0.7-0.7l-0.1-4
					c0-0.6,0-1.2-0.2-1.8c-0.2-0.5-0.7-0.8-1.2-1c-0.6-0.1-1.2-0.1-1.8-0.1l-2,0l-4.1-0.1c-0.5,0-0.9,0.8-0.5,1.2l2.2,1.8
					c0.7,0.6,1.4,1.1,2.1,1.6c0.7,0.4,1.6,0.2,2.2-0.4l2.3-1.7c0.3-0.2,0.4-0.6,0.2-0.9c-0.2-0.3-0.6-0.4-0.9-0.2c0,0,0,0,0,0
					l-1.9,1.4c-0.3,0.2-0.6,0.4-0.9,0.6c-0.3,0.2-0.5,0.1-0.7-0.1c-0.6-0.4-1.2-1-1.8-1.4L29,54.1l-0.5,1.2l7,0.2
					c0.3,0,0.8,0,0.9,0.4c0.1,0.5,0.1,1,0.1,1.5l0.1,3.5l0.7-0.7l-4.2,0.2L31,60.5c-0.7,0.1-1.3,0.1-2,0l0.3,0.1h0l0.2,0.3
					c-0.1-0.4-0.1-0.8-0.1-1.2v-1.4l-0.1-2.7c0-0.4-0.4-0.6-0.8-0.6C28.3,55,28,55.3,28,55.6L28,55.6z"/>
				<path class="st1" d="M284.9,55v5.5c0,0.5,0,1.1,0.1,1.6c0.3,1.2,1.5,1.2,2.6,1.3l3.6,0.2c0.4,0,0.8-0.4,0.8-0.8c0,0,0,0,0,0
					c-0.3-3.1-0.2-6.1,0.2-9.2c0.1-0.4-0.4-0.8-0.8-0.8l-5.3-0.4c-0.4,0-0.8,0.3-0.8,0.8c0.1,0.5,0,1.1-0.1,1.6
					c-0.1,0.4,0.2,0.8,0.6,0.9c0.4,0.1,0.8-0.1,0.9-0.5c0.2-0.6,0.3-1.3,0.2-2l-0.8,0.8l5.3,0.4l-0.8-0.8c-0.4,3-0.5,6.1-0.2,9.2
					l0.8-0.8l-3-0.2c-0.5,0-1,0-1.5-0.1c-0.1,0-0.1,0-0.2,0c-0.1,0,0,0,0,0c0-0.2,0-0.4,0-0.6V55c0-0.4-0.4-0.7-0.9-0.7
					C285.3,54.4,285,54.7,284.9,55L284.9,55z"/>
				<path class="st1" d="M290.6,56.1c-1.2,0.1-2.4,0-3.6-0.2c-0.4-0.1-0.9,0.1-1,0.6c0,0.1,0,0.1,0,0.2l0.1,2.9
					c0,0.4,0.4,0.7,0.9,0.7c0.4,0,0.7-0.3,0.7-0.7v-1.2h-1.6c0.1,0.9,0.2,1.9,0.4,2.8c0.1,0.3,0.4,0.6,0.8,0.6
					c0.4,0,0.7-0.2,0.8-0.6l0.9-3.1l-1.5-0.2l0.3,2.6c0,0.4,0.3,0.8,0.8,0.8c0.3,0,0.6-0.1,0.7-0.4c0.5-0.6,0.8-1.4,1-2.2h-1.5
					c0.2,0.4,0.3,0.8,0.3,1.2l0,0c0,0.1,0,0.1,0,0.2s0,0.2,0,0.3c0,0.2,0,0.4,0,0.6h1.6v-1.2c0-0.4-0.4-0.8-0.8-0.8
					c-0.3,0-0.6,0.2-0.7,0.5c-0.1,0.3-0.1,0.7,0,1c0,0.1,0,0.1,0,0.2c0,0.1,0-0.2,0,0s0-0.1,0,0s0,0,0,0c0-0.1,0.1-0.2,0.2-0.2
					c0,0,0.1-0.1,0.1,0h-1.6c-0.4,0-0.8,0.3-0.8,0.8c0,0.4,0.4,0.8,0.8,0.8h1.1c0.4,0,0.8,0,1.2-0.2c0.4-0.3,0.6-0.7,0.5-1.1
					c0-0.2,0-0.3-0.1-0.5v-0.2c0-0.1,0-0.1,0,0s0,0,0,0c0,0.1,0,0.1,0,0l-1.5-0.2V61c0,0.4,0.3,0.8,0.7,0.9c0.4,0,0.8-0.3,0.9-0.7
					c0-0.1,0-0.1,0-0.2c0.1-0.9-0.1-1.9-0.4-2.7c-0.1-0.3-0.4-0.6-0.8-0.6c-0.4,0-0.7,0.2-0.8,0.6c-0.1,0.7-0.4,1.3-0.8,1.8l1.5,0.4
					l-0.3-2.6c0-0.4-0.4-0.8-0.8-0.8c-0.3,0-0.6,0.2-0.7,0.5l-0.9,3.1h1.5c-0.1-0.8-0.2-1.6-0.3-2.3c0-0.4-0.4-0.8-0.8-0.8
					c-0.4,0-0.8,0.4-0.8,0.8v1.2h1.6l-0.1-2.9l-1,0.8c1.3,0.3,2.7,0.4,4,0.3c0.4,0,0.8-0.3,0.9-0.7c0-0.4-0.3-0.8-0.7-0.9
					C290.7,56.2,290.7,56.2,290.6,56.1L290.6,56.1z"/>
			</g>
			<path class="st1" d="M304.5,604.8l3.1-2.7l-4.9-2c0.1,14.7,1.7,32.9-12.3,42.1c-12.9,8.5-30,7.1-44.8,6.8L140,647
				c-25.7-0.5-51.4-0.4-77-2c-7.3-0.5-14.6-1-21.8-1.5l-3.8-0.3c-1.2-0.1-0.4,0-0.3,0c-0.9-0.2-1.7-0.5-2.5-0.8
				c-17.9-7.3-21.3-31.7-21.4-48.3l-5.3,1.4c3.3,5.5,8.5,11.6,14.2,14.6c3.3,1.7,7.2,2.9,10.7,4.3l-1.7-4.2
				c-3.2,6.5,11.9,6.6,14.5,6.8c28.8,2.3,58,0.7,86.8,0.6c41-0.1,82.2-0.5,123.3,1c8.9,0.3,18.1,1.4,27,1S298.2,610.3,304.5,604.8
				c2.8-2.4-1.3-6.4-4-4l-7.5,6.4c-2.3,2-5.3,5.3-7.9,6.2s-5.8,0.4-8.5,0.3l-14.4-0.5c-10.6-0.4-21.1-0.7-31.7-0.8
				c-25.2-0.2-50.5-0.4-75.7-0.5c-30.2-0.1-60.5,0.8-90.7,0.2c-8.5-0.2-17.3-0.1-25.7-1.6c-0.7-0.1-1.5-0.3-2.2-0.5
				c-1-0.3-0.8-0.2-0.8-0.2c-0.3,0.3,0.2-0.3,0.5,0.6c0.4,0.8,0.4,1.8,0,2.7c0.8-1.4,0.3-3.2-1.2-4c-0.2-0.1-0.4-0.2-0.5-0.2
				c-3.3-1.3-7.1-2.3-10.1-4c-4.4-2.6-8.8-7.8-11.4-12.2c-0.8-1.3-2.6-1.8-3.9-0.9c-0.8,0.5-1.3,1.4-1.4,2.4
				c0.1,18.3,3.8,40.5,20.5,51.3c8.4,5.4,19,4.2,28.5,4.8c24.8,1.7,49.7,1.8,74.6,2.2l114.7,2.2c16.6,0.3,36,1.6,50-9.2
				s12.8-29.5,12.7-45.3c0-1.6-1.4-2.8-3-2.8c-0.7,0-1.4,0.3-1.9,0.8l-3.1,2.7C297.7,603.2,301.7,607.2,304.5,604.8z"/>
			<path class="st1" d="M14.8,49.2c-0.5-11.8,2.1-23.4,10.4-32.3C29,12.8,34.2,9.2,39.8,8s11.1,1.4,16.5,2.1
				c12.6,1.7,25.7,1.4,38.4,1.7c13,0.3,25.9,0.4,38.9,0.3c26.4-0.2,52.8-1.4,79.2-3.4c12-0.9,24.1-2.4,36.1-2.8
				c11.3-0.4,23.3,0.1,33.6,5.3c11.1,5.6,17.8,16.4,20.2,28.4c0.5,2.6,1.6,7,1,9.7c-0.4,1.2-0.9,2.4-1.4,3.5l-2.8,6.8h5.5
				c-1.8-5.4-2.5-8.8-7.1-12.4c-5.2-4.1-11.5-6.1-17.9-7.4c-9.9-1.8-19.8-2.9-29.9-3.3c-13.6-0.7-27.2-1.3-40.8-1.9
				c-10-0.5-19.9-1.1-29.9-0.9c-31.8,0.8-63.5,4.3-95.3,4.6C68.2,38.4,52.2,36.6,36,37c-9.6,0.3-18.9,3.9-26.1,10.3l4.9,2L14.8,49.2
				c-0.2-3.6-5.9-3.7-5.7,0v0.1c0,1.6,1.4,2.8,3,2.8c0.7,0,1.4-0.3,1.9-0.8c6.8-6,15.5-8.5,24.4-8.6c13.4-0.2,26.8,1.2,40.2,1.3
				c30.8,0.2,61.3-3.6,92.1-4.3c24.6-0.6,49.1,1.1,73.7,2.2c5.8,0.3,11.6,0.7,17.4,1.3c7.9,0.8,15.7,1.4,23.4,3.6
				c4,1.1,8.6,3.1,11.4,6.4c1.9,2.3,2.4,5.1,3.3,7.9s4.5,2.5,5.5,0l2.4-5.9c1.7-4.3,2.2-6.2,1.7-11c-1.2-11.4-5.5-22.7-13.8-30.8
				C278-3.6,250.8-0.4,228.8,1.6c-29.3,2.7-58.8,4.3-88.3,4.7C126.3,6.5,112,6.5,97.7,6.2C90.6,6,83.5,5.8,76.4,5.5
				C68.8,5.2,61,5.3,53.5,3.8c-5.8-1.2-11-2.7-16.8-0.9c-5.9,1.9-11.3,5.4-15.5,10c-9.3,10-12.6,23-12.1,36.3
				C9.2,52.8,14.9,52.8,14.8,49.2z"/>
			<path class="st1" d="M307.8,61.2c-0.6-3.5-2-6.9-4.1-9.7c-1.3-1.7-3.3-2.5-5.3-1.4c-1.6,1-2.6,3.6-1.4,5.3c1.8,2.3,2.9,5,3.4,7.9
				c0.3,2.1,2.9,3.2,4.8,2.7C307.4,65.3,308.1,63.3,307.8,61.2z"/>
			<path class="st1" d="M278.4,46.2c2.7,0.5,5.3,1.1,7.8,2c2.1,0.6,4.2-0.6,4.8-2.7c0.6-2.1-0.6-4.2-2.7-4.8l0,0
				c-2.6-0.9-5.2-1.5-7.8-2c-2.1-0.5-4.1,0.7-4.8,2.7C275.2,43.3,276.3,45.8,278.4,46.2z"/>
			<path class="st1" d="M166.8,40.8c28.4-1.3,56.8-0.4,85,2.5c5,0.5,4.9-7.3,0-7.8c-28.2-2.9-56.6-3.8-85-2.5
				C161.8,33.3,161.8,41,166.8,40.8z"/>
			<path class="st1" d="M46.2,35.8c-15.9-0.5-31.6,3.8-37,20.4c-1.5,4.8,5.9,6.8,7.5,2.1c4.2-13.1,17.4-15.1,29.5-14.7
				C51.2,43.7,51.2,36,46.2,35.8z"/>
			<path class="st1" d="M11.6,592.4c-0.2-0.2-0.9-0.7-0.6-0.5c-0.4-0.3-0.9-0.4-1.4-0.4c-0.3,0-0.5,0-0.8,0.1c-1,0.3-1.7,1-2,2
				c-0.1,0.4-0.1,0.8,0,1.1c0,0.4,0.1,0.7,0.3,1.1c0.2,0.3,0.4,0.6,0.7,0.8c0.3,0.3,0.6,0.4,1,0.5l0.8,0.1c0.5,0,1-0.1,1.4-0.4
				l0.6-0.4c0.3-0.4,0.6-0.8,0.7-1.3l0,0l-0.7,1.3l0,0l-2,0.8l0,0l-1.4-0.4l0,0l-0.6-0.4l0,0c0.2,0.3,0.6,0.5,0.9,0.6
				c0.7,0.3,1.5,0.3,2.2,0c0.4-0.1,0.7-0.3,0.9-0.6l0.4-0.6c0.3-0.4,0.4-0.9,0.4-1.4l-0.1-0.8C12.3,593.2,12,592.7,11.6,592.4
				L11.6,592.4z"/>
			<path class="st1" d="M12,592.9L12,592.9c-0.2-0.3-0.4-0.6-0.7-0.8c-0.3-0.3-0.6-0.4-1-0.5c-0.4-0.1-0.8-0.1-1.1,0
				c-0.4,0-0.7,0.1-1.1,0.3l-0.6,0.4c-0.3,0.3-0.6,0.8-0.7,1.3l-0.1,0.8c0,0.5,0.1,1,0.4,1.4l0,0c0.2,0.3,0.4,0.6,0.7,0.8
				c0.6,0.5,1.4,0.7,2.1,0.6c0.4,0,0.8-0.1,1.1-0.3l0.6-0.4c0.4-0.3,0.6-0.8,0.7-1.3l0.1-0.8C12.4,593.8,12.3,593.3,12,592.9
				L12,592.9z"/>
			<path class="st1" d="M7.2,595.8c0.9,1.2,1.9,2.4,3,3.5c1.1,1.1,2.9,1.1,4,0c1.1-1.1,1.1-2.9,0-4c-0.5-0.5-1-1.1-1.5-1.7
				c-0.2-0.2-0.4-0.4-0.5-0.6s-0.9-1.1-0.1-0.1c-0.4-0.6-1-1.1-1.7-1.3c-0.7-0.2-1.5-0.1-2.2,0.3C7,592.7,6.2,594.6,7.2,595.8
				L7.2,595.8z"/>
			<path class="st1" d="M21.3,609.9c12.7,9.7,29.5,8.8,44.8,8.8h52.8l105.5,0.1h29c9.6,0,19.4,1.7,29,0.8c3.6-0.4,3.6-6,0-5.7
				c-8.1,0.8-16.1-0.7-24.2-0.8c-8.4-0.1-16.8,0-25.2,0h-51L78.8,613c-17.6,0-39.7,3.2-54.6-8.1C21.3,602.8,18.5,607.7,21.3,609.9
				L21.3,609.9z"/>
			<path class="st1" d="M288.3,618.5c10.2-3.4,18.8-11.9,18.2-23.3c-0.2-3.6-5.9-3.7-5.7,0c0.5,8.8-6.1,15.2-14,17.8
				C283.3,614.1,284.8,619.6,288.3,618.5L288.3,618.5z"/>
			<path class="st1" d="M304.9,622l-4.2,11.7c-0.1,1.6-0.6,3.1-1.7,4.4c-0.1,0.1-0.2,0.3-0.3,0.4c-3.2,4.1-11.7,9.7-33.9,12.4
				c-3.6,0.4-8.4,0.8-14.2,1l0,0c-40.8,1.6-128.8-1.6-167.6-3.2l0,0c-11.8-0.5-19-0.8-19-0.8L36.4,646c0,0-25.8-4.4-26.1-50.8
				c0-0.3,0-0.7,0-1l1.9,3.2l4.5,7.7l6.2,2.5l10.6,4.3c0,0-2.2,4.1,59.7,3.4s152.7,0.4,152.7,0.4l36.6,1.3l3.7,0.1l1.4-1.2l14.9-13
				l3.1-2.7l0.4-0.3l0.4,18.3L304.9,622z"/>
			<path class="st1" d="M307.8,46.8l-1.1,2.7l-3.6,8.8l-0.8,1.9c0,0-1.1-3.2-2-6.8c-0.3-1-0.5-2.1-0.7-3.1c-0.4-2-6-4.1-12.3-5.8
				c-2.6-0.7-5.3-1.4-7.8-2c-6.2-1.5-11.4-2.4-11.4-2.4l-16.1-0.7l-65-3l-20,0.5c-32.4,0.8-95.1,2.4-120.7,2.8l0,0
				c-3.9,0.1-7,0.1-8.9,0.1H36c-13.5,0-23.5,8.9-24.1,9.4l0,0v-0.2l3.7-22.3c1.4-3.3,3.2-6.4,5.2-9.3l0-0.1c5.2-7,11-10.5,16.6-11.9
				l0,0c2.1-0.5,4.2-0.8,6.4-0.8c4.3,0,8.5,0.8,12.5,2.3c0.8,0.3,1.6,0.6,2.3,1c0,0,45.6,2,60,2c3.7,0,13.4-0.5,25.8-1.1
				c35.9-2,94.4-5.8,94.4-5.8c13.7-2.2,24.8-1.3,33.7,1.4c19.9,6.2,28.8,22,32.6,32.3C306.4,40.2,307.3,43.5,307.8,46.8z"/>
			<path class="st2" d="M64.7,23.5h-0.3c-0.8,0-1.6,0.1-2.3,0.5c-0.7,0.2-1.4,0.7-1.9,1.2c-0.6,0.5-1,1.2-1.2,1.9
				c-0.4,0.7-0.5,1.5-0.5,2.3l0.2,1.6c0.3,1,0.8,1.9,1.5,2.6l1.2,0.9c0.9,0.5,1.9,0.8,3,0.8h0.3c0.8,0,1.6-0.1,2.3-0.5
				c1.4-0.5,2.6-1.7,3.1-3.1c0.4-0.7,0.5-1.5,0.5-2.3l-0.2-1.6c-0.3-1-0.8-1.9-1.5-2.6l-1.2-0.9C66.8,23.8,65.8,23.5,64.7,23.5
				L64.7,23.5z"/>
			<path class="st2" d="M96.8,23.7H96c-0.8,0-1.6,0.1-2.3,0.5c-0.7,0.2-1.4,0.7-1.9,1.2c-0.6,0.5-1,1.2-1.2,1.9
				c-0.4,0.7-0.5,1.5-0.5,2.3l0.2,1.6c0.3,1,0.8,1.9,1.5,2.6l1.2,0.9c0.9,0.5,1.9,0.8,3,0.8h0.8c1.6-0.1,3.1-0.7,4.2-1.7
				c0.6-0.5,1-1.2,1.2-1.9c0.4-0.7,0.5-1.5,0.5-2.3l-0.2-1.6c-0.3-1-0.8-1.9-1.5-2.6l-1.2-0.9C98.9,24,97.9,23.7,96.8,23.7
				L96.8,23.7z"/>
			<path class="st2" d="M127.4,24.1c22.5,1.1,44.9,1.2,67.4,0.3c5-0.2,5-8,0-7.8c-22.5,0.9-45,0.8-67.4-0.3
				C122.4,16.1,122.4,23.8,127.4,24.1z"/>
			<path class="st2" d="M210.8,35c5,0,5-7.8,0-7.8S205.8,35,210.8,35z"/>
			<path class="st2" d="M126.9,646c23.1-1.1,46.2-1,69.2,0.3c3.6,0.2,3.6-5.5,0-5.7c-23-1.3-46.1-1.4-69.2-0.3
				C123.2,640.5,123.2,646.2,126.9,646z"/>
			<g class="st3">
				<g>
					<path class="st4" d="M165.6,585.7c-0.4,3.8-0.2,7.6,0.4,11.3c0.1,0.4,0.6,0.7,1,0.6c0,0,0,0,0,0c0.4-0.1,0.7-0.6,0.6-1
						c-0.6-3.6-0.7-7.2-0.3-10.9C167.3,584.7,165.8,584.7,165.6,585.7L165.6,585.7z"/>
				</g>
				<g>
					<path class="st4" d="M261.7,582.1c-2.8,1.8-5.2,4.2-7,7c-0.2,0.4-0.1,0.9,0.3,1.1c0.1,0.1,0.2,0.1,0.4,0.1
						c4.2,0,8.4,0,12.5,0.2c0.4,0,0.7-0.4,0.7-0.9c0-0.4-0.3-0.7-0.7-0.7c-4.2-0.1-8.4-0.2-12.5-0.2l0.7,1.2
						c1.7-2.6,3.9-4.8,6.4-6.4C263.3,582.9,262.5,581.5,261.7,582.1z"/>
					<path class="st4" d="M262.5,594.6l-6.9-5.9c-0.3-0.3-0.8-0.3-1.1,0c-0.3,0.3-0.3,0.8,0,1.1l6.9,5.9c0.3,0.3,0.8,0.4,1.1,0.1
						C262.8,595.5,262.8,595,262.5,594.6C262.5,594.6,262.5,594.6,262.5,594.6z"/>
					<path class="st4" d="M156.1,597.8l10,0.1c0.4,0,0.7-0.4,0.7-0.9c0-0.4-0.3-0.7-0.7-0.7l-10-0.1c-0.4,0-0.7,0.4-0.7,0.9
						C155.5,597.4,155.8,597.7,156.1,597.8z"/>
					<path class="st4" d="M153.7,596.8c0-2.7,0-5.5-0.1-8.2c-0.1-1.5-0.6-3.1-0.2-4.6c0.1-0.6,0.6-1,1.2-0.9c0,0,0,0,0,0
						c0.9,0,1.8,0.2,2.7,0.4c2.4,0.4,5,0.5,7.5,0.7c0.4,0,0.8-0.4,0.8-0.8c0-0.2-0.1-0.4-0.2-0.5l-0.3-0.3c-0.7-0.7-1.9,0.4-1.1,1.1
						l0.3,0.3l0.6-1.3c-2.2-0.2-4.5-0.3-6.7-0.6c-1.4-0.2-3-0.8-4.4-0.4c-2.9,0.8-1.7,5-1.7,7c0.1,2.7,0.1,5.4,0.1,8.1
						c0,0.4,0.4,0.7,0.9,0.7C153.4,597.4,153.7,597.1,153.7,596.8L153.7,596.8z"/>
					<path class="st4" d="M50.6,588.4c4.4,0.7,9,0.8,13.4,0.3c0.4,0,0.8-0.4,0.8-0.8c0-0.1,0-0.1,0-0.2c-0.3-1.5-0.3-2.9,0-4.4
						c0.2-1-1.3-1.4-1.5-0.4c-0.3,1.7-0.3,3.5,0,5.2l0.8-1c-4.3,0.5-8.7,0.4-13-0.3C50.1,586.8,49.6,588.3,50.6,588.4L50.6,588.4z"
						/>
					<path class="st4" d="M52.3,598.3l0.3-4.5v-0.4l-0.2,0.2c0.1,0,0.3,0.1,0.4,0.1l1.1,0.2c0.7,0.1,1.4,0.2,2.2,0.3
						c2.9,0.3,5.8,0.1,8.7-0.4c1-0.2,0.6-1.7-0.4-1.5c-3.3,0.6-6.6,0.6-9.9,0.1c-1.1-0.2-3-0.9-3.3,0.8c-0.1,0.8-0.1,1.6-0.2,2.4
						l-0.2,2.7C50.7,599.3,52.3,599.3,52.3,598.3L52.3,598.3z"/>
				</g>
			</g>
			<path class="st1" d="M302.8,266.2c0.4,15.2,1.8,30.4,1.8,45.6s-2,30.5-2.2,45.9c-0.3,30.7,1.2,61.3,0.9,92
				c-0.4,31.7-1,63.4-0.9,95.2c0,15.1,0.7,30.3,1.1,45.4c0,2.2,1,7.5,0.1,9c-0.5,0.8-1.8,1.6-2.6,2.2l-5.9,5.2
				c-2.4,2.1-4.8,4.5-7.4,6.4c-2,1.5-3.9,1.7-6.4,1.8c-6.2,0.1-12.4-0.5-18.6-0.7c-7.8-0.3-15.5-0.6-23.3-0.7
				c-38.7-0.4-77.4-0.7-116.1-0.5c-24.5,0.1-49.2,1.1-73.7-0.3c-4.4-0.3-9.1-0.4-13.3-1.5c-2.8-0.7,0-0.4-1.1,1.8
				c0.6-1,0.2-2.2-0.8-2.8c-0.1-0.1-0.3-0.1-0.4-0.2c-3.3-1.3-7-2.3-10.1-4c-4.7-2.6-9.1-8-11.9-12.6c-0.5-1-1.7-1.3-2.7-0.8
				c-0.7,0.4-1.1,1.1-1.1,1.8c0.1,17.9,3.6,39.8,19.9,50.4c8.3,5.4,18.8,4.2,28.3,4.9c8.9,0.6,17.7,1,26.6,1.3v-4
				c-9.3-0.2-18.6-0.3-27.9-0.5c-8.6-0.2-17.7-0.3-25.4-4.7c-12.1-6.9-18.1-21.2-18.9-34.7c-1-18.3-0.6-36.7-0.6-54.9
				c0-18.5-0.1-36.9-0.1-55.4c0-75.2,1.2-150.4,2.1-225.5c0.5-37.3,1-74.6,1.5-111.9c0.3-18.8,0.4-37.5,0.7-56.3
				c0.2-9.1,0.4-18.3,0.5-27.4c0.1-4,0.1-8.1-0.1-12.2c-0.1-2.1-0.3-4.1-0.5-6.2c-0.1-1.5-1-5-0.8-6.2c0.5-2.6,8.5-5.9,11.1-6.8
				c6.7-2.5,14.2-2.4,21.3-2.2c8.2,0.2,16.3,1.1,24.5,1.3c9.2,0.2,18.3,0.1,27.5-0.2c29.6-1,59.3-4.9,88.9-4.5
				c14.2,0.2,28.4,1.3,42.6,2l20.1,0.9c11.6,0.5,24.2,1.4,35.4,4.7c4.1,1.1,8,3.1,11.2,6c2.6,2.4,3,5.6,4.1,8.8
				c0.3,1.1,1.3,1.7,2.4,1.5c0.7-0.2,1.3-0.7,1.5-1.5c1.5-3.6,2.9-7.2,4.4-10.7l-4-0.5c0.1,8.7-1.1,17.3-1.6,26
				c-0.5,9.1-0.5,18.1-0.7,27.2c-0.3,17.9-0.8,35.9-0.9,53.8C301.3,193,301.9,229.6,302.8,266.2c0,2.6,4.1,2.6,4,0
				c-0.9-36.6-1.4-73.1-1.2-109.7c0.1-17.9,0.6-35.9,0.9-53.8c0.2-9.1,0.2-18.1,0.7-27.2c0.5-8.7,1.7-17.3,1.6-26
				c0-2.4-3.1-2.5-4-0.5l-4.4,10.8h3.9c-0.8-2.3-1.1-5.2-2.2-7.3c-1.5-2.8-5-5.2-7.6-6.8c-6.5-4-14.4-5.2-21.8-6.1
				c-9.1-1-18.1-2-27.2-2.5l-51.9-2.4c-22.6-1-45.4,1.3-68,2.8c-19.6,1.2-39.2,2.2-58.9,1.5c-14.3-0.5-30.7-3.8-44.4,1.8
				c-3.6,1.5-8.7,3.7-11.3,6.8c-1.2,1.4-1,2.4-0.9,4.4c0.3,4.7,0.8,9.3,1,14c0.7,19-0.6,38.3-0.8,57.4C9.8,162.9,9,202.5,8.5,242.1
				c-1,78.8-2.3,157.6-2.5,236.3c-0.1,39-0.5,78,0.3,116.9c0.3,14.2,1.3,27.9,10.2,39.6c9.1,12,22.3,14.7,36.7,15.1
				c9.9,0.2,19.8,0.4,29.7,0.6c2.6,0,2.6-3.9,0-4c-14.8-0.6-29.5-1.5-44.3-2.5c-2,0-3.9-0.5-5.6-1.4c-5-2.6-9.2-6.5-12.1-11.3
				c-7-11-8.5-24.5-8.6-37.3l-3.8,1c3.1,5.3,8.2,11.3,13.7,14.2c3.3,1.8,7.2,2.9,10.7,4.3l-1.2-3c-1.7,3.5,4.1,4.3,6.2,4.7
				c16.8,2.8,34.5,1.9,51.4,1.8c45.8-0.4,91.5-0.4,137.3,0.1c7.7,0.1,15.4,0.1,23.1,0.3l21.8,0.8c5,0.2,12.4,1.6,17.1-0.9
				c1.8-1,3.4-2.9,5-4.3l8.8-7.7c1.4-1.2,3.5-2.5,4.5-3.9c1.2-1.7,0.8-3.5,0.7-5.5c-0.1-4.6-0.2-9.2-0.3-13.8
				c-0.9-33-0.8-65.9-0.4-99c0.5-36.8,0.4-73.4-0.3-110.1c-0.2-9.1-0.2-18.2,0.2-27.2c0.4-8.9,1.5-17.8,1.8-26.7
				c0.6-17.7-1.3-35.4-1.7-53.1C306.8,263.6,302.7,263.6,302.8,266.2z"/>
			<path class="st5" d="M142.2,326.9c-4.9,0-8.8-4-8.8-8.8c0-4.9,4-8.8,8.8-8.8c4.9,0,8.8,4,8.8,8.8l0,0
				C151.1,322.9,147.1,326.9,142.2,326.9z M142.2,294.5c-12.4,0-23.6,10-23.6,22.4s10.2,27.1,23.6,48.3
				c13.4-21.2,23.6-35.9,23.6-48.3S154.6,294.5,142.2,294.5z"/>
			<path class="st6" d="M230.2,94.2c-4.7,0-8.6-3.9-8.6-8.6s3.9-8.6,8.6-8.6c4.7,0,8.6,3.9,8.6,8.6S234.9,94.2,230.2,94.2
				L230.2,94.2z M230.2,62.6c-12,0-22.9,9.7-22.9,21.8s9.9,26.4,22.9,47c13-20.6,22.9-35,22.9-47S242.2,62.6,230.2,62.6z"/>
			
				<image style="overflow:visible;opacity:0.64;enable-background:new    ;" width="195" height="48" xlink:href="29654F49.png"  transform="matrix(1 0 0 1 56.09 133.08)">
			</image>
			
				<linearGradient id="SVGID_1_" gradientUnits="userSpaceOnUse" x1="151.56" y1="561.9797" x2="151.56" y2="527.5798" gradientTransform="matrix(1 0 0 -1 0 699.8898)">
				<stop  offset="0" style="stop-color:#E888E8"/>
				<stop  offset="1" style="stop-color:#EB3BE5"/>
			</linearGradient>
			<path class="st7" d="M72,137.9h159.1c5.9,0,10.6,4.8,10.6,10.6v13.1c0,5.9-4.8,10.6-10.6,10.6H72c-5.9,0-10.6-4.8-10.6-10.6
				v-13.1C61.4,142.7,66.1,137.9,72,137.9z"/>
			
				<linearGradient id="SVGID_2_" gradientUnits="userSpaceOnUse" x1="61.36" y1="544.7798" x2="241.77" y2="544.7798" gradientTransform="matrix(1 0 0 -1 0 699.8898)">
				<stop  offset="0" style="stop-color:#FF95FF"/>
				<stop  offset="1" style="stop-color:#FFFFFF"/>
			</linearGradient>
			<path class="st8" d="M72,137.9h159.1c5.9,0,10.6,4.8,10.6,10.6v13.1c0,5.9-4.8,10.6-10.6,10.6H72c-5.9,0-10.6-4.8-10.6-10.6
				v-13.1C61.4,142.7,66.1,137.9,72,137.9z"/>
			<g class="st9">
				<path d="M95.4,152.9c-0.1-0.1-0.1-0.2-0.1-0.3v-6h-0.9c-0.1,0-0.1,0-0.1-0.1c0,0-0.1-0.1-0.1-0.1v-0.7c0-0.1,0-0.1,0.1-0.1
					s0.1-0.1,0.1-0.1h1.7c0.1,0,0.2,0,0.3,0.1c0.1,0.1,0.1,0.2,0.1,0.3v6h0.9c0.1,0,0.1,0,0.1,0.1c0,0,0.1,0.1,0.1,0.1v0.7
					c0,0.1,0,0.1-0.1,0.1c0,0-0.1,0.1-0.1,0.1h-1.7C95.6,153,95.5,153,95.4,152.9z"/>
				<path d="M99.4,152.9c-0.1-0.1-0.1-0.2-0.1-0.4v-4h-0.8c-0.1,0-0.1,0-0.1-0.1c0,0-0.1-0.1-0.1-0.1v-0.7c0-0.1,0-0.1,0.1-0.1
					c0,0,0.1-0.1,0.1-0.1h1.5c0.1,0,0.3,0,0.4,0.1c0.1,0.1,0.1,0.2,0.1,0.4v4h0.8c0.1,0,0.1,0,0.1,0.1c0,0,0.1,0.1,0.1,0.1v0.7
					c0,0.1,0,0.1-0.1,0.1c0,0-0.1,0.1-0.1,0.1h-1.5C99.6,153,99.5,153,99.4,152.9z M99.4,146.6c0,0-0.1-0.1-0.1-0.1v-1.1
					c0-0.1,0-0.1,0.1-0.1c0,0,0.1-0.1,0.1-0.1h0.7c0.1,0,0.1,0,0.1,0.1c0,0,0.1,0.1,0.1,0.1v1.1c0,0.1,0,0.1-0.1,0.1
					c0,0-0.1,0.1-0.1,0.1h-0.7C99.5,146.7,99.4,146.7,99.4,146.6z"/>
				<path d="M104.1,153.1c-0.2,0-0.3-0.1-0.3-0.2l-1.7-5.2c0,0,0-0.1,0-0.1c0-0.1,0-0.1,0.1-0.2c0,0,0.1-0.1,0.2-0.1h0.7
					c0.1,0,0.1,0,0.2,0.1c0.1,0,0.1,0.1,0.1,0.2l1.2,4l1.1-4c0-0.1,0.1-0.1,0.1-0.2c0.1,0,0.1-0.1,0.2-0.1h0.7c0.1,0,0.1,0,0.2,0.1
					c0.1,0,0.1,0.1,0.1,0.2l1.2,4l1.1-4c0-0.1,0.1-0.1,0.1-0.2c0.1,0,0.1-0.1,0.2-0.1h0.6c0.1,0,0.1,0,0.2,0.1c0,0,0.1,0.1,0.1,0.2
					c0,0,0,0,0,0.1l-1.6,5.2c0,0.1-0.1,0.1-0.1,0.2c-0.1,0-0.1,0.1-0.2,0.1l-0.8,0c-0.1,0-0.1,0-0.2-0.1c-0.1,0-0.1-0.1-0.1-0.2
					l-1.1-3.7l-1,3.7c0,0.1-0.1,0.1-0.1,0.2c-0.1,0-0.1,0.1-0.2,0.1L104.1,153.1z"/>
				<path d="M112.2,152.9c-0.1-0.1-0.1-0.2-0.1-0.4v-4h-0.8c-0.1,0-0.1,0-0.1-0.1c0,0-0.1-0.1-0.1-0.1v-0.7c0-0.1,0-0.1,0.1-0.1
					c0,0,0.1-0.1,0.1-0.1h1.5c0.1,0,0.3,0,0.4,0.1c0.1,0.1,0.1,0.2,0.1,0.4v4h0.8c0.1,0,0.1,0,0.1,0.1c0,0,0.1,0.1,0.1,0.1v0.7
					c0,0.1,0,0.1-0.1,0.1c0,0-0.1,0.1-0.1,0.1h-1.5C112.4,153,112.3,153,112.2,152.9z M112.1,146.6c0,0-0.1-0.1-0.1-0.1v-1.1
					c0-0.1,0-0.1,0.1-0.1c0,0,0.1-0.1,0.1-0.1h0.7c0.1,0,0.1,0,0.1,0.1c0,0,0.1,0.1,0.1,0.1v1.1c0,0.1,0,0.1-0.1,0.1
					c0,0-0.1,0.1-0.1,0.1h-0.7C112.2,146.7,112.2,146.7,112.1,146.6z"/>
				<path d="M118.6,152.9c-0.3-0.2-0.5-0.4-0.7-0.7c-0.2-0.3-0.3-0.7-0.3-1.1v-3.5c0-0.1,0-0.1,0.1-0.1c0,0,0.1-0.1,0.1-0.1h0.8
					c0.1,0,0.1,0,0.1,0.1c0,0,0.1,0.1,0.1,0.1v3.4c0,0.3,0.1,0.6,0.3,0.8c0.2,0.2,0.4,0.3,0.8,0.3c0.4,0,0.7-0.1,0.9-0.4
					c0.2-0.3,0.3-0.6,0.3-1v-3c0-0.1,0-0.1,0.1-0.1c0,0,0.1-0.1,0.1-0.1h0.8c0.1,0,0.1,0,0.1,0.1c0,0,0.1,0.1,0.1,0.1v5.2
					c0,0.1,0,0.1-0.1,0.1c0,0-0.1,0.1-0.1,0.1h-0.8c-0.1,0-0.1,0-0.1-0.1c0,0-0.1-0.1-0.1-0.1v-0.5c-0.2,0.3-0.4,0.4-0.7,0.6
					s-0.5,0.2-0.8,0.2C119.3,153.1,118.9,153,118.6,152.9z"/>
				<path d="M124.5,153c-0.3-0.1-0.6-0.3-0.9-0.5c0,0-0.1-0.1-0.1-0.1c0,0,0-0.1,0-0.1c0-0.1,0.2-0.3,0.3-0.6
					c0.1-0.1,0.1-0.1,0.2-0.1c0,0,0.1,0,0.1,0c0.2,0.2,0.5,0.3,0.7,0.4c0.2,0.1,0.4,0.1,0.7,0.1c0.3,0,0.5-0.1,0.6-0.2
					c0.1-0.1,0.2-0.2,0.2-0.4c0-0.2-0.1-0.3-0.2-0.4c-0.1-0.1-0.4-0.2-0.7-0.3l-0.4-0.1c-0.3-0.1-0.5-0.2-0.7-0.4
					c-0.2-0.1-0.4-0.3-0.5-0.5c-0.1-0.2-0.2-0.5-0.2-0.8c0-0.5,0.2-0.9,0.5-1.2c0.3-0.3,0.8-0.5,1.4-0.5c0.3,0,0.7,0.1,1,0.2
					c0.3,0.1,0.6,0.3,0.8,0.5c0,0,0.1,0.1,0.1,0.1c0,0,0,0.1,0,0.1c-0.1,0.1-0.2,0.3-0.3,0.6c0,0.1-0.1,0.1-0.2,0.1c0,0-0.1,0-0.1,0
					c-0.5-0.3-0.9-0.4-1.3-0.4c-0.2,0-0.4,0-0.5,0.1s-0.2,0.2-0.2,0.4c0,0.2,0.1,0.3,0.2,0.4c0.1,0.1,0.4,0.2,0.8,0.4
					c0.4,0.1,0.7,0.3,0.9,0.4c0.2,0.1,0.4,0.3,0.6,0.5c0.2,0.2,0.3,0.5,0.3,0.9c0,0.3-0.1,0.6-0.3,0.9c-0.2,0.3-0.4,0.5-0.7,0.6
					c-0.3,0.1-0.7,0.2-1.1,0.2C125.2,153.1,124.9,153.1,124.5,153z"/>
				<path d="M129.8,152.7c-0.4-0.2-0.6-0.5-0.9-0.9c-0.2-0.4-0.3-0.8-0.3-1.2v-1.1c0-0.4,0.1-0.8,0.3-1.2c0.2-0.4,0.5-0.6,0.9-0.9
					s0.8-0.3,1.2-0.3s0.8,0.1,1.2,0.3s0.6,0.5,0.9,0.9s0.3,0.8,0.3,1.2v0.7c0,0.1,0,0.2-0.1,0.3c-0.1,0.1-0.2,0.1-0.3,0.1h-3.1v0
					c0,0.3,0.1,0.6,0.3,0.8c0.2,0.2,0.5,0.3,0.8,0.3h1.6c0.1,0,0.1,0,0.1,0.1c0,0,0.1,0.1,0.1,0.1v0.7c0,0.1,0,0.1-0.1,0.1
					c0,0-0.1,0.1-0.1,0.1H131C130.5,153,130.1,152.9,129.8,152.7z M132.1,149.6L132.1,149.6c0-0.4-0.1-0.7-0.3-0.9
					c-0.2-0.2-0.5-0.3-0.8-0.3s-0.6,0.1-0.8,0.3c-0.2,0.2-0.3,0.5-0.3,0.8v0.1H132.1z"/>
				<path d="M134.4,152.9c0,0-0.1-0.1-0.1-0.1v-0.7c0-0.1,0-0.1,0.1-0.1c0,0,0.1-0.1,0.1-0.1h0.8v-3.4h-0.8c-0.1,0-0.1,0-0.1-0.1
					c0,0-0.1-0.1-0.1-0.1v-0.7c0-0.1,0-0.1,0.1-0.1c0,0,0.1-0.1,0.1-0.1h1.5c0.1,0,0.2,0,0.3,0.1c0.1,0.1,0.1,0.2,0.1,0.3v0.4
					l0.5-0.4c0.2-0.2,0.4-0.3,0.5-0.3c0.1-0.1,0.3-0.1,0.5-0.1h0.3c0.1,0,0.1,0,0.1,0.1c0,0,0.1,0.1,0.1,0.1v0.8
					c0,0.1,0,0.1-0.1,0.1c0,0-0.1,0.1-0.1,0.1H138c-0.2,0-0.3,0-0.4,0.1s-0.3,0.2-0.6,0.4l-0.5,0.4v2.5h1c0.1,0,0.1,0,0.1,0.1
					c0,0,0.1,0.1,0.1,0.1v0.7c0,0.1,0,0.1-0.1,0.1c0,0-0.1,0.1-0.1,0.1h-2.9C134.5,153,134.5,153,134.4,152.9z"/>
				<path d="M140.2,153c-0.3-0.1-0.6-0.3-0.9-0.5c0,0-0.1-0.1-0.1-0.1c0,0,0-0.1,0-0.1c0-0.1,0.2-0.3,0.3-0.6
					c0.1-0.1,0.1-0.1,0.2-0.1c0,0,0.1,0,0.1,0c0.2,0.2,0.5,0.3,0.7,0.4c0.2,0.1,0.4,0.1,0.7,0.1c0.3,0,0.5-0.1,0.6-0.2
					c0.1-0.1,0.2-0.2,0.2-0.4c0-0.2-0.1-0.3-0.2-0.4c-0.1-0.1-0.4-0.2-0.7-0.3l-0.4-0.1c-0.3-0.1-0.5-0.2-0.7-0.4
					c-0.2-0.1-0.4-0.3-0.5-0.5c-0.1-0.2-0.2-0.5-0.2-0.8c0-0.5,0.2-0.9,0.5-1.2c0.3-0.3,0.8-0.5,1.4-0.5c0.3,0,0.7,0.1,1,0.2
					c0.3,0.1,0.6,0.3,0.8,0.5c0,0,0.1,0.1,0.1,0.1c0,0,0,0.1,0,0.1c-0.1,0.1-0.2,0.3-0.3,0.6c0,0.1-0.1,0.1-0.2,0.1c0,0-0.1,0-0.1,0
					c-0.5-0.3-0.9-0.4-1.3-0.4c-0.2,0-0.4,0-0.5,0.1s-0.2,0.2-0.2,0.4c0,0.2,0.1,0.3,0.2,0.4c0.1,0.1,0.4,0.2,0.8,0.4
					c0.4,0.1,0.7,0.3,0.9,0.4c0.2,0.1,0.4,0.3,0.6,0.5c0.2,0.2,0.3,0.5,0.3,0.9c0,0.3-0.1,0.6-0.3,0.9c-0.2,0.3-0.4,0.5-0.7,0.6
					c-0.3,0.1-0.7,0.2-1.1,0.2C140.9,153.1,140.5,153.1,140.2,153z"/>
				<path d="M147.1,152.7c-0.3-0.3-0.5-0.7-0.5-1.2c0-0.5,0.2-0.8,0.5-1.1c0.3-0.3,0.8-0.5,1.3-0.6c0.1,0,0.3,0,0.4-0.1
					c0.5-0.1,0.7-0.1,0.8-0.1c0.2,0,0.4-0.2,0.4-0.4c0-0.2-0.1-0.4-0.3-0.6c-0.2-0.1-0.5-0.2-0.8-0.2c-0.5,0-0.9,0.2-1.2,0.6
					c-0.1,0.1-0.1,0.1-0.2,0.1c-0.1,0-0.1,0-0.1,0l-0.6-0.4c-0.1,0-0.1-0.1-0.1-0.2c0,0,0,0,0-0.1c0.2-0.4,0.5-0.6,0.8-0.8
					s0.8-0.3,1.3-0.3c0.4,0,0.8,0.1,1.1,0.2c0.3,0.2,0.6,0.4,0.8,0.7c0.2,0.3,0.3,0.7,0.3,1v3.6c0,0.1,0,0.1-0.1,0.1
					c0,0-0.1,0.1-0.1,0.1h-0.7c-0.1,0-0.1,0-0.1-0.1c0,0-0.1-0.1-0.1-0.2v-0.4c-0.5,0.5-1,0.7-1.6,0.7
					C147.9,153.1,147.4,153,147.1,152.7z M149.3,151.9c0.2-0.1,0.4-0.3,0.6-0.5c0.1-0.2,0.2-0.4,0.2-0.7v-0.2l-0.7,0.1
					c-0.4,0-0.7,0.1-0.8,0.1c-0.5,0.1-0.8,0.3-0.8,0.7c0,0.2,0.1,0.4,0.2,0.5c0.2,0.1,0.4,0.2,0.6,0.2
					C148.8,152.1,149,152,149.3,151.9z"/>
				<path d="M152.5,152.9c0,0-0.1-0.1-0.1-0.1v-0.7c0-0.1,0-0.1,0.1-0.1c0,0,0.1-0.1,0.1-0.1h0.8v-3.4h-0.8c-0.1,0-0.1,0-0.1-0.1
					c0,0-0.1-0.1-0.1-0.1v-0.7c0-0.1,0-0.1,0.1-0.1c0,0,0.1-0.1,0.1-0.1h1.5c0.1,0,0.2,0,0.3,0.1c0.1,0.1,0.1,0.2,0.1,0.3v0.4
					l0.5-0.4c0.2-0.2,0.4-0.3,0.5-0.3c0.1-0.1,0.3-0.1,0.5-0.1h0.3c0.1,0,0.1,0,0.1,0.1c0,0,0.1,0.1,0.1,0.1v0.8
					c0,0.1,0,0.1-0.1,0.1c0,0-0.1,0.1-0.1,0.1h-0.3c-0.2,0-0.3,0-0.4,0.1s-0.3,0.2-0.6,0.4l-0.5,0.4v2.5h1c0.1,0,0.1,0,0.1,0.1
					c0,0,0.1,0.1,0.1,0.1v0.7c0,0.1,0,0.1-0.1,0.1c0,0-0.1,0.1-0.1,0.1h-2.9C152.5,153,152.5,153,152.5,152.9z"/>
				<path d="M158.5,152.7c-0.4-0.2-0.6-0.5-0.9-0.9c-0.2-0.4-0.3-0.8-0.3-1.2v-1.1c0-0.4,0.1-0.8,0.3-1.2c0.2-0.4,0.5-0.6,0.9-0.9
					s0.8-0.3,1.2-0.3s0.8,0.1,1.2,0.3s0.6,0.5,0.9,0.9s0.3,0.8,0.3,1.2v0.7c0,0.1,0,0.2-0.1,0.3c-0.1,0.1-0.2,0.1-0.3,0.1h-3.1v0
					c0,0.3,0.1,0.6,0.3,0.8c0.2,0.2,0.5,0.3,0.8,0.3h1.6c0.1,0,0.1,0,0.1,0.1c0,0,0.1,0.1,0.1,0.1v0.7c0,0.1,0,0.1-0.1,0.1
					c0,0-0.1,0.1-0.1,0.1h-1.6C159.3,153,158.9,152.9,158.5,152.7z M160.9,149.6L160.9,149.6c0-0.4-0.1-0.7-0.3-0.9
					c-0.2-0.2-0.5-0.3-0.8-0.3s-0.6,0.1-0.8,0.3c-0.2,0.2-0.3,0.5-0.3,0.8v0.1H160.9z"/>
				<path d="M166.8,152.8c-0.4-0.2-0.6-0.5-0.9-0.9c-0.2-0.4-0.3-0.8-0.3-1.2v-1.2c0-0.4,0.1-0.8,0.3-1.2c0.2-0.4,0.5-0.6,0.9-0.9
					s0.8-0.3,1.2-0.3c0.3,0,0.6,0.1,0.9,0.2c0.3,0.1,0.6,0.3,0.8,0.6c0,0,0.1,0.1,0.1,0.2c0,0.1,0,0.1-0.1,0.2l-0.4,0.4
					c0,0-0.1,0.1-0.2,0.1c-0.1,0-0.1,0-0.2-0.1c-0.3-0.3-0.6-0.4-1-0.4c-0.3,0-0.6,0.1-0.8,0.3c-0.2,0.2-0.3,0.5-0.3,0.8v1.3
					c0,0.3,0.1,0.6,0.3,0.8c0.2,0.2,0.5,0.3,0.8,0.3c0.4,0,0.7-0.1,1-0.4c0.1-0.1,0.1-0.1,0.2-0.1c0.1,0,0.1,0,0.2,0.1l0.4,0.4
					c0.1,0.1,0.1,0.1,0.1,0.2c0,0.1,0,0.1-0.1,0.2c-0.2,0.2-0.5,0.4-0.8,0.6c-0.3,0.1-0.6,0.2-0.9,0.2
					C167.5,153.1,167.1,153,166.8,152.8z"/>
				<path d="M171.9,152.9c-0.3-0.2-0.5-0.4-0.7-0.7c-0.2-0.3-0.3-0.7-0.3-1.1v-3.5c0-0.1,0-0.1,0.1-0.1c0,0,0.1-0.1,0.1-0.1h0.8
					c0.1,0,0.1,0,0.1,0.1c0,0,0.1,0.1,0.1,0.1v3.4c0,0.3,0.1,0.6,0.3,0.8c0.2,0.2,0.4,0.3,0.8,0.3c0.4,0,0.7-0.1,0.9-0.4
					c0.2-0.3,0.3-0.6,0.3-1v-3c0-0.1,0-0.1,0.1-0.1c0,0,0.1-0.1,0.1-0.1h0.8c0.1,0,0.1,0,0.1,0.1c0,0,0.1,0.1,0.1,0.1v5.2
					c0,0.1,0,0.1-0.1,0.1c0,0-0.1,0.1-0.1,0.1h-0.8c-0.1,0-0.1,0-0.1-0.1c0,0-0.1-0.1-0.1-0.1v-0.5c-0.2,0.3-0.4,0.4-0.7,0.6
					c-0.3,0.1-0.5,0.2-0.8,0.2C172.5,153.1,172.2,153,171.9,152.9z"/>
				<path d="M177,152.9c0,0-0.1-0.1-0.1-0.1v-0.7c0-0.1,0-0.1,0.1-0.1c0,0,0.1-0.1,0.1-0.1h0.8v-3.4H177c-0.1,0-0.1,0-0.1-0.1
					c0,0-0.1-0.1-0.1-0.1v-0.7c0-0.1,0-0.1,0.1-0.1c0,0,0.1-0.1,0.1-0.1h1.5c0.1,0,0.2,0,0.3,0.1c0.1,0.1,0.1,0.2,0.1,0.3v0.4
					l0.5-0.4c0.2-0.2,0.4-0.3,0.5-0.3s0.3-0.1,0.5-0.1h0.3c0.1,0,0.1,0,0.1,0.1c0,0,0.1,0.1,0.1,0.1v0.8c0,0.1,0,0.1-0.1,0.1
					c0,0-0.1,0.1-0.1,0.1h-0.3c-0.2,0-0.3,0-0.4,0.1s-0.3,0.2-0.6,0.4l-0.5,0.4v2.5h1c0.1,0,0.1,0,0.1,0.1c0,0,0.1,0.1,0.1,0.1v0.7
					c0,0.1,0,0.1-0.1,0.1c0,0-0.1,0.1-0.1,0.1h-2.9C177,153,177,153,177,152.9z"/>
				<path d="M181.9,152.9c0,0-0.1-0.1-0.1-0.1v-0.7c0-0.1,0-0.1,0.1-0.1c0,0,0.1-0.1,0.1-0.1h0.8v-3.4h-0.8c-0.1,0-0.1,0-0.1-0.1
					c0,0-0.1-0.1-0.1-0.1v-0.7c0-0.1,0-0.1,0.1-0.1c0,0,0.1-0.1,0.1-0.1h1.5c0.1,0,0.2,0,0.3,0.1c0.1,0.1,0.1,0.2,0.1,0.3v0.4
					l0.5-0.4c0.2-0.2,0.4-0.3,0.5-0.3c0.1-0.1,0.3-0.1,0.5-0.1h0.3c0.1,0,0.1,0,0.1,0.1c0,0,0.1,0.1,0.1,0.1v0.8
					c0,0.1,0,0.1-0.1,0.1c0,0-0.1,0.1-0.1,0.1h-0.3c-0.2,0-0.3,0-0.4,0.1s-0.3,0.2-0.6,0.4l-0.5,0.4v2.5h1c0.1,0,0.1,0,0.1,0.1
					c0,0,0.1,0.1,0.1,0.1v0.7c0,0.1,0,0.1-0.1,0.1c0,0-0.1,0.1-0.1,0.1H182C182,153,181.9,153,181.9,152.9z"/>
				<path d="M188,152.7c-0.4-0.2-0.6-0.5-0.9-0.9s-0.3-0.8-0.3-1.2v-1.1c0-0.4,0.1-0.8,0.3-1.2s0.5-0.6,0.9-0.9
					c0.4-0.2,0.8-0.3,1.2-0.3c0.4,0,0.8,0.1,1.2,0.3c0.4,0.2,0.6,0.5,0.9,0.9s0.3,0.8,0.3,1.2v0.7c0,0.1,0,0.2-0.1,0.3
					c-0.1,0.1-0.2,0.1-0.3,0.1H188v0c0,0.3,0.1,0.6,0.3,0.8c0.2,0.2,0.5,0.3,0.8,0.3h1.6c0.1,0,0.1,0,0.1,0.1c0,0,0.1,0.1,0.1,0.1
					v0.7c0,0.1,0,0.1-0.1,0.1c0,0-0.1,0.1-0.1,0.1h-1.6C188.7,153,188.3,152.9,188,152.7z M190.3,149.6L190.3,149.6
					c0-0.4-0.1-0.7-0.3-0.9c-0.2-0.2-0.5-0.3-0.8-0.3c-0.3,0-0.6,0.1-0.8,0.3c-0.2,0.2-0.3,0.5-0.3,0.8v0.1H190.3z"/>
				<path d="M192.8,152.9c0,0-0.1-0.1-0.1-0.1v-5.2c0-0.1,0-0.1,0.1-0.1c0,0,0.1-0.1,0.1-0.1h0.8c0.1,0,0.1,0,0.1,0.1
					c0,0,0.1,0.1,0.1,0.1v0.5c0.2-0.3,0.4-0.4,0.7-0.6c0.3-0.1,0.5-0.2,0.8-0.2c0.4,0,0.7,0.1,1,0.3c0.3,0.2,0.5,0.4,0.7,0.7
					c0.2,0.3,0.3,0.7,0.3,1.1v3.5c0,0.1,0,0.1-0.1,0.1c0,0-0.1,0.1-0.1,0.1h-0.8c-0.1,0-0.1,0-0.1-0.1c0,0-0.1-0.1-0.1-0.1v-3.4
					c0-0.3-0.1-0.6-0.3-0.8s-0.4-0.3-0.8-0.3c-0.4,0-0.7,0.1-0.9,0.4c-0.2,0.3-0.3,0.6-0.3,1v3c0,0.1,0,0.1-0.1,0.1
					c0,0-0.1,0.1-0.1,0.1H193C192.9,153,192.9,153,192.8,152.9z"/>
				<path d="M199.8,152.5c-0.3-0.3-0.5-0.7-0.5-1.2v-2.8h-0.7c-0.1,0-0.1,0-0.1-0.1c0,0-0.1-0.1-0.1-0.1v-0.7c0-0.1,0-0.1,0.1-0.1
					c0,0,0.1-0.1,0.1-0.1h0.7v-1.1c0-0.1,0-0.1,0.1-0.1c0,0,0.1-0.1,0.1-0.1h0.8c0.1,0,0.1,0,0.1,0.1c0,0,0.1,0.1,0.1,0.1v1.1h1.7
					c0.1,0,0.1,0,0.1,0.1c0,0,0.1,0.1,0.1,0.1v0.7c0,0.1,0,0.1-0.1,0.1c0,0-0.1,0.1-0.1,0.1h-1.7v2.8c0,0.2,0.1,0.4,0.2,0.5
					c0.1,0.1,0.3,0.2,0.5,0.2l1,0c0.1,0,0.1,0,0.1,0.1c0,0,0.1,0.1,0.1,0.1v0.7c0,0.1,0,0.1-0.1,0.1c0,0-0.1,0.1-0.1,0.1h-1.1
					C200.6,153,200.1,152.8,199.8,152.5z"/>
				<path d="M204.3,152.9c-0.1-0.1-0.1-0.2-0.1-0.3v-6h-0.9c-0.1,0-0.1,0-0.1-0.1c0,0-0.1-0.1-0.1-0.1v-0.7c0-0.1,0-0.1,0.1-0.1
					c0,0,0.1-0.1,0.1-0.1h1.7c0.1,0,0.2,0,0.3,0.1c0.1,0.1,0.1,0.2,0.1,0.3v6h0.9c0.1,0,0.1,0,0.1,0.1c0,0,0.1,0.1,0.1,0.1v0.7
					c0,0.1,0,0.1-0.1,0.1c0,0-0.1,0.1-0.1,0.1h-1.7C204.5,153,204.4,153,204.3,152.9z"/>
				<path d="M208.4,154.8c0-0.1,0-0.1,0-0.2l0.5-1.5l-1.9-5.5c0,0,0-0.1,0-0.1c0-0.1,0-0.1,0.1-0.2c0,0,0.1-0.1,0.2-0.1h0.7
					c0.1,0,0.1,0,0.2,0.1c0.1,0,0.1,0.1,0.1,0.2l1.3,3.9l1.3-3.9c0-0.1,0.1-0.1,0.1-0.2c0.1,0,0.1-0.1,0.2-0.1h0.6
					c0.1,0,0.1,0,0.2,0.1s0.1,0.1,0.1,0.2c0,0,0,0,0,0.1l-2.5,7c0,0.1-0.1,0.1-0.1,0.2c-0.1,0-0.1,0.1-0.2,0.1h-0.7
					C208.5,154.9,208.4,154.9,208.4,154.8z"/>
			</g>
			<g class="st9">
				<path d="M96.3,164.9c-0.2,0-0.3-0.1-0.3-0.2l-1.7-5.2c0,0,0-0.1,0-0.1c0-0.1,0-0.1,0.1-0.2c0,0,0.1-0.1,0.2-0.1h0.7
					c0.1,0,0.1,0,0.2,0.1c0.1,0,0.1,0.1,0.1,0.2l1.2,4l1.1-4c0-0.1,0.1-0.1,0.1-0.2c0.1,0,0.1-0.1,0.2-0.1h0.7c0.1,0,0.1,0,0.2,0.1
					c0.1,0,0.1,0.1,0.1,0.2l1.2,4l1.1-4c0-0.1,0.1-0.1,0.1-0.2c0.1,0,0.1-0.1,0.2-0.1h0.6c0.1,0,0.1,0,0.2,0.1c0,0,0.1,0.1,0.1,0.2
					c0,0,0,0,0,0.1l-1.6,5.2c0,0.1-0.1,0.1-0.1,0.2c-0.1,0-0.1,0.1-0.2,0.1l-0.8,0c-0.1,0-0.1,0-0.2-0.1c-0.1,0-0.1-0.1-0.1-0.2
					l-1.1-3.7l-1,3.7c0,0.1-0.1,0.1-0.1,0.2c-0.1,0-0.1,0.1-0.2,0.1L96.3,164.9z"/>
				<path d="M104.6,164.7c-0.4-0.2-0.6-0.5-0.9-0.8c-0.2-0.4-0.3-0.7-0.3-1.2v-1.3c0-0.4,0.1-0.8,0.3-1.2c0.2-0.4,0.5-0.6,0.9-0.8
					c0.4-0.2,0.8-0.3,1.2-0.3s0.8,0.1,1.2,0.3c0.4,0.2,0.6,0.5,0.9,0.8s0.3,0.7,0.3,1.2v1.3c0,0.4-0.1,0.8-0.3,1.2s-0.5,0.6-0.9,0.8
					c-0.4,0.2-0.8,0.3-1.2,0.3S105,164.9,104.6,164.7z M106.6,163.5c0.2-0.2,0.3-0.5,0.3-0.8v-1.3c0-0.3-0.1-0.6-0.3-0.8
					c-0.2-0.2-0.5-0.3-0.8-0.3s-0.6,0.1-0.8,0.3c-0.2,0.2-0.3,0.5-0.3,0.8v1.3c0,0.3,0.1,0.6,0.3,0.8c0.2,0.2,0.5,0.3,0.8,0.3
					S106.4,163.7,106.6,163.5z"/>
				<path d="M109.3,164.8c0,0-0.1-0.1-0.1-0.1v-0.7c0-0.1,0-0.1,0.1-0.1c0,0,0.1-0.1,0.1-0.1h0.8v-3.4h-0.8c-0.1,0-0.1,0-0.1-0.1
					c0,0-0.1-0.1-0.1-0.1v-0.7c0-0.1,0-0.1,0.1-0.1c0,0,0.1-0.1,0.1-0.1h1.5c0.1,0,0.2,0,0.3,0.1c0.1,0.1,0.1,0.2,0.1,0.3v0.4
					l0.5-0.4c0.2-0.2,0.4-0.3,0.5-0.3c0.1-0.1,0.3-0.1,0.5-0.1h0.3c0.1,0,0.1,0,0.1,0.1c0,0,0.1,0.1,0.1,0.1v0.8
					c0,0.1,0,0.1-0.1,0.1c0,0-0.1,0.1-0.1,0.1H113c-0.2,0-0.3,0-0.4,0.1s-0.3,0.2-0.6,0.4l-0.5,0.4v2.5h1c0.1,0,0.1,0,0.1,0.1
					c0,0,0.1,0.1,0.1,0.1v0.7c0,0.1,0,0.1-0.1,0.1c0,0-0.1,0.1-0.1,0.1h-2.9C109.4,164.9,109.4,164.8,109.3,164.8z"/>
				<path d="M114.5,164.8c0,0-0.1-0.1-0.1-0.1v-7.2c0-0.1,0-0.1,0.1-0.1s0.1-0.1,0.1-0.1h0.8c0.1,0,0.1,0,0.1,0.1s0.1,0.1,0.1,0.1
					v3.7h0.3l1.8-1.9c0.1-0.1,0.2-0.1,0.3-0.1h0.9c0.1,0,0.1,0,0.1,0.1s0.1,0.1,0.1,0.1c0,0,0,0.1-0.1,0.1l-2.1,2.2l2.3,2.8
					c0,0,0,0.1,0,0.1c0,0.1,0,0.1,0,0.1c0,0-0.1,0-0.1,0h-0.9c-0.1,0-0.2,0-0.3-0.1l-1.9-2.4h-0.3v2.3c0,0.1,0,0.1-0.1,0.1
					c0,0-0.1,0.1-0.1,0.1h-0.8C114.6,164.9,114.6,164.8,114.5,164.8z"/>
				<path d="M121,164.7c-0.1-0.1-0.1-0.2-0.1-0.4v-4h-0.8c-0.1,0-0.1,0-0.1-0.1c0,0-0.1-0.1-0.1-0.1v-0.7c0-0.1,0-0.1,0.1-0.1
					c0,0,0.1-0.1,0.1-0.1h1.5c0.1,0,0.3,0,0.4,0.1c0.1,0.1,0.1,0.2,0.1,0.4v4h0.8c0.1,0,0.1,0,0.1,0.1c0,0,0.1,0.1,0.1,0.1v0.7
					c0,0.1,0,0.1-0.1,0.1c0,0-0.1,0.1-0.1,0.1h-1.5C121.2,164.9,121.1,164.8,121,164.7z M121,158.5c0,0-0.1-0.1-0.1-0.1v-1.1
					c0-0.1,0-0.1,0.1-0.1c0,0,0.1-0.1,0.1-0.1h0.7c0.1,0,0.1,0,0.1,0.1c0,0,0.1,0.1,0.1,0.1v1.1c0,0.1,0,0.1-0.1,0.1
					c0,0-0.1,0.1-0.1,0.1h-0.7C121.1,158.5,121,158.5,121,158.5z"/>
				<path d="M124.2,164.8c0,0-0.1-0.1-0.1-0.1v-5.2c0-0.1,0-0.1,0.1-0.1c0,0,0.1-0.1,0.1-0.1h0.8c0.1,0,0.1,0,0.1,0.1
					c0,0,0.1,0.1,0.1,0.1v0.5c0.2-0.3,0.4-0.4,0.7-0.6s0.5-0.2,0.8-0.2c0.4,0,0.7,0.1,1,0.3c0.3,0.2,0.5,0.4,0.7,0.7
					c0.2,0.3,0.3,0.7,0.3,1.1v3.5c0,0.1,0,0.1-0.1,0.1c0,0-0.1,0.1-0.1,0.1h-0.8c-0.1,0-0.1,0-0.1-0.1c0,0-0.1-0.1-0.1-0.1v-3.4
					c0-0.3-0.1-0.6-0.3-0.8s-0.4-0.3-0.8-0.3c-0.4,0-0.7,0.1-0.9,0.4c-0.2,0.3-0.3,0.6-0.3,1v3c0,0.1,0,0.1-0.1,0.1
					c0,0-0.1,0.1-0.1,0.1h-0.8C124.3,164.9,124.3,164.8,124.2,164.8z"/>
				<path d="M130.7,166.6c-0.4-0.2-0.6-0.6-0.6-1.1c0-0.4,0.1-0.7,0.4-0.9c-0.2-0.2-0.4-0.5-0.4-0.8c0-0.2,0.1-0.4,0.2-0.6
					c0.1-0.2,0.3-0.4,0.4-0.5c-0.2-0.2-0.4-0.4-0.5-0.6c-0.1-0.3-0.2-0.5-0.2-0.8c0-0.4,0.1-0.8,0.3-1.1s0.5-0.5,0.8-0.7
					s0.7-0.3,1.1-0.3c0.3,0,0.6,0,0.8,0.1h1.9c0.1,0,0.1,0,0.1,0.1c0,0,0.1,0.1,0.1,0.1v0.7c0,0.1,0,0.1-0.1,0.1
					c0,0-0.1,0.1-0.1,0.1h-0.8c0.1,0.3,0.2,0.5,0.2,0.8c0,0.4-0.1,0.7-0.3,1.1c-0.2,0.3-0.5,0.5-0.8,0.7c-0.3,0.2-0.7,0.3-1.1,0.3
					c-0.3,0-0.6-0.1-0.9-0.2c-0.1,0.1-0.2,0.3-0.2,0.4c0,0.1,0,0.2,0.1,0.3c0.1,0,0.2,0.1,0.4,0.1c0.3,0,0.5,0,0.8,0l0.4,0
					c0.6,0,1,0.1,1.3,0.3s0.5,0.5,0.5,1c0,0.6-0.2,1-0.7,1.3c-0.5,0.3-1.1,0.4-1.9,0.4C131.6,166.9,131.1,166.8,130.7,166.6z
					 M133.6,165.3c0-0.2-0.1-0.3-0.2-0.3s-0.3-0.1-0.5-0.1h-1c-0.2,0-0.4,0-0.6,0c-0.1,0.1-0.1,0.3-0.1,0.4c0,0.3,0.1,0.4,0.3,0.5
					c0.2,0.1,0.5,0.1,0.8,0.1C133.2,165.9,133.6,165.7,133.6,165.3z M133,161.8c0.2-0.2,0.3-0.4,0.3-0.7c0-0.3-0.1-0.5-0.3-0.7
					c-0.2-0.2-0.4-0.3-0.7-0.3s-0.6,0.1-0.7,0.3c-0.2,0.2-0.3,0.4-0.3,0.7c0,0.3,0.1,0.5,0.3,0.7c0.2,0.2,0.4,0.3,0.7,0.3
					S132.8,162,133,161.8z"/>
				<path d="M138.7,164.8c0,0-0.1-0.1-0.1-0.1v-7.2c0-0.1,0-0.1,0.1-0.1s0.1-0.1,0.1-0.1h0.8c0.1,0,0.1,0,0.1,0.1s0.1,0.1,0.1,0.1
					v2.2c0.2-0.2,0.4-0.3,0.7-0.5c0.2-0.1,0.5-0.2,0.8-0.2c0.4,0,0.8,0.1,1.1,0.3c0.3,0.2,0.6,0.4,0.7,0.7c0.2,0.3,0.3,0.7,0.3,1.1
					v3.5c0,0.1,0,0.1-0.1,0.1c0,0-0.1,0.1-0.1,0.1h-0.8c-0.1,0-0.1,0-0.1-0.1c0,0-0.1-0.1-0.1-0.1v-3.4c0-0.3-0.1-0.6-0.3-0.8
					s-0.4-0.3-0.8-0.3c-0.4,0-0.7,0.1-0.9,0.4c-0.2,0.3-0.3,0.6-0.3,1v3c0,0.1,0,0.1-0.1,0.1c0,0-0.1,0.1-0.1,0.1h-0.8
					C138.8,164.9,138.7,164.8,138.7,164.8z"/>
				<path d="M145.7,164.5c-0.4-0.2-0.6-0.5-0.9-0.9c-0.2-0.4-0.3-0.8-0.3-1.2v-1.1c0-0.4,0.1-0.8,0.3-1.2c0.2-0.4,0.5-0.6,0.9-0.9
					s0.8-0.3,1.2-0.3s0.8,0.1,1.2,0.3s0.6,0.5,0.9,0.9s0.3,0.8,0.3,1.2v0.7c0,0.1,0,0.2-0.1,0.3c-0.1,0.1-0.2,0.1-0.3,0.1h-3.1v0
					c0,0.3,0.1,0.6,0.3,0.8c0.2,0.2,0.5,0.3,0.8,0.3h1.6c0.1,0,0.1,0,0.1,0.1c0,0,0.1,0.1,0.1,0.1v0.7c0,0.1,0,0.1-0.1,0.1
					c0,0-0.1,0.1-0.1,0.1h-1.6C146.4,164.9,146,164.8,145.7,164.5z M148,161.5L148,161.5c0-0.4-0.1-0.7-0.3-0.9
					c-0.2-0.2-0.5-0.3-0.8-0.3s-0.6,0.1-0.8,0.3c-0.2,0.2-0.3,0.5-0.3,0.8v0.1H148z"/>
				<path d="M150.3,164.8c0,0-0.1-0.1-0.1-0.1v-0.7c0-0.1,0-0.1,0.1-0.1c0,0,0.1-0.1,0.1-0.1h0.8v-3.4h-0.8c-0.1,0-0.1,0-0.1-0.1
					c0,0-0.1-0.1-0.1-0.1v-0.7c0-0.1,0-0.1,0.1-0.1c0,0,0.1-0.1,0.1-0.1h1.5c0.1,0,0.2,0,0.3,0.1c0.1,0.1,0.1,0.2,0.1,0.3v0.4
					l0.5-0.4c0.2-0.2,0.4-0.3,0.5-0.3c0.1-0.1,0.3-0.1,0.5-0.1h0.3c0.1,0,0.1,0,0.1,0.1c0,0,0.1,0.1,0.1,0.1v0.8
					c0,0.1,0,0.1-0.1,0.1c0,0-0.1,0.1-0.1,0.1h-0.3c-0.2,0-0.3,0-0.4,0.1s-0.3,0.2-0.6,0.4l-0.5,0.4v2.5h1c0.1,0,0.1,0,0.1,0.1
					c0,0,0.1,0.1,0.1,0.1v0.7c0,0.1,0,0.1-0.1,0.1c0,0-0.1,0.1-0.1,0.1h-2.9C150.4,164.9,150.4,164.8,150.3,164.8z"/>
				<path d="M156.4,164.5c-0.4-0.2-0.6-0.5-0.9-0.9c-0.2-0.4-0.3-0.8-0.3-1.2v-1.1c0-0.4,0.1-0.8,0.3-1.2c0.2-0.4,0.5-0.6,0.9-0.9
					s0.8-0.3,1.2-0.3s0.8,0.1,1.2,0.3s0.6,0.5,0.9,0.9s0.3,0.8,0.3,1.2v0.7c0,0.1,0,0.2-0.1,0.3c-0.1,0.1-0.2,0.1-0.3,0.1h-3.1v0
					c0,0.3,0.1,0.6,0.3,0.8c0.2,0.2,0.5,0.3,0.8,0.3h1.6c0.1,0,0.1,0,0.1,0.1c0,0,0.1,0.1,0.1,0.1v0.7c0,0.1,0,0.1-0.1,0.1
					c0,0-0.1,0.1-0.1,0.1h-1.6C157.2,164.9,156.8,164.8,156.4,164.5z M158.8,161.5L158.8,161.5c0-0.4-0.1-0.7-0.3-0.9
					c-0.2-0.2-0.5-0.3-0.8-0.3s-0.6,0.1-0.8,0.3c-0.2,0.2-0.3,0.5-0.3,0.8v0.1H158.8z"/>
				<path d="M161.6,164.8c-0.2-0.2-0.2-0.4-0.2-0.6c0-0.2,0.1-0.4,0.2-0.6c0.2-0.2,0.4-0.2,0.6-0.2c0.2,0,0.4,0.1,0.6,0.2
					c0.2,0.2,0.2,0.4,0.2,0.6c0,0.2-0.1,0.4-0.2,0.6c-0.2,0.2-0.3,0.2-0.6,0.2C162,165,161.8,165,161.6,164.8z M161.7,162.7
					c0,0-0.1-0.1-0.1-0.1V158c0-0.1,0-0.1,0.1-0.1c0,0,0.1-0.1,0.1-0.1h0.8c0.1,0,0.1,0,0.1,0.1c0,0,0.1,0.1,0.1,0.1v4.6
					c0,0.1,0,0.1-0.1,0.1c0,0-0.1,0.1-0.1,0.1h-0.8C161.8,162.8,161.7,162.8,161.7,162.7z"/>
			</g>
			<text transform="matrix(1 0 0 1 71.24 161.34)" class="st10 st11">15</text>
			
				<image style="overflow:visible;opacity:0.64;enable-background:new    ;" width="194" height="48" xlink:href="29654F4F.png"  transform="matrix(1 0 0 1 63.09 369.08)">
			</image>
			
				<linearGradient id="SVGID_3_" gradientUnits="userSpaceOnUse" x1="157.85" y1="325.8998" x2="157.85" y2="291.4998" gradientTransform="matrix(1 0 0 -1 0 699.8898)">
				<stop  offset="0" style="stop-color:#E888E8"/>
				<stop  offset="1" style="stop-color:#EB3BE5"/>
			</linearGradient>
			<path class="st12" d="M78.3,374h159.1c5.9,0,10.6,4.8,10.6,10.6v13.1c0,5.9-4.8,10.6-10.6,10.6H78.3c-5.9,0-10.6-4.8-10.6-10.6
				v-13.1C67.7,378.8,72.4,374,78.3,374z"/>
			
				<linearGradient id="SVGID_4_" gradientUnits="userSpaceOnUse" x1="67.65" y1="308.6998" x2="248.05" y2="308.6998" gradientTransform="matrix(1 0 0 -1 0 699.8898)">
				<stop  offset="0" style="stop-color:#FF95FF"/>
				<stop  offset="1" style="stop-color:#FFFFFF"/>
			</linearGradient>
			<path class="st13" d="M78.3,374h159.1c5.9,0,10.6,4.8,10.6,10.6v13.1c0,5.9-4.8,10.6-10.6,10.6H78.3c-5.9,0-10.6-4.8-10.6-10.6
				v-13.1C67.7,378.8,72.4,374,78.3,374z"/>
			<g class="st9">
				<path d="M101.7,389c-0.1-0.1-0.1-0.2-0.1-0.3v-6h-0.9c-0.1,0-0.1,0-0.1-0.1c0,0-0.1-0.1-0.1-0.1v-0.7c0-0.1,0-0.1,0.1-0.1
					s0.1-0.1,0.1-0.1h1.7c0.1,0,0.2,0,0.3,0.1c0.1,0.1,0.1,0.2,0.1,0.3v6h0.9c0.1,0,0.1,0,0.1,0.1c0,0,0.1,0.1,0.1,0.1v0.7
					c0,0.1,0,0.1-0.1,0.1c0,0-0.1,0.1-0.1,0.1H102C101.9,389.1,101.8,389,101.7,389z"/>
				<path d="M105.7,388.9c-0.1-0.1-0.1-0.2-0.1-0.4v-4h-0.8c-0.1,0-0.1,0-0.1-0.1c0,0-0.1-0.1-0.1-0.1v-0.7c0-0.1,0-0.1,0.1-0.1
					c0,0,0.1-0.1,0.1-0.1h1.5c0.1,0,0.3,0,0.4,0.1c0.1,0.1,0.1,0.2,0.1,0.4v4h0.8c0.1,0,0.1,0,0.1,0.1c0,0,0.1,0.1,0.1,0.1v0.7
					c0,0.1,0,0.1-0.1,0.1c0,0-0.1,0.1-0.1,0.1h-1.5C105.9,389.1,105.8,389,105.7,388.9z M105.7,382.7c0,0-0.1-0.1-0.1-0.1v-1.1
					c0-0.1,0-0.1,0.1-0.1c0,0,0.1-0.1,0.1-0.1h0.7c0.1,0,0.1,0,0.1,0.1c0,0,0.1,0.1,0.1,0.1v1.1c0,0.1,0,0.1-0.1,0.1
					c0,0-0.1,0.1-0.1,0.1h-0.7C105.8,382.8,105.7,382.7,105.7,382.7z"/>
				<path d="M110.3,389.1c-0.2,0-0.3-0.1-0.3-0.2l-1.7-5.2c0,0,0-0.1,0-0.1c0-0.1,0-0.1,0.1-0.2c0,0,0.1-0.1,0.2-0.1h0.7
					c0.1,0,0.1,0,0.2,0.1c0.1,0,0.1,0.1,0.1,0.2l1.2,4l1.1-4c0-0.1,0.1-0.1,0.1-0.2c0.1,0,0.1-0.1,0.2-0.1h0.7c0.1,0,0.1,0,0.2,0.1
					c0.1,0,0.1,0.1,0.1,0.2l1.2,4l1.1-4c0-0.1,0.1-0.1,0.1-0.2c0.1,0,0.1-0.1,0.2-0.1h0.6c0.1,0,0.1,0,0.2,0.1c0,0,0.1,0.1,0.1,0.2
					c0,0,0,0,0,0.1l-1.6,5.2c0,0.1-0.1,0.1-0.1,0.2c-0.1,0-0.1,0.1-0.2,0.1l-0.8,0c-0.1,0-0.1,0-0.2-0.1c-0.1,0-0.1-0.1-0.1-0.2
					l-1.1-3.7l-1,3.7c0,0.1-0.1,0.1-0.1,0.2c-0.1,0-0.1,0.1-0.2,0.1L110.3,389.1z"/>
				<path d="M118.4,388.9c-0.1-0.1-0.1-0.2-0.1-0.4v-4h-0.8c-0.1,0-0.1,0-0.1-0.1c0,0-0.1-0.1-0.1-0.1v-0.7c0-0.1,0-0.1,0.1-0.1
					c0,0,0.1-0.1,0.1-0.1h1.5c0.1,0,0.3,0,0.4,0.1c0.1,0.1,0.1,0.2,0.1,0.4v4h0.8c0.1,0,0.1,0,0.1,0.1c0,0,0.1,0.1,0.1,0.1v0.7
					c0,0.1,0,0.1-0.1,0.1c0,0-0.1,0.1-0.1,0.1h-1.5C118.7,389.1,118.5,389,118.4,388.9z M118.4,382.7c0,0-0.1-0.1-0.1-0.1v-1.1
					c0-0.1,0-0.1,0.1-0.1c0,0,0.1-0.1,0.1-0.1h0.7c0.1,0,0.1,0,0.1,0.1c0,0,0.1,0.1,0.1,0.1v1.1c0,0.1,0,0.1-0.1,0.1
					c0,0-0.1,0.1-0.1,0.1h-0.7C118.5,382.8,118.5,382.7,118.4,382.7z"/>
				<path d="M124.9,388.9c-0.3-0.2-0.5-0.4-0.7-0.7c-0.2-0.3-0.3-0.7-0.3-1.1v-3.5c0-0.1,0-0.1,0.1-0.1c0,0,0.1-0.1,0.1-0.1h0.8
					c0.1,0,0.1,0,0.1,0.1c0,0,0.1,0.1,0.1,0.1v3.4c0,0.3,0.1,0.6,0.3,0.8c0.2,0.2,0.4,0.3,0.8,0.3c0.4,0,0.7-0.1,0.9-0.4
					c0.2-0.3,0.3-0.6,0.3-1v-3c0-0.1,0-0.1,0.1-0.1c0,0,0.1-0.1,0.1-0.1h0.8c0.1,0,0.1,0,0.1,0.1c0,0,0.1,0.1,0.1,0.1v5.2
					c0,0.1,0,0.1-0.1,0.1c0,0-0.1,0.1-0.1,0.1h-0.8c-0.1,0-0.1,0-0.1-0.1c0,0-0.1-0.1-0.1-0.1v-0.5c-0.2,0.3-0.4,0.4-0.7,0.6
					s-0.5,0.2-0.8,0.2C125.5,389.2,125.2,389.1,124.9,388.9z"/>
				<path d="M130.8,389c-0.3-0.1-0.6-0.3-0.9-0.5c0,0-0.1-0.1-0.1-0.1c0,0,0-0.1,0-0.1c0-0.1,0.2-0.3,0.3-0.6
					c0.1-0.1,0.1-0.1,0.2-0.1c0,0,0.1,0,0.1,0c0.2,0.2,0.5,0.3,0.7,0.4c0.2,0.1,0.4,0.1,0.7,0.1c0.3,0,0.5-0.1,0.6-0.2
					c0.1-0.1,0.2-0.2,0.2-0.4c0-0.2-0.1-0.3-0.2-0.4c-0.1-0.1-0.4-0.2-0.7-0.3l-0.4-0.1c-0.3-0.1-0.5-0.2-0.7-0.4
					c-0.2-0.1-0.4-0.3-0.5-0.5c-0.1-0.2-0.2-0.5-0.2-0.8c0-0.5,0.2-0.9,0.5-1.2c0.3-0.3,0.8-0.5,1.4-0.5c0.3,0,0.7,0.1,1,0.2
					c0.3,0.1,0.6,0.3,0.8,0.5c0,0,0.1,0.1,0.1,0.1c0,0,0,0.1,0,0.1c-0.1,0.1-0.2,0.3-0.3,0.6c0,0.1-0.1,0.1-0.2,0.1c0,0-0.1,0-0.1,0
					c-0.5-0.3-0.9-0.4-1.3-0.4c-0.2,0-0.4,0-0.5,0.1s-0.2,0.2-0.2,0.4c0,0.2,0.1,0.3,0.2,0.4c0.1,0.1,0.4,0.2,0.8,0.4
					c0.4,0.1,0.7,0.3,0.9,0.4c0.2,0.1,0.4,0.3,0.6,0.5c0.2,0.2,0.3,0.5,0.3,0.9c0,0.3-0.1,0.6-0.3,0.9c-0.2,0.3-0.4,0.5-0.7,0.6
					c-0.3,0.1-0.7,0.2-1.1,0.2C131.5,389.2,131.1,389.2,130.8,389z"/>
				<path d="M136.1,388.8c-0.4-0.2-0.6-0.5-0.9-0.9c-0.2-0.4-0.3-0.8-0.3-1.2v-1.1c0-0.4,0.1-0.8,0.3-1.2c0.2-0.4,0.5-0.6,0.9-0.9
					s0.8-0.3,1.2-0.3s0.8,0.1,1.2,0.3s0.6,0.5,0.9,0.9s0.3,0.8,0.3,1.2v0.7c0,0.1,0,0.2-0.1,0.3c-0.1,0.1-0.2,0.1-0.3,0.1h-3.1v0
					c0,0.3,0.1,0.6,0.3,0.8c0.2,0.2,0.5,0.3,0.8,0.3h1.6c0.1,0,0.1,0,0.1,0.1c0,0,0.1,0.1,0.1,0.1v0.7c0,0.1,0,0.1-0.1,0.1
					c0,0-0.1,0.1-0.1,0.1h-1.6C136.8,389.1,136.4,389,136.1,388.8z M138.4,385.7L138.4,385.7c0-0.4-0.1-0.7-0.3-0.9
					c-0.2-0.2-0.5-0.3-0.8-0.3s-0.6,0.1-0.8,0.3c-0.2,0.2-0.3,0.5-0.3,0.8v0.1H138.4z"/>
				<path d="M140.7,389c0,0-0.1-0.1-0.1-0.1v-0.7c0-0.1,0-0.1,0.1-0.1c0,0,0.1-0.1,0.1-0.1h0.8v-3.4h-0.8c-0.1,0-0.1,0-0.1-0.1
					c0,0-0.1-0.1-0.1-0.1v-0.7c0-0.1,0-0.1,0.1-0.1c0,0,0.1-0.1,0.1-0.1h1.5c0.1,0,0.2,0,0.3,0.1c0.1,0.1,0.1,0.2,0.1,0.3v0.4
					l0.5-0.4c0.2-0.2,0.4-0.3,0.5-0.3c0.1-0.1,0.3-0.1,0.5-0.1h0.3c0.1,0,0.1,0,0.1,0.1c0,0,0.1,0.1,0.1,0.1v0.8
					c0,0.1,0,0.1-0.1,0.1c0,0-0.1,0.1-0.1,0.1h-0.3c-0.2,0-0.3,0-0.4,0.1s-0.3,0.2-0.6,0.4l-0.5,0.4v2.5h1c0.1,0,0.1,0,0.1,0.1
					c0,0,0.1,0.1,0.1,0.1v0.7c0,0.1,0,0.1-0.1,0.1c0,0-0.1,0.1-0.1,0.1h-2.9C140.8,389.1,140.7,389.1,140.7,389z"/>
				<path d="M146.5,389c-0.3-0.1-0.6-0.3-0.9-0.5c0,0-0.1-0.1-0.1-0.1c0,0,0-0.1,0-0.1c0-0.1,0.2-0.3,0.3-0.6
					c0.1-0.1,0.1-0.1,0.2-0.1c0,0,0.1,0,0.1,0c0.2,0.2,0.5,0.3,0.7,0.4c0.2,0.1,0.4,0.1,0.7,0.1c0.3,0,0.5-0.1,0.6-0.2
					c0.1-0.1,0.2-0.2,0.2-0.4c0-0.2-0.1-0.3-0.2-0.4c-0.1-0.1-0.4-0.2-0.7-0.3l-0.4-0.1c-0.3-0.1-0.5-0.2-0.7-0.4
					c-0.2-0.1-0.4-0.3-0.5-0.5c-0.1-0.2-0.2-0.5-0.2-0.8c0-0.5,0.2-0.9,0.5-1.2c0.3-0.3,0.8-0.5,1.4-0.5c0.3,0,0.7,0.1,1,0.2
					c0.3,0.1,0.6,0.3,0.8,0.5c0,0,0.1,0.1,0.1,0.1c0,0,0,0.1,0,0.1c-0.1,0.1-0.2,0.3-0.3,0.6c0,0.1-0.1,0.1-0.2,0.1c0,0-0.1,0-0.1,0
					c-0.5-0.3-0.9-0.4-1.3-0.4c-0.2,0-0.4,0-0.5,0.1s-0.2,0.2-0.2,0.4c0,0.2,0.1,0.3,0.2,0.4c0.1,0.1,0.4,0.2,0.8,0.4
					c0.4,0.1,0.7,0.3,0.9,0.4c0.2,0.1,0.4,0.3,0.6,0.5c0.2,0.2,0.3,0.5,0.3,0.9c0,0.3-0.1,0.6-0.3,0.9c-0.2,0.3-0.4,0.5-0.7,0.6
					c-0.3,0.1-0.7,0.2-1.1,0.2C147.1,389.2,146.8,389.2,146.5,389z"/>
				<path d="M153.4,388.7c-0.3-0.3-0.5-0.7-0.5-1.2c0-0.5,0.2-0.8,0.5-1.1c0.3-0.3,0.8-0.5,1.3-0.6c0.1,0,0.3,0,0.4-0.1
					c0.5-0.1,0.7-0.1,0.8-0.1c0.2,0,0.4-0.2,0.4-0.4c0-0.2-0.1-0.4-0.3-0.6c-0.2-0.1-0.5-0.2-0.8-0.2c-0.5,0-0.9,0.2-1.2,0.6
					c-0.1,0.1-0.1,0.1-0.2,0.1c-0.1,0-0.1,0-0.1,0l-0.6-0.4c-0.1,0-0.1-0.1-0.1-0.2c0,0,0,0,0-0.1c0.2-0.4,0.5-0.6,0.8-0.8
					s0.8-0.3,1.3-0.3c0.4,0,0.8,0.1,1.1,0.2c0.3,0.2,0.6,0.4,0.8,0.7c0.2,0.3,0.3,0.7,0.3,1v3.6c0,0.1,0,0.1-0.1,0.1
					c0,0-0.1,0.1-0.1,0.1h-0.7c-0.1,0-0.1,0-0.1-0.1c0,0-0.1-0.1-0.1-0.2v-0.4c-0.5,0.5-1,0.7-1.6,0.7
					C154.2,389.2,153.7,389.1,153.4,388.7z M155.5,388c0.2-0.1,0.4-0.3,0.6-0.5c0.1-0.2,0.2-0.4,0.2-0.7v-0.2l-0.7,0.1
					c-0.4,0-0.7,0.1-0.8,0.1c-0.5,0.1-0.8,0.3-0.8,0.7c0,0.2,0.1,0.4,0.2,0.5c0.2,0.1,0.4,0.2,0.6,0.2
					C155.1,388.2,155.3,388.1,155.5,388z"/>
				<path d="M158.7,389c0,0-0.1-0.1-0.1-0.1v-0.7c0-0.1,0-0.1,0.1-0.1c0,0,0.1-0.1,0.1-0.1h0.8v-3.4h-0.8c-0.1,0-0.1,0-0.1-0.1
					c0,0-0.1-0.1-0.1-0.1v-0.7c0-0.1,0-0.1,0.1-0.1c0,0,0.1-0.1,0.1-0.1h1.5c0.1,0,0.2,0,0.3,0.1c0.1,0.1,0.1,0.2,0.1,0.3v0.4
					l0.5-0.4c0.2-0.2,0.4-0.3,0.5-0.3c0.1-0.1,0.3-0.1,0.5-0.1h0.3c0.1,0,0.1,0,0.1,0.1c0,0,0.1,0.1,0.1,0.1v0.8
					c0,0.1,0,0.1-0.1,0.1c0,0-0.1,0.1-0.1,0.1h-0.3c-0.2,0-0.3,0-0.4,0.1s-0.3,0.2-0.6,0.4l-0.5,0.4v2.5h1c0.1,0,0.1,0,0.1,0.1
					c0,0,0.1,0.1,0.1,0.1v0.7c0,0.1,0,0.1-0.1,0.1c0,0-0.1,0.1-0.1,0.1h-2.9C158.8,389.1,158.8,389.1,158.7,389z"/>
				<path d="M164.8,388.8c-0.4-0.2-0.6-0.5-0.9-0.9c-0.2-0.4-0.3-0.8-0.3-1.2v-1.1c0-0.4,0.1-0.8,0.3-1.2c0.2-0.4,0.5-0.6,0.9-0.9
					s0.8-0.3,1.2-0.3s0.8,0.1,1.2,0.3s0.6,0.5,0.9,0.9s0.3,0.8,0.3,1.2v0.7c0,0.1,0,0.2-0.1,0.3c-0.1,0.1-0.2,0.1-0.3,0.1h-3.1v0
					c0,0.3,0.1,0.6,0.3,0.8c0.2,0.2,0.5,0.3,0.8,0.3h1.6c0.1,0,0.1,0,0.1,0.1c0,0,0.1,0.1,0.1,0.1v0.7c0,0.1,0,0.1-0.1,0.1
					c0,0-0.1,0.1-0.1,0.1H166C165.6,389.1,165.2,389,164.8,388.8z M167.2,385.7L167.2,385.7c0-0.4-0.1-0.7-0.3-0.9
					c-0.2-0.2-0.5-0.3-0.8-0.3s-0.6,0.1-0.8,0.3c-0.2,0.2-0.3,0.5-0.3,0.8v0.1H167.2z"/>
				<path d="M173.1,388.9c-0.4-0.2-0.6-0.5-0.9-0.9c-0.2-0.4-0.3-0.8-0.3-1.2v-1.2c0-0.4,0.1-0.8,0.3-1.2c0.2-0.4,0.5-0.6,0.9-0.9
					c0.4-0.2,0.8-0.3,1.2-0.3c0.3,0,0.6,0.1,0.9,0.2s0.6,0.3,0.8,0.6c0,0,0.1,0.1,0.1,0.2c0,0.1,0,0.1-0.1,0.2l-0.4,0.4
					c0,0-0.1,0.1-0.2,0.1s-0.1,0-0.2-0.1c-0.3-0.3-0.6-0.4-1-0.4c-0.3,0-0.6,0.1-0.8,0.3s-0.3,0.5-0.3,0.8v1.3
					c0,0.3,0.1,0.6,0.3,0.8s0.5,0.3,0.8,0.3c0.4,0,0.7-0.1,1-0.4c0.1-0.1,0.1-0.1,0.2-0.1s0.1,0,0.2,0.1l0.4,0.4
					c0.1,0.1,0.1,0.1,0.1,0.2c0,0.1,0,0.1-0.1,0.2c-0.2,0.2-0.5,0.4-0.8,0.6s-0.6,0.2-0.9,0.2C173.8,389.2,173.4,389.1,173.1,388.9z
					"/>
				<path d="M178.1,388.9c-0.3-0.2-0.5-0.4-0.7-0.7c-0.2-0.3-0.3-0.7-0.3-1.1v-3.5c0-0.1,0-0.1,0.1-0.1c0,0,0.1-0.1,0.1-0.1h0.8
					c0.1,0,0.1,0,0.1,0.1c0,0,0.1,0.1,0.1,0.1v3.4c0,0.3,0.1,0.6,0.3,0.8c0.2,0.2,0.4,0.3,0.8,0.3c0.4,0,0.7-0.1,0.9-0.4
					c0.2-0.3,0.3-0.6,0.3-1v-3c0-0.1,0-0.1,0.1-0.1c0,0,0.1-0.1,0.1-0.1h0.8c0.1,0,0.1,0,0.1,0.1c0,0,0.1,0.1,0.1,0.1v5.2
					c0,0.1,0,0.1-0.1,0.1c0,0-0.1,0.1-0.1,0.1h-0.8c-0.1,0-0.1,0-0.1-0.1c0,0-0.1-0.1-0.1-0.1v-0.5c-0.2,0.3-0.4,0.4-0.7,0.6
					c-0.3,0.1-0.5,0.2-0.8,0.2C178.8,389.2,178.4,389.1,178.1,388.9z"/>
				<path d="M183.2,389c0,0-0.1-0.1-0.1-0.1v-0.7c0-0.1,0-0.1,0.1-0.1c0,0,0.1-0.1,0.1-0.1h0.8v-3.4h-0.8c-0.1,0-0.1,0-0.1-0.1
					c0,0-0.1-0.1-0.1-0.1v-0.7c0-0.1,0-0.1,0.1-0.1c0,0,0.1-0.1,0.1-0.1h1.5c0.1,0,0.2,0,0.3,0.1c0.1,0.1,0.1,0.2,0.1,0.3v0.4
					l0.5-0.4c0.2-0.2,0.4-0.3,0.5-0.3c0.1-0.1,0.3-0.1,0.5-0.1h0.3c0.1,0,0.1,0,0.1,0.1c0,0,0.1,0.1,0.1,0.1v0.8
					c0,0.1,0,0.1-0.1,0.1c0,0-0.1,0.1-0.1,0.1h-0.3c-0.2,0-0.3,0-0.4,0.1s-0.3,0.2-0.6,0.4l-0.5,0.4v2.5h1c0.1,0,0.1,0,0.1,0.1
					c0,0,0.1,0.1,0.1,0.1v0.7c0,0.1,0,0.1-0.1,0.1c0,0-0.1,0.1-0.1,0.1h-2.9C183.3,389.1,183.3,389.1,183.2,389z"/>
				<path d="M188.2,389c0,0-0.1-0.1-0.1-0.1v-0.7c0-0.1,0-0.1,0.1-0.1c0,0,0.1-0.1,0.1-0.1h0.8v-3.4h-0.8c-0.1,0-0.1,0-0.1-0.1
					c0,0-0.1-0.1-0.1-0.1v-0.7c0-0.1,0-0.1,0.1-0.1c0,0,0.1-0.1,0.1-0.1h1.5c0.1,0,0.2,0,0.3,0.1c0.1,0.1,0.1,0.2,0.1,0.3v0.4
					l0.5-0.4c0.2-0.2,0.4-0.3,0.5-0.3s0.3-0.1,0.5-0.1h0.3c0.1,0,0.1,0,0.1,0.1c0,0,0.1,0.1,0.1,0.1v0.8c0,0.1,0,0.1-0.1,0.1
					c0,0-0.1,0.1-0.1,0.1h-0.3c-0.2,0-0.3,0-0.4,0.1s-0.3,0.2-0.6,0.4l-0.5,0.4v2.5h1c0.1,0,0.1,0,0.1,0.1c0,0,0.1,0.1,0.1,0.1v0.7
					c0,0.1,0,0.1-0.1,0.1c0,0-0.1,0.1-0.1,0.1h-2.9C188.3,389.1,188.2,389.1,188.2,389z"/>
				<path d="M194.3,388.8c-0.4-0.2-0.6-0.5-0.9-0.9c-0.2-0.4-0.3-0.8-0.3-1.2v-1.1c0-0.4,0.1-0.8,0.3-1.2c0.2-0.4,0.5-0.6,0.9-0.9
					c0.4-0.2,0.8-0.3,1.2-0.3c0.4,0,0.8,0.1,1.2,0.3c0.4,0.2,0.6,0.5,0.9,0.9s0.3,0.8,0.3,1.2v0.7c0,0.1,0,0.2-0.1,0.3
					s-0.2,0.1-0.3,0.1h-3.1v0c0,0.3,0.1,0.6,0.3,0.8c0.2,0.2,0.5,0.3,0.8,0.3h1.6c0.1,0,0.1,0,0.1,0.1c0,0,0.1,0.1,0.1,0.1v0.7
					c0,0.1,0,0.1-0.1,0.1c0,0-0.1,0.1-0.1,0.1h-1.6C195,389.1,194.6,389,194.3,388.8z M196.6,385.7L196.6,385.7
					c0-0.4-0.1-0.7-0.3-0.9c-0.2-0.2-0.5-0.3-0.8-0.3c-0.3,0-0.6,0.1-0.8,0.3c-0.2,0.2-0.3,0.5-0.3,0.8v0.1H196.6z"/>
				<path d="M199.1,389c0,0-0.1-0.1-0.1-0.1v-5.2c0-0.1,0-0.1,0.1-0.1c0,0,0.1-0.1,0.1-0.1h0.8c0.1,0,0.1,0,0.1,0.1
					c0,0,0.1,0.1,0.1,0.1v0.5c0.2-0.3,0.4-0.4,0.7-0.6c0.3-0.1,0.5-0.2,0.8-0.2c0.4,0,0.7,0.1,1,0.3c0.3,0.2,0.5,0.4,0.7,0.7
					c0.2,0.3,0.3,0.7,0.3,1.1v3.5c0,0.1,0,0.1-0.1,0.1c0,0-0.1,0.1-0.1,0.1h-0.8c-0.1,0-0.1,0-0.1-0.1c0,0-0.1-0.1-0.1-0.1v-3.4
					c0-0.3-0.1-0.6-0.3-0.8s-0.4-0.3-0.8-0.3c-0.4,0-0.7,0.1-0.9,0.4c-0.2,0.3-0.3,0.6-0.3,1v3c0,0.1,0,0.1-0.1,0.1
					c0,0-0.1,0.1-0.1,0.1h-0.8C199.2,389.1,199.2,389.1,199.1,389z"/>
				<path d="M206.1,388.6c-0.3-0.3-0.5-0.7-0.5-1.2v-2.8h-0.7c-0.1,0-0.1,0-0.1-0.1c0,0-0.1-0.1-0.1-0.1v-0.7c0-0.1,0-0.1,0.1-0.1
					c0,0,0.1-0.1,0.1-0.1h0.7v-1.1c0-0.1,0-0.1,0.1-0.1c0,0,0.1-0.1,0.1-0.1h0.8c0.1,0,0.1,0,0.1,0.1c0,0,0.1,0.1,0.1,0.1v1.1h1.7
					c0.1,0,0.1,0,0.1,0.1c0,0,0.1,0.1,0.1,0.1v0.7c0,0.1,0,0.1-0.1,0.1c0,0-0.1,0.1-0.1,0.1h-1.7v2.8c0,0.2,0.1,0.4,0.2,0.5
					c0.1,0.1,0.3,0.2,0.5,0.2l1,0c0.1,0,0.1,0,0.1,0.1c0,0,0.1,0.1,0.1,0.1v0.7c0,0.1,0,0.1-0.1,0.1c0,0-0.1,0.1-0.1,0.1h-1.1
					C206.8,389.1,206.4,388.9,206.1,388.6z"/>
				<path d="M210.6,389c-0.1-0.1-0.1-0.2-0.1-0.3v-6h-0.9c-0.1,0-0.1,0-0.1-0.1c0,0-0.1-0.1-0.1-0.1v-0.7c0-0.1,0-0.1,0.1-0.1
					c0,0,0.1-0.1,0.1-0.1h1.7c0.1,0,0.2,0,0.3,0.1c0.1,0.1,0.1,0.2,0.1,0.3v6h0.9c0.1,0,0.1,0,0.1,0.1c0,0,0.1,0.1,0.1,0.1v0.7
					c0,0.1,0,0.1-0.1,0.1c0,0-0.1,0.1-0.1,0.1h-1.7C210.7,389.1,210.6,389,210.6,389z"/>
				<path d="M214.7,390.9c0-0.1,0-0.1,0-0.2l0.5-1.5l-1.9-5.5c0,0,0-0.1,0-0.1c0-0.1,0-0.1,0.1-0.2s0.1-0.1,0.2-0.1h0.7
					c0.1,0,0.1,0,0.2,0.1c0.1,0,0.1,0.1,0.1,0.2l1.3,3.9l1.3-3.9c0-0.1,0.1-0.1,0.1-0.2c0.1,0,0.1-0.1,0.2-0.1h0.6
					c0.1,0,0.1,0,0.2,0.1s0.1,0.1,0.1,0.2c0,0,0,0,0,0.1l-2.5,7c0,0.1-0.1,0.1-0.1,0.2c-0.1,0-0.1,0.1-0.2,0.1h-0.7
					C214.8,391,214.7,391,214.7,390.9z"/>
			</g>
			<g class="st9">
				<path d="M102.6,401c-0.2,0-0.3-0.1-0.3-0.2l-1.7-5.2c0,0,0-0.1,0-0.1c0-0.1,0-0.1,0.1-0.2c0,0,0.1-0.1,0.2-0.1h0.7
					c0.1,0,0.1,0,0.2,0.1c0.1,0,0.1,0.1,0.1,0.2l1.2,4l1.1-4c0-0.1,0.1-0.1,0.1-0.2c0.1,0,0.1-0.1,0.2-0.1h0.7c0.1,0,0.1,0,0.2,0.1
					c0.1,0,0.1,0.1,0.1,0.2l1.2,4l1.1-4c0-0.1,0.1-0.1,0.1-0.2c0.1,0,0.1-0.1,0.2-0.1h0.6c0.1,0,0.1,0,0.2,0.1c0,0,0.1,0.1,0.1,0.2
					c0,0,0,0,0,0.1l-1.6,5.2c0,0.1-0.1,0.1-0.1,0.2c-0.1,0-0.1,0.1-0.2,0.1l-0.8,0c-0.1,0-0.1,0-0.2-0.1c-0.1,0-0.1-0.1-0.1-0.2
					l-1.1-3.7l-1,3.7c0,0.1-0.1,0.1-0.1,0.2c-0.1,0-0.1,0.1-0.2,0.1L102.6,401z"/>
				<path d="M110.9,400.8c-0.4-0.2-0.6-0.5-0.9-0.8c-0.2-0.4-0.3-0.7-0.3-1.2v-1.3c0-0.4,0.1-0.8,0.3-1.2c0.2-0.4,0.5-0.6,0.9-0.8
					c0.4-0.2,0.8-0.3,1.2-0.3s0.8,0.1,1.2,0.3c0.4,0.2,0.6,0.5,0.9,0.8s0.3,0.7,0.3,1.2v1.3c0,0.4-0.1,0.8-0.3,1.2s-0.5,0.6-0.9,0.8
					c-0.4,0.2-0.8,0.3-1.2,0.3S111.3,401,110.9,400.8z M112.9,399.6c0.2-0.2,0.3-0.5,0.3-0.8v-1.3c0-0.3-0.1-0.6-0.3-0.8
					c-0.2-0.2-0.5-0.3-0.8-0.3s-0.6,0.1-0.8,0.3c-0.2,0.2-0.3,0.5-0.3,0.8v1.3c0,0.3,0.1,0.6,0.3,0.8c0.2,0.2,0.5,0.3,0.8,0.3
					S112.7,399.8,112.9,399.6z"/>
				<path d="M115.6,400.9c0,0-0.1-0.1-0.1-0.1V400c0-0.1,0-0.1,0.1-0.1c0,0,0.1-0.1,0.1-0.1h0.8v-3.4h-0.8c-0.1,0-0.1,0-0.1-0.1
					c0,0-0.1-0.1-0.1-0.1v-0.7c0-0.1,0-0.1,0.1-0.1c0,0,0.1-0.1,0.1-0.1h1.5c0.1,0,0.2,0,0.3,0.1c0.1,0.1,0.1,0.2,0.1,0.3v0.4
					l0.5-0.4c0.2-0.2,0.4-0.3,0.5-0.3c0.1-0.1,0.3-0.1,0.5-0.1h0.3c0.1,0,0.1,0,0.1,0.1c0,0,0.1,0.1,0.1,0.1v0.8
					c0,0.1,0,0.1-0.1,0.1c0,0-0.1,0.1-0.1,0.1h-0.3c-0.2,0-0.3,0-0.4,0.1s-0.3,0.2-0.6,0.4l-0.5,0.4v2.5h1c0.1,0,0.1,0,0.1,0.1
					c0,0,0.1,0.1,0.1,0.1v0.7c0,0.1,0,0.1-0.1,0.1c0,0-0.1,0.1-0.1,0.1h-2.9C115.7,400.9,115.7,400.9,115.6,400.9z"/>
				<path d="M120.8,400.9c0,0-0.1-0.1-0.1-0.1v-7.2c0-0.1,0-0.1,0.1-0.1s0.1-0.1,0.1-0.1h0.8c0.1,0,0.1,0,0.1,0.1s0.1,0.1,0.1,0.1
					v3.7h0.3l1.8-1.9c0.1-0.1,0.2-0.1,0.3-0.1h0.9c0.1,0,0.1,0,0.1,0.1s0.1,0.1,0.1,0.1c0,0,0,0.1-0.1,0.1l-2.1,2.2l2.3,2.8
					c0,0,0,0.1,0,0.1c0,0.1,0,0.1,0,0.1c0,0-0.1,0-0.1,0h-0.9c-0.1,0-0.2,0-0.3-0.1l-1.9-2.4h-0.3v2.3c0,0.1,0,0.1-0.1,0.1
					c0,0-0.1,0.1-0.1,0.1h-0.8C120.9,400.9,120.8,400.9,120.8,400.9z"/>
				<path d="M127.3,400.8c-0.1-0.1-0.1-0.2-0.1-0.4v-4h-0.8c-0.1,0-0.1,0-0.1-0.1c0,0-0.1-0.1-0.1-0.1v-0.7c0-0.1,0-0.1,0.1-0.1
					c0,0,0.1-0.1,0.1-0.1h1.5c0.1,0,0.3,0,0.4,0.1c0.1,0.1,0.1,0.2,0.1,0.4v4h0.8c0.1,0,0.1,0,0.1,0.1c0,0,0.1,0.1,0.1,0.1v0.7
					c0,0.1,0,0.1-0.1,0.1c0,0-0.1,0.1-0.1,0.1h-1.5C127.5,400.9,127.4,400.9,127.3,400.8z M127.3,394.6c0,0-0.1-0.1-0.1-0.1v-1.1
					c0-0.1,0-0.1,0.1-0.1c0,0,0.1-0.1,0.1-0.1h0.7c0.1,0,0.1,0,0.1,0.1c0,0,0.1,0.1,0.1,0.1v1.1c0,0.1,0,0.1-0.1,0.1
					c0,0-0.1,0.1-0.1,0.1h-0.7C127.4,394.6,127.3,394.6,127.3,394.6z"/>
				<path d="M130.5,400.9c0,0-0.1-0.1-0.1-0.1v-5.2c0-0.1,0-0.1,0.1-0.1c0,0,0.1-0.1,0.1-0.1h0.8c0.1,0,0.1,0,0.1,0.1
					c0,0,0.1,0.1,0.1,0.1v0.5c0.2-0.3,0.4-0.4,0.7-0.6s0.5-0.2,0.8-0.2c0.4,0,0.7,0.1,1,0.3c0.3,0.2,0.5,0.4,0.7,0.7
					c0.2,0.3,0.3,0.7,0.3,1.1v3.5c0,0.1,0,0.1-0.1,0.1c0,0-0.1,0.1-0.1,0.1h-0.8c-0.1,0-0.1,0-0.1-0.1c0,0-0.1-0.1-0.1-0.1v-3.4
					c0-0.3-0.1-0.6-0.3-0.8s-0.4-0.3-0.8-0.3c-0.4,0-0.7,0.1-0.9,0.4c-0.2,0.3-0.3,0.6-0.3,1v3c0,0.1,0,0.1-0.1,0.1
					c0,0-0.1,0.1-0.1,0.1h-0.8C130.6,400.9,130.5,400.9,130.5,400.9z"/>
				<path d="M136.9,402.6c-0.4-0.2-0.6-0.6-0.6-1.1c0-0.4,0.1-0.7,0.4-0.9c-0.2-0.2-0.4-0.5-0.4-0.8c0-0.2,0.1-0.4,0.2-0.6
					c0.1-0.2,0.3-0.4,0.4-0.5c-0.2-0.2-0.4-0.4-0.5-0.6c-0.1-0.3-0.2-0.5-0.2-0.8c0-0.4,0.1-0.8,0.3-1.1s0.5-0.5,0.8-0.7
					s0.7-0.3,1.1-0.3c0.3,0,0.6,0,0.8,0.1h1.9c0.1,0,0.1,0,0.1,0.1c0,0,0.1,0.1,0.1,0.1v0.7c0,0.1,0,0.1-0.1,0.1
					c0,0-0.1,0.1-0.1,0.1h-0.8c0.1,0.3,0.2,0.5,0.2,0.8c0,0.4-0.1,0.7-0.3,1.1c-0.2,0.3-0.5,0.5-0.8,0.7c-0.3,0.2-0.7,0.3-1.1,0.3
					c-0.3,0-0.6-0.1-0.9-0.2c-0.1,0.1-0.2,0.3-0.2,0.4c0,0.1,0,0.2,0.1,0.3c0.1,0,0.2,0.1,0.4,0.1c0.3,0,0.5,0,0.8,0l0.4,0
					c0.6,0,1,0.1,1.3,0.3s0.5,0.5,0.5,1c0,0.6-0.2,1-0.7,1.3c-0.5,0.3-1.1,0.4-1.9,0.4C137.9,403,137.3,402.9,136.9,402.6z
					 M139.9,401.4c0-0.2-0.1-0.3-0.2-0.3s-0.3-0.1-0.5-0.1h-1c-0.2,0-0.4,0-0.6,0c-0.1,0.1-0.1,0.3-0.1,0.4c0,0.3,0.1,0.4,0.3,0.5
					c0.2,0.1,0.5,0.1,0.8,0.1C139.5,402,139.9,401.8,139.9,401.4z M139.2,397.9c0.2-0.2,0.3-0.4,0.3-0.7c0-0.3-0.1-0.5-0.3-0.7
					c-0.2-0.2-0.4-0.3-0.7-0.3s-0.6,0.1-0.7,0.3c-0.2,0.2-0.3,0.4-0.3,0.7c0,0.3,0.1,0.5,0.3,0.7c0.2,0.2,0.4,0.3,0.7,0.3
					S139.1,398.1,139.2,397.9z"/>
				<path d="M145,400.9c0,0-0.1-0.1-0.1-0.1v-7.2c0-0.1,0-0.1,0.1-0.1s0.1-0.1,0.1-0.1h0.8c0.1,0,0.1,0,0.1,0.1s0.1,0.1,0.1,0.1v2.2
					c0.2-0.2,0.4-0.3,0.7-0.5c0.2-0.1,0.5-0.2,0.8-0.2c0.4,0,0.8,0.1,1.1,0.3c0.3,0.2,0.6,0.4,0.7,0.7c0.2,0.3,0.3,0.7,0.3,1.1v3.5
					c0,0.1,0,0.1-0.1,0.1c0,0-0.1,0.1-0.1,0.1h-0.8c-0.1,0-0.1,0-0.1-0.1c0,0-0.1-0.1-0.1-0.1v-3.4c0-0.3-0.1-0.6-0.3-0.8
					s-0.4-0.3-0.8-0.3c-0.4,0-0.7,0.1-0.9,0.4c-0.2,0.3-0.3,0.6-0.3,1v3c0,0.1,0,0.1-0.1,0.1c0,0-0.1,0.1-0.1,0.1h-0.8
					C145.1,400.9,145,400.9,145,400.9z"/>
				<path d="M152,400.6c-0.4-0.2-0.6-0.5-0.9-0.9c-0.2-0.4-0.3-0.8-0.3-1.2v-1.1c0-0.4,0.1-0.8,0.3-1.2c0.2-0.4,0.5-0.6,0.9-0.9
					s0.8-0.3,1.2-0.3s0.8,0.1,1.2,0.3s0.6,0.5,0.9,0.9s0.3,0.8,0.3,1.2v0.7c0,0.1,0,0.2-0.1,0.3c-0.1,0.1-0.2,0.1-0.3,0.1H152v0
					c0,0.3,0.1,0.6,0.3,0.8c0.2,0.2,0.5,0.3,0.8,0.3h1.6c0.1,0,0.1,0,0.1,0.1c0,0,0.1,0.1,0.1,0.1v0.7c0,0.1,0,0.1-0.1,0.1
					c0,0-0.1,0.1-0.1,0.1h-1.6C152.7,400.9,152.3,400.8,152,400.6z M154.3,397.5L154.3,397.5c0-0.4-0.1-0.7-0.3-0.9
					c-0.2-0.2-0.5-0.3-0.8-0.3s-0.6,0.1-0.8,0.3c-0.2,0.2-0.3,0.5-0.3,0.8v0.1H154.3z"/>
				<path d="M156.6,400.9c0,0-0.1-0.1-0.1-0.1V400c0-0.1,0-0.1,0.1-0.1c0,0,0.1-0.1,0.1-0.1h0.8v-3.4h-0.8c-0.1,0-0.1,0-0.1-0.1
					c0,0-0.1-0.1-0.1-0.1v-0.7c0-0.1,0-0.1,0.1-0.1c0,0,0.1-0.1,0.1-0.1h1.5c0.1,0,0.2,0,0.3,0.1c0.1,0.1,0.1,0.2,0.1,0.3v0.4
					l0.5-0.4c0.2-0.2,0.4-0.3,0.5-0.3c0.1-0.1,0.3-0.1,0.5-0.1h0.3c0.1,0,0.1,0,0.1,0.1c0,0,0.1,0.1,0.1,0.1v0.8
					c0,0.1,0,0.1-0.1,0.1c0,0-0.1,0.1-0.1,0.1h-0.3c-0.2,0-0.3,0-0.4,0.1s-0.3,0.2-0.6,0.4l-0.5,0.4v2.5h1c0.1,0,0.1,0,0.1,0.1
					c0,0,0.1,0.1,0.1,0.1v0.7c0,0.1,0,0.1-0.1,0.1c0,0-0.1,0.1-0.1,0.1h-2.9C156.7,400.9,156.6,400.9,156.6,400.9z"/>
				<path d="M162.7,400.6c-0.4-0.2-0.6-0.5-0.9-0.9c-0.2-0.4-0.3-0.8-0.3-1.2v-1.1c0-0.4,0.1-0.8,0.3-1.2c0.2-0.4,0.5-0.6,0.9-0.9
					s0.8-0.3,1.2-0.3s0.8,0.1,1.2,0.3s0.6,0.5,0.9,0.9s0.3,0.8,0.3,1.2v0.7c0,0.1,0,0.2-0.1,0.3c-0.1,0.1-0.2,0.1-0.3,0.1h-3.1v0
					c0,0.3,0.1,0.6,0.3,0.8c0.2,0.2,0.5,0.3,0.8,0.3h1.6c0.1,0,0.1,0,0.1,0.1c0,0,0.1,0.1,0.1,0.1v0.7c0,0.1,0,0.1-0.1,0.1
					c0,0-0.1,0.1-0.1,0.1h-1.6C163.4,400.9,163,400.8,162.7,400.6z M165,397.5L165,397.5c0-0.4-0.1-0.7-0.3-0.9
					c-0.2-0.2-0.5-0.3-0.8-0.3s-0.6,0.1-0.8,0.3c-0.2,0.2-0.3,0.5-0.3,0.8v0.1H165z"/>
				<path d="M167.9,400.9c-0.2-0.2-0.2-0.4-0.2-0.6c0-0.2,0.1-0.4,0.2-0.6c0.2-0.2,0.4-0.2,0.6-0.2c0.2,0,0.4,0.1,0.6,0.2
					c0.2,0.2,0.2,0.4,0.2,0.6c0,0.2-0.1,0.4-0.2,0.6c-0.2,0.2-0.3,0.2-0.6,0.2C168.3,401.1,168.1,401,167.9,400.9z M168,398.8
					c0,0-0.1-0.1-0.1-0.1v-4.6c0-0.1,0-0.1,0.1-0.1c0,0,0.1-0.1,0.1-0.1h0.8c0.1,0,0.1,0,0.1,0.1c0,0,0.1,0.1,0.1,0.1v4.6
					c0,0.1,0,0.1-0.1,0.1c0,0-0.1,0.1-0.1,0.1h-0.8C168.1,398.9,168,398.8,168,398.8z"/>
			</g>
			<text transform="matrix(1 0 0 1 80.41 397.42)" class="st10 st11">4</text>
		</g>
	</g>
</g>
</svg>
